<svg viewBox="0 0 29342 28613" xmlns="http://www.w3.org/2000/svg" xml:space="preserve" fill-rule="evenodd" clip-rule="evenodd" stroke-linejoin="round" stroke-miterlimit="2"><path d="M26677 5782.12c-2650.71-3487.97-7094-5431.04-11717.8-4670.33-4245.12 698.404-7616.25 3507-9218.42 7176.54 1552.64-2961.77 4428.04-5184.71 7981.96-5769.38 4174.21-686.716 8185.5 1067.41 10578.5 4216.25 1052.69 1385.23 1792.73 3039.93 2094.82 4876.21 302.1 1836.27 131.184 3640.83-422.275 5290.29-1258.09 3749.53-4496.04 6696.29-8670.21 7383-3553.9 584.671-6989.92-599.929-9409.58-2908.18 2693.33 2962.87 6786.58 4543.46 11031.7 3845.05 4623.71-760.675 8210.33-4024.79 9603.92-8178.12 613.075-1827.1 802.396-3826.01 467.762-5860.04-334.62-2034.01-1154.36-3866.93-2320.42-5401.33l.021.042Z" fill-rule="nonzero"/><path d="M17132.3 3389.69c-1728.44-109.046-3436.27 170.033-4963.58 839.879-96.704 38.487-189.479 86.337-283.871 129.896l-140.991 66.562-138.229 72.221-138.159 71.946-69.204 35.571-67.687 38.491-270.313 154.046c-354.55 215.329-697.275 448.454-1022.8 703.383-80.366 65.055-162.308 127.971-241.425 194.375l-235.521 201.267c-152.237 139.583-305.137 278.333-448.245 427.171-290.05 293.246-565.988 601.096-814.896 930.104-1007.53 1307.01-1673.08 2870.82-1924.53 4518.25-125.767 823.892-148.459 1668.37-70.959 2509.88 7.954 105.521 22.259 210.246 33.092 315.767 14.967 104.737 27.692 210.154 44.567 314.979 16.212 104.933 32.829 210.088 53.333 314.5 18.575 104.929 40.9 209.096 62.342 313.833 45.958 208.492 95.504 417.171 153.891 624.013 53.646 208.679 122.375 412.829 187.309 620.033-439.43-747.966-754.288-1577.48-942.171-2439.58-187.171-862.758-246.388-1758.17-177.275-2648.05 35.4-444.809 100.191-888.992 203.733-1324.98l38.196-163.679c12.654-54.637 25.067-109.375 40.971-163.108l92.083-323.679c69.842-213.109 138.283-427.225 221.563-635.938l60.016-157.537c21.6-51.804 44.742-103.004 67.067-154.584l67.658-154.408 33.888-77.221 36.925-75.75 148.371-302.933 160.52-296.788c223.175-390.608 472.046-766.545 744.359-1124.89 1098.82-1425.07 2608.26-2534.48 4295.38-3125.3 105.625-36.075 210.696-73.454 316.996-107.029l321.095-92.934c106.788-31.287 215.971-54.271 323.63-81.65 54.079-12.866 107.758-27.05 162.325-37.829l163.716-31.442c217.379-45.087 437.429-75.35 656.563-105.07l330.312-31.98c54.842-6.145 110-9.341 165.192-11.925l165.362-8.283c880.867-38.854 1763.04 48.717 2599.39 280.4l.013.013ZM25096.2 24189.4c-66.25 58.975-133.104 117.258-200.38 175.017-12.5 10.746-25.016 21.512-37.57 32.225-68.68 58.558-137.692 116.733-207.413 174.008-1736.6 1426.3-3804.69 2452.74-5980.75 2968.35-496.283 117.621-1005.05 210.558-1512.17 276.2l-19.358 2.429c-627.029 80.225-1267.52 120.888-1903.94 120.888-1575.24 0-3125.66-245.384-4608.17-729.342-915.471-298.388-1806.72-689.288-2648.8-1161.88a14654 14654 0 0 1-183.788-104.929c-1333.87-771.025-2557.07-1721.67-3624.72-2811.41 1143.14 1384.2 2536.96 2553.73 4112.52 3438.26 819.792 460.054 1688.26 842.867 2596.2 1138.8 1422.15 464.254 2939.96 714.842 4517 714.842 638.871 0 1268.09-41.125 1885.12-120.884h.433c502.429-65.07 996.925-155.729 1482.15-270.745 4372.17-1035.95 7981.21-4044.78 9835.71-8033.71-863.592 1631.81-2061.39 3059.38-3502.07 4191.88l-.008-.008Z" fill-rule="nonzero"/><path d="M28437.9 19219.5c-1854.48 3988.92-5463.54 6997.75-9835.71 8033.71-485.229 115.016-979.708 205.679-1482.15 270.746h-.416c-617.05 79.758-1246.25 120.887-1885.12 120.887-1577.02 0-3094.86-250.592-4517-714.846-907.934-295.921-1776.41-678.75-2596.18-1138.8-4284.88-2405.61-7758.75-6917.12-7963.58-12131.8 605.296 583.888 1428 943.609 2333.42 943.609 582.621 0 1130.82-149.009 1608.92-410.938 27.708 1043.92-138.521 1739.46 338.75 3196.86 256.041 781.163 609.062 1520.77 1012.87 2223.86 1517 2643.61 3928.91 4708.38 6821.88 5781.71 892.396 331.179 1830.56 567.933 2802.71 698.471h.416c575.9 77.237 1163.14 117.116 1760.03 117.116 5031.58 0 9400.79-2832.92 11601.2-6990.58l.009-.042Z" fill="#0c60cd" fill-rule="nonzero"/><path d="m19196.6 20469.3-1011.22-3319.78h-5084.71l-1011.23 3319.78H8903.16L13825.7 6464.8l3615.61.005 4941.62 14004.5h-3186.32l-.017-.004Zm-1717.15-5800.25c-934.896-3008.09-1461.22-4709.33-1578.84-5103.75-117.758-394.288-201.962-705.975-252.796-934.934-209.895 814.204-810.883 2827.15-1803.02 6038.67h3634.65v.017Z" fill-rule="nonzero"/></svg>