<svg viewBox="0 0 7000 6684" xmlns="http://www.w3.org/2000/svg" xml:space="preserve" fill-rule="evenodd" clip-rule="evenodd" stroke-linejoin="round" stroke-miterlimit="2"><path d="M6377.49 1208.55C5741.319 371.437 4674.93-94.9 3565.23 87.67 2546.4 255.286 1737.33 929.349 1352.81 1810.04c372.633-710.826 1062.73-1244.33 1915.67-1384.65C4270.29 260.578 5233 681.569 5807.32 1437.29c252.646 332.455 430.254 729.584 502.758 1170.29 72.504 440.704 31.484 873.8-101.346 1269.67-301.941 899.887-1079.05 1607.11-2080.85 1771.92-852.937 140.321-1677.58-143.984-2258.3-697.963 646.4 711.088 1628.78 1090.43 2647.6 922.813 1109.69-182.563 1970.48-965.95 2304.94-1962.75 147.138-438.504 192.575-918.242 112.263-1406.41-80.309-488.162-277.046-928.062-556.9-1296.32Z" fill="#383232" fill-rule="nonzero"/><path d="M4086.75 634.358c-414.825-26.171-824.704 40.809-1191.26 201.571-23.209 9.238-45.475 20.721-68.129 31.175l-33.838 15.975-33.175 17.333-33.158 17.267-16.609 8.538-16.245 9.237-64.875 36.971c-85.092 51.679-167.346 107.629-245.471 168.812-19.288 15.613-38.954 30.713-57.942 46.65l-56.525 48.305c-36.537 33.5-73.233 66.8-107.579 102.52-69.612 70.38-135.837 144.263-195.575 223.225-241.808 313.684-401.538 688.996-461.887 1084.38-30.184 197.733-35.63 400.408-17.03 602.371 1.909 25.325 5.342 50.458 7.942 75.783 3.592 25.137 6.646 50.438 10.696 75.596 3.891 25.183 7.879 50.421 12.8 75.479 4.458 25.183 9.816 50.183 14.962 75.321 11.03 50.037 22.921 100.121 36.934 149.762 12.875 50.084 29.37 99.079 44.954 148.809-105.463-179.513-181.029-378.596-226.121-585.5-44.921-207.063-59.133-421.963-42.546-635.534 8.496-106.754 24.046-213.358 48.896-317.996l9.167-39.283c3.037-13.112 6.016-26.25 9.833-39.146l22.1-77.683c16.762-51.146 33.188-102.533 53.175-152.625l14.404-37.808c5.184-12.434 10.738-24.721 16.096-37.1l16.238-37.059 8.133-18.533 8.862-18.179 35.609-72.704 38.525-71.23c53.562-93.745 113.291-183.97 178.646-269.975 263.716-342.016 625.983-608.275 1030.89-750.07 25.35-8.659 50.567-17.63 76.079-25.688l77.063-22.304c25.629-7.508 51.833-13.025 77.671-19.596 12.979-3.087 25.862-6.492 38.958-9.079l39.292-7.546c52.171-10.821 104.983-18.083 157.575-25.217l79.275-7.675c13.162-1.475 26.4-2.241 39.646-2.862l39.687-1.988c211.408-9.325 423.129 11.692 623.854 67.296ZM5998.08 5626.28c-15.9 14.154-31.945 28.142-48.091 42.005-3 2.579-6.004 5.162-9.017 7.733-16.483 14.054-33.046 28.016-49.779 41.762-416.784 342.313-913.125 588.659-1435.38 712.404-119.108 28.23-241.213 50.534-362.921 66.288l-4.646.583c-150.487 19.255-304.204 29.013-456.946 29.013-378.058 0-750.158-58.892-1105.96-175.042-219.713-71.612-433.612-165.429-635.712-278.85a3503 3503 0 0 1-44.109-25.183c-320.129-185.046-613.696-413.2-869.933-674.738 274.354 332.209 608.871 612.896 987.004 825.184 196.75 110.412 405.183 202.287 623.088 273.312 341.316 111.421 705.591 171.563 1084.08 171.563 153.329 0 304.341-9.871 452.429-29.013h.104c120.583-15.617 239.262-37.375 355.717-64.979 1049.32-248.629 1915.49-970.746 2360.57-1928.09-207.262 391.633-494.733 734.25-840.496 1006.05Z" fill="#383232" fill-rule="nonzero"/><path d="M6800.1 4433.5c-445.075 957.342-1311.25 1679.46-2360.57 1928.09-116.455 27.605-235.13 49.363-355.717 64.98h-.1c-148.092 19.141-299.1 29.012-452.429 29.012-378.484 0-742.767-60.142-1084.08-171.562-217.904-71.021-426.338-162.9-623.084-273.313C895.75 5433.361 62.02 4350.597 12.86 3099.087c145.271 140.134 342.721 226.467 560.021 226.467 139.829 0 271.396-35.763 386.141-98.625 6.65 250.542-33.245 417.471 81.3 767.246 61.45 187.479 146.175 364.983 243.088 533.725 364.079 634.466 942.937 1130.01 1637.25 1387.61 214.175 79.483 439.333 136.304 672.65 167.633h.1c138.216 18.538 279.154 28.109 422.408 28.109 1207.58 0 2256.19-679.9 2784.28-1677.74Z" fill="#7312ab" fill-rule="nonzero"/><path d="M2486.3 3083.6c732.345-600.712 1694.74 100.749 2222.87-58.604L3612.46 918.816 2486.3 3083.596Z" fill="url(#a)"/><path d="M3319.89 3790.51c-209.771-390.094-726.873-580.589-1059.95-274.684l-513.377 988.937h1201.56l371.769-714.253Z" fill="url(#b)"/><path d="M4293.31 2957.23c-576.008-186.797-1324.9-366.307-1807.02 126.369l-112.245 214.283c721.306-626.331 1952.35 628.163 2568.81 369.936 417.709-104.38 478.43-686.801 138.012-948.693-51.481 192.294-174.791 293.043-371.7 305.87-114.121 7.33-252.125-16.492-415.86-67.765Z" fill="url(#c)"/><path d="M4814.02 3664.15c-728.637-95.217-1810.66-1062.23-2439.97-366.271l-114.122 217.948c356.972-223.48 688.193-18.325 1059.95 274.684 412.186 325.958 875.845 760.03 1479.44 825.963 1218.18 137.39 1483.16-1336.92 583.364-1760 193.219 360.809-58.906 776.513-439.837 811.338-42.276 3.656-84.621 3.656-128.832-3.665Z" fill="url(#d)"/><path d="M2259.93 3515.83c579.673-164.877 872.241 510.965 688.193 988.937l371.769-714.253c-371.769-293.009-702.982-498.164-1059.96-274.684Z" fill="url(#e)"/><path d="M2259.93 3515.83c356.972-223.48 688.193-18.325 1059.95 274.684 412.186 325.958 875.845 760.03 1479.44 825.963 1070.98 120.898 1405.9-1005.43 857.547-1565.83 325.656 512.789-18.462 1208.75-673.499 1146.49-1036-97.119-1842-1358.98-2666.41-789.383l-57.039 108.071Z" fill="url(#f)"/><path d="M2374.05 3297.88c629.313-695.955 1711.33 271.054 2439.97 366.271 44.211 7.33 86.565 7.33 128.841 3.665 355.138-89.72 452.699-525.624 263.145-813.17 53.383 333.322-200.574 509.158-494.975 479.839-587.046-60.436-1619.38-822.289-2268.91-166.639l-68.068 130.034Z" fill="url(#g)"/><path d="M2486.3 3083.6c482.113-492.676 1231.01-313.166 1807.02-126.369 163.727 51.273 301.73 75.095 415.851 67.765l-248.425-476.218c-123.309 76.963-369.867 89.79-745.267 71.465-535.461-23.821-923.747 100.741-1166.67 340.618l-62.502 122.739Z" fill="url(#h)"/><path d="M2548.8 2960.86c242.928-239.868 631.214-364.439 1166.67-340.618 375.4 18.325 621.958 5.498 745.267-71.465l-432.438-831.417c-255.79 324.16-842.749 221.587-1148.25 609.848l-331.256 633.652Z" fill="url(#i)"/><defs><linearGradient id="a" x1="0" y1="0" x2="1" y2="0" gradientUnits="userSpaceOnUse" gradientTransform="translate(1340.01 2001.2)scale(3876.8)"><stop offset="0" stop-color="#521c89"/><stop offset=".52" stop-color="#8d1af1"/><stop offset="1" stop-color="#ffa5f6"/></linearGradient><linearGradient id="b" x1="0" y1="0" x2="1" y2="0" gradientUnits="userSpaceOnUse" gradientTransform="translate(1861.22 3934.52)scale(4256.53)"><stop offset="0" stop-color="#521c89"/><stop offset=".52" stop-color="#8d1af1"/><stop offset="1" stop-color="#ffa5f6"/></linearGradient><linearGradient id="c" x1="0" y1="0" x2="1" y2="0" gradientUnits="userSpaceOnUse" gradientTransform="translate(1948.09 3211.24)scale(3926.43)"><stop offset="0" stop-color="#0d2398"/><stop offset=".47" stop-color="#004cf4"/><stop offset="1" stop-color="#34a0ff"/></linearGradient><linearGradient id="d" x1="0" y1="0" x2="1" y2="0" gradientUnits="userSpaceOnUse" gradientTransform="translate(2139.2 3740.98)scale(4604.3)"><stop offset="0" stop-color="#00589f"/><stop offset=".51" stop-color="#38aaa0"/><stop offset="1" stop-color="#ccf86f"/></linearGradient><linearGradient id="e" x1="0" y1="0" x2="1" y2="0" gradientUnits="userSpaceOnUse" gradientTransform="translate(2417.18 3962.99)scale(3876.79)"><stop offset="0" stop-color="#521c89"/><stop offset=".52" stop-color="#8d1af1"/><stop offset="1" stop-color="#ffa5f6"/></linearGradient><linearGradient id="f" x1="0" y1="0" x2="1" y2="0" gradientUnits="userSpaceOnUse" gradientTransform="translate(2538.79 3838.06)scale(4604.3)"><stop offset="0" stop-color="#00589f"/><stop offset=".51" stop-color="#38aaa0"/><stop offset="1" stop-color="#ccf86f"/></linearGradient><linearGradient id="g" x1="0" y1="0" x2="1" y2="0" gradientUnits="userSpaceOnUse" gradientTransform="translate(2608.29 3262.43)scale(3926.44)"><stop offset="0" stop-color="#0d2398"/><stop offset=".47" stop-color="#004cf4"/><stop offset="1" stop-color="#34a0ff"/></linearGradient><linearGradient id="h" x1="0" y1="0" x2="1" y2="0" gradientUnits="userSpaceOnUse" gradientTransform="translate(2417.18 2816.19)scale(3876.8)"><stop offset="0" stop-color="#521c89"/><stop offset=".52" stop-color="#8d1af1"/><stop offset="1" stop-color="#ffa5f6"/></linearGradient><linearGradient id="i" x1="0" y1="0" x2="1" y2="0" gradientUnits="userSpaceOnUse" gradientTransform="translate(1861.22 2339.11)scale(4256.52)"><stop offset="0" stop-color="#521c89"/><stop offset=".52" stop-color="#8d1af1"/><stop offset="1" stop-color="#ffa5f6"/></linearGradient></defs></svg>