<svg viewBox="0 0 29167 27850" xmlns="http://www.w3.org/2000/svg" xml:space="preserve" fill-rule="evenodd" clip-rule="evenodd" stroke-linejoin="round" stroke-miterlimit="2"><path d="M26572.9 5035.62c-2650.71-3487.97-7094-5431.04-11717.8-4670.33-4245.12 698.4-7616.25 3507-9218.42 7176.54 1552.64-2961.78 4428.04-5184.71 7981.96-5769.38 4174.21-686.716 8185.5 1067.41 10578.5 4216.25 1052.69 1385.23 1792.73 3039.93 2094.82 4876.21 302.1 1836.27 131.183 3640.83-422.275 5290.29-1258.09 3749.53-4496.04 6696.29-8670.21 7383-3553.9 584.671-6989.92-599.933-9409.58-2908.18 2693.33 2962.87 6786.58 4543.46 11031.7 3845.05 4623.71-760.679 8210.33-4024.79 9603.92-8178.12 613.075-1827.1 802.396-3826.01 467.763-5860.04-334.621-2034.01-1154.36-3866.93-2320.42-5401.33l.021.042Z" fill="#bdb6b6" fill-rule="nonzero"/><path d="M17028.1 2643.16c-1728.44-109.046-3436.27 170.038-4963.58 839.88-96.704 38.491-189.479 86.337-283.871 129.895l-140.992 66.563-138.229 72.221-138.158 71.946-69.205 35.575-67.687 38.487-270.313 154.046c-354.55 215.329-697.275 448.454-1022.8 703.383-80.367 65.054-162.309 127.971-241.425 194.375l-235.521 201.271c-152.238 139.583-305.138 278.333-448.246 427.167-290.05 293.25-565.988 601.096-814.896 930.104-1007.53 1307.02-1673.08 2870.82-1924.53 4518.25-125.767 823.887-148.458 1668.37-70.958 2509.88 7.954 105.521 22.258 210.242 33.091 315.763 14.967 104.737 27.692 210.158 44.567 314.983 16.212 104.929 32.829 210.087 53.333 314.496 18.575 104.929 40.9 209.095 62.342 313.837 45.958 208.488 95.504 417.171 153.892 624.008 53.645 208.684 122.375 412.83 187.308 620.038-439.429-747.971-754.288-1577.48-942.171-2439.58-187.171-862.763-246.387-1758.18-177.275-2648.06 35.4-444.808 100.192-888.991 203.733-1324.98l38.196-163.679c12.654-54.633 25.067-109.375 40.971-163.109l92.083-323.679c69.842-213.108 138.284-427.22 221.563-635.937l60.017-157.534c21.6-51.808 44.741-103.004 67.066-154.583l67.659-154.412 33.887-77.221 36.925-75.746 148.371-302.933 160.521-296.792c223.175-390.604 472.046-766.542 744.358-1124.9 1098.82-1425.07 2608.26-2534.48 4295.38-3125.29 105.625-36.08 210.696-73.459 316.996-107.034l321.096-92.933c106.787-31.283 215.971-54.271 323.629-81.65 54.079-12.863 107.758-27.05 162.325-37.829l163.717-31.442c217.379-45.087 437.429-75.346 656.562-105.071l330.313-31.979c54.841-6.146 110-9.337 165.191-11.925l165.363-8.283c880.866-38.854 1763.04 48.716 2599.39 280.4l.013.016ZM24992 23442.8c-66.25 58.975-133.104 117.259-200.379 175.021-12.5 10.746-25.017 21.509-37.571 32.221-68.679 58.558-137.692 116.733-207.413 174.008-1736.6 1426.3-3804.69 2452.75-5980.75 2968.35-496.283 117.625-1005.05 210.559-1512.17 276.2l-19.359 2.429c-627.029 80.23-1267.52 120.888-1903.94 120.888-1575.24 0-3125.66-245.383-4608.17-729.342-915.471-298.383-1806.72-689.287-2648.8-1161.88a14592 14592 0 0 1-183.787-104.929c-1333.87-771.025-2557.07-1721.67-3624.72-2811.41 1143.14 1384.2 2536.96 2553.73 4112.52 3438.27 819.792 460.05 1688.26 842.863 2596.2 1138.8 1422.15 464.255 2939.96 714.846 4517 714.846 638.871 0 1268.09-41.129 1885.12-120.887h.433c502.43-65.071 996.925-155.729 1482.15-270.746 4372.17-1035.95 7981.21-4044.78 9835.71-8033.71-863.592 1631.8-2061.39 3059.38-3502.07 4191.88l-.008-.009Z" fill="#bdb6b6" fill-rule="nonzero"/><path d="M28333.8 18472.9c-1854.48 3988.93-5463.54 6997.75-9835.71 8033.71-485.229 115.021-979.709 205.679-1482.15 270.75h-.417c-617.05 79.754-1246.25 120.883-1885.12 120.883-1577.02 0-3094.86-250.591-4517-714.841-907.933-295.921-1776.41-678.75-2596.18-1138.81-4284.88-2405.61-7758.75-6917.12-7963.58-12131.8 605.296 583.892 1428.01 943.613 2333.42 943.613 582.621 0 1130.82-149.013 1608.92-410.938 27.708 1043.92-138.521 1739.46 338.75 3196.86 256.042 781.162 609.063 1520.76 1012.87 2223.85 1517 2643.61 3928.9 4708.38 6821.88 5781.71 892.396 331.18 1830.55 567.934 2802.71 698.471h.417c575.9 77.242 1163.14 117.121 1760.03 117.121 5031.58 0 9400.79-2832.92 11601.2-6990.58l.008-.05Z" fill="#7312ab" fill-rule="nonzero"/><path d="M10359.6 12848.3c3051.44-2502.97 7061.42 419.788 9261.96-244.183l-4569.62-8775.75-4692.33 9019.92v.016Z" fill="url(#a)"/><path d="M13832.9 15793.8c-874.046-1625.39-3028.64-2419.12-4416.46-1144.52l-2139.07 4120.57h5006.5l1549.04-2976.05h-.008Z" fill="url(#b)"/><path d="M17888.8 12321.8c-2400.03-778.321-5520.42-1526.28-7529.25 526.537l-467.688 892.846c3005.44-2609.71 8134.79 2617.35 10703.4 1541.4 1740.45-434.917 1993.46-2861.67 575.05-3952.89-214.504 801.225-728.296 1221.01-1548.75 1274.46-475.504 30.542-1050.52-68.717-1732.75-282.354h.013Z" fill="url(#c)"/><path d="M20058.4 15267.3c-3035.99-396.738-7544.42-4425.96-10166.5-1526.13l-475.508 908.116c1487.38-931.166 2867.47-76.354 4416.46 1144.52 1717.44 1358.16 3649.35 3166.79 6164.33 3441.51 5075.75 572.459 6179.83-5570.5 2430.68-7333.33 805.079 1503.37-245.442 3235.47-1832.65 3380.58-176.15 15.233-352.588 15.233-536.801-15.271l.03.013Z" fill="url(#d)"/><path d="M9416.38 14649.3c2415.3-686.988 3634.34 2129.02 2867.47 4120.57l1549.04-2976.05c-1549.04-1220.87-2929.09-2075.68-4416.5-1144.52h-.008Z" fill="url(#e)"/><path d="M9416.38 14649.3c1487.38-931.167 2867.47-76.354 4416.46 1144.52 1717.44 1358.16 3649.36 3166.79 6164.33 3441.51 4462.42 503.742 5857.92-4189.29 3573.11-6524.29 1356.9 2136.62-76.925 5036.46-2806.25 4777.04-4316.67-404.663-7675-5662.42-11110-3289.1l-237.663 450.296.046.021Z" fill="url(#f)"/><path d="M9891.88 13741.2c2622.14-2899.81 7130.54 1129.39 10166.5 1526.13 184.212 30.542 360.687 30.542 536.837 15.271 1479.74-373.834 1886.25-2190.1 1096.44-3388.21 222.429 1388.84-835.725 2121.49-2062.4 1999.33-2446.03-251.817-6747.42-3426.2-9453.79-694.33l-283.616 541.809h-.013Z" fill="url(#g)"/><path d="M10359.6 12848.3c2008.81-2052.82 5129.21-1304.86 7529.25-526.537 682.196 213.637 1257.21 312.896 1732.71 282.354l-1035.1-1984.24c-513.788 320.68-1541.11 374.125-3105.28 297.771-2231.09-99.254-3848.95 419.754-4861.12 1419.24l-260.425 511.412h-.029Z" fill="url(#h)"/><path d="M10620 12336.9c1012.2-999.45 2630.06-1518.5 4861.12-1419.24 1564.17 76.354 2591.49 22.908 3105.28-297.771l-1801.83-3464.24c-1065.79 1350.67-3511.45 923.279-4784.38 2541.03l-1380.23 2640.22h.029Z" fill="url(#i)"/><defs><linearGradient id="a" x1="0" y1="0" x2="1" y2="0" gradientUnits="userSpaceOnUse" gradientTransform="translate(5583.38 8338.33)scale(16153.3)"><stop offset="0" stop-color="#521c89"/><stop offset=".52" stop-color="#8d1af1"/><stop offset="1" stop-color="#ffa5f6"/></linearGradient><linearGradient id="b" x1="0" y1="0" x2="1" y2="0" gradientUnits="userSpaceOnUse" gradientTransform="translate(7755.08 16393.8)scale(17735.5)"><stop offset="0" stop-color="#521c89"/><stop offset=".52" stop-color="#8d1af1"/><stop offset="1" stop-color="#ffa5f6"/></linearGradient><linearGradient id="c" x1="0" y1="0" x2="1" y2="0" gradientUnits="userSpaceOnUse" gradientTransform="translate(8117.04 13380.2)scale(16360.1)"><stop offset="0" stop-color="#0d2398"/><stop offset=".47" stop-color="#004cf4"/><stop offset="1" stop-color="#34a0ff"/></linearGradient><linearGradient id="d" x1="0" y1="0" x2="1" y2="0" gradientUnits="userSpaceOnUse" gradientTransform="translate(8913.33 15587.4)scale(19184.6)"><stop offset="0" stop-color="#00589f"/><stop offset=".51" stop-color="#38aaa0"/><stop offset="1" stop-color="#ccf86f"/></linearGradient><linearGradient id="e" x1="0" y1="0" x2="1" y2="0" gradientUnits="userSpaceOnUse" gradientTransform="translate(10071.6 16512.5)scale(16153.3)"><stop offset="0" stop-color="#521c89"/><stop offset=".52" stop-color="#8d1af1"/><stop offset="1" stop-color="#ffa5f6"/></linearGradient><linearGradient id="f" x1="0" y1="0" x2="1" y2="0" gradientUnits="userSpaceOnUse" gradientTransform="translate(10578.3 15991.9)scale(19184.6)"><stop offset="0" stop-color="#00589f"/><stop offset=".51" stop-color="#38aaa0"/><stop offset="1" stop-color="#ccf86f"/></linearGradient><linearGradient id="g" x1="0" y1="0" x2="1" y2="0" gradientUnits="userSpaceOnUse" gradientTransform="translate(10867.9 13593.5)scale(16360.2)"><stop offset="0" stop-color="#0d2398"/><stop offset=".47" stop-color="#004cf4"/><stop offset="1" stop-color="#34a0ff"/></linearGradient><linearGradient id="h" x1="0" y1="0" x2="1" y2="0" gradientUnits="userSpaceOnUse" gradientTransform="translate(10071.6 11734.1)scale(16153.3)"><stop offset="0" stop-color="#521c89"/><stop offset=".52" stop-color="#8d1af1"/><stop offset="1" stop-color="#ffa5f6"/></linearGradient><linearGradient id="i" x1="0" y1="0" x2="1" y2="0" gradientUnits="userSpaceOnUse" gradientTransform="translate(7755.08 9746.29)scale(17735.5)"><stop offset="0" stop-color="#521c89"/><stop offset=".52" stop-color="#8d1af1"/><stop offset="1" stop-color="#ffa5f6"/></linearGradient></defs></svg>