<svg version="1.1" id="Capa_1" xmlns="http://www.w3.org/2000/svg" xmlns:xlink="http://www.w3.org/1999/xlink" x="0" y="0" width="512" height="341.3" viewBox="0 0 512 341.3" xml:space="preserve"><style>.st0{clip-path:url(#SVGID_2_)}.st1{fill:#fff}.st1,.st2,.st3,.st4{fill-rule:evenodd;clip-rule:evenodd}.st3,.st4{fill:#f30000}.st4{fill:#005623}</style><defs><path id="SVGID_1_" d="M25 .1h455.6v341.7H25z"/></defs><clipPath id="SVGID_2_"><use xlink:href="#SVGID_1_" overflow="visible"/></clipPath><g class="st0"><path class="st1" d="M25-56.875h455.625V398.75H25z"/><path class="st2" d="M25 246.875h455.625V398.75H25z"/><path class="st3" d="M25-56.875h455.625V95H25z"/><path class="st4" d="m458.875 195.875-18.75-13.625-18.75 13.75 7.125-22.125-18.875-13.5h23.25l7-22.125 7.25 22 23.25-.125-18.75 13.625zM197 150.625c.25 21.625 0 35.625 0 40a176 176 0 0 0-6.375 7.875c-.75-.625-1-.625-1-1.75s-.25-29.625 0-40c3.5-1.625 5.75-6.5 7.375-6.125m-8-.375c1.75-2.875 3.625-5.75 5-7.125 1.375.75 1.125 2.875 1.375 3.5-1.375 1.875-4.625 5-5.625 6-.375-.625 0-.5-.75-2.375m9.75-24.75c-11.75 7.75-25.125 17-30 21.125-4.875 4-6.625 6.625-6.625 13.5 0 7 .25 14.875-.375 18.625-.625 3.625-2.375 7.5-6.625 4s-7.375-7-9.25-8.5-5.375-3.625-10 .375S109.625 201.5 105.5 204c-4 2.5-4.875 3.125-7.75 4.625 6 .375 12.75.75 18.125-.375 7.125-5.25 15.5-17 18.125-19.875 2.75-2.875 5.375-9.125 11.375-2.375s5.75 7 8.75 9.125c2.875 2.125 6.625 1.75 9.125-2.5s2.75-6.25 3.625-13.125c1-7 1.5-15.625 3.125-19.5 1.5-3.875 4.625-7.75 9.875-10.875s6.25-3.25 7.375-3.875c2.375-4.5 7.875-14.875 10.25-17.375 1-1.25 1.25-1.75 1.25-2.375m-52.5 70.375c-2.875-1.875-3.875-3.5-5.375-3.25s-4.875 4.625-6.75 5.75c2.5 2.125 4.875 4 6.75 3.625 1.875-.25 3.25-4.625 5.375-6.125m245-54.375c-4 1-6.25 6.375-9.625 10-.375 10.875-.375 44.5-.375 48.875 3.5-4 5.625-6.375 8.125-7.875.625-17.875 2.75-43 1.875-51m-19.125-.125c-4.875 3.125-6 6.25-10 9.625-.25 13 .375 31.375-.625 33.875s-3.125 7.75-8.375 7.125-6.75-1.5-6.75-7 1.125-40 1.125-45.625c-4 1.875-7.5 7.875-10.5 10.5 0 13.5.625 30.75.25 34.375s-1.875 9.625-8.5 9.5c-6.625-.25-10-3.5-10-7.375s-.25-29.25.25-33.625c-5.75 4-19.375 12.125-22 22.625-2.75 10.5 1.5 13.5 5.375 11.625s5.625-3.625 7.75-5.25c.625 6.625.75 13.75 7.375 18s14.875 2.75 18 .375 4.25-3.875 5-5c5.75 4.5 14.25 6.75 19.875 1.875s8.75-9.625 9.25-15.125c.625-5.375 3.25-33.125 2.5-40.5m-60.75 26.25c-5.75 2.75-8.375 6.75-6.75 9.25 1.5 2.5 4.625-.375 6.75-1.375-.375-3.75 0-5.875 0-7.875m37.375-41c-1.375 4.5-2.375 3.625-4 3.875-1.75.25-2.875-1.5-4.25-3.125-1.375.25-1.5.625-2.5 1 3.125 4.5 5.375 6.375 9.125 5.375 3.625-1 3.875-4.25 3.875-6-.75-.375-.875-.5-2.25-1.125M345.5 121c-1.75.625-2.125 1-2.75 2.5 1 2.125 2.375 3.25 3.625 2.75 1.375-.625 1.5-2.875.75-3.5-.625-.5-.25-.875-1.625-1.75M80.625 195.875l-18.75-13.625L43.125 196l7.125-22.125-18.875-13.5h23.25l7-22.125 7.25 22 23.25-.125-18.75 13.625zm188.75 0-18.75-13.625-18.75 13.75L239 173.875l-18.875-13.5h23.25l7-22.125 7.25 22 23.25-.125-18.75 13.625z"/></g></svg>