<svg version="1.1" id="Capa_1" xmlns="http://www.w3.org/2000/svg" xmlns:xlink="http://www.w3.org/1999/xlink" x="0" y="0" width="512" height="341.3" viewBox="0 0 512 341.3" xml:space="preserve"><style>.st0{clip-path:url(#SVGID_2_)}.st1,.st2,.st3,.st4{fill-rule:evenodd;clip-rule:evenodd;fill:#fff}.st2,.st3,.st4{fill:#349344}.st3,.st4{fill:#e57425}.st4{fill:#214195}</style><defs><path id="SVGID_1_" d="M29.6 0h455v341.3h-455z"/></defs><clipPath id="SVGID_2_"><use xlink:href="#SVGID_1_" overflow="visible"/></clipPath><g class="st0"><path class="st1" d="M1.2 0h512v341.3H1.2z"/><path class="st2" d="M1.2 227.6h512v113.7H1.2z"/><path class="st3" d="M1.2 0h512v113.7H1.2z"/><circle class="st4" cx="257.2" cy="170.7" r="87.4"/><path class="st1" d="M332.9 151.1c.4 1.8.6 2.8.9 4.4-3.5 1.1-5.2 3.3-4.9 5.6.3 2.1 1.8 5 6.2 4.4.2 1.7.2 2.8.2 4.5-12.9 0-26.6-.8-39.3-1.8-9.4-.8-11.7 1.8-16.6 2.3-5.6.4-10.2.2-21.8.6 11.5-2.4 16-3.8 21.3-4.7 5.2-.8 7.1 1.1 16.6-2.6 12.1-5.2 24.9-9.4 37.4-12.7M238.4 95.4c1.8-.4 2.8-.6 4.4-.9 1.1 3.5 3.3 5.2 5.6 4.9 2.1-.3 5-1.8 4.4-6.1 1.7-.2 2.8-.2 4.5-.2 0 12.9-.9 26.6-2.1 39.3-.9 9.4 1.7 11.7 2.1 16.6.4 5.6 0 10.2.4 21.8-2.3-11.5-3.7-16.1-4.5-21.4-.8-5.2 1.1-7.1-2.6-16.7-4.7-12-8.9-24.8-12.2-37.3M258.2 93c1.8 0 2.8.2 4.4.3.2 3.7 1.8 5.9 4.3 6.1 2.1.2 5.3-.4 5.8-4.9 1.7.3 2.6.6 4.4 1.1-3.3 12.5-7.6 25.5-12.1 37.5-3.2 8.8-1.3 11.7-2.1 16.6-1.1 5.6-2.6 9.9-5.2 21.3.8-11.7.4-16.4 1.1-21.8.6-5.2 2.9-6.5 1.8-16.7-1.6-13-2.4-26.5-2.4-39.5"/><path class="st1" d="M278.3 95.8c1.8.4 2.6.9 4.3 1.3-.8 3.5.3 6.2 2.4 7 2 .8 5.3.9 6.9-3.2 1.5.8 2.4 1.2 3.9 2.1-6.5 11.2-14 22.6-21.4 33.1-5.4 7.8-4.3 11-6.4 15.3-2.4 5.2-5 8.8-10.5 19.2 3.8-11.1 4.7-15.8 6.7-20.8 1.8-4.9 4.4-5.6 6.1-15.6 1.9-12.6 4.8-25.9 8-38.4M296.9 103.7c1.5.9 2.3 1.5 3.8 2.4-1.7 3.2-1.3 6.1.6 7.4 1.7 1.2 4.9 2.3 7.4-1.2 1.2 1.1 2 1.8 3.3 3-9.1 9.1-19.4 18.2-29.1 26.4-7.3 6.1-7 9.4-10.2 13.2-3.7 4.4-7.1 7.3-15.1 15.8 6.5-9.7 8.6-14 11.9-18.4 3-4.1 5.8-4.3 9.9-13.6 5.1-11.6 11.2-23.7 17.5-35M312.9 116c1.2 1.2 1.8 2 3 3.3-2.4 2.6-2.9 5.4-1.3 7.3 1.3 1.7 4.1 3.3 7.4.8.9 1.3 1.5 2.3 2.4 3.8-11.2 6.5-23.3 12.7-35.1 18.1-8.5 3.9-9.1 7.4-13.2 10.2-4.7 3.2-8.6 5.2-18.7 11.4 8.8-7.8 12-11.2 16.1-14.7 4.1-3.2 6.7-2.6 13.1-10.6 8.3-10.1 17.2-20.3 26.3-29.6"/><path class="st1" d="M325.3 132.5c.9 1.5 1.2 2.4 2 3.9-3 2-4.3 4.5-3.2 6.7.9 2 3 4.4 7.1 2.6.6 1.7.9 2.6 1.3 4.3-12.5 3.3-25.9 6.1-38.6 8.2-9.3 1.7-10.8 4.7-15.5 6.4-5.3 1.8-9.7 2.8-20.9 6.1 10.5-5.2 14.6-7.8 19.4-9.9 4.7-2.1 7.1-.8 15.3-6.9 10.7-7.6 21.9-15 33.1-21.4m-143.2 57.6c-.4-1.8-.6-2.8-.9-4.4 3.5-1.1 5.2-3.3 4.9-5.6-.3-2.1-1.8-5-6.1-4.4-.2-1.7-.2-2.8-.2-4.5 12.9 0 26.6.9 39.3 2.1 9.4.9 11.7-1.7 16.6-2.1 5.6-.4 10.2 0 21.8-.4-11.5 2.3-16.1 3.7-21.4 4.5-5.2.8-7.1-1.1-16.7 2.6-11.7 4.6-24.6 8.9-37.3 12.2"/><path class="st1" d="M335.3 170.9c0 1.8-.2 2.8-.2 4.4-3.7.2-5.9 2-6.1 4.3-.2 2.1.4 5.3 4.9 5.8-.3 1.7-.4 2.6-1.1 4.4-12.6-3.3-25.5-7.4-37.7-11.9-9-3.2-11.7-1.2-16.6-2.1-5.6-1.1-9.9-2.4-21.3-5 11.7.6 16.4.4 21.8.9 5.2.6 6.5 2.9 16.7 1.7 13.3-1.5 26.8-2.5 39.6-2.5"/><path class="st1" d="M332.7 191c-.4 1.8-.8 2.6-1.3 4.3-3.5-.8-6.2.3-7 2.4-.8 2-.9 5.3 3.2 6.9-.8 1.5-1.2 2.4-2.1 3.9-11.2-6.4-22.8-13.8-33.2-21.1-7.8-5.3-11-4.3-15.5-6.2-5.2-2.4-8.8-4.9-19.2-10.3 11.1 3.7 15.8 4.7 20.8 6.5 4.9 1.8 5.6 4.4 15.8 5.9 12.8 1.8 26 4.6 38.5 7.7M324.9 209.9c-.9 1.5-1.5 2.3-2.4 3.8-3.2-1.7-6.1-1.3-7.4.6-1.2 1.7-2.1 4.9 1.3 7.4-1.1 1.2-1.8 2-3 3.3-9.3-9.1-18.4-19.2-26.6-29-6.1-7.1-9.5-7-13.4-10-4.4-3.7-7.3-7-16-15.1 9.9 6.4 14 8.5 18.4 11.7 4.3 3 4.3 5.8 13.6 9.9 12.2 4.9 24.3 11 35.5 17.4"/><path class="st1" d="M312.6 225.9c-1.2 1.3-2 1.8-3.3 3-2.6-2.4-5.4-2.9-7.3-1.3-1.7 1.3-3.3 4.1-.6 7.6-1.3.9-2.3 1.5-3.8 2.4-6.5-11.2-12.7-23.3-18.2-34.9-4.1-8.5-7.4-9.1-10.2-13.2-3.2-4.7-5.2-8.6-11.5-18.5 7.9 8.8 11.4 11.9 14.7 16.1 3.2 3.9 2.6 6.7 10.6 13.1 10.2 7.6 20.3 16.6 29.6 25.7"/><path class="st1" d="M296.4 238.4c-1.5.9-2.4 1.2-3.9 2-2-3-4.5-4.1-6.7-3.2-2 .9-4.4 3-2.6 7.1-1.7.6-2.6.9-4.3 1.3-3.3-12.5-6.2-25.9-8.5-38.6-1.7-9.3-4.7-10.8-6.4-15.3-2-5.3-2.8-9.7-6.2-20.9 5.3 10.5 7.9 14.4 10 19.4 2.1 4.7.8 7.1 6.9 15.3 7.5 10.4 15 21.7 21.7 32.9M277.4 246c-1.8.4-2.8.6-4.4.9-1.1-3.5-3.3-5.2-5.6-4.9-2.1.3-5 1.8-4.4 6.2-1.7.2-2.8.2-4.5.2 0-12.9.8-26.6 1.8-39.3.8-9.4-1.8-11.7-2.3-16.6-.4-5.6-.2-10.2-.6-21.8 2.4 11.5 3.8 16 4.7 21.3.8 5.2-1.1 7.1 2.8 16.6 4.8 12.1 9.1 24.9 12.5 37.4"/><path class="st1" d="M257.2 248.6c-1.8 0-2.8-.2-4.4-.3-.2-3.7-1.8-5.9-4.3-6.1-2.1-.2-5.3.4-5.8 4.9-1.7-.3-2.6-.6-4.4-1.1 3.3-12.5 7.6-25.5 12-37.5 3.2-8.8 1.2-11.7 2.1-16.6 1.1-5.6 2.6-9.9 5.2-21.3-.8 11.7-.4 16.4-1.1 21.8-.6 5.2-2.9 6.5-1.8 16.7 1.6 13.1 2.3 26.5 2.5 39.5"/><path class="st1" d="M236.9 245.8c-1.8-.4-2.6-.9-4.3-1.3.8-3.5-.3-6.2-2.4-7-2-.8-5.3-.9-6.9 3.2-1.5-.8-2.4-1.2-3.9-2.1 6.5-11.2 14-22.6 21.3-33.1 5.4-7.8 4.3-11 6.4-15.5 2.4-5.2 5-8.8 10.5-19.2-3.7 11.1-4.7 15.8-6.7 20.8-1.8 4.9-4.4 5.6-6.1 15.6-1.7 12.8-4.5 26-7.9 38.6M218.3 237.9c-1.5-.9-2.3-1.5-3.8-2.4 1.7-3.2 1.3-6.1-.6-7.4-1.7-1.2-4.9-2.3-7.4 1.2-1.2-1.1-2-1.8-3.3-3 9.1-9.1 19.2-18.4 29.1-26.6 7.3-6.1 7-9.5 10.2-13.2 3.7-4.4 7.1-7.3 15.1-15.8-6.5 9.7-8.6 14-11.9 18.4-3 4.3-5.8 4.3-9.9 13.6-5 11.8-11.2 24-17.5 35.2M202.2 225.5c-1.2-1.2-1.8-2-3-3.3 2.4-2.6 2.9-5.4 1.3-7.3-1.3-1.7-4.1-3.3-7.4-.8-.9-1.3-1.5-2.3-2.4-3.8 11.2-6.5 23.3-12.6 35.1-18.1 8.5-3.9 9.3-7.3 13.2-10.2 4.7-3.2 8.6-5.2 18.7-11.4-8.8 7.8-12 11.2-16.1 14.7-4.1 3.2-6.7 2.6-13.1 10.6-8.2 10.3-17.2 20.3-26.3 29.6"/><path class="st1" d="M189.9 209.1c-.9-1.5-1.2-2.4-2-3.9 3-2 4.3-4.5 3.2-6.7-.9-2-3-4.4-7.1-2.6-.6-1.7-.9-2.6-1.3-4.3 12.5-3.3 25.9-6.1 38.6-8.2 9.3-1.7 10.8-4.7 15.5-6.4 5.3-1.8 9.7-2.8 20.9-6.1-10.5 5.2-14.6 7.8-19.4 9.9-4.7 2.1-7.1.8-15.3 6.9-10.7 7.4-22 14.9-33.1 21.4M219.7 102.8c1.5-.9 2.4-1.2 3.9-2 1.8 3 4.5 4.3 6.7 3.2 2-.9 4.4-3 2.8-7 1.7-.6 2.6-.8 4.3-1.2 3.3 12.6 5.9 25.9 8 38.6 1.5 9.3 4.7 10.8 6.2 15.5 1.8 5.3 2.8 9.7 6.1 20.9-5.2-10.5-7.8-14.6-9.9-19.4-2-4.7-.8-7.1-6.7-15.5-7.6-10.5-15-21.8-21.4-33.1M179.7 169.8c0-1.8.2-2.8.3-4.4 3.7-.2 5.9-1.8 6.1-4.1.2-2.1-.4-5.3-4.7-5.9.3-1.7.6-2.6 1.1-4.4 12.5 3.5 25.5 7.8 37.5 12.3 8.8 3.3 11.7 1.3 16.6 2.3 5.6 1.1 9.9 2.6 21.3 5.3-11.7-.8-16.4-.6-21.8-1.2-5.2-.6-6.5-2.9-16.7-1.8-13.1 1.2-26.6 1.9-39.7 1.9M182.6 149.9c.4-1.8.9-2.6 1.3-4.3 3.5.8 6.2-.3 7-2.4.8-2 .9-5.3-3-6.9.8-1.5 1.2-2.4 2.1-3.9 11.2 6.5 22.6 14.1 33.1 21.4 7.8 5.4 11 4.3 15.3 6.4 5.2 2.4 8.8 5 19.2 10.5-11.1-3.8-15.8-4.9-20.8-6.7-4.9-1.8-5.6-4.5-15.6-6.1-12.8-1.9-26-4.7-38.6-8"/><path class="st1" d="M190.7 131.2c.9-1.5 1.5-2.3 2.4-3.7 3.2 1.7 6.1 1.3 7.4-.6 1.2-1.7 2.3-4.9-1.2-7.4 1.1-1.2 1.8-2 3-3.3 9.1 9.3 18.2 19.4 26.4 29.3 6.1 7.3 9.4 7 13.2 10.2 4.3 3.7 7.3 7.1 15.8 15.2-9.7-6.5-14-8.6-18.4-11.9-4.1-3-4.3-5.8-13.5-10-11.9-5.3-23.9-11.4-35.1-17.8"/><path class="st1" d="M203.4 115c1.2-1.2 2.1-1.8 3.3-2.9 2.6 2.4 5.4 2.9 7.3 1.3 1.7-1.3 3.5-4.1.8-7.4 1.3-.9 2.3-1.5 3.8-2.3 6.4 11.2 12.5 23.5 17.7 35.2 3.9 8.6 7.3 9.3 10 13.4 3.2 4.7 5 8.8 11.2 18.8-7.8-8.8-11.1-12.1-14.6-16.2-3.2-4.1-2.6-6.7-10.5-13.2-9.8-8.6-19.9-17.6-29-26.7"/></g></svg>