<svg version="1.1" id="Capa_1" xmlns="http://www.w3.org/2000/svg" x="0" y="0" width="512" height="341.3" viewBox="0 0 512 341.3" xml:space="preserve"><style>.st0,.st1,.st2{fill-rule:evenodd;clip-rule:evenodd;fill:#00006a}.st1,.st2{fill:#fff}.st2{fill:red}</style><path class="st0" d="M31.6.7h460v345h-460z"/><path class="st1" d="m31.6.7 229.3 218.8h47L83.6.8z"/><path class="st2" d="M290.7 219.4 66.2.7 48.8.9l225.3 218.5z"/><path class="st1" d="M307.8.7 78.5 219.4h-47L255.9.8z"/><path class="st2" d="M290.7.7 66.2 219.4H48.8L274.1.7z"/><path class="st1" d="M147.6.7h44.2v218.8h-44.2z"/><path class="st1" d="M31.6 88.2h276.3V132H31.6z"/><path class="st2" d="M157.3.7h24.9v218.8h-24.9z"/><path class="st2" d="M31.6 99.1h276.3V121H31.6z"/><path class="st1" d="m405.3 129.6-14.1-10.4-14.6 9.6 5.5-16.6-13.7-11 17.4.1 6.2-16.4 5.3 16.7 17.4.8-14.2 10.2z"/><path class="st2" d="m399.6 121.1-8.4-6-8.5 5.7 3.1-9.8-8.1-6.4 10.2-.1 3.5-9.7 3.2 9.8 10.2.4-8.3 6.1z"/><path class="st1" d="m351.3 219.2-14.1-10.4-14.6 9.7 5.5-16.6-13.7-11 17.4.1 6.2-16.4 5.3 16.7 17.4.8-14.2 10.2z"/><path class="st2" d="m345.7 210.8-8.4-6-8.5 5.8 3.1-9.8-8.1-6.4 10.2-.1 3.5-9.7 3.2 9.8 10.2.4-8.3 6.1z"/><path class="st1" d="M461.8 210.4 447.7 200l-14.6 9.7 5.5-16.6-13.7-11 17.4.1 6.2-16.4 5.3 16.7 17.4.8-14.2 10.2z"/><path class="st2" d="m456.2 201.9-8.4-6-8.5 5.7 3.1-9.8-8.1-6.4 10.2-.1 3.5-9.7 3.2 9.8 10.2.4-8.3 6.1z"/><path class="st1" d="M404.1 337.9 390 327.5l-14.6 9.6 5.5-16.6-13.7-11 17.4.1 6.2-16.4 5.3 16.7 17.4.8-14.2 10.2z"/><path class="st2" d="m398.4 329.5-8.4-6-8.5 5.8 3.1-9.8-8.1-6.4 10.2-.1 3.5-9.7 3.2 9.8 10.2.4-8.3 6.1z"/></svg>