<svg version="1.1" id="Capa_1" xmlns="http://www.w3.org/2000/svg" x="0" y="0" width="512" height="341.3" viewBox="0 0 512 341.3" xml:space="preserve"><style>.st0{fill:#ffda44}.st1{fill:#d80027}.st2{fill:#f0f0f0}.st3{fill:#0052b4}</style><path class="st0" d="M0 0h512v341.3H0z"/><path class="st1" d="M0 0h512v113.8H0zM0 227.6h512v113.8H0z"/><path class="st2" d="M-1-.7h512v341.3H-1z"/><path class="st1" d="M287-.7h-64V138H-1v64h224v138.7h64V202h224v-64H287z"/><path class="st3" d="M392.8 229.4 511 295v-65.6zM310.7 229.4 511 340.7v-31.5l-143.7-79.8zM457.6 340.7 310.7 259v81.7z"/><path class="st2" d="M310.7 229.4 511 340.7v-31.5l-143.7-79.8z"/><path class="st1" d="M310.7 229.4 511 340.7v-31.5l-143.7-79.8z"/><path class="st3" d="M89.3 229.4-1 279.5v-50.1zM199.3 243.5v97.2H24.5z"/><path class="st1" d="M142.7 229.4-1 309.2v31.5l200.3-111.3z"/><path class="st3" d="M117.2 110.6-1 45v65.6zM199.3 110.6-1-.7v31.5l143.7 79.8zM52.4-.7 199.3 81V-.7z"/><path class="st2" d="M199.3 110.6-1-.7v31.5l143.7 79.8z"/><path class="st1" d="M199.3 110.6-1-.7v31.5l143.7 79.8z"/><path class="st3" d="M420.7 110.6 511 60.4v50.2zM310.7 96.5V-.7h174.8z"/><path class="st1" d="M367.3 110.6 511 30.8V-.7L310.7 110.6z"/></svg>