<svg width="160" height="30" viewBox="0 0 160 30" fill="none" xmlns="http://www.w3.org/2000/svg"><path d="M38.566 1.275h3.994v21.789h6.573v3.631H38.566zM56.681 27.058q-2.94 0-4.503-1.67-1.56-1.67-1.561-4.721V7.303q0-3.05 1.561-4.721Q53.74.912 56.681.912q2.941 0 4.503 1.67t1.562 4.721v13.364q0 3.05-1.562 4.72-1.56 1.672-4.503 1.671m0-3.631q2.07 0 2.07-2.506V7.05q0-2.505-2.07-2.506t-2.07 2.506V20.92q0 2.506 2.07 2.506M71.113 27.058q-2.906 0-4.431-1.634-1.525-1.67-1.525-4.757V7.303q0-3.087 1.525-4.721 1.526-1.67 4.43-1.67 2.906 0 4.43 1.67 1.526 1.634 1.526 4.721v2.179h-3.777V7.049q0-2.505-2.07-2.506t-2.07 2.506v13.909q0 2.469 2.07 2.469t2.07-2.47v-4.975h-1.997v-3.631h5.774v8.316q0 3.087-1.525 4.757-1.526 1.634-4.43 1.634M85.407 27.058q-2.942 0-4.503-1.67-1.562-1.67-1.562-4.721V7.303q0-3.05 1.562-4.721 1.561-1.67 4.503-1.67t4.503 1.67q1.562 1.67 1.562 4.721v13.364q0 3.05-1.562 4.72-1.56 1.672-4.503 1.671m0-3.631q2.07 0 2.07-2.506V7.05q0-2.505-2.07-2.506t-2.07 2.506V20.92q0 2.506 2.07 2.506" fill="#726BEA" class="ccompli1"/><path d="M94.18 1.275h3.995v25.42h-3.994zM101.167 1.275h5.883q2.978 0 4.467 1.598 1.49 1.597 1.489 4.684v2.506q0 3.087-1.489 4.685t-4.467 1.597h-1.888v10.35h-3.995zm5.883 11.439q.98 0 1.453-.545.508-.544.508-1.852V7.303q0-1.308-.508-1.852-.472-.545-1.453-.545h-1.888v7.808zM120.51 27.058q-2.904 0-4.394-1.634-1.489-1.67-1.489-4.757v-1.453h3.777v1.744q0 2.469 2.07 2.469 1.017 0 1.525-.581.545-.617.545-1.961 0-1.598-.726-2.796-.726-1.236-2.688-2.942-2.469-2.18-3.45-3.922-.98-1.78-.98-3.995 0-3.015 1.525-4.648 1.525-1.67 4.431-1.67 2.869 0 4.321 1.67 1.49 1.634 1.489 4.721v1.053h-3.777V7.05q0-1.307-.508-1.889-.508-.617-1.489-.617-1.998 0-1.997 2.433 0 1.38.726 2.579.762 1.198 2.724 2.905 2.505 2.179 3.45 3.958.944 1.779.944 4.176 0 3.123-1.562 4.794-1.525 1.67-4.467 1.67M134.64 27.058q-2.905 0-4.431-1.634-1.525-1.67-1.525-4.757V1.275h3.995v19.683q0 1.306.508 1.888.545.58 1.525.58t1.489-.58q.545-.58.545-1.889V1.276h3.849v19.392q0 3.087-1.525 4.757-1.526 1.634-4.43 1.634M143.44 1.275h5.702l2.542 18.193h.072l2.543-18.193H160v25.42h-3.777V7.448h-.072l-2.906 19.247h-3.341l-2.905-19.247h-.072v19.247h-3.487z" fill="#4F46E5" class="ccustom"/><path d="M0 26.695A8.898 8.898 0 0 0 0 8.898v6.23a2.67 2.67 0 0 1 0 5.338z" fill="#726BEA" class="ccompli1"/><path d="M29.661 11.865a16 16 0 0 0-4.82-.742c-8.805 0-15.943 7.138-15.943 15.943q.002 1.327.21 2.595h9.907a6.377 6.377 0 0 1 10.647-6.771z" fill="#A5B4FC" class="ccompli2"/><path d="M1.565 0C2.302 6.674 7.96 11.865 14.83 11.865c6.87 0 12.528-5.191 13.266-11.865H18.55a4.006 4.006 0 0 1-7.441 0z" fill="#4F46E5" class="ccustom"/></svg>