<svg width="784" height="198" viewBox="0 0 784 198" fill="none" xmlns="http://www.w3.org/2000/svg"><path d="M260.98 134.999h17.595v-82.8H260.98zM314.669 136.841c18.4 0 30.475-11.845 30.475-32.775 0-20.24-11.73-32.89-30.475-32.89-18.4 0-30.36 11.845-30.36 32.89 0 20.355 11.615 32.775 30.36 32.775m0-14.26c-7.935 0-12.305-6.555-12.305-18.515 0-12.075 4.255-18.63 12.305-18.63s12.42 6.67 12.42 18.63c0 12.075-4.255 18.515-12.42 18.515M373.769 135.116c6.67 0 12.19-2.76 16.1-8.165v10.35c0 8.625-4.255 11.5-10.58 11.5-6.095 0-10.81-2.99-11.5-8.51h-17.595c2.185 15.065 13.57 21.965 29.325 21.965 16.215 0 27.945-8.625 27.945-25.185v-63.94h-17.595v5.75c-3.795-5.06-9.2-7.705-16.1-7.705-15.41 0-25.415 11.5-25.415 32.085 0 19.665 9.775 31.855 25.415 31.855m4.255-14.26c-7.59 0-11.615-6.325-11.615-17.595 0-11.615 4.025-17.825 11.615-17.825 7.705 0 11.845 6.325 11.845 17.71 0 11.5-4.025 17.71-11.845 17.71M443.657 136.841c18.4 0 30.475-11.845 30.475-32.775 0-20.24-11.73-32.89-30.475-32.89-18.4 0-30.36 11.845-30.36 32.89 0 20.355 11.615 32.775 30.36 32.775m0-14.26c-7.935 0-12.305-6.555-12.305-18.515 0-12.075 4.255-18.63 12.305-18.63s12.42 6.67 12.42 18.63c0 12.075-4.255 18.515-12.42 18.515M479.988 66.92h17.597V52.2h-17.597zm0 68.079h17.597v-61.87h-17.597zM523.556 160.416v-31.625c3.68 5.29 8.97 8.05 15.525 8.05 15.755 0 25.99-11.845 25.99-32.89 0-20.24-10.005-32.775-25.99-32.775-6.44 0-11.73 2.99-15.525 8.395v-6.44h-17.595v87.285zm11.845-74.98c7.475 0 11.615 6.555 11.615 18.515 0 12.075-4.025 18.63-11.615 18.63-7.705 0-11.845-6.67-11.845-18.63s4.025-18.515 11.845-18.515M586.199 90.266c0-3.335 2.99-5.635 7.59-5.635 6.21 0 9.89 2.645 10.925 8.97h17.48c-1.725-15.64-12.995-22.425-27.83-22.425-16.56 0-24.955 9.66-24.955 20.01 0 24.84 37.49 14.145 37.49 26.105 0 3.795-3.105 6.21-9.315 6.21-6.555 0-11.27-3.105-12.075-8.855h-17.595c2.3 15.295 13.57 22.195 29.21 22.195 16.1 0 27.37-8.395 27.37-20.585 0-24.495-38.295-13.8-38.295-25.99M667.845 108.666c0 7.935-4.37 13.915-11.155 13.915-6.21 0-9.2-3.91-9.2-11.845V73.131h-17.595v41.17c0 15.41 8.625 22.54 20.355 22.54 7.475 0 13.57-3.22 17.595-10.12v8.28h17.595v-61.87h-17.595zM693.939 135.001h17.596V99.466c0-7.935 4.024-14.03 10.119-14.03 5.635 0 8.395 4.025 8.395 11.845V135h17.48V99.466c0-7.935 4.14-14.03 10.235-14.03 5.635 0 8.28 4.025 8.28 11.845V135h17.595V93.716c0-15.295-8.51-22.54-20.01-22.54-7.705 0-14.26 3.22-18.515 10.235-3.105-6.9-9.315-10.235-16.675-10.235-7.13 0-12.994 3.105-16.904 9.775v-7.82h-17.596z" fill="#55AE36"/><path d="M194.252 160.263C213.312 143.243 225 120.274 225 95c0-52.467-50.368-95-112.5-95S0 42.533 0 95s50.368 95 112.5 95c17.627 0 34.307-3.423 49.158-9.526 17.446 10.769 38.82 18.509 62.426 16.877-12.471-3.17-23.198-16.011-29.832-37.088" fill="#B6EFA2"/><path d="M195 95c0 38.66-36.936 70-82.5 70S30 133.66 30 95s36.936-70 82.5-70S195 56.34 195 95" fill="#88E169"/><path d="M165 95c0 24.853-23.505 45-52.5 45S60 119.853 60 95s23.505-45 52.5-45S165 70.147 165 95" fill="#55AE36"/></svg>