<svg width="671" height="143" viewBox="0 0 671 143" fill="none" xmlns="http://www.w3.org/2000/svg"><path d="m.04 95.249 47.798-21.274L75.35 89.93l5.558 52.346-33.904-.281 5.002-36.39-5.836-3.359-28.623 22.395z" fill="#B4C0D3"/><path d="m78.408 87.69 42.242 31.07 16.673-29.95-33.905-13.717v-6.718l33.905-13.996-16.673-29.672-42.242 31.072z" fill="#00D3AB"/><path d="M75.35 53.26 80.908.913l-33.904.56 5.002 36.39-5.836 3.359L17.27 18.829.039 47.941l47.799 21.274z" fill="#4876EF"/><path d="M250.432 65.32v49.04h18.247V51.863h-26.574V65.32zM249.865 43.083q2.51 2.623 7.641 2.623 5.133 0 7.526-2.623 2.51-2.738 2.509-6.843.001-4.22-2.509-6.843-2.393-2.737-7.526-2.737-5.132 0-7.641 2.737-2.394 2.624-2.394 6.843 0 4.105 2.394 6.843M186.911 112.994q7.754 3.534 19.044 3.535 10.605 0 18.248-3.307 7.64-3.308 11.746-9.239 4.22-6.044 4.22-14.027 0-7.755-3.99-13.116c-2.587-3.649-6.196-6.5-10.836-8.552q-6.957-3.194-16.08-3.992l-6.387-.57q-5.701-.457-8.211-3.08t-2.509-6.158q.001-2.738 1.367-5.018 1.37-2.395 4.107-3.764 2.852-1.369 6.957-1.369 4.333 0 7.185 1.597.628.338 1.189.721l.09.064q.21.145.411.297a10.3 10.3 0 0 1 2.758 3.138q1.482 2.509 1.484 5.588h18.245q0-8.211-3.762-14.256-3.764-6.157-10.834-9.466-6.959-3.42-16.766-3.421-9.352 0-16.195 3.193-6.842 3.08-10.719 8.896-3.766 5.816-3.766 13.8.002 11.062 7.415 17.791 7.412 6.728 19.844 7.755l6.273.57q7.64.685 11.062 3.079 3.42 2.28 3.421 6.273 0 1.834-.601 3.441a9.5 9.5 0 0 1-1.223 2.262q-1.826 2.393-5.361 3.764-3.535 1.367-8.782 1.367-5.816.001-9.465-1.597-3.65-1.71-5.476-4.447-1.71-2.737-1.709-5.93h-18.133q0 8.096 3.99 14.369 3.993 6.159 11.749 9.809M309.393 115.16q-9.467 0-15.281-2.281-5.817-2.396-8.555-7.869-2.622-5.588-2.622-15.054V65.208h-9.466V51.865h9.466V34.986h16.992v16.879h18.248v13.343h-18.248v25.433q0 4.448 2.281 6.841 2.394 2.281 6.729 2.282h9.238v15.396z" fill="#4876EE"/><path fill-rule="evenodd" clip-rule="evenodd" d="M340.143 113.793q6.158 2.737 14.142 2.737 7.868 0 13.913-2.737t10.036-7.641q3.993-4.905 5.359-11.177h-16.764q-1.139 2.85-4.333 4.79-3.195 1.938-8.211 1.938-3.109 0-5.556-.735-1.862-.559-3.34-1.545-3.422-2.282-5.018-6.387a22 22 0 0 1-.761-2.444 26 26 0 0 1-.524-2.688h45.649v-6.159q0-8.553-3.649-15.738-3.652-7.3-10.606-11.747-6.844-4.562-16.881-4.562-7.642 0-13.686 2.737-5.926 2.624-9.92 7.185-3.99 4.562-6.16 10.379-2.052 5.7-2.052 11.974v2.281q0 6.044 2.052 11.861a35.1 35.1 0 0 0 6.16 10.378q4.104 4.562 10.15 7.3m-.742-37.166q.074-.363.162-.714.237-.966.548-1.853.175-.504.375-.982 1.71-4.22 5.016-6.387a12.4 12.4 0 0 1 2.677-1.316q2.42-.85 5.42-.85c3.12 0 5.702.722 7.756 2.166q3.193 2.053 4.79 6.044.13.323.247.655.189.529.352 1.085a23.5 23.5 0 0 1 .663 3.05h-28.182q.08-.456.176-.898" fill="#4876EE"/><path d="M392.266 114.362V51.865h14.484v15.741q.294-1.404.671-2.695.32-1.088.697-2.097 2.396-6.387 7.185-9.58 4.788-3.307 11.747-3.307h.797q7.072 0 11.748 3.306 4.79 3.195 7.185 9.58l.126.322.107.294q.109-.312.222-.615 2.51-6.387 7.3-9.58 4.79-3.307 11.748-3.307h.798q7.069 0 11.859 3.306 4.906 3.195 7.413 9.58 2.51 6.387 2.511 15.967v35.582h-18.249V77.754q.001-5.133-2.737-8.325-2.622-3.195-7.526-3.194-4.905 0-7.755 3.308-2.852 3.193-2.852 8.553v36.266h-18.362V77.754q0-5.133-2.737-8.325-2.623-3.195-7.411-3.194-5.02 0-7.871 3.308-2.851 3.193-2.852 8.553v36.266z" fill="#4876EE"/><path fill-rule="evenodd" clip-rule="evenodd" d="M537.605 102.319v12.041h14.483V76.041q0-8.668-3.421-14.142-3.422-5.588-10.035-8.325-6.5-2.736-16.081-2.737-2.076 0-4.336.045-1.335.027-2.736.069-3.765.114-7.297.342l-1.801.121a285 285 0 0 0-4.358.336v15.396a646 646 0 0 1 10.273-.575 332 332 0 0 1 6.036-.224q4.104-.114 6.614-.114 5.017 0 7.299 2.395 2.28 2.395 2.28 7.185v.228h-11.29q-8.324 0-14.712 2.167-6.388 2.052-9.921 6.5-3.537 4.335-3.536 11.177 0 6.274 2.851 10.834 2.85 4.449 7.868 6.842 5.135 2.397 11.861 2.397 6.5 0 10.95-2.397 4.562-2.393 7.07-6.842.441-.748.825-1.556.542-1.142.969-2.402zm-3.08-11.11v-5.018H523.12q-4.79 0-7.411 2.395-2.51 2.28-2.511 6.273 0 1.878.626 3.417a7.9 7.9 0 0 0 1.885 2.741q2.622 2.282 7.411 2.281.913 0 1.763-.09a14 14 0 0 0 1.349-.205 12.3 12.3 0 0 0 2.364-.731q2.51-1.139 4.103-3.764 1.6-2.623 1.826-7.298" fill="#4876EE"/><path d="M563.008 114.362V51.865h14.484v20.63q1.042-8.835 5.247-14.243 5.7-7.185 16.423-7.185h2.394v15.738h-4.562q-7.526 0-11.633 4.106-4.106 3.992-4.107 11.632v31.819zM624.698 85.166h6.045l19.729 29.195H671l-25.017-35.855 20.569-26.641h-19.158L624.698 81.58V31.108h-18.247v83.253h18.247z" fill="#4876EE"/></svg>