<svg width="588" height="107" viewBox="0 0 588 107" fill="none" xmlns="http://www.w3.org/2000/svg"><path d="M188.419 95.59q-12.706 0-22.465-4.99-9.758-5.106-15.09-14.41t-5.333-21.898q0-12.594 5.333-21.898 5.332-9.417 15.09-14.41 9.759-5.105 22.465-5.105 8.624 0 15.204 1.815 6.694 1.702 12.253 5.446v16.452q-4.991-4.085-11.458-5.9-6.355-1.929-14.523-1.929-7.603 0-13.73 3.177-6.012 3.063-9.53 8.85t-3.518 13.502q0 7.829 3.177 13.729 3.29 5.786 9.19 8.963t13.616 3.177q7.034 0 12.253-2.496V62.348h-12.821V49.64h29.5v38.237Q206.8 95.59 188.419 95.59M222.016 39.429h16.564v7.828q3.292-3.971 9.191-6.013 5.9-2.156 13.388-2.156v13.048q-7.829 0-13.842 2.383-5.9 2.383-8.169 7.261v32.11h-17.132z" fill="#09B44C"/><path d="M294.084 95.59q-15.659 0-24.622-7.487-8.963-7.602-8.963-21.217 0-13.501 7.942-21.33 8.056-7.83 22.92-7.83 9.756 0 16.564 3.631t10.326 10.098q3.516 6.355 3.516 14.41v6.921h-44.929q1.815 10.438 19.514 10.438 5.22 0 10.778-.907 5.562-.907 9.646-2.496v12.026q-3.972 1.703-10.213 2.723a77 77 0 0 1-12.479 1.02m11.458-33.923q-.34-5.446-4.084-8.396-3.743-3.064-10.325-3.064-6.467 0-10.211 3.064t-4.084 8.396zM356.885 95.59q-15.658 0-24.621-7.487-8.963-7.602-8.964-21.217 0-13.501 7.943-21.33 8.055-7.83 22.918-7.83 9.759 0 16.567 3.631 6.805 3.63 10.323 10.098 3.518 6.355 3.519 14.41v6.921h-44.931q1.815 10.438 19.515 10.438 5.22 0 10.779-.907 5.558-.907 9.644-2.496v12.026q-3.971 1.703-10.212 2.723t-12.48 1.02m11.46-33.923q-.342-5.446-4.084-8.396-3.746-3.064-10.326-3.064-6.467 0-10.211 3.064t-4.085 8.396zM388.373 39.429h16.565v6.694q3.745-4.198 8.85-6.24a28.3 28.3 0 0 1 10.893-2.156q11.119 0 16.565 6.013 5.559 5.9 5.56 15.998V93.89h-17.134V61.667q0-10.552-9.758-10.552-4.31 0-8.055 2.156-3.743 2.042-6.354 6.127V93.89h-17.132zM461.921 31.033q-3.969 0-6.693-2.61t-2.723-6.58q0-3.859 2.723-6.468 2.724-2.723 6.693-2.723 3.972 0 6.695 2.723 2.724 2.61 2.723 6.467 0 3.972-2.723 6.58-2.724 2.61-6.695 2.61m-8.623 8.396h17.248V93.89h-17.248zM499.763 95.59q-6.125 0-13.16-1.36-6.921-1.248-10.893-3.63V77.21q4.54 2.722 10.893 4.425t11.8 1.702q4.652 0 6.807-.794 2.155-.795 2.155-2.95 0-1.702-1.246-2.723-1.249-1.135-3.858-1.93-2.497-.906-8.397-2.609-6.92-2.042-10.891-4.084-3.859-2.156-5.9-5.333-1.93-3.177-1.93-8.17 0-8.508 6.695-12.707 6.806-4.311 18.381-4.311 5.672 0 11.686 1.248 6.125 1.134 9.418 3.063v13.048q-3.291-2.156-8.625-3.517-5.217-1.362-10.211-1.362-4.653 0-7.261.908-2.496.908-2.497 3.404 0 2.156 2.383 3.29 2.496 1.135 9.191 2.837l2.269.567q7.147 1.929 11.119 4.312 3.97 2.268 5.56 5.56 1.702 3.175 1.702 8.055 0 7.489-6.467 12.027-6.468 4.425-18.723 4.424M528.913 10.042h17.132V45.67q3.859-3.97 8.737-5.9 4.877-2.043 10.439-2.042 11.119 0 16.565 6.013 5.559 5.9 5.56 15.998V93.89h-17.133V61.667q0-10.552-9.757-10.552-4.313 0-8.056 2.156-3.745 2.042-6.355 6.127V93.89h-17.132z" fill="#09B44C"/><path fill-rule="evenodd" clip-rule="evenodd" d="M87.02 26.096c0 14.412-11.682 26.096-26.095 26.096S34.83 40.508 34.83 26.096 46.513 0 60.925 0 87.02 11.684 87.02 26.096M.224 50.296c28.43-1.917 53.21 19.37 55.517 47.86a52.5 52.5 0 0 1-.016 8.724C27.294 108.797 2.515 87.51.207 59.019a52.6 52.6 0 0 1 .017-8.724m73.896 55.587c28.491-2.308 49.777-27.087 47.861-55.518a52.6 52.6 0 0 0-8.724-.016c-28.491 2.308-49.777 27.086-47.86 55.517 2.856.244 5.77.256 8.723.017" fill="#09B44C"/></svg>