<svg width="315" height="82" viewBox="0 0 315 82" fill="none" xmlns="http://www.w3.org/2000/svg"><path d="M113.1 28.548a6 6 0 0 1 0 8.485L70.529 79.604a6 6 0 0 1-8.485 0l-26.79-26.79a6 6 0 0 1 0-8.485L77.825 1.757a6 6 0 0 1 8.485 0z" fill="#4A6DFF"/><path d="M80.432 28.548a6 6 0 0 1 0 8.485L37.861 79.604a6 6 0 0 1-8.485 0l-26.79-26.79a6 6 0 0 1 0-8.485l42.57-42.572a6 6 0 0 1 8.486 0z" fill="#2EB9FF"/><path d="M160.077 43.677q3.392.633 5.577 3.393t2.185 6.324q0 3.22-1.61 5.692-1.552 2.415-4.542 3.795t-7.072 1.38h-17.306V24.13h16.558q4.083 0 7.015 1.322 2.99 1.322 4.484 3.68 1.553 2.358 1.553 5.347 0 3.507-1.898 5.865-1.839 2.357-4.944 3.334m-14.719-2.99h7.359q2.876 0 4.428-1.264 1.552-1.323 1.552-3.738t-1.552-3.737-4.428-1.322h-7.359zm8.107 17.02q2.933 0 4.542-1.38 1.668-1.38 1.667-3.91 0-2.588-1.725-4.025-1.724-1.495-4.657-1.495h-7.934v10.81zM186.097 64.778q-4.6 0-8.279-2.012-3.68-2.07-5.807-5.807-2.07-3.738-2.07-8.625 0-4.886 2.127-8.624 2.186-3.737 5.922-5.75 3.738-2.07 8.337-2.07t8.337 2.07q3.737 2.013 5.864 5.75 2.185 3.737 2.185 8.624t-2.242 8.625a15.3 15.3 0 0 1-5.98 5.807q-3.736 2.012-8.394 2.012m0-7.014a8.4 8.4 0 0 0 4.082-1.035q1.954-1.093 3.105-3.22 1.15-2.127 1.15-5.175 0-4.542-2.415-6.957-2.357-2.472-5.807-2.472t-5.807 2.472q-2.3 2.416-2.3 6.957t2.243 7.015q2.3 2.415 5.749 2.415M214.369 37.354q1.553-2.531 4.025-3.967 2.53-1.438 5.75-1.438v8.452h-2.128q-3.795 0-5.749 1.782-1.898 1.783-1.898 6.21v15.87h-8.049V32.408h8.049zM225.195 48.22q0-4.83 1.897-8.567 1.954-3.737 5.29-5.75 3.334-2.01 7.416-2.011 3.105 0 5.923 1.38 2.817 1.322 4.484 3.564V21.715h8.165v42.547h-8.165v-4.715q-1.494 2.357-4.197 3.795t-6.267 1.437q-4.024 0-7.359-2.07t-5.29-5.807q-1.897-3.795-1.897-8.682m25.068.115q0-2.932-1.15-5.002-1.15-2.127-3.105-3.22a8.14 8.14 0 0 0-4.197-1.15 8.15 8.15 0 0 0-4.14 1.093q-1.897 1.092-3.105 3.22-1.15 2.07-1.15 4.944t1.15 5.06q1.208 2.127 3.105 3.277 1.954 1.15 4.14 1.15a8.47 8.47 0 0 0 4.197-1.092q1.954-1.15 3.105-3.22 1.15-2.127 1.15-5.06M293.543 47.644q0 1.725-.23 3.105h-23.286q.287 3.45 2.415 5.405 2.127 1.955 5.232 1.955 4.485 0 6.382-3.853h8.682q-1.38 4.6-5.29 7.59-3.91 2.932-9.602 2.932-4.6 0-8.279-2.012-3.622-2.07-5.692-5.807-2.013-3.738-2.012-8.625 0-4.944 2.012-8.681t5.634-5.75 8.337-2.012q4.543 0 8.107 1.954a13.5 13.5 0 0 1 5.577 5.578q2.013 3.564 2.013 8.221m-8.337-2.3q-.058-3.105-2.243-4.944-2.185-1.897-5.347-1.897-2.99 0-5.059 1.84-2.013 1.782-2.473 5.002zM305.166 37.354q1.553-2.531 4.025-3.967 2.53-1.438 5.75-1.438v8.452h-2.128q-3.794 0-5.749 1.782-1.898 1.783-1.898 6.21v15.87h-8.049V32.408h8.049z" fill="#242426"/></svg>