<svg width="62" height="62" viewBox="0 0 62 62" fill="none" xmlns="http://www.w3.org/2000/svg"><circle cx="31" cy="31" r="31" fill="#09B850"/><path d="M13.616 33.26a2.455 2.455 0 1 0 0-4.911 2.455 2.455 0 0 0 0 4.91M48.975 37.336h-.343a1.447 1.447 0 0 1-1.474-1.474V25.746c0-.835.639-1.473 1.474-1.473h.343c.835 0 1.474.638 1.474 1.473V35.91c0 .786-.639 1.425-1.474 1.425M42.442 43.916h-.344a1.447 1.447 0 0 1-1.473-1.473V19.165c0-.835.638-1.474 1.473-1.474h.344c.835 0 1.473.639 1.473 1.474v23.229c0 .834-.687 1.522-1.473 1.522M35.862 35.715h-.344a1.447 1.447 0 0 1-1.473-1.473v-6.876c0-.834.638-1.473 1.473-1.473h.344c.835 0 1.473.639 1.473 1.473v6.876c0 .835-.638 1.473-1.473 1.473M17.692 31.099c.294 1.228 1.031 1.915 1.915 2.062a1.6 1.6 0 0 1 1.13.884l6.433 15.47c.245.54.786.884 1.375.884h.786c.835 0 1.473-.639 1.473-1.473V12.633c0-.834-.638-1.473-1.473-1.473h-.835c-.59 0-1.13.344-1.375.884l-6.434 15.519c-.196.49-.638.786-1.13.884-.883.196-1.62.835-1.914 2.062 0 .197 0 .393.049.59m5.45-.884 3.144-7.612c.245-.639 1.228-.442 1.228.245v15.863c0 .687-.983.884-1.228.245l-3.143-7.612c-.148-.344-.148-.736 0-1.13" fill="#fff"/></svg>