<svg width="211" height="62" viewBox="0 0 211 62" fill="none" xmlns="http://www.w3.org/2000/svg"><circle cx="31" cy="31" r="31" fill="#09B850"/><path d="M13.616 33.26a2.455 2.455 0 1 0 0-4.911 2.455 2.455 0 0 0 0 4.91M48.975 37.336h-.343a1.447 1.447 0 0 1-1.474-1.474V25.746c0-.835.639-1.473 1.474-1.473h.343c.835 0 1.474.638 1.474 1.473V35.91c0 .786-.639 1.425-1.474 1.425M42.442 43.916h-.344a1.447 1.447 0 0 1-1.473-1.473V19.165c0-.835.638-1.474 1.473-1.474h.344c.835 0 1.473.639 1.473 1.474v23.229c0 .834-.687 1.522-1.473 1.522M35.862 35.715h-.344a1.447 1.447 0 0 1-1.473-1.473v-6.876c0-.834.638-1.473 1.473-1.473h.344c.835 0 1.473.639 1.473 1.473v6.876c0 .835-.638 1.473-1.473 1.473M17.692 31.099c.294 1.228 1.031 1.915 1.915 2.062a1.6 1.6 0 0 1 1.13.884l6.433 15.47c.245.54.786.884 1.375.884h.786c.835 0 1.473-.639 1.473-1.473V12.633c0-.834-.638-1.473-1.473-1.473h-.835c-.59 0-1.13.344-1.375.884l-6.434 15.519c-.196.49-.638.786-1.13.884-.883.196-1.62.835-1.914 2.062 0 .197 0 .393.049.59m5.45-.884 3.144-7.612c.245-.639 1.228-.442 1.228.245v15.863c0 .687-.983.884-1.228.245l-3.143-7.612c-.148-.344-.148-.736 0-1.13M108.376 15.96V45h-5.456V29.864l.264-8.492h-.088L95.044 45h-4.972l-8.008-23.628h-.088l.308 8.492V45h-5.5V15.96h8.8L90.82 31.8l1.848 6.556h.088l1.892-6.512L99.84 15.96zm9.973 3.872q-1.892 0-2.816-.792-.924-.836-.924-2.42 0-1.628.924-2.42.924-.836 2.816-.836t2.816.836q.924.792.924 2.42 0 1.584-.924 2.42-.924.792-2.816.792M121.341 23v22h-6.028V23zm5.114 22v-3.872l9.768-11.264 2.508-2.508-3.652.088h-8.536V23h18.876v3.872l-9.724 11.22-2.508 2.552 4.004-.088h8.58V45zm23.031 0v-3.872l9.768-11.264 2.508-2.508-3.652.088h-8.536V23h18.876v3.872l-9.724 11.22-2.508 2.552 4.004-.088h8.58V45zm30.247-31.636v24.86q0 1.54.528 2.156.528.615 1.76.616.748 0 1.232-.088.484-.132 1.232-.352l-.528 3.96q-.748.44-1.892.66a9.4 9.4 0 0 1-2.2.264q-3.212 0-4.708-1.54-1.452-1.584-1.452-5.016v-25.52zm18.319 32.076q-3.477 0-6.072-1.364a9.6 9.6 0 0 1-3.96-3.916q-1.408-2.552-1.408-6.16t1.408-6.16q1.407-2.552 3.916-3.916 2.552-1.364 5.808-1.364 3.344 0 5.676 1.364 2.331 1.32 3.564 3.652 1.232 2.287 1.232 5.236 0 .88-.044 1.672-.045.792-.132 1.408h-17.556v-4.18H205.4l-2.904 1.056q0-2.771-1.276-4.268-1.233-1.496-3.52-1.496-1.673 0-2.904.792-1.189.792-1.804 2.376-.616 1.54-.616 3.916 0 2.332.66 3.872.703 1.495 1.936 2.244 1.275.748 3.036.748 1.935 0 3.124-.748 1.188-.748 1.848-2.068l4.796 1.848a7.6 7.6 0 0 1-2.156 2.948q-1.408 1.232-3.388 1.892-1.936.615-4.18.616" fill="#fff"/></svg>