<svg width="79" height="93" viewBox="0 0 79 93" fill="none" xmlns="http://www.w3.org/2000/svg"><path d="M6.569 31.015a5.81 5.81 0 0 0-5.811 5.81v27.12a5.811 5.811 0 0 0 11.622 0v-27.12a5.81 5.81 0 0 0-5.811-5.81M72.428 31.015a5.81 5.81 0 0 0-5.81 5.81v27.12a5.811 5.811 0 1 0 11.622 0v-27.12a5.81 5.81 0 0 0-5.812-5.81M60.806 31.015H18.19c-1.07 0-1.937.867-1.937 1.937v30.992a9.685 9.685 0 0 0 7.748 9.492v13.753a5.811 5.811 0 0 0 11.622 0v-13.56h7.749v13.56a5.811 5.811 0 0 0 11.622 0V73.436a9.685 9.685 0 0 0 7.748-9.492V32.952c0-1.07-.867-1.937-1.937-1.937M53.581 8.049l4.723-4.719a1.937 1.937 0 1 0-2.74-2.739l-5.5 5.502a26.5 26.5 0 0 0-21.126 0L23.437.587a1.937 1.937 0 0 0-2.74 2.74l4.72 4.722a20.44 20.44 0 0 0-9.163 17.154c0 1.07.867 1.937 1.937 1.937h42.615c1.07 0 1.938-.867 1.938-1.937A20.44 20.44 0 0 0 53.58 8.05" fill="#A4C639"/></svg>