<svg version="1.1" id="Badges" xmlns="http://www.w3.org/2000/svg" x="0" y="0" viewBox="0 0 128 40" xml:space="preserve"><style>.st0{fill:#fff}</style><path d="M124 40H4c-2.2 0-4-1.8-4-4V4c0-2.2 1.8-4 4-4h120c2.2 0 4 1.8 4 4v32c0 2.2-1.8 4-4 4"/><path class="st0" d="M27 19.8c0-3.1 2.6-4.6 2.7-4.7-1.5-2.1-3.7-2.4-4.5-2.5-1.9-.2-3.8 1.1-4.7 1.1-1 0-2.5-1.1-4.1-1.1-2.1 0-4 1.2-5.1 3.1-2.2 3.8-.6 9.4 1.5 12.5 1.1 1.5 2.3 3.2 3.9 3.1s2.2-1 4.1-1 2.4 1 4.1 1 2.8-1.5 3.8-3c1.2-1.7 1.7-3.4 1.7-3.5-.1-.1-3.4-1.3-3.4-5M23.9 10.6c.8-1.1 1.4-2.5 1.3-4-1.2.1-2.8.8-3.6 1.9-.8.9-1.5 2.4-1.3 3.8 1.3.1 2.7-.7 3.6-1.7M49.8 31.1h-2.2l-1.2-3.8h-4.2l-1.1 3.8H39l4.2-12.9h2.6zM46 25.7l-1.1-3.4c-.1-.3-.3-1.2-.7-2.4-.1.5-.3 1.4-.6 2.4l-1.1 3.4zM60.5 26.4c0 1.6-.4 2.8-1.3 3.8-.8.8-1.7 1.2-2.9 1.2s-2.1-.4-2.6-1.3V35h-2.1V25c0-1 0-2-.1-3.1h1.8l.1 1.5c.7-1.1 1.7-1.7 3.1-1.7 1.1 0 2 .4 2.7 1.3.9.8 1.3 1.9 1.3 3.4m-2.1 0c0-.9-.2-1.7-.6-2.2q-.6-.9-1.8-.9c-.5 0-1 .2-1.4.5s-.7.8-.8 1.3c-.1.3-.1.5-.1.6v1.6c0 .7.2 1.2.6 1.7s1 .7 1.6.7q1.2 0 1.8-.9c.5-.6.7-1.4.7-2.4M71.2 26.4c0 1.6-.4 2.8-1.3 3.8-.8.8-1.7 1.2-2.9 1.2s-2.1-.4-2.6-1.3V35h-2.1V25c0-1 0-2-.1-3.1H64l.1 1.5c.7-1.1 1.7-1.7 3.1-1.7 1.1 0 2 .4 2.7 1.3.9.8 1.3 1.9 1.3 3.4m-2.1 0c0-.9-.2-1.7-.6-2.2q-.6-.9-1.8-.9c-.5 0-1 .2-1.4.5s-.7.8-.8 1.3c-.1.3-.1.5-.1.6v1.6c0 .7.2 1.2.6 1.7s1 .7 1.6.7q1.2 0 1.8-.9c.5-.6.7-1.4.7-2.4M83.2 27.5c0 1.1-.4 2-1.1 2.7-.8.8-2 1.1-3.5 1.1-1.4 0-2.5-.3-3.3-.8l.5-1.7c.9.5 1.9.8 3 .8.8 0 1.4-.2 1.8-.5.4-.4.6-.8.6-1.4 0-.5-.2-1-.5-1.3-.4-.4-1-.7-1.8-1-2.3-.8-3.4-2.1-3.4-3.7 0-1.1.4-1.9 1.2-2.6s1.8-1 3.2-1c1.2 0 2.1.2 2.9.6l-.5 1.7c-.7-.4-1.5-.6-2.5-.6-.7 0-1.3.2-1.7.5-.3.3-.5.7-.5 1.2s.2.9.6 1.3c.3.3 1 .6 1.9 1 1.1.4 1.9 1 2.5 1.6.3.5.6 1.2.6 2.1M90 23.4h-2.3v4.5c0 1.1.4 1.7 1.2 1.7.4 0 .7 0 .9-.1l.1 1.6c-.4.2-.9.2-1.6.2-.8 0-1.5-.2-1.9-.7-.5-.5-.7-1.3-.7-2.5v-4.7h-1.4v-1.6h1.4v-1.7l2-.6v2.3H90zM100.3 26.4c0 1.4-.4 2.6-1.2 3.5-.9.9-2 1.4-3.4 1.4s-2.5-.5-3.3-1.4-1.2-2-1.2-3.4.4-2.6 1.3-3.5c.8-.9 2-1.4 3.4-1.4s2.5.5 3.3 1.4c.7.9 1.1 2 1.1 3.4m-2.2.1c0-.9-.2-1.6-.6-2.2-.4-.7-1.1-1.1-1.9-1.1s-1.5.4-1.9 1.1c-.4.6-.6 1.4-.6 2.2 0 .9.2 1.6.6 2.2.4.7 1.1 1.1 1.9 1.1s1.4-.4 1.9-1.1c.4-.6.6-1.4.6-2.2M107 23.6c-.2 0-.4-.1-.7-.1-.7 0-1.3.3-1.7.8-.3.5-.5 1.1-.5 1.8V31H102v-6.4c0-1.1 0-2-.1-2.9h1.8l.1 1.8h.1c.2-.6.6-1.1 1-1.5.5-.3 1-.5 1.5-.5h.5zM116.2 26c0 .4 0 .7-.1.9h-6.2q0 1.35.9 2.1c.5.4 1.2.7 2 .7.9 0 1.8-.1 2.5-.4l.3 1.4c-.9.4-1.9.6-3.1.6-1.4 0-2.6-.4-3.4-1.3-.8-.8-1.2-2-1.2-3.4s.4-2.6 1.1-3.5q1.2-1.5 3.3-1.5c1.3 0 2.4.5 3 1.5.7.8.9 1.8.9 2.9m-1.9-.5c0-.6-.1-1.1-.4-1.6-.4-.6-.9-.9-1.6-.9s-1.2.3-1.6.8c-.3.4-.5 1-.6 1.6h4.2zM45.4 10.3c0 1.1-.3 2-1 2.6-.6.5-1.5.8-2.7.8-.6 0-1.1 0-1.5-.1V7.4c.5-.1 1.1-.1 1.8-.1 1.1 0 1.9.2 2.5.7.5.5.9 1.3.9 2.3m-1.1 0c0-.7-.2-1.3-.6-1.7S42.7 8 42 8c-.3 0-.6 0-.8.1v4.7h.7q1.2 0 1.8-.6c.6-.6.6-1.1.6-1.9M51 11.3c0 .7-.2 1.3-.6 1.7-.4.5-1 .7-1.7.7s-1.2-.2-1.6-.7c-.4-.4-.6-1-.6-1.7s.2-1.3.6-1.7c.4-.5 1-.7 1.7-.7s1.2.2 1.6.7c.4.4.6 1 .6 1.7m-1 0c0-.4-.1-.8-.3-1.1-.2-.4-.5-.5-.9-.5s-.7.2-.9.5-.3.7-.3 1.1.1.8.3 1.1c.2.4.5.5.9.5s.7-.2.9-.6c.2-.2.3-.6.3-1M58.7 9l-1.4 4.6h-.9l-.6-2c-.2-.5-.3-1-.4-1.5-.1.5-.2 1-.4 1.5l-.6 2h-.9L52 9h1l.5 2.2.3 1.5c.1-.4.2-.9.4-1.5l.6-2.2h.8l.6 2.1c.2.5.3 1 .4 1.5l.3-1.5.6-2.1zM63.9 13.6h-1V11q0-1.2-.9-1.2c-.3 0-.5.1-.7.3s-.3.5-.3.8v2.7h-1V9h.9v.7c.1-.2.3-.4.5-.6q.45-.3.9-.3c.4 0 .8.1 1.1.4.4.3.5.8.5 1.5zM66.7 13.6h-1V6.9h1zM72.7 11.3c0 .7-.2 1.3-.6 1.7-.4.5-1 .7-1.7.7s-1.2-.2-1.6-.7c-.4-.4-.6-1-.6-1.7s.2-1.3.6-1.7 1-.7 1.7-.7 1.2.2 1.6.7c.4.4.6 1 .6 1.7m-1 0c0-.4-.1-.8-.3-1.1-.2-.4-.5-.5-.9-.5s-.7.2-.9.5-.3.7-.3 1.1.1.8.3 1.1c.2.4.5.5.9.5q.6 0 .9-.6c.2-.2.3-.6.3-1M77.6 13.6h-.9l-.1-.5c-.3.4-.8.6-1.3.6-.4 0-.8-.1-1-.4s-.4-.6-.4-.9c0-.6.2-1 .7-1.3s1.1-.4 2-.4v-.1q0-.9-.9-.9c-.5 0-.8.1-1.2.3l-.2-.7c.4-.3.9-.4 1.6-.4 1.2 0 1.8.6 1.8 1.9v1.7c-.1.5-.1.8-.1 1.1m-1-1.6v-.7c-1.1 0-1.7.3-1.7.9 0 .2.1.4.2.5s.3.2.5.2.4-.1.6-.2.3-.3.4-.5zM83.4 13.6h-.9v-.7c-.3.6-.8.8-1.5.8-.6 0-1-.2-1.4-.6s-.5-1-.5-1.7.2-1.3.6-1.8c.4-.4.9-.6 1.4-.6.6 0 1 .2 1.3.6V7h1v6.6000000000000005m-1-1.9v-1.1c-.1-.2-.2-.4-.4-.6s-.4-.2-.7-.2c-.4 0-.7.2-.9.5q-.3.45-.3 1.2c0 .75.1.8.3 1.1s.5.5.9.5c.3 0 .6-.1.8-.4.2-.4.3-.7.3-1M92.1 11.3c0 .7-.2 1.3-.6 1.7-.4.5-1 .7-1.7.7s-1.2-.2-1.6-.7c-.4-.4-.6-1-.6-1.7s.2-1.3.6-1.7c.4-.5 1-.7 1.7-.7s1.2.2 1.6.7c.4.4.6 1 .6 1.7m-1.1 0c0-.4-.1-.8-.3-1.1-.2-.4-.5-.5-.9-.5s-.7.2-.9.5-.3.7-.3 1.1.1.8.3 1.1c.2.4.5.5.9.5s.7-.2.9-.6c.2-.2.3-.6.3-1M97.6 13.6h-1V11q0-1.2-.9-1.2c-.3 0-.5.1-.7.3s-.3.5-.3.8v2.7h-1V9h.9v.7c.1-.2.3-.4.5-.6q.45-.3.9-.3c.4 0 .8.1 1.1.4.4.3.5.8.5 1.5zM104.4 9.8h-1.1V12c0 .6.2.8.6.8h.5v.8c-.2.1-.5.1-.8.1-.4 0-.7-.1-.9-.4-.2-.2-.3-.7-.3-1.2V9.8h-.7V9h.7v-.8l1-.3V9h1.1v.8zM109.8 13.6h-1V11q0-1.2-.9-1.2c-.5 0-.8.2-1 .7v3.1h-1V6.9h1v2.8c.3-.5.8-.8 1.4-.8.4 0 .8.1 1 .4.3.3.5.9.5 1.5zM115.3 11.1v.5h-3c0 .5.2.8.4 1 .3.2.6.3 1 .3.5 0 .9-.1 1.2-.2l.2.7q-.6.3-1.5.3c-.7 0-1.3-.2-1.7-.6s-.6-1-.6-1.7.2-1.3.6-1.7c.4-.5.9-.7 1.6-.7s1.2.2 1.5.7c.2.3.3.8.3 1.4m-.9-.3c0-.3-.1-.6-.2-.8-.2-.3-.4-.4-.8-.4-.3 0-.6.1-.8.4-.2.2-.3.5-.3.8z"/></svg>