<svg width="96" height="96" viewBox="0 0 96 96" fill="none" xmlns="http://www.w3.org/2000/svg"><path d="M66.477 0h.683c.548 6.77-2.036 11.829-5.177 15.492-3.081 3.638-7.301 7.166-14.126 6.631-.455-6.673 2.133-11.357 5.27-15.011C56.034 3.705 61.366.674 66.476 0M87.136 70.467v.19c-1.918 5.808-4.653 10.787-7.992 15.407-3.048 4.195-6.783 9.839-13.452 9.839-5.762 0-9.59-3.705-15.496-3.807-6.248-.1-9.683 3.099-15.395 3.904h-1.948c-4.194-.607-7.58-3.929-10.045-6.922C15.536 80.234 9.917 68.81 8.87 54.191v-4.296c.443-10.463 5.527-18.97 12.284-23.093 3.566-2.192 8.47-4.06 13.928-3.225 2.34.363 4.73 1.164 6.825 1.956 1.986.763 4.469 2.117 6.82 2.045 1.594-.046 3.18-.877 4.785-1.463 4.705-1.699 9.317-3.646 15.396-2.731 7.305 1.104 12.49 4.35 15.694 9.358-6.18 3.933-11.066 9.86-10.231 19.982.742 9.194 6.087 14.572 12.764 17.743" fill="#000"/></svg>