<svg width="33" height="28" viewBox="0 0 33 28" fill="none" xmlns="http://www.w3.org/2000/svg"><path fill-rule="evenodd" clip-rule="evenodd" d="M6.854.675c-1.883 0-3.276 1.655-3.214 3.45.06 1.724-.018 3.957-.577 5.779C2.5 11.73 1.55 12.887 0 13.036v1.677c1.551.15 2.5 1.306 3.063 3.133.56 1.82.637 4.054.577 5.779-.062 1.794 1.331 3.45 3.214 3.45h19.294c1.883 0 3.276-1.655 3.214-3.45-.06-1.725.018-3.958.578-5.78.561-1.826 1.509-2.983 3.06-3.132v-1.677c-1.551-.149-2.498-1.306-3.06-3.132-.56-1.821-.638-4.055-.578-5.78.062-1.794-1.33-3.45-3.214-3.45zm15.519 16.25c0 2.472-1.836 3.971-4.882 3.971h-5.186a.56.56 0 0 1-.56-.562V7.415a.563.563 0 0 1 .56-.562h5.156c2.54 0 4.208 1.382 4.208 3.504 0 1.489-1.122 2.822-2.55 3.055v.078c1.944.214 3.254 1.567 3.254 3.436m-5.448-8.291H13.97v4.194h2.49c1.925 0 2.987-.778 2.987-2.17 0-1.304-.913-2.024-2.52-2.024m-2.956 5.859v4.622h3.065c2.005 0 3.066-.808 3.066-2.326s-1.091-2.297-3.195-2.297z" fill="#7952B3"/></svg>