<svg width="462" height="568" viewBox="0 0 462 568" fill="none" xmlns="http://www.w3.org/2000/svg"><path d="M356.497 557.917h14.505a.846.846 0 0 0 .838-.838V400.257a.846.846 0 0 0-.838-.838.845.845 0 0 0-.837.838v155.984h-12.83V400.524a.846.846 0 0 0-.838-.838.845.845 0 0 0-.837.838v156.593c0 .457.38.8.837.8" fill="#000"/><path d="M295.698 567.056H431.42a.846.846 0 0 0 .838-.838v-3.883c0-.419-.343-.8-.762-.838l-60.418-5.216h-14.581l-60.837 5.216a.86.86 0 0 0-.762.838v3.883c-.038.457.343.838.8.838m134.885-1.675H296.535v-2.285l60-5.178h14.429l59.619 5.178zM189.94 401.282h174.44c53.299 0 96.624-44.507 96.624-99.18v-79.839a.845.845 0 0 0-.838-.837H317.705a.845.845 0 0 0-.837.837v41.119c0 35.712-28.287 64.762-63.045 64.762a.77.77 0 0 0-.571.228c-34.759 2.932-64.15 32.629-64.15 66.209v5.863c0 .457.381.838.838.838m269.389-178.181v79.001c0 53.759-42.601 97.505-94.949 97.505H190.778v-4.988c0-34.494 31.827-64.762 68.108-64.762a.9.9 0 0 0 .609-.266c33.046-2.97 59.086-31.525 59.086-66.171v-40.319z" fill="#000"/><path d="M384.219 193.06h16.219v20.978h-16.219z" fill="#DFE3E8"/><path d="M384.218 214.915h16.218a.845.845 0 0 0 .837-.838v-20.978a.844.844 0 0 0-.837-.837h-16.218a.845.845 0 0 0-.838.837v20.978c0 .457.381.838.838.838m15.38-1.713h-14.543v-19.303h14.543z" fill="#000"/><path d="M400.43 199.227v-6.167h-16.218v13.592c1.446.304 4.378.647 7.728-.457 5.254-1.714 7.842-5.825 8.49-6.968M393.463 171.819h.114a2.07 2.07 0 0 0 1.98-2.208c-.571-11.803 12.449-12.792 13.02-12.83a2.1 2.1 0 0 0 1.942-2.247 2.095 2.095 0 0 0-2.246-1.941c-6.13.418-17.551 4.53-16.904 17.246.076 1.105.99 1.98 2.094 1.98" fill="#000"/><path d="M391.634 171.741c.8 0 1.561-.457 1.904-1.256.266-.609 6.396-14.62 2.36-22.653-3.426-6.854-4.226-9.975-4.226-9.975-.266-1.105-1.408-1.828-2.55-1.523-1.105.266-1.828 1.408-1.561 2.512.038.153.837 3.503 4.568 10.889 2.627 5.216-.875 15.534-2.474 19.075a2.12 2.12 0 0 0 1.066 2.779c.342.114.647.152.913.152" fill="#000"/><path d="M392.738 170.752c.913 0 1.751-.609 2.018-1.523.152-.495 3.35-11.917-4.379-17.399-4.644-3.313-5.863-5.978-6.129-7.272a2.07 2.07 0 0 0-2.513-1.561 2.07 2.07 0 0 0-1.561 2.513c.533 2.284 2.323 5.825 7.805 9.746 5.33 3.77 2.817 12.717 2.779 12.793-.304 1.104.305 2.284 1.447 2.589.114.114.342.114.533.114" fill="#000"/><path d="M392.093 170.941h.152c1.142-.076 2.018-1.104 1.942-2.246-.038-.457-.99-11.46-12.868-15.039-7.348-2.208-8.947-7.5-9.023-7.729-.304-1.104-1.485-1.751-2.589-1.446a2.07 2.07 0 0 0-1.446 2.55c.076.305 2.208 7.729 11.84 10.623 9.175 2.779 9.898 11.269 9.898 11.345.114 1.105 1.028 1.942 2.094 1.942" fill="#000"/><path d="M388.897 170.181c.115 0 .191 0 .305-.038 1.142-.153 1.904-1.181 1.751-2.323-.342-2.551-3.045-7.462-10.85-7.881-6.7-.343-8.718-3.541-8.794-3.693-.571-1.028-1.828-1.371-2.856-.799a2.13 2.13 0 0 0-.837 2.855c.114.228 3.008 5.33 12.221 5.825 6.053.305 6.852 3.884 6.929 4.264.228 1.066 1.142 1.79 2.131 1.79" fill="#000"/><path d="m403.178 188.645-12.982-3.198-13.135 3.007-.875-2.779c-3.008-9.442 4.035-19.113 13.971-19.113 9.861 0 16.942 9.557 14.011 18.999z" fill="#000"/><path d="M390.118 202.692c-7.212 0-13.059-6.46-13.059-14.429s5.847-14.43 13.059-14.43 13.058 6.46 13.058 14.43-5.847 14.429-13.058 14.429" fill="#DFE3E8"/><path d="M390.116 203.569c7.652 0 13.896-6.854 13.896-15.268s-6.244-15.267-13.896-15.267-13.896 6.853-13.896 15.267 6.244 15.268 13.896 15.268m0-28.898c6.738 0 12.221 6.092 12.221 13.592s-5.483 13.592-12.221 13.592-12.221-6.091-12.221-13.592c0-7.5 5.482-13.592 12.221-13.592" fill="#000"/><path d="M395.785 194.624a8.32 8.32 0 0 1-4.721 2.132c-4.073.419-7.766-2.247-8.794-6.092z" fill="#fff"/><path d="M406.522 192.91c1.98 0 3.54-1.599 3.54-3.541a3.533 3.533 0 0 0-3.54-3.54 3.534 3.534 0 0 0-3.541 3.54 3.56 3.56 0 0 0 3.541 3.541m0-5.444c1.028 0 1.865.837 1.865 1.865a1.87 1.87 0 0 1-1.865 1.866 1.87 1.87 0 0 1-1.866-1.866c0-1.028.838-1.865 1.866-1.865" fill="#020202"/><path d="m203.286 232.889 100.05 31.562a47.93 47.93 0 0 0 27.487.647l9.936-2.703-9.251 45.231h91.332l-20.939-96.02-33.35-.114c-.99 0-1.98.076-2.932.228a90 90 0 0 0-19.606 3.008l-39.936 10.546-88.02-27.793z" fill="#fff"/><path d="M331.503 308.462h91.332a.81.81 0 0 0 .647-.305.8.8 0 0 0 .152-.723l-20.939-96.02a.815.815 0 0 0-.799-.647l-33.35-.114c-1.028 0-2.056.076-3.008.228a89.7 89.7 0 0 0-19.759 3.046l-39.669 10.508-87.792-27.717c-.418-.114-.875.076-1.027.495l-14.81 35.37a1.06 1.06 0 0 0 0 .685c.076.229.267.381.495.457l100.05 31.562a48.33 48.33 0 0 0 27.982.648l8.642-2.361-8.985 43.898c-.038.228 0 .495.191.685a.81.81 0 0 0 .647.305m90.304-1.675h-89.276l9.061-44.241c.076-.305-.038-.571-.267-.799-.228-.191-.533-.267-.799-.191l-9.937 2.703c-8.908 2.437-18.236 2.209-27.03-.647l-99.174-31.296 14.162-33.846 87.296 27.564a.9.9 0 0 0 .457 0l39.898-10.584a88.8 88.8 0 0 1 19.416-2.97h.076c.876-.114 1.828-.19 2.818-.19l32.664.114z" fill="#000"/><path d="m215.848 202.88-4.835-1.827s1.751-7.767-5.749-12.145c-1.751-1.028-5.52-2.78-8.718-4.264a45.8 45.8 0 0 1-10.127-6.359l-3.541-2.931a4.286 4.286 0 0 0-5.939.419l-.342.38c-1.561 1.752-1.447 4.417.228 6.016l10.964 10.318-6.433 3.464c-3.313 1.79-7.006 2.589-10.775 2.399l-15.114-.609a4.99 4.99 0 0 0-5.139 4.15l-.076.418-8.071-1.104a4.455 4.455 0 0 0-4.911 3.807 4.51 4.51 0 0 0 3.464 5.064l56.611 12.717 8.909 3.045z" fill="#DFE3E8"/><path d="M206.214 226.675a.78.78 0 0 0 .761-.533l9.632-22.958a.95.95 0 0 0 0-.648.9.9 0 0 0-.457-.456l-4.188-1.599c.229-2.133.305-8.491-6.281-12.336-1.447-.838-4.417-2.284-8.795-4.302a44 44 0 0 1-9.936-6.244l-3.541-2.932c-2.132-1.751-5.254-1.523-7.081.533l-.343.381c-1.865 2.056-1.713 5.292.305 7.196l10.127 9.556-5.406 2.932a19.1 19.1 0 0 1-10.317 2.284l-15.153-.609c-2.779-.114-5.291 1.789-5.939 4.454l-7.271-1.028c-2.855-.304-5.444 1.676-5.863 4.493-.419 2.741 1.371 5.406 4.112 6.015l56.573 12.717 8.87 3.046c0 .038.076.038.191.038m8.489-23.339-8.984 21.473-8.147-2.779c-.039 0-.077 0-.077-.038l-56.611-12.717c-1.865-.418-3.084-2.208-2.817-4.111a3.664 3.664 0 0 1 3.997-3.084l8.033 1.104a.823.823 0 0 0 .952-.686l.076-.418c.381-2.056 2.208-3.541 4.302-3.465l15.114.609c3.884.229 7.767-.647 11.193-2.475l6.434-3.464c.229-.114.381-.381.419-.647.038-.267-.076-.533-.267-.724l-10.964-10.318c-1.371-1.294-1.447-3.464-.19-4.835l.342-.381a3.494 3.494 0 0 1 4.797-.342l3.541 2.931c3.16 2.589 6.624 4.798 10.317 6.473 4.264 1.941 7.271 3.388 8.642 4.226 6.929 4.036 5.368 11.155 5.368 11.231-.076.419.114.838.533.99z" fill="#000"/><path d="m186.191 209.427-4.187-1.218a13.92 13.92 0 0 1-6.853-4.416l-9.937-11.498c-1.446-1.637-3.921-1.866-5.596-.457-1.599 1.332-1.904 3.693-.685 5.368l9.822 13.897a10 10 0 0 0 2.97 2.817l6.281 3.922z" fill="#DFE3E8"/><path d="m175.184 205.847-4.34-.494c-2.742-.305-5.368-1.447-7.5-3.199l-11.726-9.708c-1.675-1.409-4.188-1.18-5.597.495-1.37 1.599-1.256 3.921.191 5.406l11.992 12.107c.952.99 2.132 1.752 3.388 2.285l6.853 2.817z" fill="#DFE3E8"/><path d="M161.636 213.541c.342 0 .647-.19.761-.533.19-.419-.038-.913-.457-1.104a9.6 9.6 0 0 1-3.122-2.094l-11.992-12.107c-1.142-1.142-1.218-3.046-.152-4.264a3.17 3.17 0 0 1 4.416-.381l8.947 7.5a.81.81 0 0 0 1.18-.114.813.813 0 0 0-.114-1.18l-8.947-7.5c-2.018-1.676-5.063-1.409-6.777.571-1.637 1.903-1.522 4.797.229 6.548L157.6 210.99c1.066 1.066 2.284 1.904 3.693 2.475.114.038.228.076.343.076" fill="#000"/><path d="M174.843 216.204a.78.78 0 0 0 .762-.533c.19-.419-.038-.914-.457-1.105-3.655-1.522-5.787-3.122-7.386-5.444l-8.223-12.374c-.952-1.37-.723-3.236.533-4.264 1.332-1.104 3.312-.952 4.416.343l9.937 11.498a15 15 0 0 0 7.271 4.645l8.833 1.865a.807.807 0 0 0 .989-.647c.076-.457-.19-.914-.647-.99l-8.756-1.827a13.2 13.2 0 0 1-6.396-4.15l-9.936-11.498c-1.714-1.98-4.759-2.247-6.777-.533-1.904 1.599-2.284 4.454-.838 6.51l8.224 12.336c1.751 2.627 4.187 4.416 8.147 6.053.114.076.19.115.304.115M192.812 198.006c.228 0 .456-.076.609-.267.304-.342.304-.875-.038-1.18l-5.178-4.759c-.343-.305-.876-.305-1.18.038-.305.343-.305.876.038 1.18l5.177 4.759a.84.84 0 0 0 .572.229M347.714 157.618q.228 0 .457-.115c.381-.228.495-.761.266-1.142L261.446 17.205c-.229-.38-.762-.495-1.142-.266-.381.228-.495.761-.267 1.142l86.954 139.156c.152.266.419.381.723.381M348.104 194.812a13.4 13.4 0 0 0 10.964-5.672 13.39 13.39 0 0 0 .457-15.001l-6.244-10.013c-.228-.381-.761-.495-1.142-.267-.38.229-.495.762-.266 1.142l6.243 10.013c2.551 4.074 2.399 9.252-.418 13.136a11.72 11.72 0 0 1-12.297 4.644l-179.808-41.689c-.457-.114-.914.19-.99.609-.115.457.19.914.609.99L345.02 194.47q1.542.342 3.084.342" fill="#000"/><path d="m316.082 198.239 19.34 6.434-7.538-8.49-4.873-1.713a5.33 5.33 0 0 0-6.739 3.16z" fill="#DFE3E8"/><path d="m309.154 229.533 18.579 11.65 22.88-15.534-10.621-18.884c-2.856-5.101-7.462-8.947-12.983-10.888l-3.35-1.181z" fill="#DFE3E8"/><path d="M312.731 247.618a.86.86 0 0 0 .8-.571l17.703-56.462c.076-.228.038-.457-.076-.685a1 1 0 0 0-.533-.419l-13.173-3.046a.825.825 0 0 0-.99.571l-17.398 55.472a.94.94 0 0 0 .038.648.9.9 0 0 0 .495.418l12.868 4.036c.114.038.19.038.266.038m16.637-56.69-17.17 54.787-11.269-3.541 16.904-53.949z" fill="#000"/><path d="m307.323 203.072 22.272 7.843 2.589-7.348-22.272-7.843a3.737 3.737 0 0 0-4.759 2.285l-.114.304a3.736 3.736 0 0 0 2.284 4.759M301.384 209.242l23.414 8.262 2.589-7.348-23.414-8.262c-1.941-.685-4.111.343-4.797 2.284l-.076.267c-.685 1.98.343 4.112 2.284 4.797M296.253 223.976l23.033 8.11 2.589-7.348-23.033-8.11c-1.98-.685-4.15.343-4.835 2.323l-.076.19c-.685 1.98.343 4.15 2.322 4.835" fill="#DFE3E8"/><path d="m309.27 234.749 18.274 6.358 2.589-7.386-30.952-10.85 3.617 6.434a12.14 12.14 0 0 0 6.472 5.444M298.307 212.058l-.152.418c-.686 1.904.609 4.112 2.855 4.912l22.538 7.919 2.589-7.348-22.538-7.919c-2.246-.8-4.607.114-5.292 2.018" fill="#DFE3E8"/><path d="M309.307 212.895a.86.86 0 0 0 .799-.571.85.85 0 0 0-.494-1.066l-7.919-2.779a2.93 2.93 0 0 1-1.79-3.732l.077-.266a3.05 3.05 0 0 1 1.484-1.675 2.88 2.88 0 0 1 2.247-.114l8.984 3.16a.85.85 0 0 0 1.066-.495.85.85 0 0 0-.495-1.066l-8.984-3.16a4.49 4.49 0 0 0-3.503.19 4.6 4.6 0 0 0-2.36 2.627l-.076.266a4.6 4.6 0 0 0 2.817 5.864l7.919 2.779c.038 0 .152.038.228.038" fill="#000"/><path d="M307.858 220.663a.86.86 0 0 0 .8-.571.85.85 0 0 0-.495-1.066l-7.462-2.627a2.86 2.86 0 0 1-1.751-3.617l.152-.419a2.9 2.9 0 0 1 1.447-1.637 2.7 2.7 0 0 1 2.17-.115l7.195 2.551a.85.85 0 0 0 1.066-.495.85.85 0 0 0-.495-1.066l-7.195-2.551c-1.142-.418-2.361-.342-3.465.191s-1.903 1.447-2.322 2.589l-.152.419c-.838 2.36.418 4.949 2.779 5.787l7.462 2.627c.114-.038.19 0 .266 0" fill="#000"/><path d="m326.059 240.193 25.812 20.331 11.078-27.565-26.802-21.358z" fill="#DFE3E8"/><path d="M314.56 206.461a.86.86 0 0 0 .799-.571.85.85 0 0 0-.495-1.066l-7.233-2.551c-.723-.267-1.333-.8-1.637-1.485a2.78 2.78 0 0 1-.114-2.208l.114-.305c.533-1.523 2.208-2.322 3.693-1.789l20.215 7.119a.85.85 0 0 0 1.066-.494.85.85 0 0 0-.495-1.067l-20.215-7.119a4.57 4.57 0 0 0-5.825 2.779l-.114.305a4.48 4.48 0 0 0 .19 3.502c.533 1.105 1.447 1.942 2.627 2.323l7.233 2.551c0 .076.115.076.191.076" fill="#000"/><path d="M351.871 261.362c.076 0 .152 0 .229-.038a.93.93 0 0 0 .571-.495l11.078-27.565c.153-.343.038-.723-.266-.952l-14.734-11.726-7.994-14.201c-2.665-4.721-6.891-8.529-11.879-10.661-.418-.19-.913 0-1.104.457-.19.419 0 .914.457 1.104a23.24 23.24 0 0 1 11.079 9.937l8.071 14.354c.038.076.114.19.19.228l14.391 11.46-10.431 25.966-23.909-18.846c-.076-.038-.152-.115-.228-.115l-17.817-6.244c-2.551-.913-4.683-2.703-5.978-5.025l-2.055-3.655a.9.9 0 0 0-.457-.381l-4.493-1.675a2.95 2.95 0 0 1-1.713-1.523 2.9 2.9 0 0 1-.114-2.246l.076-.191c.533-1.523 2.246-2.36 3.769-1.789l10.165 3.579a.85.85 0 0 0 1.066-.495.85.85 0 0 0-.495-1.066l-10.165-3.579c-2.398-.838-5.063.419-5.901 2.817l-.076.191a4.57 4.57 0 0 0 .19 3.54 4.7 4.7 0 0 0 2.627 2.361l4.226 1.561 1.904 3.388a12.73 12.73 0 0 0 6.891 5.787l17.664 6.206 24.632 19.341a.9.9 0 0 0 .533.191M166.043 152.402c.914 0 1.904-.076 2.894-.228 15.723-2.437 40.811-24.215 62.436-54.178 13.21-18.313 23.261-37.235 28.286-53.264 5.14-16.371 4.455-27.907-1.941-32.514-6.358-4.607-17.551-1.637-31.447 8.414-13.667 9.86-28.439 25.357-41.649 43.631-27.259 37.769-38.794 76.337-25.698 85.969 1.942 1.447 4.34 2.17 7.119 2.17m84.594-140.603c2.436 0 4.492.571 6.167 1.79 5.672 4.073 6.129 15.267 1.294 30.648-4.987 15.915-14.961 34.646-28.058 52.807-21.358 29.621-46.027 51.094-61.332 53.493-3.617.571-6.548.038-8.756-1.6-12.145-8.947-.19-47.286 26.078-83.646 13.097-18.16 27.754-33.504 41.269-43.25 9.289-6.74 17.36-10.242 23.338-10.242M212.495 25.238a.84.84 0 0 0 .571-.229c.343-.304.343-.837.038-1.18L190.757.262c-.305-.343-.838-.343-1.18-.038-.343.304-.343.837-.039 1.18l22.348 23.567c.152.19.381.267.609.267" fill="#000"/><path d="M242.909 57.334a.84.84 0 0 0 .571-.228c.343-.305.343-.838.038-1.18l-25.85-27.26c-.304-.343-.837-.343-1.18-.039s-.343.838-.038 1.18l25.85 27.26c.152.191.381.267.609.267M193.95 44.847c.228 0 .457-.076.609-.267a.84.84 0 0 0-.076-1.18l-27.487-24.442a.84.84 0 0 0-1.18.076.84.84 0 0 0 .076 1.18l27.487 24.443c.152.114.343.19.571.19M233.317 79.872c.229 0 .457-.076.609-.266a.84.84 0 0 0-.076-1.18l-34.797-30.954a.84.84 0 0 0-1.18.076.84.84 0 0 0 .076 1.18l34.797 30.954c.19.114.381.19.571.19M183.485 29.085c.229 0 .457-.077.609-.267a.84.84 0 0 0-.076-1.18l-19.035-16.905a.84.84 0 0 0-1.18.076.84.84 0 0 0 .076 1.18l19.035 16.905c.19.114.381.19.571.19" fill="#000"/><path d="m344.094 257.214 19.378-27.679 46.522 34.418-9.441-52.465h12.525a24.89 24.89 0 0 1 24.365 19.76l12.754 59.965c2.399 11.384-6.281 22.082-17.893 22.082h-1.942c-6.396 0-12.639-2.056-17.817-5.825z" fill="#fff"/><path d="M430.328 314.134h1.941c5.787 0 11.193-2.589 14.848-7.082a18.92 18.92 0 0 0 3.845-15.99l-12.716-60.003c-2.512-11.841-13.096-20.407-25.164-20.407h-12.526a.844.844 0 0 0-.837.837c0 .457.38.838.837.838h12.526c11.307 0 21.205 8.033 23.527 19.075l12.754 60.002c1.104 5.178-.19 10.508-3.502 14.62a17.34 17.34 0 0 1-13.554 6.473h-1.941c-6.282 0-12.259-1.98-17.322-5.673l-67.766-49.761 18.426-26.271 53.832 40.015c.381.266.914.19 1.18-.19.267-.381.19-.914-.19-1.181l-54.556-40.585a.8.8 0 0 0-.647-.153.9.9 0 0 0-.571.343l-19.378 27.679c-.267.381-.19.876.19 1.142l68.414 50.256c5.406 3.96 11.725 6.016 18.35 6.016" fill="#000"/><path d="M410.037 264.793h.19c.457-.115.762-.533.647-.99l-6.89-32.514a.856.856 0 0 0-.99-.648c-.457.115-.762.533-.648.99l6.891 32.514c.038.381.381.648.8.648" fill="#000"/><path d="m359.856 230.298-22.461 18.808 8.032 6.397 16.561-23.834z" fill="#020202"/><path d="M216.886 468.213h42.106v46.106h-42.106z" fill="#DFE3E8"/><path d="M216.884 515.195h42.107c.456 0 .837-.38.837-.837v-46.106a.845.845 0 0 0-.837-.838h-42.107a.845.845 0 0 0-.837.838v46.106c0 .457.38.837.837.837m41.269-1.675h-40.431v-44.469h40.431z" fill="#000"/><path d="m264.59 497.609.685.876c7.919 9.975 7.614 18.617 11.764 32.857l-52.88 19.226-79.111.99-13.515-7.957 4.568-11.231 43.743-14.468 30.076-19.037 6.206-9.251h8.337l7.005 6.548v8.148c7.919 4.721 9.366 7.005 13.287 7.005.076-.038 6.662.647 8.756-5.673l2.17-6.472c1.295-3.883 6.358-4.759 8.909-1.561" fill="#fff"/><path d="m145.043 552.358 79.111-.989c.076 0 .191 0 .267-.039l52.88-19.226a.86.86 0 0 0 .533-1.028c-1.18-4.074-2.018-7.729-2.741-10.965-1.904-8.338-3.388-14.887-9.175-22.159l-.685-.875c-1.371-1.752-3.503-2.551-5.711-2.17-2.208.38-3.921 1.865-4.645 3.997l-2.17 6.473c-1.599 4.797-6.015 5.139-7.842 5.101h-.153c-2.398 0-3.769-.951-6.814-3.007a113 113 0 0 0-5.635-3.617v-7.691a.9.9 0 0 0-.266-.609l-7.005-6.549a.78.78 0 0 0-.571-.228h-8.338a.85.85 0 0 0-.685.381l-6.091 9.137-29.848 18.884-43.667 14.43a.8.8 0 0 0-.495.495l-4.569 11.231c-.152.381 0 .838.343 1.028l13.515 7.957c.153 0 .305.038.457.038m78.959-2.665-78.73.99-12.678-7.462 4.15-10.204 43.4-14.353c.076-.038.115-.038.191-.076l30.076-19.037c.114-.076.19-.152.266-.228l5.939-8.909h7.576l6.51 6.054v7.804c0 .305.153.572.419.724a100 100 0 0 1 5.939 3.845c3.122 2.132 4.873 3.274 7.767 3.274h.038c1.789.077 7.538-.228 9.517-6.243l2.17-6.473a4.18 4.18 0 0 1 3.313-2.855c1.599-.267 3.121.304 4.111 1.561l.685.875c5.521 6.968 7.006 13.402 8.833 21.511.685 3.046 1.485 6.511 2.551 10.318z" fill="#000"/><path d="m131.53 543.602 24.67 4.721 65.406-1.333 55.431-15.686 7.957 7.234 3.35 18.161-21.32 9.366s-15.342-.076-34.797 0l-4.72-4.645h-7.31l-4.759 4.645c-30.418.076-63.388 0-63.388 0l-17.703-9.062-2.855-5.52v-7.881z" fill="#020202"/><path d="M270.678 508.385a.78.78 0 0 0 .571-.229c1.218-1.142 11.84-11.422 13.211-14.924 1.522-3.884-.381-8.262-4.264-9.823-1.866-.724-3.922-.724-5.787.076s-3.274 2.284-4.036 4.15c-1.408 3.503-.647 18.275-.571 19.95 0 .343.229.609.533.723.153.077.229.077.343.077m6.777-23.834c.723 0 1.446.152 2.17.419 3.007 1.18 4.492 4.607 3.312 7.652-.952 2.361-7.69 9.328-11.498 13.059-.228-5.292-.38-15 .533-17.361.572-1.447 1.676-2.627 3.122-3.236.762-.381 1.561-.533 2.361-.533M211.404 510.1a.76.76 0 0 0 .685-.381c.267-.38.152-.913-.228-1.18l-8.718-6.015c-.381-.267-.914-.153-1.181.228-.266.381-.152.914.229 1.18l8.718 6.016a.84.84 0 0 0 .495.152M203.861 515.166a.76.76 0 0 0 .685-.381c.267-.38.152-.913-.228-1.18l-8.718-6.015c-.381-.267-.914-.153-1.181.228-.266.381-.152.914.229 1.18l8.718 6.016a.84.84 0 0 0 .495.152M196.326 520.228a.77.77 0 0 0 .685-.381c.267-.381.152-.914-.228-1.18l-8.719-6.016c-.38-.266-.913-.152-1.18.229-.266.38-.152.913.229 1.18l8.718 6.015a.83.83 0 0 0 .495.153" fill="#000"/><path d="m116.103 317.634 18.241 37.953-41.553 19.973-18.241-37.952z" fill="#DFE3E8"/><path d="M92.747 376.423c.115 0 .267-.038.381-.076l41.573-19.989a.79.79 0 0 0 .381-1.104l-18.236-37.958a.9.9 0 0 0-.495-.419c-.228-.076-.457-.076-.647.038l-41.573 19.988a.79.79 0 0 0-.381 1.104l18.236 37.959c.114.19.266.342.495.419.114 0 .19.038.266.038m40.469-21.245-40.05 19.265-17.513-36.436 40.051-19.265z" fill="#000"/><path d="m110.258 373.332-.495.99c-5.559 11.46-13.477 14.925-24.518 24.824l-40.24-39.329-35.178-70.892 1.294-15.61 12.069-.761 31.98 33.161 30.19 18.884 11.04 1.561 3.617 7.501-2.856 9.137-7.347 3.541c-.838 9.175-2.247 11.46-.571 15 .076.077 2.322 6.283 8.908 5.445l6.777-.876c4.111-.419 7.119 3.731 5.33 7.424" fill="#fff"/><path d="M85.284 400.023c.19 0 .419-.076.571-.229 3.16-2.817 6.091-5.178 8.68-7.234 6.663-5.33 11.955-9.518 16.028-17.856l.495-.99c.99-2.017.761-4.264-.533-6.091-1.294-1.828-3.388-2.741-5.596-2.437l-6.777.876c-4.987.647-7.233-3.198-7.995-4.874-.038-.038-.038-.076-.076-.114-1.028-2.132-.8-3.807-.228-7.424.266-1.713.57-3.845.837-6.625l6.93-3.312c.19-.114.38-.266.418-.495l2.855-9.137c.076-.191.038-.419-.038-.61l-3.617-7.5c-.114-.266-.342-.419-.647-.457l-10.85-1.561-29.962-18.732-31.903-33.085c-.152-.19-.419-.266-.647-.266l-12.069.761c-.418.038-.761.343-.8.762l-1.294 15.609c0 .153 0 .305.077.457l35.177 70.892c.038.076.114.152.152.228l40.203 39.177c.19.191.38.267.61.267m20.406-33.238c1.371 0 2.627.647 3.465 1.79.951 1.294 1.066 2.931.38 4.378l-.495.99c-3.883 7.995-9.022 12.107-15.533 17.285-2.474 1.942-5.215 4.15-8.185 6.777l-39.555-38.682-34.987-70.549 1.218-14.658 10.964-.685 31.713 32.895c.038.038.114.076.153.114l30.19 18.884a.6.6 0 0 0 .342.114l10.584 1.523 3.274 6.815-2.665 8.49-7.005 3.389a.75.75 0 0 0-.457.685c-.266 2.97-.609 5.216-.875 7.005-.572 3.732-.876 5.826.38 8.415v.038c.724 1.637 3.465 6.7 9.746 5.901l6.777-.876c.19-.038.381-.038.571-.038" fill="#000"/><path d="M85.28 400.023c.19 0 .419-.076.571-.229 3.16-2.817 6.092-5.178 8.68-7.234 6.663-5.33 11.955-9.518 16.028-17.856l.495-.99c.99-2.017.762-4.264-.533-6.091-1.294-1.828-3.388-2.741-5.596-2.437l-6.777.876c-4.987.647-7.233-3.198-7.995-4.874-.038-.038-.038-.076-.076-.114-1.028-2.132-.8-3.807-.228-7.424.266-1.713.57-3.845.837-6.625l6.93-3.312c.19-.114.38-.266.418-.495l2.855-9.137c.076-.191.038-.419-.038-.61l-3.617-7.5c-.114-.266-.342-.419-.647-.457l-10.85-1.561-29.962-18.732-31.903-33.085c-.152-.19-.419-.266-.647-.266l-12.069.761c-.418.038-.761.343-.799.762l-1.294 15.609c0 .153 0 .305.076.457l35.177 70.892c.038.076.114.152.152.228l40.203 39.177c.19.191.38.267.61.267m20.406-33.238c1.371 0 2.627.647 3.465 1.79.951 1.294 1.066 2.931.38 4.378l-.495.99c-3.883 7.995-9.022 12.107-15.532 17.285-2.475 1.942-5.216 4.15-8.186 6.777l-39.555-38.682-34.987-70.549 1.218-14.658 10.964-.685 31.713 32.895c.038.038.114.076.153.114l30.19 18.884a.6.6 0 0 0 .342.114l10.584 1.523 3.274 6.815-2.665 8.49-7.005 3.389a.75.75 0 0 0-.457.685c-.266 2.97-.609 5.216-.875 7.005-.571 3.732-.876 5.826.38 8.415v.038c.724 1.637 3.465 6.7 9.746 5.901l6.777-.876c.19-.038.381-.038.571-.038" fill="#000"/><path d="m11.197 273.317 6.434 24.29 30.723 58.252 36.966 43.289-3.045 10.317-14.924 10.889-17.589-15.191s-6.7-13.782-15.19-31.296l2.208-6.282-3.16-6.586-6.358-2.247C14.014 331.378-.148 301.948.004 301.567c.266-.723.418-19.836.418-19.836l3.731-4.949z" fill="#020202"/><path d="M120.729 385.709c1.256 0 2.246-.077 2.931-.267a7.55 7.55 0 0 0 4.569-3.579c.99-1.751 1.256-3.807.685-5.749a7.55 7.55 0 0 0-3.578-4.568c-1.752-.99-3.808-1.257-5.749-.686-3.655 1.028-14.962 10.508-16.218 11.574-.267.229-.343.533-.267.876.076.305.343.533.686.609 1.332.229 11.383 1.79 16.941 1.79m.914-13.44a5.89 5.89 0 0 1 5.672 4.302 5.86 5.86 0 0 1-.533 4.455 5.77 5.77 0 0 1-3.54 2.779c-2.475.685-12.069-.495-17.323-1.256 4.074-3.389 11.726-9.366 14.163-10.052a5.4 5.4 0 0 1 1.561-.228M76.713 331.305c.419 0 .761-.305.838-.724l1.637-10.47a.823.823 0 0 0-.686-.951.82.82 0 0 0-.951.685l-1.638 10.47a.823.823 0 0 0 .686.952c.038.038.076.038.114.038M68.905 326.697c.42 0 .762-.304.838-.723l1.675-10.47a.823.823 0 0 0-.685-.952.823.823 0 0 0-.952.685l-1.675 10.471a.82.82 0 0 0 .685.951c0 .038.038.038.114.038M61.066 322.09c.418 0 .76-.304.837-.723l1.675-10.47a.823.823 0 0 0-.685-.952.823.823 0 0 0-.952.686l-1.675 10.47a.82.82 0 0 0 .685.951c.038.039.076.038.114.038" fill="#000"/><path d="M415.969 307.584v16.258c0 26.498-21.472 47.933-47.931 47.933H266.274v113.267h-64.263V352.168c0-24.633 19.949-44.584 44.581-44.584z" fill="#09B850"/><path d="m276.246 251.236 71.002 55.967h68.604v17.856c0 25.927-21.016 46.943-46.942 46.943h-6.243a86.74 86.74 0 0 1-57.221-21.549l-53.908-47.286-123.159 66.018-29.962-56.805 129.403-65.904c15.685-7.995 34.606-6.129 48.426 4.76" fill="#09B850"/><path d="M362.704 372.842h6.244c26.345 0 47.779-21.435 47.779-47.781v-17.857a.845.845 0 0 0-.838-.837h-68.337l-70.774-55.777c-14.048-11.079-33.426-12.983-49.339-4.873L98.074 311.621a.9.9 0 0 0-.419.495.77.77 0 0 0 .076.647l29.962 56.805a.9.9 0 0 0 .495.418.76.76 0 0 0 .647-.076l82.728-44.393a.83.83 0 0 0 .343-1.142.83.83 0 0 0-1.142-.342l-82.043 43.974-29.162-55.32 128.603-65.485c15.343-7.805 33.997-5.978 47.55 4.683l71.002 55.967c.153.114.343.19.533.19h67.766v17.019c0 25.432-20.672 46.106-46.103 46.106h-6.244a86 86 0 0 1-56.687-21.321L252.07 302.56a.87.87 0 0 0-.951-.115l-7.995 4.303a.83.83 0 0 0-.343 1.142.83.83 0 0 0 1.142.342l7.5-4.035 53.49 46.867a87.5 87.5 0 0 0 57.791 21.778" fill="#202124"/><path d="M251.881 304.235c.228 0 .457-.114.647-.304a.84.84 0 0 0-.076-1.18l-11.193-9.823a.84.84 0 0 0-1.18.076.84.84 0 0 0 .076 1.18l11.193 9.823c.114.152.342.228.533.228M201.966 485.918h64.302a.844.844 0 0 0 .837-.837V372.614h89.581a.845.845 0 0 0 .837-.838.845.845 0 0 0-.837-.838h-90.418a.846.846 0 0 0-.838.838v112.429h-62.588V352.168c0-24.138 19.644-43.745 43.743-43.745h9.899a.845.845 0 0 0 .837-.838.844.844 0 0 0-.837-.837h-9.899c-25.05 0-45.418 20.369-45.418 45.42v132.913c-.038.456.342.837.799.837" fill="#202124"/><path d="M266.272 372.612a.844.844 0 0 0 .837-.837v-13.021a.845.845 0 0 0-.837-.838.846.846 0 0 0-.838.838v13.021c0 .494.343.837.838.837" fill="#202124"/></svg>