<svg width="322" height="227" viewBox="0 0 322 227" fill="none" xmlns="http://www.w3.org/2000/svg"><path d="M99.192 23.2a.5.5 0 0 1-.336-.136c-1.412-2.159-11.634-7.556-22.461-5.532-.202.068-.404-.067-.404-.27-.067-.202.067-.405.27-.405 11.297-2.091 21.654 3.509 23.2 5.87.135.202.067.405-.134.54 0-.135-.067-.068-.135-.068" fill="#fff"/><path d="M97.443 23.198h-.135c-.202-.067-.269-.27-.202-.472.068-.135 4.842-10.592 19.234-8.77.201 0 .336.202.336.404s-.202.337-.404.337c-13.853-1.754-18.426 8.231-18.493 8.366-.067 0-.202.135-.337.135" fill="#fff"/><path d="M98.386 24.682c-.202 0-.337-.134-.337-.337 0-4.183-3.16-10.727-5.245-12.75a.41.41 0 0 1 0-.54.41.41 0 0 1 .538 0c2.152 2.09 5.447 8.905 5.447 13.29-.067.203-.202.337-.403.337" fill="#fff"/><path d="M115.801 105.168c0 18.149-14.661 23.276-32.75 23.276-18.09 0-32.751-5.06-32.751-23.276 0-18.148 14.66-32.856 32.75-32.856s32.751 14.708 32.751 32.856" fill="#202124"/><path d="M117.953 102.2c0 15.383-12.441 18.284-27.841 18.284-15.333 0-27.841-2.834-27.841-18.284 0-15.382 12.44-27.93 27.84-27.93 15.401.067 27.842 12.548 27.842 27.93M96.312 52.952c-8.247-8.273-8.247-21.686 0-29.959s21.616-8.273 29.862 0 8.246 21.686 0 29.96c-8.246 8.272-21.616 8.272-29.863 0" fill="#202124"/><path d="M67.31 89.103c-9.692-9.722-9.692-25.484 0-35.206 9.69-9.722 25.402-9.722 35.093 0 9.69 9.722 9.69 25.484 0 35.206-9.691 9.722-25.403 9.722-35.094 0" fill="#202124"/><path d="M83.94 118.584c-11.623-1.892-19.515-12.877-17.629-24.536S79.148 74.47 90.77 76.363c11.622 1.892 19.514 12.878 17.628 24.537s-12.836 19.577-24.458 17.684M78.531 72.97c-14.856-3.52-24.055-18.454-20.547-33.358S76.378 15.48 91.234 19s24.055 18.454 20.547 33.357C108.273 67.26 93.387 76.49 78.531 72.97" fill="#202124"/><path d="M50.302 103.753c.201 0 .336-.135.336-.338.403-7.758 3.631-15.112 9.011-20.712a.41.41 0 0 0 0-.54.41.41 0 0 0-.538 0c-5.514 5.735-8.742 13.292-9.213 21.185 0 .202.202.405.403.405M117.886 104.428c.201 0 .336-.135.336-.338.067-.607.067-1.282.067-1.889 0-4.115-.874-8.028-2.555-11.739-.068-.202-.269-.27-.471-.202-.202.067-.269.27-.202.472 1.614 3.576 2.488 7.421 2.488 11.469 0 .607 0 1.282-.067 1.822q.1.405.404.405M127.703 51.602c.135 0 .202-.068.269-.135 3.094-3.846 4.708-8.5 4.708-13.426 0-11.874-9.617-21.521-21.453-21.521-1.681 0-3.43.202-5.044.607-.201.067-.336.27-.268.472.067.202.268.337.47.27a19.8 19.8 0 0 1 4.842-.607c11.433 0 20.713 9.31 20.713 20.78 0 4.79-1.547 9.242-4.573 13.02a.358.358 0 0 0 .067.54c.135-.068.202 0 .269 0M60.993 78.656h.067c.202-.068.336-.27.27-.473-.606-2.159-.942-4.453-.942-6.679 0-2.766.47-5.532 1.345-8.096.067-.202 0-.405-.202-.472-.202-.068-.404.067-.47.202a25.1 25.1 0 0 0-1.413 8.366c0 2.361.336 4.655.941 6.882.135.202.27.27.404.27M60.387 59.29c.068 0 .135 0 .202-.068.202-.068.27-.338.135-.473a27.8 27.8 0 0 1-3.094-12.683c0-15.113 12.24-27.391 27.303-27.391.202 0 .336-.135.336-.338 0-.202-.134-.337-.336-.337-15.467 0-27.975 12.616-27.975 28.066 0 4.52 1.076 9.04 3.228 13.088-.068.068.067.135.201.135M130.396 119.742l11.836 72.593c13.047 1.282 25.757 5.06 37.324 11.132l33.893 17.744h-24.344c-12.845-3.441-41.964-10.997-58.507-16.529-1.681-.54-3.026-1.957-3.43-3.711l-12.172-45.472z" fill="#fff"/><path d="M142.301 192.335c-10.289-1.416-15.535 5.937-13.585 11.132-.739-.674-1.21-1.551-1.479-2.496-4.573-14.37-8.608-29.617-12.172-45.472l15.4-35.757c5.783 25.502 10.222 44.798 11.836 72.593" fill="#09B850"/><path d="M127.438 202.793c.067 0 .134 0 .201-.068.202-.067.269-.337.135-.472-1.48-2.766-3.901-9.041-5.246-13.966-.067-.202-.269-.337-.47-.269-.202.067-.337.269-.269.472 1.345 4.992 3.766 11.334 5.312 14.168a.52.52 0 0 0 .337.135" fill="#fff"/><path d="M58.709 105.099c19.368-2.429 38.735-2.159 58.17.742 8.676 1.282 14.661 9.378 13.518 18.081l-1.211 9.31 4.169 11.807c2.892 8.23-.067 17.338-7.262 22.263 0 0-7.6 21.724-2.287 46.147l2.623 12.076H51.58c8.34-18.013 10.088-38.388 4.842-57.481l-13.315-48.912c5.178-5.6 6.12-8.906 15.602-14.033" fill="#09B850"/><path d="M142.029 188.422c.202 0 .404-.202.337-.404-1.816-25.637-6.12-44.46-11.567-68.343-.74-5.532-4.17-10.322-9.213-12.751-.202-.068-.404 0-.471.202-.067.203 0 .405.202.472 4.842 2.294 8.137 6.882 8.809 12.212 5.448 23.883 9.819 42.706 11.567 68.275-.067.135.135.337.336.337M59.178 195.975c.201 0 .336-.135.336-.337a84.4 84.4 0 0 0-2.825-27.796c-.067-.202-.269-.337-.47-.27-.202.068-.337.27-.27.472a84.4 84.4 0 0 1 2.758 27.527c.067.202.269.404.47.404" fill="#fff"/><path d="m142.301 221.144-11.769-10.659c-1.479-1.35-3.497-1.754-5.38-1.215l-16.341 5.06c-2.623.81-5.515.742-8.07-.27-22.394-8.77-45.999-18.283-56.624-18.688 6.321-14.505 10.76-31.439 13.92-50.059l-14.324-25.637c-9.415 27.728-19.57 52.893-22.864 81.431-.337 2.834 1.412 5.465 4.102 6.207 20.914 6.207 49.831 12.144 79.959 18.081h35.844z" fill="#fff"/><path d="m52.995 106.114 5.851-1.012-3.564 32.181 3.631 7.758c.471.945.606 2.092.337 3.104-4.035 17.473-10.222 37.039-15.199 47.293-9.146-.404-20.578 2.024-23.268 5.735 2.488-26.447 10.625-50.869 20.175-84.265 1.681-5.6 6.321-9.782 12.037-10.794" fill="#09B850"/><path d="M123.468 212.167h.067c.202-.068.337-.203.269-.405-4.573-23.343 2.623-44.46 2.69-44.662.068-.203 0-.405-.201-.473-.202-.067-.404.068-.471.203-.067.202-7.398 21.521-2.757 45.067.067.135.201.27.403.27M45.527 193.279c3.968-8.838 7.868-22.804 11.634-36.297.807-2.969 1.682-5.87 2.489-8.771 2.151-7.556 3.026-15.314 3.026-15.382l-.74-.067c0 .067-.874 7.826-3.026 15.314-.807 2.834-1.614 5.803-2.488 8.771-3.766 13.493-7.734 27.391-11.634 36.162zM21.452 198.945c2.286-21.386 8.137-41.491 15.534-66.858 1.413-4.858 2.892-9.85 4.372-15.113 1.546-5.397 6.12-9.58 11.7-10.524l3.094-.54-.134-.742-3.094.54c-5.85 1.012-10.625 5.329-12.306 11.064-1.48 5.262-2.96 10.255-4.371 15.045-7.465 25.435-13.316 45.539-15.602 66.994zM76.328 99.166l8.002-24.963 16.409 7.826 3.766 18.756c.404 2.091 2.152 3.71 4.304 3.98 2.69.27 5.38.675 8.07 1.08.874.135 1.681.337 2.488.607-5.716 21.724-37.928 19.497-60.524-1.35 3.766-.472 7.599-.809 11.365-1.079 2.825-.27 5.245-2.159 6.12-4.858" fill="#fff"/><path d="M117.887 28.055c12.374 20.24 7.532 51.139-3.698 60.719-11.298 9.58-40.888-20.24-40.888-20.24l2.085-33.126z" fill="#fff"/><path d="M104.775 63.403h-.067c-.672-.067-1.21-.674-1.21-1.349l.134-1.484a1.38 1.38 0 0 1 1.345-1.215c.673.068 1.211.675 1.211 1.35l-.135 1.484c-.067.742-.605 1.214-1.278 1.214M117.889 63.403h-.068c-.672-.067-1.21-.674-1.21-1.349l.134-1.484a1.38 1.38 0 0 1 1.345-1.215c.673.068 1.211.675 1.211 1.35l-.135 1.484c0 .742-.605 1.214-1.277 1.214M101.814 55.107c-.134 0-.336-.068-.403-.203a.556.556 0 0 1 .067-.81c1.076-.944 3.766-1.754 5.649-1.011.269.135.404.404.336.742-.134.27-.403.405-.739.337-1.413-.54-3.766.135-4.573.81a.52.52 0 0 1-.337.135M121.183 54.838c-.134 0-.202-.068-.336-.135-1.143-.877-3.363-1.012-4.64-.608-.269.068-.606-.067-.673-.337s.067-.607.336-.675c1.547-.472 4.17-.337 5.649.81a.55.55 0 0 1 .135.742.61.61 0 0 1-.471.203M113.315 80.948c2.152 0 2.959-1.485 3.026-1.485.067-.202 0-.405-.135-.472-.201-.067-.403 0-.47.135 0 .067-.673 1.147-2.354 1.147-2.085 0-5.044-2.361-5.111-2.429a.355.355 0 0 0-.538.068.357.357 0 0 0 .067.54c.135 0 3.161 2.496 5.515 2.496M112.507 72.647a.37.37 0 0 1-.336-.203c-.067-.202 0-.404.202-.472 1.009-.405 1.614-1.484 1.278-2.563l-1.278-4.52c-.067-.203.067-.405.269-.473s.403.068.471.27l1.277 4.52c.404 1.417-.336 2.901-1.748 3.44zM69.267 32.775c.538-2.833 2.757-4.992 5.581-5.397l38.131-5.6c2.959-.404 5.783 1.282 6.792 4.116l4.573 13.223c-4.17 0-7.936-1.282-10.558-3.373-4.573 6.342-13.517 13.898-29.523 11.064 1.883 8.703-3.295 17.879-14.93 26.65-4.438-2.632-.066-40.683-.066-40.683" fill="#202124"/><path d="M114.19 35.676q.1-.303-.202-.405c-.202-.067-.404 0-.471.203-2.488 5.667-6.792 9.985-11.432 11.469-.202.068-.269.27-.202.472.067.203.269.27.471.203 4.774-1.62 9.213-6.072 11.836-11.942" fill="#202124"/><path d="M97.914 21.576c-3.833-1.552-8.272-.877-11.5 1.687-9.683 7.826-13.18 18.89-13.18 32.653v3.98l9.078-.809V48.023c.067-10.997 5.985-21.117 15.602-26.447" fill="#fff"/><path d="M82.781 56.32c-1.412-.945-3.43-1.687-5.312-1.687-1.816 0-3.497.27-5.111.877v.54l-.068 4.587 10.424-.742zM101.679 77.911c.202-.54-.067-1.214-.605-1.417l-12.912-5.06c-.538-.202-1.21.068-1.412.608s.067 1.214.605 1.416l12.912 5.06c.538.203 1.21-.067 1.412-.607" fill="#202124"/><path d="M101.68 80.068a2.156 2.156 0 0 1-2.152-2.16c0-1.191.964-2.158 2.152-2.158s2.152.967 2.152 2.159a2.155 2.155 0 0 1-2.152 2.159" fill="#202124"/><path d="M66.323 71.372c-1.527-6.491 2.479-12.995 8.949-14.528s12.953 2.487 14.481 8.978-2.478 12.995-8.948 14.527-12.954-2.486-14.482-8.977" fill="#fff"/><path d="M74.174 75.346a6.396 6.396 0 0 0 6.388-6.41c0-3.575-2.824-6.409-6.388-6.409s-6.389 2.834-6.389 6.41a6.396 6.396 0 0 0 6.389 6.409m0-12.01c3.093 0 5.649 2.565 5.649 5.668s-2.556 5.667-5.65 5.667c-3.093 0-5.648-2.564-5.648-5.667s2.555-5.667 5.649-5.667M83.925 79.528c.067 0 .135 0 .202-.068a12.52 12.52 0 0 0 6.389-10.93c0-4.385-2.22-8.365-5.986-10.659-.201-.135-.403-.068-.47.135-.135.202-.068.405.134.472 3.497 2.16 5.582 5.87 5.582 10.053 0 4.25-2.287 8.163-6.053 10.254-.201.068-.269.338-.134.473.067.202.202.27.336.27M100.806 89.245h-.135c-4.237-1.755-9.213-4.858-14.66-9.04-.135-.136-.202-.338-.067-.54.134-.136.336-.203.538-.068 5.447 4.183 10.356 7.219 14.525 8.973.202.067.269.27.202.472-.134.068-.269.203-.403.203" fill="#202124"/><path d="M111.432 166.562a.353.353 0 0 1 .471-.135c.067.067 6.725 3.98 13.315.472 14.391-8.366 3.026-33.26 2.959-33.53-.067-.203 0-.405.202-.473.201-.067.403 0 .47.203 0 .067 2.959 6.477 4.035 13.898 1.413 9.782-1.076 16.934-7.195 20.509 0 0-.538.27-.874.405-1.883.877-3.766 1.147-5.515 1.147-4.371 0-7.801-2.024-7.868-2.024-.067-.067-.067-.27 0-.472M85.206 169.934c-1.21 0-2.488-.068-3.833-.27-10.76-1.552-14.19-14.438-14.19-14.573-.067-.202.067-.404.27-.472.201-.067.403.068.47.27 0 .135 3.362 12.549 13.584 14.033 8.81 1.282 14.728-2.429 14.795-2.429.202-.135.404-.067.538.135.135.202.067.405-.134.54-.337.067-4.64 2.766-11.5 2.766M165.636 217.836H92.199a3.84 3.84 0 0 0-3.833 3.845c0 2.092 1.681 3.846 3.833 3.846h73.437a3.84 3.84 0 0 0 3.833-3.846c-.067-2.158-1.749-3.845-3.833-3.845" fill="#fff"/><path d="m161.936 217.701 26.093-60.989a8.36 8.36 0 0 1 7.666-5.06h90.316c1.008 0 1.883.405 2.555 1.012l2.825 2.834-125.824 69.017-4.169-2.293c-1.009-1.08-.067-3.104.538-4.521" fill="#fff"/><path d="M198.385 154.352c-3.363 0-6.389 2.024-7.667 5.06l-26.025 60.989-1.345 3.171a1.39 1.39 0 0 0 1.278 1.956h97.242a2.94 2.94 0 0 0 2.69-1.754l1.412-3.306 26.026-61.056c1.008-2.429-.74-5.06-3.363-5.06z" fill="#202124" stroke="#fff" stroke-miterlimit="10"/><path d="M157.429 219.387c1.211 0 2.219 1.012 2.219 2.226s-1.008 2.226-2.219 2.226-2.219-1.012-2.219-2.226.941-2.226 2.219-2.226m0 3.508c.673 0 1.278-.54 1.278-1.282s-.538-1.282-1.278-1.282a1.28 1.28 0 0 0-1.278 1.282c0 .742.538 1.282 1.278 1.282" fill="#202124"/><path d="M230.464 198.27c-7.614 0-13.786-2.9-13.786-6.477s6.172-6.477 13.786-6.477 13.786 2.9 13.786 6.477-6.172 6.477-13.786 6.477" fill="#fff"/><path d="M97.24 222.018h5.717c.201 0 .336-.135.336-.337s-.135-.337-.336-.337h-5.716c-.202 0-.337.135-.337.337s.135.337.337.337M109.885 222.018h5.716c.202 0 .337-.135.337-.337s-.135-.337-.337-.337h-5.716c-.202 0-.336.135-.336.337s.134.337.336.337M88.434 221.211c.202 0 .336-.135.336-.27.336-1.619 1.749-2.766 3.362-2.766h44.251c.201 0 .336-.135.336-.338 0-.202-.135-.337-.336-.337h-44.25c-1.95 0-3.7 1.417-4.103 3.373-.067.203.068.405.27.405z" fill="#202124"/><path d="M261.868 225.865c1.278 0 2.488-.81 3.026-1.956l27.438-64.295-.672-.27-27.438 64.295a2.57 2.57 0 0 1-2.354 1.551zM215.331 70.559l5.245-6.68h4.035a4.226 4.226 0 0 0 4.237-4.25V43.707a4.226 4.226 0 0 0-4.237-4.25h-36.987a4.226 4.226 0 0 0-4.237 4.25v15.855a4.226 4.226 0 0 0 4.237 4.25h21.654l5.246 6.68q.201.202.403.202c.135.067.269 0 .404-.135" fill="#fff"/><path d="M224.61 40.606a3.09 3.09 0 0 1 3.093 3.103v15.854a3.09 3.09 0 0 1-3.093 3.104h-4.304q-.303 0-.404.202l-4.976 6.342-4.977-6.342q-.202-.202-.403-.202h-21.923a3.09 3.09 0 0 1-3.094-3.104V43.71a3.09 3.09 0 0 1 3.094-3.104z" fill="#09B850"/><path d="M206.522 48.162h12.979c.269 0 .538-.27.538-.54s-.269-.54-.538-.54h-12.979c-.269 0-.538.27-.538.54 0 .337.269.54.538.54M192.668 48.162h8.81c.269 0 .538-.27.538-.54s-.269-.54-.538-.54h-8.81c-.269 0-.538.27-.538.54 0 .337.269.54.538.54M214.726 52.615h4.775c.269 0 .538-.27.538-.54s-.269-.54-.538-.54h-4.775c-.269 0-.538.27-.538.54 0 .337.269.54.538.54M192.667 52.615h17.014c.269 0 .538-.27.538-.54s-.269-.54-.538-.54h-17.014c-.269 0-.538.27-.538.54 0 .337.269.54.538.54M200.806 57.068h18.695c.269 0 .538-.27.538-.54s-.269-.54-.538-.54h-18.695c-.269 0-.538.27-.538.54s.269.54.538.54M236.448 124.8l5.716-7.354h23.806c2.488 0 4.573-2.092 4.573-4.588V95.385c0-2.497-2.085-4.588-4.573-4.588h-40.619c-2.488 0-4.572 2.091-4.572 4.588v17.473c0 2.496 2.084 4.588 4.572 4.588h4.506l5.716 7.354q.202.202.404.202c.269 0 .403-.067.471-.202" fill="#fff"/><path d="M266.038 91.943a3.48 3.48 0 0 1 3.497 3.508v17.406a3.48 3.48 0 0 1-3.497 3.508h-24.075q-.302 0-.404.203l-5.447 7.016-5.447-7.016q-.201-.203-.403-.203h-4.775a3.48 3.48 0 0 1-3.497-3.508V95.383a3.48 3.48 0 0 1 3.497-3.508h40.551z" fill="#09B850"/><path d="M246.199 102.064h16.14c.404 0 .673-.27.673-.674 0-.405-.269-.675-.673-.675h-16.14c-.403 0-.672.27-.672.675 0 .404.336.674.672.674M228.983 102.064h10.962c.403 0 .672-.27.672-.674 0-.405-.269-.675-.672-.675h-10.962c-.403 0-.672.27-.672.675 0 .404.336.674.672.674M256.488 107.595h5.918c.403 0 .672-.269.672-.674s-.269-.675-.672-.675h-5.918c-.404 0-.673.27-.673.675 0 .337.269.674.673.674M238.466 107.595h11.701c.404 0 .673-.269.673-.674s-.269-.675-.673-.675h-11.701c-.404 0-.673.27-.673.675 0 .337.269.674.673.674M215.062 9.163c0-2.698-2.219-4.925-4.909-4.925s-4.909 2.227-4.909 4.925 2.219 4.925 4.909 4.925a4.9 4.9 0 0 0 4.909-4.925m-.941 0a3.91 3.91 0 0 1-3.9 3.913 3.91 3.91 0 0 1-3.901-3.913 3.91 3.91 0 0 1 3.901-3.913 3.91 3.91 0 0 1 3.9 3.913M308.336 192.468c0-2.699-2.219-4.925-4.909-4.925s-4.909 2.226-4.909 4.925 2.219 4.925 4.909 4.925 4.909-2.226 4.909-4.925m-1.009 0a3.91 3.91 0 0 1-3.9 3.913 3.91 3.91 0 0 1-3.901-3.913 3.91 3.91 0 0 1 3.901-3.913c2.152 0 3.9 1.687 3.9 3.913M164.625 133.235a2.774 2.774 0 0 0-2.757-2.766c-1.547 0-2.757 1.282-2.757 2.766a2.773 2.773 0 0 0 2.757 2.766c1.479.067 2.757-1.214 2.757-2.766m-1.009 0a1.74 1.74 0 0 1-1.748 1.754 1.74 1.74 0 0 1-1.749-1.754 1.74 1.74 0 0 1 1.749-1.754c.941 0 1.748.809 1.748 1.754M248.484 50.52a2.773 2.773 0 0 0-2.757-2.766c-1.547 0-2.757 1.282-2.757 2.766a2.774 2.774 0 0 0 2.757 2.766c1.48.068 2.757-1.214 2.757-2.766m-1.008 0a1.74 1.74 0 0 1-1.749 1.754 1.74 1.74 0 0 1-1.748-1.754c0-.945.739-1.754 1.748-1.754.942 0 1.749.81 1.749 1.754M29.118 225.999h292.064a.46.46 0 0 0 .47-.472.46.46 0 0 0-.47-.472H29.118a.46.46 0 0 0-.47.472c-.068.202.201.472.47.472M.536 225.999h17.216a.46.46 0 0 0 .47-.472.46.46 0 0 0-.47-.472H.536a.46.46 0 0 0-.47.472c-.068.202.201.472.47.472M149.996 35.422h14.525a.46.46 0 0 1 .471.472v3.576c0 1.282-1.076 2.361-2.354 2.361h-.403v1.35a2.415 2.415 0 0 1-2.421 2.428h-5.044a2.415 2.415 0 0 1-2.421-2.429v-1.349h-.403c-1.278 0-2.354-1.08-2.354-2.361v-3.576c-.067-.27.135-.472.404-.472m.47 4.048c0 .81.673 1.484 1.48 1.484h6.7250000000000005a.46.46 0 0 1 .471.472.46.46 0 0 1-.471.473h-5.515000000000001v1.349c0 .877.673 1.552 1.547 1.552h5.044c.874 0 1.546-.675 1.546-1.552v-1.822a.46.46 0 0 1 .471-.472h.807c.807 0 1.48-.675 1.48-1.484v-3.104h-13.585zM157.259 30.363a.46.46 0 0 1-.471-.472v-8.973c-1.749-.067-3.497-.81-4.842-2.091-.202-.203-.202-.473 0-.675s.471-.202.672 0a6.36 6.36 0 0 0 9.012 0l.269-.27c.202-.202.471-.202.672 0 .202.203.202.473 0 .675l-.269.27c-1.277 1.282-2.891 1.956-4.573 2.091v9.04c0 .203-.269.405-.47.405" fill="#fff"/><path d="M143.472 13.835a.46.46 0 0 1 .471.472c0 3.103 1.076 6.14 3.026 8.5 2.287 2.767 3.497 5.937 3.497 9.243v.27h13.584v-.202c0-3.239 1.211-6.477 3.497-9.243a13.17 13.17 0 0 0 3.027-8.366c.067-7.084-5.851-13.29-12.98-13.493-5.379-.135-10.356 2.968-12.575 7.893-.135.203-.404.338-.605.203-.202-.135-.337-.405-.202-.607 2.354-5.33 7.666-8.636 13.45-8.501 7.666.202 13.92 6.68 13.853 14.37 0 3.239-1.143 6.41-3.228 8.973-2.152 2.631-3.295 5.667-3.295 8.636v.674a.46.46 0 0 1-.471.473h-14.526a.46.46 0 0 1-.47-.473v-.674c0-3.036-1.144-6.005-3.296-8.636a14.5 14.5 0 0 1-3.228-9.108c0-.202.202-.405.471-.405" fill="#fff"/></svg>