<svg width="270" height="257" viewBox="0 0 270 257" fill="none" xmlns="http://www.w3.org/2000/svg"><g clip-path="url(#a)" fill="#fff"><path d="M103.343 147.899c-1.305-.35-2.345-.998-2.997-1.911-1.166-1.656-.806-3.985.996-6.376l19.512-25.85c2.662-3.53 8.015-6.472 12.965-7.122 2.819-.379 5.186.045 6.669 1.207l18.322 14.24c1.245.967 1.748 2.34 1.474 3.954-.693 3.768-5.591 7.965-11.426 9.749l-37.828 11.585c-2.964.919-5.668 1.064-7.687.524m34.77-40.346c-1.182-.317-2.615-.385-4.208-.152-4.758.623-9.893 3.438-12.434 6.817l-19.512 25.85c-1.6 2.128-1.96 4.061-.963 5.462 1.431 2.044 5.269 2.493 9.78 1.118l37.811-11.616c6.325-1.943 10.333-6.167 10.896-9.153.25-1.33-.146-2.411-1.178-3.189l-18.322-14.241c-.5-.397-1.132-.698-1.87-.896"/><path d="M101.655 151.242c-1.231-.33-2.235-.915-2.932-1.761-1.344-1.678-1.188-4.035.512-6.637l18.628-28.75c4.314-6.646 15.827-10.916 20.894-7.766l21.77 13.583c1.493.928 2.193 2.354 2.016 4.099-.388 4.008-5.333 8.773-11.491 11.076l-40.391 15.142c-3.441 1.319-6.642 1.647-9.006 1.014m35.124-44.917c-5.244-1.405-14.62 2.568-18.262 8.182L99.89 143.256c-1.485 2.291-1.692 4.345-.559 5.729 1.745 2.155 6.199 2.373 11.069.541l40.392-15.142c6.718-2.523 10.679-7.261 10.972-10.424.154-1.462-.414-2.589-1.656-3.37l-21.77-13.583c-.447-.304-.968-.523-1.559-.682"/><path d="M100.132 154.866c-1.157-.31-2.1-.826-2.793-1.592-1.537-1.65-1.54-4.102-.028-6.887l17.317-31.737c3.991-7.313 16.179-12.719 22.096-9.79l25.483 12.628c1.772.87 2.694 2.356 2.656 4.27-.096 4.297-4.875 9.528-11.409 12.443l-42.775 19.116c-3.979 1.754-7.79 2.288-10.547 1.549m35.067-49.729c-5.859-1.57-16.373 3.495-19.885 9.908l-17.317 31.737c-1.345 2.46-1.362 4.59-.075 5.99 1.762 1.895 6.276 2.577 12.441-.146l42.793-19.085c7.013-3.129 10.878-8.394 10.958-11.746.026-1.575-.751-2.811-2.241-3.553l-25.483-12.628c-.361-.228-.773-.365-1.191-.477"/><path d="M98.908 158.836c-1.058-.284-1.96-.762-2.678-1.429-1.729-1.624-1.97-4.166-.63-7.102l15.543-34.769c3.577-8.03 16.378-14.643 23.197-12.025l29.492 11.355c2.107.802 3.281 2.329 3.382 4.412.247 4.495-4.455 10.326-11.171 13.824l-45.067 23.432c-4.502 2.326-8.941 3.14-12.068 2.302m34.429-54.83c-6.549-1.755-18.239 4.55-21.513 11.844l-15.543 34.769c-1.175 2.611-1.008 4.844.472 6.216 2.106 1.988 7.229 2.464 13.858-1.005l45.042-23.438c7.264-3.774 10.983-9.578 10.763-13.09-.113-1.744-1.112-3.04-2.881-3.725l-29.491-11.355c-.215-.084-.461-.15-.707-.216"/><path d="M97.977 163.094c-.96-.257-1.825-.673-2.538-1.26-1.952-1.578-2.416-4.18-1.344-7.293l13.258-37.859c3.05-8.725 16.381-16.725 24.164-14.455l33.742 9.674c2.448.709 3.924 2.29 4.214 4.556.615 4.698-3.924 11.1-10.811 15.238l-46.975 28.192c-5.033 3.028-10.164 4.157-13.71 3.207m33.212-60.138c-7.336-1.965-20.237 5.807-23.093 14.004l-13.258 37.859c-.986 2.794-.59 5.061 1.099 6.437 2.989 2.435 9.308 1.598 15.371-2.024l47-28.185c7.511-4.498 10.94-10.697 10.446-14.467-.246-1.937-1.515-3.305-3.65-3.904l-33.742-9.673z"/><path d="M97.409 167.686c-.862-.231-1.642-.571-2.332-1.046-2.2-1.539-2.941-4.189-2.114-7.473l10.409-40.916c2.394-9.428 16.157-18.841 24.981-17.109l38.234 7.582c2.828.573 4.655 2.223 5.158 4.677 1.018 4.965-3.194 11.824-10.266 16.65l-48.643 33.334c-5.559 3.809-11.39 5.383-15.427 4.301m69.602-58.084c-.172-.046-.369-.099-.573-.127l-38.233-7.582c-8.319-1.649-21.807 7.627-24.088 16.531L93.708 159.34c-.748 2.989-.15 5.285 1.813 6.628 3.557 2.482 10.509 1.155 16.881-3.227l48.643-33.333c7.597-5.213 10.769-11.929 9.95-15.865-.418-1.984-1.793-3.354-3.984-3.941"/><path d="M97.173 172.5a8.2 8.2 0 0 1-1.971-.818c-2.461-1.45-3.529-4.162-3.002-7.605l6.917-43.934c1.595-10.091 15.706-21.097 25.585-19.953l42.98 5.032c3.276.377 5.486 2.076 6.239 4.782 1.448 5.133-2.471 12.571-9.536 18.059l-49.879 38.933c-6 4.666-12.754 6.731-17.333 5.504m70.453-66.871-.05.382-42.98-5.032c-9.367-1.087-23.214 9.727-24.72 19.288l-6.918 43.934c-.503 3.16.397 5.51 2.608 6.814 4.193 2.468 11.773.571 18.418-4.634l49.898-38.901c6.808-5.32 10.635-12.413 9.262-17.236-.671-2.42-2.607-3.862-5.599-4.215z"/><path d="M97.467 177.613a9 9 0 0 1-1.56-.577c-2.779-1.35-4.211-4.08-4.009-7.69l2.73-46.822c.618-10.774 14.935-23.439 25.951-22.992l47.914 1.979c3.756.163 6.436 1.882 7.493 4.828 1.885 5.276-1.661 13.289-8.619 19.464l-50.645 44.843c-6.4 5.666-14.011 8.372-19.255 6.967m71.008-75.738-.025.389-47.915-1.979c-10.44-.425-24.526 12.065-25.122 22.265l-2.73 46.822c-.204 3.319 1.03 5.706 3.55 6.935 4.907 2.369 13.116-.203 19.936-6.257l50.627-44.874c6.745-5.969 10.192-13.613 8.396-18.628-.97-2.685-3.313-4.182-6.785-4.322z"/><path d="M98.329 182.958a13 13 0 0 1-.996-.32c-3.158-1.215-4.979-3.97-5.157-7.734l-2.183-49.562c-.225-5.069 2.476-11.014 7.443-16.352 5.488-5.91 12.599-9.699 18.555-9.87l52.976-1.647c4.311-.136 7.467 1.58 8.89 4.834 2.4 5.52-.607 13.887-7.504 20.817l-50.794 51.209c-6.734 6.815-15.272 10.221-21.23 8.625m74.001-84.346c-1.01-.27-2.114-.382-3.339-.341l-52.994 1.616c-5.746.174-12.669 3.854-18.02 9.643-4.746 5.108-7.434 11.004-7.235 15.775l2.207 49.569c.146 3.492 1.762 5.928 4.655 7.046 5.695 2.185 14.479-1.155 21.414-8.127l50.794-51.209c6.545-6.603 9.568-14.834 7.329-19.968-.881-2.029-2.546-3.397-4.811-4.004"/><path d="m99.796 188.517-.221-.059c-3.575-1.037-5.872-3.788-6.481-7.72l-7.92-52.075c-.77-5.108 1.38-11.36 5.904-17.212 5.432-6.98 13.017-11.748 19.797-12.436l58.19-5.839c4.91-.503 8.622 1.204 10.467 4.756 2.924 5.633.458 14.541-6.141 22.131l-50.275 57.938c-6.983 8.04-16.525 12.337-23.32 10.516m69.311-94.907.031.377-58.19 5.839c-6.588.659-13.954 5.302-19.266 12.129-4.39 5.651-6.488 11.706-5.747 16.623l7.92 52.074c.57 3.685 2.607 6.129 5.935 7.099 6.541 1.885 15.871-2.311 22.74-10.223l50.262-57.889c6.403-7.352 8.826-15.903 6.04-21.262-1.689-3.247-5.15-4.807-9.707-4.341z"/><path d="M101.976 194.268c-3.644-.976-6.19-3.583-7.221-7.418l-14.512-54.262c-1.367-5.138.157-11.715 4.231-18.056 5.197-8.071 13.145-13.902 20.764-15.156L168.7 88.73c5.554-.937 9.916.707 12.282 4.583 3.532 5.823 1.753 15.02-4.58 23.393l-48.95 64.909c-6.833 9.056-16.985 14.349-24.657 12.847-.271-.073-.548-.121-.819-.193M174.817 89.63c-1.748-.468-3.762-.533-6-.158l-63.462 10.647c-7.402 1.233-15.149 6.907-20.226 14.825-3.94 6.14-5.456 12.483-4.14 17.422L95.5 186.628c1.049 3.866 3.61 6.319 7.425 7.051 7.401 1.429 17.223-3.715 23.892-12.551l48.95-64.91c6.025-8.007 7.868-17.055 4.528-22.51-1.239-2.072-3.114-3.445-5.478-4.078"/><path d="M104.944 200.124c-3.594-.963-6.292-3.399-7.697-7.018l-22.03-56.04c-2.041-5.186-1.148-12.064 2.427-18.908 4.73-8.987 13.119-16.07 21.398-18.017L167.8 84.007c6.138-1.44 11.343.113 14.29 4.277 4.168 5.914 3.093 15.538-2.756 24.567l-46.735 72.198c-6.446 9.977-16.931 16.314-25.516 15.464-.74-.093-1.449-.204-2.139-.389m62.943-115.751.087.366-68.74 16.165c-8.056 1.901-16.27 8.821-20.897 17.624-3.468 6.636-4.35 13.28-2.387 18.261l22.03 56.039c1.602 4.067 4.783 6.475 9.178 6.914 8.301.827 18.486-5.379 24.787-15.105l46.709-72.205c5.672-8.761 6.766-18.063 2.786-23.69-2.797-3.939-7.565-5.348-13.473-3.979z"/><path d="M108.795 206.033c-3.496-.936-6.302-3.165-8.071-6.512l-30.515-57.364c-2.769-5.223-2.6-12.453.453-19.807 4.153-9.985 12.66-18.196 21.675-20.921l73.93-22.34c6.835-2.07 12.845-.67 16.523 3.821 4.847 5.938 4.575 16.014-.673 25.653l-43.44 79.697c-5.879 10.814-16.6 18.327-26.001 18.26a14 14 0 0 1-3.881-.487M166.49 79.834l-73.93 22.34c-8.786 2.654-17.117 10.703-21.186 20.473-2.975 7.163-3.152 14.127-.491 19.163l30.49 57.358c2.242 4.238 6.258 6.58 11.266 6.604 9.142.05 19.582-7.301 25.339-17.857l43.44-79.698c5.095-9.363 5.411-19.11.764-24.81-3.46-4.223-9.175-5.543-15.692-3.573"/><path d="M113.537 211.97c-3.397-.91-6.238-2.911-8.309-5.917l-39.973-58.106c-3.628-5.269-4.263-12.846-1.739-20.789 3.445-10.887 11.915-20.242 21.581-23.82l78.979-29.265c7.557-2.798 14.474-1.63 18.969 3.16 5.662 6.05 6.309 16.24 1.672 26.649l-38.998 87.346c-5.233 11.751-15.723 20.275-26.082 21.217-2.185.178-4.229.026-6.1-.475m62.418-138.114c-3.447-.923-7.433-.62-11.644.913L85.357 104.04c-9.436 3.508-17.717 12.65-21.109 23.34-2.44 7.729-1.845 15.058 1.626 20.127l39.98 58.081c3.061 4.431 7.915 6.602 13.704 6.071 10.085-.909 20.319-9.265 25.431-20.759l38.998-87.346c4.501-10.102 3.93-19.982-1.532-25.795-1.779-1.926-3.989-3.23-6.5-3.903"/><path d="M119.284 217.806c-3.225-.864-6.077-2.63-8.376-5.276l-50.495-58.131c-4.598-5.291-6.104-13.26-4.193-21.869 2.611-11.715 10.902-22.173 21.078-26.669l83.73-36.954c8.258-3.639 16.163-2.812 21.661 2.272 6.497 5.985 8.152 16.55 4.316 27.517l-33.26 95.078c-4.322 12.39-14.641 22.146-25.624 24.238-3.114.59-6.129.52-8.837-.206M161.22 69.275l.167.361-83.748 36.922c-9.965 4.395-18.073 14.664-20.643 26.128-1.876 8.38-.41 16.101 4.032 21.193l50.463 58.149c4.034 4.639 9.895 6.499 16.519 5.217 10.735-2.053 20.784-11.592 25.041-23.736l33.26-95.078c3.732-10.678 2.171-20.902-4.113-26.698-5.267-4.865-12.87-5.637-20.829-2.128z"/><path d="M126.102 223.481c-3.028-.811-5.784-2.341-8.202-4.544l-62.074-57.359c-5.712-5.273-8.261-13.68-6.993-23.04 1.683-12.387 9.608-23.944 20.227-29.402l88.136-45.42c8.935-4.592 17.88-4.199 24.562 1.098 7.419 5.889 10.213 16.733 7.308 28.265L163.01 195.834c-3.333 13.13-12.982 23.83-24.611 27.252-4.355 1.284-8.53 1.404-12.297.395m31.268-159.43.173.337L69.4 109.833c-10.382 5.364-18.16 16.67-19.802 28.804-1.227 9.108 1.228 17.279 6.75 22.37l62.075 57.359c5.206 4.795 12.211 6.224 19.747 3.999 11.35-3.364 20.809-13.851 24.07-26.711l26.056-102.755c2.851-11.23.157-21.758-7.025-27.451-6.419-5.094-15.08-5.465-23.716-1.004z"/><path d="M133.931 228.822a22.6 22.6 0 0 1-7.636-3.707l-74.782-55.624c-7.016-5.227-10.764-14.087-10.218-24.3.676-13.157 7.946-25.417 18.99-31.974l92.049-54.705c9.416-5.596 19.749-5.753 27.635-.424 8.602 5.81 12.571 16.6 10.655 28.872l-17.298 110.347c-2.122 13.534-11.128 25.382-22.973 30.195-5.57 2.277-11.277 2.698-16.422 1.32m18.62-169.936.198.343-92.067 54.675c-10.795 6.412-17.918 18.422-18.608 31.337-.506 9.961 3.098 18.571 9.92 23.641l74.781 55.624c6.517 4.83 14.997 5.679 23.318 2.294 11.583-4.726 20.425-16.354 22.499-29.61l17.292-110.323c1.886-11.963-1.977-22.461-10.334-28.1-7.618-5.153-17.635-4.99-26.794.438z"/><path d="M142.977 233.855a26.1 26.1 0 0 1-6.728-2.857l-88.54-52.826c-8.552-5.112-13.652-14.439-13.98-25.624-.41-13.633 6.25-26.768 17.38-34.33l95.325-64.767c9.935-6.748 21.46-7.614 30.806-2.316 9.781 5.547 15.188 16.485 14.443 29.308l-6.785 117.592c-.801 14.02-8.75 26.652-20.713 32.989-6.985 3.716-14.413 4.652-21.208 2.831m3.686-180.079.23.325-95.35 64.761c-10.905 7.411-17.45 20.313-17.047 33.68.327 10.895 5.276 19.998 13.6 24.97l88.566 52.832c8.123 4.839 18.014 4.854 27.176.007 11.744-6.211 19.522-18.599 20.307-32.359l6.785-117.593c.714-12.514-4.524-23.196-14.06-28.572-9.095-5.152-20.298-4.305-29.984 2.299z"/><path d="M153.142 238.371a32.4 32.4 0 0 1-5.284-1.943l-103.437-48.83c-10.33-4.877-17.017-14.682-18.353-26.929-1.537-13.96 4.395-27.923 15.448-36.481l97.843-75.638c10.345-7.983 23.053-9.718 34.016-4.645 11.153 5.15 18.166 16.202 18.754 29.566l5.602 124.444c.636 14.167-6.211 27.806-17.894 35.562-8.382 5.583-17.856 7.262-26.695 4.894m15.027-195.519c-9.479-2.54-19.734-.305-28.32 6.33L42.006 124.82c-10.846 8.376-16.662 22.106-15.152 35.77 1.304 11.974 7.84 21.554 17.912 26.309l103.438 48.831c10.004 4.71 21.366 3.669 31.223-2.89 11.458-7.605 18.184-20.987 17.555-34.889l-5.626-124.45c-.593-13.049-7.437-23.845-18.302-28.892a30 30 0 0 0-4.885-1.757"/><path d="M164.253 242.193a45 45 0 0 1-3.019-.941L41.862 197.826c-12.192-4.427-20.95-14.971-23.45-28.189-2.686-14.4 2.238-28.739 13.242-38.39l99.383-87.299c10.565-9.294 24.446-12.06 37.166-7.438 12.696 4.614 21.55 15.685 23.688 29.57l19.987 130.723c2.221 14.461-3.213 28.636-14.538 37.912-9.588 7.817-21.737 10.519-33.087 7.478m.684-205.9c-11.596-3.107-23.873-.123-33.396 8.239L32.157 131.83c-10.796 9.47-15.654 23.562-12.995 37.665 2.444 12.939 11.02 23.277 22.947 27.606l119.372 43.426c11.927 4.329 25.128 1.936 35.331-6.402 11.118-9.094 16.448-22.98 14.267-37.193L191.091 66.208c-2.074-13.63-10.759-24.445-23.159-28.98a45 45 0 0 0-2.995-.935"/><path d="M176.511 245.292 40.173 208.76c-14.475-3.878-25.446-14.831-29.323-29.314-3.877-14.482.13-29.436 10.722-40.015l99.75-99.694c10.623-10.597 25.601-14.597 40.076-10.719 14.476 3.88 25.447 14.832 29.324 29.315l36.563 136.219c3.877 14.483-.129 29.436-10.722 40.015s-25.576 14.604-40.052 10.725M121.62 40.002l.268.282-99.775 99.688c-10.41 10.391-14.344 25.073-10.524 39.277 3.82 14.203 14.584 24.943 28.789 28.749l136.338 36.532c14.205 3.806 28.896-.113 39.306-10.504s14.344-25.073 10.524-39.276L189.983 58.53c-3.82-14.203-14.577-24.968-28.782-28.774s-28.897.113-39.307 10.503z"/></g><defs><clipPath id="a"><path fill="#fff" d="m53.102 0 216.595 58.037-53.102 198.18L-.001 198.18z"/></clipPath></defs></svg>