<svg width="500" height="500" viewBox="0 0 2084 2084" xmlns="http://www.w3.org/2000/svg" xml:space="preserve" fill-rule="evenodd" clip-rule="evenodd" stroke-linejoin="round" stroke-miterlimit="2"><g opacity=".32"><clipPath id="a"><path d="m2067.07 496.032-409.551 1528.47-1670.49-447.609L396.581 48.423l1670.49 447.608z"/></clipPath><g opacity=".33" fill="#7312ab" fill-rule="nonzero" clip-path="url(#a)"><path d="M797.036 1190.8c-10.066-2.691-18.086-7.689-23.116-14.731-8.991-12.779-6.214-30.733 7.683-49.175L932.09 927.525c20.53-27.232 61.816-49.916 99.992-54.936 21.742-2.915 39.998.347 51.436 9.31l141.308 109.834c9.603 7.449 13.481 18.046 11.367 30.495-5.344 29.061-43.12 61.43-88.122 75.189l-291.75 89.35c-22.859 7.088-43.714 8.206-59.285 4.033M1065.2 879.638c-9.117-2.444-20.169-2.968-32.455-1.179-36.696 4.805-76.299 26.522-95.898 52.576l-150.486 199.369c-12.341 16.419-15.112 31.328-7.427 42.133 11.036 15.765 40.637 19.22 75.428 8.622l291.618-89.587c48.782-14.986 79.694-47.564 84.036-70.594 1.928-10.258-1.125-18.603-9.086-24.596L1079.622 886.55c-3.857-3.07-8.73-5.392-14.422-6.912"/><path d="M784.017 1216.59c-9.494-2.546-17.236-7.059-22.611-13.583-10.369-12.941-9.161-31.12 3.948-51.188l143.668-221.736c33.272-51.265 122.065-84.188 161.144-59.895l167.902 104.759c11.515 7.158 16.914 18.156 15.549 31.614-2.993 30.912-41.131 67.655-88.625 85.424l-311.516 116.784c-26.54 10.172-51.227 12.703-69.46 7.821zm270.895-346.425c-40.444-10.835-112.757 19.798-140.846 63.104l-143.661 221.727c-11.451 17.671-13.047 33.504-4.308 44.186 13.455 16.612 47.807 18.294 85.367 4.172l311.524-116.782c51.812-19.46 82.363-56.002 84.622-80.396 1.188-11.277-3.193-19.968-12.772-25.991l-167.901-104.759c-3.447-2.352-7.466-4.034-12.025-5.261"/><path d="M772.27 1244.54c-8.926-2.392-16.203-6.372-21.54-12.279-11.852-12.726-11.872-31.637-.216-53.116l133.558-244.772c30.78-56.403 124.78-98.097 170.415-75.507l196.538 97.394c13.667 6.71 20.778 18.172 20.485 32.934-.741 33.14-37.598 73.484-87.992 95.966l-329.904 147.432c-30.687 13.528-60.08 17.646-81.344 11.948m270.456-383.536c-45.188-12.109-126.278 26.954-153.364 76.415l-133.558 244.772c-10.375 18.973-10.505 35.401-.576 46.197 13.585 14.617 48.402 19.876 95.949-1.125l330.042-147.194c54.088-24.132 83.897-64.739 84.514-90.591.201-12.148-5.792-21.679-17.284-27.402l-196.538-97.394c-2.783-1.758-5.962-2.815-9.185-3.678"/><path d="M762.831 1275.16c-8.165-2.19-15.111-5.885-20.653-11.029-13.333-12.517-15.2-32.131-4.861-54.766l119.875-268.158c27.589-61.931 126.317-112.942 178.909-92.75l227.457 87.583c16.25 6.186 25.306 17.963 26.084 34.027 1.905 34.669-34.359 79.632-86.156 106.619l-347.582 180.72c-34.721 17.939-68.957 24.209-93.073 17.754m265.533-422.878c-50.508-13.535-140.668 35.091-165.918 91.347l-119.877 268.158c-9.059 20.136-7.771 37.358 3.64 47.941 16.242 15.324 55.754 19.002 106.881-7.76l347.387-180.766c56.024-29.099 84.707-73.87 83.011-100.956-.871-13.444-8.577-23.44-22.22-28.722l-227.451-87.577c-1.657-.647-3.555-1.156-5.453-1.665"/><path d="M755.653 1308c-7.405-1.982-14.075-5.198-19.578-9.719-15.055-12.17-18.632-32.238-10.367-56.247l102.255-291.988c23.523-67.292 126.338-128.992 186.365-111.484l260.236 74.611c18.88 5.46 30.264 17.661 32.5 35.138 4.743 36.234-30.263 85.608-83.379 117.524l-362.296 217.43c-38.818 23.354-78.39 32.061-105.736 24.735m256.146-463.815c-56.58-15.156-156.079 44.786-178.106 108.005l-102.252 291.989c-7.603 21.549-4.556 39.032 8.475 49.646 23.051 18.78 71.789 12.316 118.55-15.612l362.489-217.376c57.928-34.691 84.374-82.501 80.564-111.578-1.897-14.938-11.684-25.489-28.151-30.109l-260.235-74.611c-.572-.147-.949-.254-1.334-.354"/><path d="M751.267 1343.41c-6.646-1.781-12.658-4.411-17.984-8.075-16.969-11.862-22.684-32.299-16.305-57.635l80.28-315.559c18.465-72.712 124.612-145.313 192.668-131.961l294.88 58.485c21.811 4.419 35.902 17.136 39.781 36.071 7.851 38.294-24.634 91.185-79.176 128.414l-375.16 257.081c-42.875 29.378-87.846 41.525-118.984 33.179m536.81-447.974c-1.327-.354-2.846-.764-4.42-.979l-294.873-58.484c-64.161-12.718-168.186 58.824-185.78 127.504l-80.279 315.565c-5.77 23.053-1.152 40.753 13.981 51.111 27.432 19.143 81.053 8.916 130.198-24.881l375.16-257.088c58.591-40.206 83.056-91.996 76.739-122.353-3.224-15.302-13.828-25.867-30.726-30.395"/><path d="M749.449 1380.54a63.4 63.4 0 0 1-15.202-6.309c-18.981-11.19-27.216-32.099-23.152-58.662l53.347-338.842c12.301-77.819 121.133-162.708 197.325-153.879l331.485 38.809c25.265 2.907 42.31 16.011 48.118 36.88 11.167 39.589-19.057 96.947-73.547 139.274l-384.692 300.271c-46.276 35.986-98.367 51.921-133.682 42.458m543.37-515.752-.386 2.946-331.484-38.809c-72.242-8.375-179.038 75.027-190.658 148.766l-53.347 338.835c-3.884 24.372 3.061 42.504 20.108 52.553 32.343 19.042 90.802 4.411 142.052-35.732l384.84-300.033c52.507-41.022 82.022-95.736 71.433-132.925-5.175-18.673-20.107-29.786-43.182-32.516z"/><path d="M751.716 1419.98a69 69 0 0 1-12.037-4.451c-21.426-10.413-32.471-31.467-30.913-59.31l21.058-361.115c4.762-83.095 115.183-180.773 200.144-177.323l369.538 15.26c28.968 1.256 49.639 14.515 57.791 37.236 14.537 40.691-12.812 102.491-66.476 150.117l-390.6 345.852c-49.36 43.698-108.06 64.569-148.505 53.732zm547.651-584.131-.192 3.001-369.546-15.263c-80.519-3.278-189.159 93.051-193.754 171.718l-21.056 361.116c-1.571 25.599 7.946 44.008 27.386 53.486 37.84 18.272 101.152-1.565 153.751-48.256l390.462-346.092c52.022-46.036 78.607-104.991 64.754-143.669-7.481-20.709-25.551-32.254-52.329-33.333z"/><path d="M758.365 1461.2c-2.658-.709-5.265-1.612-7.684-2.467-24.352-9.371-38.397-30.619-39.776-59.648l-16.831-382.249c-1.735-39.095 19.099-84.946 57.401-126.115 42.329-45.582 97.173-74.804 143.109-76.116l408.577-12.706c33.249-1.054 57.59 12.177 68.565 37.279 18.51 42.573-4.681 107.104-57.874 160.552l-391.751 394.949c-51.936 52.562-117.784 78.83-163.736 66.521M1329.1 810.678c-7.79-2.086-16.304-2.946-25.753-2.63L894.63 820.512c-44.316 1.344-97.71 29.725-138.981 74.373-36.605 39.388-57.335 84.868-55.8 121.666l17.02 382.302c1.127 26.932 13.593 45.719 35.907 54.343 43.92 16.85 111.667-8.909 165.153-62.68l391.749-394.951c50.48-50.926 73.794-114.408 56.526-154.004-6.794-15.649-19.635-26.202-37.104-30.883"/><path d="M769.68 1504.07c-.569-.155-1.14-.302-1.708-.456-27.569-7.998-45.288-29.215-49.982-59.541l-61.09-401.63c-5.926-39.403 10.656-87.614 45.543-132.747 41.897-53.834 100.393-90.612 152.683-95.912l448.792-45.033c37.869-3.879 66.497 9.28 80.726 36.677 22.553 43.447 3.533 112.15-47.362 170.687l-387.748 446.849c-53.855 62.009-127.448 95.149-179.854 81.106m534.562-731.979.239 2.91-448.792 45.031c-50.81 5.088-107.62 40.897-148.591 93.55-33.86 43.585-50.034 90.276-44.322 128.199l61.089 401.629c4.392 28.42 20.099 47.263 45.77 54.751 50.446 14.53 122.403-17.823 175.38-78.846l387.647-446.47c49.383-56.702 68.071-122.652 46.585-163.985-13.027-25.041-39.721-37.073-74.866-33.48z"/><path d="M786.492 1548.42c-28.102-7.535-47.745-27.635-55.695-57.211l-111.92-418.498c-10.548-39.627 1.212-90.353 32.634-139.264 40.081-62.241 101.379-107.213 160.139-116.884l489.452-82.115c42.836-7.226 76.478 5.448 94.726 35.342 27.24 44.911 13.521 115.847-35.323 180.423l-377.529 500.613c-52.698 69.844-130.997 110.666-190.167 99.083-2.09-.564-4.227-.934-6.317-1.489m561.789-807.023c-13.483-3.612-29.016-4.115-46.276-1.218l-489.452 82.114c-57.085 9.51-116.837 53.271-155.993 114.339-30.395 47.354-42.077 96.275-31.934 134.367l111.923 418.498c8.086 29.816 27.846 48.735 57.262 54.381 57.081 11.02 132.834-28.653 184.268-96.801l377.528-500.619c46.468-61.755 60.683-131.539 34.923-173.614-9.557-15.98-24.018-26.563-42.249-31.447"/><path d="M809.383 1593.6c-27.719-7.428-48.529-26.215-59.366-54.127l-169.911-432.209c-15.738-39.998-8.85-93.045 18.725-145.829 36.48-69.313 101.18-123.941 165.034-138.957l530.296-124.433c47.34-11.103 87.483.871 110.213 32.987 32.145 45.613 23.855 119.836-21.256 189.473l-360.446 556.835c-49.714 76.941-130.58 125.823-196.792 119.26-5.708-.718-11.175-1.573-16.497-3m485.449-892.733.671 2.821L765.34 828.363c-62.13 14.662-125.474 68.032-161.168 135.926-26.739 51.18-33.549 102.422-18.404 140.837l169.909 432.203c12.353 31.367 36.885 49.938 70.781 53.324 64.022 6.378 142.575-41.485 191.171-116.497l360.244-556.882c43.746-67.571 52.183-139.31 21.487-182.707-21.571-30.38-58.344-41.25-103.911-30.689z"/><path d="M839.084 1639.16c-26.962-7.22-48.604-24.41-62.248-50.224l-235.345-442.422c-21.359-40.282-20.052-96.044 3.488-152.762 32.032-77.009 97.639-140.344 167.17-161.353L1282.338 660.1c52.716-15.965 99.068-5.17 127.435 29.47 37.381 45.797 35.284 123.506-5.191 197.842l-335.032 614.672c-45.342 83.403-128.028 141.348-200.533 140.824-10.637.2-20.632-1.258-29.933-3.748m444.975-973.314L713.865 838.145c-67.758 20.469-132.01 82.539-163.392 157.89-22.944 55.252-24.314 108.962-3.787 147.803l235.155 442.375c17.292 32.686 48.265 50.748 86.89 50.925 70.508.394 151.027-56.301 195.428-137.714l335.031-614.673c39.295-72.215 41.733-147.393 5.893-191.354-26.686-32.564-70.763-42.748-121.024-27.551"/><path d="M875.657 1684.96c-26.2-7.026-48.111-22.451-64.084-45.635L503.277 1191.18c-27.98-40.637-32.875-99.074-13.408-160.342 26.568-83.959 91.892-156.11 166.444-183.705l609.127-225.705c58.283-21.586 111.63-12.579 146.299 24.36 43.669 46.667 48.658 125.26 12.895 205.541l-300.772 673.657c-40.36 90.63-121.265 156.372-201.158 163.63-16.852 1.381-32.617.208-47.047-3.656m481.4-1065.21c-26.585-7.124-57.327-4.79-89.805 7.042L658.32 852.545c-72.778 27.056-136.644 97.564-162.805 180.01-18.821 59.603-14.228 116.136 12.538 155.223l308.348 447.959c23.608 34.174 61.045 50.918 105.693 46.815 77.78-7.004 156.71-71.45 196.138-160.097l300.772-673.659c34.714-77.911 30.311-154.112-11.816-198.943-13.721-14.858-30.764-24.914-50.131-30.103"/><path d="M919.981 1729.97c-24.873-6.662-46.869-20.283-64.601-40.691l-389.442-448.337c-35.463-40.814-47.078-102.276-32.342-168.664 20.142-90.36 84.083-171.017 162.566-205.693l645.77-285.003c63.69-28.067 124.658-21.693 167.061 17.522 50.109 46.159 62.873 127.645 33.288 212.222l-256.519 733.289c-33.333 95.566-112.92 170.811-197.625 186.945-24.018 4.542-47.271 4.002-68.156-1.59m323.432-1145.55 1.288 2.786L598.789 871.97c-76.848 33.896-139.382 113.096-159.204 201.505-14.471 64.639-3.157 124.188 31.093 163.451l389.199 448.477c31.113 35.785 76.315 50.131 127.403 40.236 82.794-15.835 160.297-89.397 193.129-183.065l256.518-733.291c28.784-82.351 16.744-161.205-31.721-205.906-40.621-37.517-99.26-43.471-160.644-16.412z"/><path d="M972.564 1773.73c-23.352-6.254-44.608-18.055-63.257-35.045l-478.75-442.382c-44.048-40.669-63.713-105.508-53.933-177.705 12.981-95.528 74.106-184.661 156.001-226.756l679.752-350.312c68.912-35.411 137.901-32.375 189.436 8.471 57.219 45.422 78.767 129.059 56.363 217.999l-200.958 792.502c-25.705 101.266-100.124 183.79-189.813 210.174-33.588 9.911-65.787 10.836-94.841 3.054m241.155-1229.6 1.336 2.595-679.803 350.497c-80.07 41.37-140.067 128.567-152.728 222.151-9.462 70.245 9.471 133.258 52.063 172.521l478.753 442.384c40.151 36.989 94.178 48.009 152.3 30.85 87.537-25.945 160.489-106.827 185.639-206.01l200.959-792.502c21.988-86.611 1.21-167.806-54.181-211.721-49.506-39.287-116.304-42.142-182.91-7.739z"/><path d="M1032.95 1814.91c-21.079-5.646-40.9-15.224-58.893-28.582L397.3 1357.327c-54.114-40.322-83.018-108.648-78.803-187.415 5.21-101.473 61.278-196.037 146.46-246.6l709.927-421.918c72.621-43.159 152.315-44.373 213.135-3.272 66.343 44.815 96.955 128.036 82.177 222.678l-133.412 851.057c-16.365 104.382-85.825 195.752-177.179 232.881-42.959 17.56-86.974 20.807-126.655 10.172m143.608-1310.63 1.526 2.646-710.068 421.675c-83.258 49.461-138.194 142.08-143.519 241.696-3.895 76.823 23.896 143.229 76.505 182.331l576.758 428.994c50.261 37.26 115.664 43.8 179.841 17.693 89.333-36.442 157.528-126.124 173.523-228.369l133.365-850.863c14.546-92.265-15.248-173.233-79.701-216.73-58.754-39.73-136.011-38.475-206.65 3.383z"/><path d="M1102.71 1853.74a201.6 201.6 0 0 1-51.889-22.035l-682.869-407.421c-65.953-39.427-105.288-111.362-107.814-197.626-3.167-105.144 48.195-206.45 134.032-264.771l735.202-499.516c76.625-52.048 165.512-58.725 237.593-17.861 75.435 42.779 117.138 127.142 111.392 226.034l-52.33 906.934c-6.178 108.129-67.484 205.553-159.749 254.428-53.872 28.66-111.16 35.878-163.568 21.834m28.428-1388.86 1.775 2.507L397.52 966.856c-84.101 57.157-134.575 156.664-131.469 259.757 2.516 84.029 40.687 154.235 104.894 192.582l683.062 407.468c62.648 37.322 138.932 37.437 209.594.055 90.577-47.903 150.564-143.446 156.618-249.571l52.331-906.938c5.506-96.514-34.892-178.902-108.439-220.363-70.146-39.735-156.549-33.205-231.252 17.731z"/><path d="M1181.11 1888.58c-13.859-3.719-27.364-8.755-40.752-14.986l-797.763-376.611c-79.669-37.606-131.243-113.227-141.548-207.682-11.849-107.675 33.897-215.365 119.146-281.36l754.616-583.364c79.785-61.569 177.796-74.95 262.349-35.826 86.018 39.72 140.106 124.96 144.641 228.031l43.206 959.779c4.905 109.264-47.904 214.455-138.009 274.273-64.646 43.059-137.715 56.009-205.886 37.746m115.896-1507.94c-73.106-19.586-152.199-2.357-218.419 48.818L323.974 1012.82c-83.652 64.6-128.51 170.493-116.861 275.877 10.054 92.35 60.465 166.235 138.145 202.908l797.768 376.604c77.157 36.333 164.785 28.297 240.808-22.283 88.371-58.66 140.244-161.862 135.393-269.081l-43.39-959.826c-4.573-100.641-57.358-183.906-141.155-222.826-12.302-5.736-24.957-10.144-37.676-13.553"/><path d="M1266.81 1918.04c-7.782-2.083-15.463-4.55-23.283-7.258l-920.66-334.915c-94.028-34.145-161.576-115.473-180.863-217.409-20.71-111.061 17.265-221.65 102.129-296.092l766.499-673.285c81.482-71.686 188.539-93.012 286.643-57.374 97.918 35.588 166.204 120.976 182.693 228.06l154.151 1008.21c17.13 111.531-24.78 220.856-112.124 292.398-73.948 60.281-167.648 81.12-255.185 57.666Zm5.275-1588c-89.433-23.963-184.12-.95-257.567 63.538l-766.502 673.285c-83.266 73.038-120.735 181.731-100.224 290.5 18.845 99.793 84.989 179.517 176.98 212.913l920.659 334.924c91.987 33.387 193.8 14.923 272.492-49.376 85.747-70.138 126.854-177.242 110.034-286.852l-154.159-1008.21c-15.995-105.122-82.979-188.536-178.614-223.514-7.828-2.704-15.51-5.17-23.099-7.205Z"/></g></g></svg>