<svg width="2688" height="2058" viewBox="0 0 2688 2058" fill="none" xmlns="http://www.w3.org/2000/svg"><path opacity=".1" d="M603.663 2058c-144.271-39.87-354.983-206.94-402.441-339.84-49.356-132.89-24.678-288.57 62.644-404.38 45.56-60.76 108.204-113.91 121.492-186.06 17.085-96.82-62.644-184.155-115.797-269.588C113.9 609.425 195.527 254.401 448.002 87.331 586.578-3.8 780.205-36.073 922.578 51.259c115.792 72.144 170.852 205.04 279.052 284.778 117.69 87.333 280.95 100.622 430.91 89.231 149.97-11.391 301.83-41.767 451.8-24.681s305.63 96.825 349.29 233.519c49.35 153.78-58.85 315.155-53.15 474.634 3.79 125.3 74.03 239.21 136.67 351.22 62.65 112.02 117.7 237.32 87.33 360.72C2574.1 1944.09 2433.63 2058 2241.9 2058" fill="#7A7D7C"/><path d="M1182.65 1887.13c0 49.36-39.87 91.13-91.12 91.13-49.36 0-91.12-39.87-91.12-91.13 0-49.36 39.86-91.13 91.12-91.13 51.25 0 91.12 41.77 91.12 91.13" fill="#09B850"/><path d="M1129.49 1887.13c0 20.88-17.08 36.07-36.06 36.07-20.88 0-36.07-17.08-36.07-36.07 0-20.88 17.08-36.07 36.07-36.07 18.98 0 36.06 17.09 36.06 36.07" fill="#fff"/><path d="M1854.65 1887.13c0 49.36-39.87 91.13-91.12 91.13-49.36 0-91.12-39.87-91.12-91.13 0-49.36 39.86-91.13 91.12-91.13 51.25 0 91.12 41.77 91.12 91.13" fill="#09B850"/><path d="M1801.5 1887.13c0 20.88-17.09 36.07-36.07 36.07-20.88 0-36.07-17.08-36.07-36.07 0-20.88 17.08-36.07 36.07-36.07 18.98 0 36.07 17.09 36.07 36.07" fill="#fff"/><path d="m835.258 858.129 102.508 797.381h992.814l102.51-797.381zm85.424 290.471h235.388l20.88 244.91H951.054zm282.848 0h224v244.91h-203.12zm224-49.36h-227.8l-17.08-193.648h244.88zm49.35-193.648h244.89l-17.09 193.648h-227.8zm-49.35 535.388v167.07H1241.5l-13.29-167.07zm49.35 0h199.33l-13.29 167.07h-186.04zm0-47.47V1148.6h224L1680 1393.51zm271.46-244.91h195.53l-32.27 244.91h-184.14zm5.7-49.36 17.08-193.648h206.92l-24.68 193.648zm-618.85-193.648 17.08 193.648H914.987l-24.678-193.648zM956.749 1440.98h222.101l13.29 167.07H979.529zm753.631 167.07 13.28-167.07h184.14l-20.88 167.07z" fill="#19191C"/><path d="M2025.5 920.781H878.919c-20.881 0-37.966-17.087-37.966-37.971v-1.898c0-20.884 17.085-37.971 37.966-37.971H2027.39c20.89 0 37.97 17.087 37.97 37.971v1.898c0 20.884-17.08 37.971-39.86 37.971" fill="#09B850"/><path d="M1913.5 1828.28H922.58c-17.085 0-32.271-15.19-32.271-32.28s15.186-32.27 32.271-32.27h990.92c28.47 0 51.25-22.79 51.25-51.26 0-28.48-22.78-51.26-51.25-51.26H958.648c-15.187 0-30.373-11.4-32.272-28.48L810.58 729.03h-224c-17.085 0-32.271-15.188-32.271-32.275s15.186-32.275 32.271-32.275h252.474c15.187 0 30.373 11.392 32.272 28.478l115.796 903.702h928.268c62.65 0 113.9 51.26 113.9 113.91-1.9 66.45-53.15 117.71-115.79 117.71" fill="#19191C"/><path d="M867.529 738.523H590.376c-20.881 0-39.864-17.087-39.864-37.97 0-20.884 17.084-39.869 39.864-39.869h277.153c20.881 0 39.864 17.086 39.864 39.869 0 20.883-17.085 37.97-39.864 37.97M1137.09 920.781l1.9 41.768h49.35l-3.79-41.768zM2021.7 920.781h-47.46l-5.69 41.768h49.35zM1474.99 920.781h-47.46v41.768h47.46zM1769.23 920.781h-49.36l-3.8 41.768h49.36z" fill="#09B850"/><path d="M2240 1978.26H603.663c-7.593 0-15.186 9.49-15.186 20.89v37.97c0 11.39 7.593 20.88 15.186 20.88H2240c7.6 0 15.19-9.49 15.19-20.88v-37.97c0-11.4-7.59-20.89-15.19-20.89" fill="#202124"/><path d="M2234.31 1687.79c-36.07 0-36.07 55.05 0 55.05s36.07-55.05 0-55.05M2017.9 620.816c-22.78 0-34.17-17.087-34.17-34.174s11.39-34.173 34.17-34.173c9.49 0 18.98 3.797 24.68 11.391 5.69 5.695 7.59 15.188 7.59 22.782 0 17.087-11.39 34.174-32.27 34.174m0-55.058c-13.29 0-18.98 9.493-18.98 20.884 0 9.493 5.69 20.884 18.98 20.884 5.69 0 11.39-1.899 15.19-5.696 3.79-3.797 5.69-9.492 5.69-15.188-1.9-11.391-7.59-20.884-20.88-20.884M858.035 391.094c-36.068 0-36.068 55.057 0 55.057s36.068-55.057 0-55.057M653.017 1488.44c-22.779 0-34.169-17.09-34.169-34.17 0-9.5 3.796-17.09 7.593-22.79 5.695-7.59 15.186-11.39 24.678-11.39 22.78 0 34.169 17.09 34.169 34.18 0 9.49-3.796 17.08-7.593 22.78-5.695 7.59-13.288 11.39-24.678 11.39m0-55.06c-13.288 0-18.983 9.5-18.983 20.89 0 9.49 5.695 20.88 18.983 20.88S672 1465.66 672 1454.27c1.899-11.39-5.695-20.89-18.983-20.89" fill="#fff"/><path d="M2661.43 1123.93c-36.07 0-36.07 55.05 0 55.05 34.17 0 34.17-55.05 0-55.05M1602.17 83.535c-36.07 0-36.07 55.057 0 55.057 34.17 0 34.17-55.057 0-55.057M26.578 618.918c-36.068 0-36.068 55.057 0 55.057s36.068-55.057 0-55.057M96.817 1955.48c-36.068 0-36.068 55.05 0 55.05 34.169 0 34.169-55.05 0-55.05" fill="#09B850"/></svg>