<svg width="46" height="46" viewBox="0 0 46 46" fill="none" xmlns="http://www.w3.org/2000/svg"><g clip-path="url(#a)"><path d="m10.195 27.798-1.602 5.978-5.852.123A22.9 22.9 0 0 1 0 23c0-3.813.928-7.41 2.572-10.577h.001l5.21.956 2.283 5.179A13.7 13.7 0 0 0 9.327 23c0 1.688.306 3.306.868 4.798" fill="#FBBB00"/><path d="M45.596 18.703c.265 1.391.402 2.828.402 4.297 0 1.646-.173 3.253-.503 4.802a23 23 0 0 1-8.098 13.134v-.001l-6.563-.335-.93-5.798a13.7 13.7 0 0 0 5.899-7h-12.3v-9.099h22.093" fill="#518EF8"/><path d="m37.399 40.935.001.001A22.9 22.9 0 0 1 23.001 46c-8.759 0-16.374-4.896-20.259-12.1l7.454-6.102c1.942 5.184 6.943 8.874 12.805 8.874 2.52 0 4.88-.68 6.906-1.87z" fill="#28B446"/><path d="m37.68 5.295-7.452 6.1a13.6 13.6 0 0 0-7.23-2.067c-5.995 0-11.089 3.859-12.934 9.229l-7.492-6.134H2.57C6.398 5.042 14.11 0 23 0c5.58 0 10.697 1.988 14.68 5.295" fill="#F14336"/></g><defs><clipPath id="a"><path fill="#fff" d="M0 0h46v46H0z"/></clipPath></defs></svg>