<svg version="1.1" id="Capa_1" xmlns="http://www.w3.org/2000/svg" x="0" y="0" width="104.1" height="34.3" viewBox="0 0 104.1 34.3" xml:space="preserve"><style>.st0{fill:#ff4131}.st1{fill:#ffbc00}.st2{fill:#0085f7}.st3{fill:#00a94b}</style><path class="st0" d="M44.6 18c0 4.9-3.9 8.6-8.6 8.6S27.4 23 27.4 18s3.9-8.6 8.6-8.6 8.6 3.7 8.6 8.6m-3.8 0c0-3.1-2.2-5.2-4.8-5.2S31.1 15 31.1 18c0 3.1 2.2 5.2 4.8 5.2 2.7 0 4.9-2.1 4.9-5.2"/><path class="st1" d="M63.1 18c0 4.9-3.9 8.6-8.6 8.6S45.9 23 45.9 18s3.9-8.6 8.6-8.6c4.7.1 8.6 3.7 8.6 8.6m-3.8 0c0-3.1-2.2-5.2-4.8-5.2S49.7 15 49.7 18c0 3.1 2.2 5.2 4.8 5.2s4.8-2.1 4.8-5.2"/><path class="st2" d="M80.8 10v15.4c0 6.3-3.7 8.9-8.1 8.9-4.2 0-6.6-2.8-7.6-5l3.3-1.4c.6 1.4 2 3 4.3 3 2.8 0 4.6-1.7 4.6-5v-1.2h-.1c-.8 1-2.5 1.9-4.5 1.9-4.3 0-8.2-3.7-8.2-8.5s3.9-8.6 8.2-8.6c2 0 3.7.9 4.5 1.9h.1V10zm-3.3 8.1c0-3-2-5.2-4.6-5.2s-4.8 2.2-4.8 5.2 2.2 5.2 4.8 5.2c2.6-.1 4.6-2.3 4.6-5.2"/><path class="st3" d="M86.7 1v25.1H83V1z"/><path class="st0" d="m101 20.9 2.9 1.9c-.9 1.4-3.2 3.8-7.1 3.8-4.9 0-8.5-3.8-8.5-8.6 0-5.1 3.7-8.6 8.1-8.6s6.6 3.5 7.3 5.4l.4 1-11.4 4.7c.9 1.7 2.2 2.6 4.2 2.6 1.8.1 3.2-.8 4.1-2.2m-9-3.1 7.7-3.2c-.4-1.1-1.7-1.8-3.2-1.8-1.9 0-4.6 1.7-4.5 5"/><path class="st2" d="M13.5 15.8v-3.6h12.2c.1.6.2 1.4.2 2.2 0 2.7-.7 6.1-3.1 8.5-2.3 2.4-5.3 3.7-9.3 3.7-7.3 0-13.5-6-13.5-13.3S6.2 0 13.5 0c4.1 0 6.9 1.6 9.1 3.7L20 6.2c-1.6-1.5-3.7-2.6-6.6-2.6-5.4 0-9.5 4.3-9.5 9.7S8.1 23 13.5 23c3.5 0 5.4-1.4 6.7-2.7 1-1 1.7-2.5 2-4.5z"/></svg>