<svg width="734" height="580" viewBox="0 0 734 580" fill="none" xmlns="http://www.w3.org/2000/svg"><g clip-path="url(#a)"><path d="M569.107 164.863c-64.078-1.098-101.209 49.333-82.879 112.706 5.405 18.745 15.041 36.549 27.574 52.313l177.586-99.451c-29.846-38.117-76.768-64.784-122.281-65.568" fill="#F9EE55"/><path d="M568.871 164.235c-64.313-1.098-101.757 49.726-83.426 113.412 5.326 18.431 14.648 36.157 27.808 52.627l1.019-.627c-12.925-16.235-22.169-33.725-27.417-52-18.096-62.902 18.8-113.176 82.408-112.078 44.103.784 90.634 25.725 121.576 65.176l1.097-.549c-14.962-19.137-34.233-35.373-55.618-47.059-21.934-12-45.278-18.588-67.447-18.902" fill="#202124"/><path d="m126.433 422.902-7.128-13.02 41.752-6.666c-.078 0-12.768 20.392-34.624 19.686" fill="#fff"/><path d="m162.309 402.431-44.024 6.981 7.755 14.117h1.4889999999999999c21.307 0 33.919-19.764 34.075-20zm-2.663 1.647c-3.055 4.236-14.57 18.196-32.117 18.196h-.705l-6.58-11.921zM224.117 488.941l-27.418 3.922 33.998-27.922z" fill="#202124"/><path d="m230.148 464.784 1.254.314-6.659 24c-.078.235-.235.392-.548.471l-27.339 3.921-.157-1.255 26.947-3.843z" fill="#202124"/><path d="M72.147 384.706c5.718-5.883 16.607-33.49 31.177-46.196 11.516-10.118 22.247 5.804 22.247 5.804l-9.556 8.313c-8.852 17.02-33.293 27.687-37.523 39.451-1.645 4.628-.783 17.883-3.212 17.961-1.645.078-2.428-7.059-2.898-6.118-3.525 6.981-7.05 14.353-8.617 13.098-.862-.705 4.622-10.745 3.212-11.137-5.484-1.647-1.724-3.765-4.152-6.823-3.838-4.942 3.603-8.392 9.322-14.353" fill="#fff"/><path d="M62.434 399.529c.862 1.02.862 1.961.783 2.824 0 1.725.235 3.059 3.447 4.078 0 .863-1.175 3.608-1.88 5.334-1.723 4.156-2.115 5.255-1.41 5.804.235.156.47.235.783.235 1.802 0 3.995-4 8.225-12.471.079.157.079.314.157.471.705 2.823 1.41 4.863 2.742 4.863 1.958-.079 2.272-3.53 2.742-9.726.235-3.372.47-6.823 1.175-8.706 1.958-5.49 8.695-10.98 15.902-16.784 7.912-6.353 16.842-13.647 21.464-22.51l9.478-8.235c.235-.236.313-.549.078-.863-.235-.392-6.423-9.412-14.727-9.412q-4.464 0-8.46 3.53c-9.4 8.157-17.312 22.588-23.109 33.176-3.29 5.961-6.11 11.059-8.068 13.098-1.41 1.49-2.977 2.824-4.465 4.079-4.465 3.764-8.147 6.98-4.857 11.215m5.562-10.196c1.488-1.333 3.055-2.666 4.543-4.157 2.115-2.196 4.857-7.137 8.304-13.411 5.796-10.432 13.63-24.785 22.874-32.785 2.428-2.117 5.013-3.215 7.598-3.215 6.58 0 11.985 6.666 13.395 8.47l-9.086 7.922-.157.157c-4.544 8.706-13.395 15.921-21.229 22.196-7.677 6.196-14.257 11.529-16.294 17.333-.705 2.039-.94 5.569-1.175 9.02-.156 2.745-.626 8.549-1.41 8.549-.548-.157-1.253-2.902-1.488-3.922-.47-1.725-.627-2.274-1.253-2.274-.157 0-.47.078-.627.47l-.392.785c-2.272 4.627-5.718 11.45-7.05 12.078.157-.784.94-2.824 1.567-4.314 1.566-3.843 2.272-5.568 1.801-6.431-.078-.235-.313-.392-.548-.471-2.82-.863-2.82-1.647-2.742-2.902 0-1.019 0-2.274-1.096-3.686-2.585-3.137-.079-5.49 4.465-9.412" fill="#202124"/><path d="M278.482 309.804c4.935-8.549 7.833-4.235 8.617-7.765.783-3.529 2.741-1.647 2.741.157s-1.096 4.157-1.645 4.549c0 0 3.604-1.02 5.327-1.098 0 0 1.488-5.725 3.134-4.471 1.645 1.177 1.723 2.197.626 4.706s.314 2.589-.861 3.765c0 0 1.096 2.431.313 4.314 0 0-.235 1.725.078 2.666 1.332 4.157-10.732 6.432-15.197 7.844-14.57 4.705-29.845 14.352-57.419 23.215-7.364 2.353-33.841 3.922-33.841 3.922l-5.562-21.569 34.937-1.49c10.497-3.137 53.817-10.118 58.752-18.745" fill="#fff"/><path d="M184.322 329.725c-.079.157-.157.314-.079.549l5.562 21.569c.079.314.314.471.627.471 1.097-.079 26.634-1.647 33.919-4 15.98-5.177 28.122-10.667 37.836-15.138 7.207-3.294 13.473-6.117 19.505-8.078.784-.235 1.802-.549 3.055-.863 4.857-1.333 10.889-2.98 12.377-5.725q.588-1.059.235-2.118c-.235-.706-.156-1.882-.078-2.353.627-1.568.078-3.529-.157-4.314.47-.549.47-1.019.392-1.568-.078-.471-.157-.941.392-2.039 1.096-2.51 1.253-4-.862-5.491-.235-.156-.548-.313-.862-.313-1.645 0-2.663 2.98-3.133 4.706-1.018.078-2.35.392-3.447.627.47-1.02.862-2.431.862-3.529 0-.863-.314-1.726-.862-2.275-.313-.314-.705-.549-1.097-.549-.626 0-1.488.471-1.958 2.51-.235 1.019-.548 1.098-1.488 1.333-1.567.392-3.995.941-7.05 6.275-3.604 6.196-29.846 11.921-45.513 15.372-5.405 1.177-10.105 2.196-12.769 2.981l-34.859 1.49c-.313.157-.47.314-.548.47m1.331.942 34.155-1.491h.156c2.585-.784 7.285-1.804 12.769-2.98 17.939-3.922 42.457-9.333 46.374-16 2.82-4.863 4.857-5.333 6.267-5.647 1.018-.235 2.037-.471 2.428-2.275.314-1.254.627-1.49.705-1.49 0 0 .157 0 .235.157.314.314.47.863.47 1.333 0 1.648-1.018 3.765-1.41 4-.235.157-.313.549-.156.785.156.235.47.392.705.313 0 0 3.525-1.019 5.17-1.098.313 0 .548-.235.627-.47.626-2.353 1.566-4.157 2.036-4.157 0 0 .079 0 .079.078 1.253.942 1.488 1.491.391 3.922-.626 1.412-.548 2.196-.47 2.745.079.392.079.471-.313.784-.157.157-.235.471-.157.706 0 0 1.019 2.196.314 3.765 0 .078-.079.078-.079.157 0 .157-.235 1.882.157 2.98.157.392.078.706-.078 1.098-1.254 2.275-7.521 3.922-11.594 5.098-1.175.314-2.272.628-3.055.863-6.189 1.961-12.455 4.863-19.662 8.157-10.184 4.706-21.777 9.961-37.679 15.059-6.581 2.117-29.376 3.686-33.136 3.921z" fill="#202124"/><path d="m127.061 350.823-10.575 2.981c-12.22-8.235-8.852-20.706-8.852-20.706l21.229-7.137a85.5 85.5 0 0 1 58.438 1.49c8.852 3.451 17.704.941 27.104.627v26.981l-19.192 1.333c-2.742 10.353-11.045 15.53-11.045 15.53l-14.022 37.49c-47.001 2.666-82.017-14.667-82.017-14.667 26.712-18.588 38.932-43.922 38.932-43.922" fill="#fff"/><path d="M87.893 394.196c-.157.157-.314.314-.235.549 0 .235.156.392.313.549.313.157 30.786 14.98 72.382 14.98 3.29 0 6.658-.078 9.948-.313.235 0 .47-.157.548-.392l13.944-37.334c1.253-.862 8.304-5.882 10.967-15.294l18.8-1.255c.314 0 .627-.313.627-.627v-26.981c0-.156-.078-.313-.157-.47-.156-.157-.313-.157-.47-.157-2.663.078-5.248.314-7.755.627-3.055.314-5.953.628-8.852.628-3.916 0-7.206-.549-10.262-1.726-10.105-4-20.68-6.039-31.569-6.039a85.3 85.3 0 0 0-27.339 4.471l-21.228 7.137c-.235.078-.392.235-.392.471 0 .156-3.29 12.941 9.087 21.333.157.078.313.157.548.078l9.165-2.588c-2.976 5.333-15.275 26.431-38.07 42.353m1.645.392c25.772-18.431 37.992-43.294 38.07-43.529s.079-.471-.078-.706a.9.9 0 0 0-.627-.235l-10.261 2.902c-10.497-7.295-8.852-17.491-8.461-19.53l20.916-7.059a85 85 0 0 1 26.947-4.392c10.654 0 21.151 1.961 31.099 5.883 3.212 1.254 6.58 1.882 10.732 1.882 2.977 0 5.875-.314 9.009-.628 2.271-.235 4.621-.47 7.05-.549v25.726l-18.644 1.255c-.235 0-.47.235-.548.47-2.664 9.961-10.654 15.059-10.732 15.138-.079.078-.235.157-.235.313l-13.866 37.098q-4.7.236-9.4.236c-37.287.157-65.488-11.765-70.971-14.275" fill="#202124"/><path d="M233.281 471.921c11.751-8.156 18.174 0 18.174 0-29.376 2.51-46.923 35.53-46.923 35.53-3.603-6.431-7.677-25.412-7.677-25.412l18.174-15.137s6.424 13.176 18.252 5.019" fill="#fff"/><path d="M196.465 481.49a.9.9 0 0 0-.235.628c.157.784 4.074 19.137 7.756 25.568.078.236.313.314.548.314s.47-.157.548-.314c.157-.314 17.704-32.706 46.453-35.137.235 0 .47-.157.548-.392s.079-.471-.078-.628c-.157-.156-3.133-3.843-8.773-3.843-3.291 0-6.737 1.255-10.262 3.686-2.429 1.648-4.779 2.51-7.051 2.51-6.58 0-10.183-7.294-10.183-7.372-.078-.157-.235-.314-.47-.314-.157 0-.392 0-.548.157zm1.097.784 17.312-14.431c1.175 1.961 4.857 7.373 10.967 7.373 2.507 0 5.092-.942 7.755-2.745 3.369-2.353 6.58-3.53 9.557-3.53 3.369 0 5.64 1.49 6.815 2.51-25.694 3.059-42.301 29.176-45.512 34.667-3.055-6.51-6.345-21.334-6.894-23.844" fill="#202124"/><path d="M22.17 565.804c19.191-8.863 26.868 13.647 26.868 13.647H5.328c-5.64-7.686.94-18.275.94-18.275z" fill="#fff"/><path d="M5.72 560.784c-.314.471-6.66 11.059-.862 18.981q.234.235.47.235H48.96a.71.71 0 0 0 .549-.235.48.48 0 0 0 .078-.549c-.078-.157-5.64-16.157-18.879-16.157-2.741 0-5.64.706-8.617 2.039l-15.667-4.549a.63.63 0 0 0-.705.235m.861 1.098 15.432 4.471c.157.078.313 0 .47 0 2.898-1.333 5.64-1.961 8.304-1.961 10.653 0 16.058 11.216 17.39 14.431H5.641c-4.387-6.352-.157-14.98.94-16.941M251.455 471.921c5.562 4.628-7.05 21.412-30.238 33.569-3.838 2.039-16.998 9.412-17.39-.784s40.891-38.432 47.628-32.785" fill="#202124"/><path d="M209.312 494.431c-4.152 4.314-6.189 7.765-6.111 10.275.157 4.863 3.134 5.882 5.562 5.882 4.152 0 9.557-2.902 12.22-4.314l.549-.313c19.662-10.275 31.099-23.294 31.804-30.353.157-1.804-.313-3.294-1.488-4.236-.706-.549-1.724-.862-2.977-.862-8.539.078-29.533 13.49-39.559 23.921m-4.857 10.275c-.079-2.118 1.958-5.412 5.718-9.334 9.87-10.274 30.394-23.529 38.619-23.529.94 0 1.724.235 2.194.549.862.706 1.175 1.804 1.018 3.137-.705 6.824-12.533 19.608-31.177 29.334l-.549.313c-2.506 1.334-7.833 4.157-11.593 4.157-2.742 0-4.074-1.49-4.23-4.627" fill="#202124"/><path d="M69.877 495.686s7.598-60.549 12.768-78.274c8.147-27.765 44.573-33.961 45.905 10.431 1.331 44.392-26.086 81.569-26.086 81.569L42.616 570.51l-17.625 4.549L.863 556.157c41.753-57.412 69.014-60.471 69.014-60.471" fill="#09B850"/><path d="m.392 555.765-.392.549 24.832 19.529 18.096-4.706 60.083-61.333c.313-.392 27.495-37.882 26.164-81.961-.705-24.235-11.751-32.863-21.934-32.863-10.967 0-21.307 9.177-25.224 22.353-4.935 16.706-11.985 72.157-12.769 77.883-3.916.627-30.002 7.058-68.856 60.549m1.331.313C42.614 500 69.64 496.392 69.875 496.314l.47-.079.078-.47c.079-.628 7.677-60.706 12.769-78.196 3.603-12.393 13.709-21.412 23.97-21.412 9.557 0 19.976 8.314 20.681 31.686 1.253 43.059-24.989 79.765-25.929 81.098l-59.691 60.941-17.156 4.471z" fill="#202124"/><path d="M128.469 427.843c.705 24.392-7.207 46.588-14.571 61.726V397.02c7.834 3.294 14.101 12.941 14.571 30.823" fill="#202124"/><path d="M117.659 374.431c20.367-12.078 45.043-12.784 52.955-9.333 20.758 9.098 60.161 99.765 60.161 99.765l-33.997 27.921c-31.883-56.392-39.403-90.98-39.403-90.98s-16.294 12.549-31.569 22.902c-12.534 8.47-50.683 22.274-52.641-1.961-1.959-24.078 29.767-39.529 44.494-48.314" fill="#09B850"/><path d="M117.659 374.431c20.367-12.078 45.043-12.784 52.955-9.333 20.758 9.098 60.161 99.765 60.161 99.765l-33.997 27.921c-31.883-56.392-39.403-90.98-39.403-90.98s-16.294 12.549-31.569 22.902c-12.534 8.47-50.683 22.274-52.641-1.961-1.959-24.078 29.767-39.529 44.494-48.314" fill="#09B850"/><path d="M72.46 422.902c.705 9.255 6.815 14.196 17.547 14.196 12.847 0 28.827-6.902 36.034-11.765 13.239-8.941 27.417-19.686 30.864-22.353 1.489 5.961 10.575 39.451 39.246 90.196.078.157.235.314.47.314h.078a.6.6 0 0 0 .392-.157l33.998-27.921a.51.51 0 0 0 .156-.706c-1.645-3.686-39.716-91.059-60.474-100.157-2.742-1.176-7.207-1.882-12.534-1.882-13.865 0-29.141 4.157-40.969 11.215-1.489.863-3.055 1.804-4.857 2.824-15.51 8.941-41.674 24-39.951 46.196m40.656-45.098c1.723-1.02 3.368-1.961 4.857-2.824 11.593-6.902 26.712-11.058 40.342-11.058 5.092 0 9.479.627 12.064 1.725 19.584 8.549 56.636 92.235 59.613 99.059l-33.058 27.137c-31.177-55.294-38.932-89.804-39.01-90.196a.8.8 0 0 0-.392-.471c-.235-.078-.392 0-.627.079-.156.157-16.45 12.627-31.569 22.902-6.893 4.627-22.874 11.529-35.329 11.529-10.105 0-15.589-4.392-16.294-13.019-1.645-21.255 24.05-36.079 39.403-44.863M124.004 296.078c11.829-10.353 17.547.393 23.187-1.882 5.719-2.275 8.695-10.196 19.114-10.353 7.598-.078 15.04 2.902 17.155 10.118 2.507 8.627-5.013 16.627-13.238 17.333-7.599.706-1.254 9.255-14.336 14.824-9.635 4.156-12.768-2.824-19.192-2.589-12.377.471-11.045 10.981-24.832 9.177-5.405-3.765-13.317-28.628-9.792-42.196.078.078 13.317 13.019 21.934 5.568" fill="#202124"/><path d="M193.723 319.137s-10.106-3.921-14.727-11.137-3.761-9.49-3.761-9.49c19.663-3.922 18.488 20.627 18.488 20.627" fill="#202124"/><path d="M164.426 317.882s-2.35-.862-1.175-4.784 3.682-2.98 5.954-1.412c0 0 7.207-7.372 10.262-6.274s5.248 2.431 5.248 6.274c0 0 .392 3.608-1.801 6.745 0 0 2.271 5.255-4.231 8.392-3.211 1.569-6.188.706-8.381-1.254l-1.489 5.725c-.47 1.882-2.428 2.98-4.308 2.431-2.507-.784-3.839-3.372-3.134-5.882z" fill="#fff"/><path d="M160.744 327.608c-.862 2.823.705 5.804 3.525 6.666.392.157.784.157 1.175.157 1.802 0 3.447-1.255 3.917-2.98l1.253-4.706c2.507 1.804 5.406 2.118 8.226.706 5.953-2.902 5.013-7.608 4.621-8.863 2.115-3.216 1.802-6.745 1.724-6.902.078-4.392-2.742-5.804-5.64-6.823a2.9 2.9 0 0 0-.94-.157c-3.134 0-8.147 4.784-9.636 6.196-1.253-.784-2.271-1.177-3.133-1.177-1.567 0-2.663 1.098-3.29 3.216-.94 3.216.313 4.628 1.018 5.255zm1.175.392 3.212-10.51-.548-.235c-.079 0-1.802-.784-.784-4 .705-2.275 1.724-2.275 2.115-2.275.705 0 1.645.392 2.899 1.177l.47.314.391-.393c1.724-1.725 6.581-6.196 9.087-6.196.157 0 .314 0 .47.079 3.134 1.098 4.857 2.353 4.779 5.725 0 .079.313 3.53-1.724 6.432l-.235.313.157.314c.078.157 1.958 4.784-3.917 7.608-2.663 1.255-5.405.863-7.677-1.177l-.783-.705-1.723 6.666c-.314 1.255-1.41 2.039-2.664 2.039-.235 0-.548-.078-.783-.156-2.115-.628-3.368-2.902-2.742-5.02" fill="#202124"/><path d="M179.856 305.02c.784 1.568-.391 4.862-5.17 6.823-4.778 2.039-5.718 6.745-7.207 3.216s-1.331-3.922-.156-7.137c1.175-3.295 10.81-6.432 12.533-2.902" fill="#202124"/><path d="M175.937 293.725c7.286-.078 9.009 5.804 9.009 5.804s-12.769-4.862-22.091 6.981c0 0 1.411-12.628 13.082-12.785" fill="#fff"/><path d="M162.23 306.431c0 .314.157.549.392.628.078 0 .157.078.235.078.157 0 .392-.078.47-.235 5.092-6.432 11.124-7.765 15.354-7.765 3.525 0 6.032.941 6.11.941.235.079.47 0 .627-.157a.61.61 0 0 0 .156-.627c0-.078-1.958-6.274-9.478-6.274h-.157c-12.063.235-13.709 13.333-13.709 13.411m1.724-2.117c1.018-3.53 3.917-9.883 11.985-9.961h.157c4.7 0 6.893 2.588 7.755 4.235-1.175-.314-2.977-.627-5.17-.627-4.074 0-9.714 1.098-14.727 6.353M170.378 324.941l-2.35 6.902-.313-10.823c1.253 2.588 2.663 3.921 2.663 3.921M57.826 537.267 24.54 574.7l.936.834 33.288-37.433zM616.107 149.569c-41.205 0-74.732-33.569-74.732-74.824S574.902-.078 616.107-.078s74.731 33.568 74.731 74.823c-.078 41.255-33.527 74.824-74.731 74.824m0-148.157c-40.421 0-73.322 32.94-73.322 73.411s32.901 73.412 73.322 73.412 73.321-32.941 73.321-73.412c0-40.47-32.9-73.411-73.321-73.411" fill="#202124"/><path d="M616.107 134.98c-33.136 0-60.162-26.98-60.162-60.235 0-33.176 26.948-60.235 60.162-60.235 33.135 0 60.161 26.98 60.161 60.235-.078 33.255-27.026 60.235-60.161 60.235m0-119.058c-32.431 0-58.752 26.353-58.752 58.823s26.321 58.824 58.752 58.824 58.751-26.432 58.751-58.824-26.399-58.823-58.751-58.823" fill="#202124"/><path d="M616.105 121.255c-25.616 0-46.453-20.863-46.453-46.51s20.837-46.51 46.453-46.51 46.453 20.863 46.453 46.51-20.916 46.51-46.453 46.51m0-91.53c-24.832 0-45.043 20.236-45.043 45.098 0 24.863 20.211 45.099 45.043 45.099s45.043-20.236 45.043-45.098c0-24.863-20.211-45.099-45.043-45.099" fill="#202124"/><path d="M616.108 105.02c-16.685 0-30.237-13.569-30.237-30.275s13.552-30.274 30.237-30.274c16.686 0 30.238 13.568 30.238 30.274-.079 16.706-13.631 30.275-30.238 30.275m0-59.138c-15.902 0-28.827 12.942-28.827 28.863 0 15.922 12.925 28.863 28.827 28.863s28.828-12.941 28.828-28.863c0-15.843-12.926-28.863-28.828-28.863" fill="#202124"/><path d="M632.211 75.966c.672-8.898-5.989-16.656-14.876-17.328s-16.636 5.997-17.307 14.895 5.989 16.656 14.876 17.328 16.636-5.997 17.307-14.895M733.372 99.216c-31.725 6.745-40.734-21.647-83.505 0V45.02c31.804-9.804 51.075 4.862 83.505 0l-11.906 26.823z" fill="#202124"/><path d="M723.582 100.941c-8.381 0-15.275-2.353-21.933-4.627-13.082-4.47-26.556-9.098-51.467 3.53q-.352.117-.705 0c-.235-.158-.313-.315-.313-.55V45.02c0-.314.235-.55.47-.628 17.625-5.412 31.334-3.45 45.748-1.333 11.515 1.725 23.422 3.45 37.914 1.255a.9.9 0 0 1 .627.235c.156.235.156.47.078.706l-11.829 26.588 11.829 27.059c.078.157.078.392 0 .627a.8.8 0 0 1-.47.392c-3.603.706-6.894 1.02-9.949 1.02m-44.024-10.666c8.617 0 15.667 2.43 22.482 4.784 9.244 3.137 17.939 6.117 30.316 3.686l-11.594-26.588a.67.67 0 0 1 0-.55l11.437-25.725c-14.1 1.961-25.772.236-37.052-1.49-14.179-2.117-27.496-4.078-44.651 1.098v52.55c11.828-5.805 21.15-7.766 29.062-7.766" fill="#fff"/><path d="M648.771 179.686h-1.41a2.024 2.024 0 0 1-2.037-2.039V41.961c0-1.177.94-2.04 2.037-2.04h1.41c1.175 0 2.037.942 2.037 2.04v135.686c.078 1.098-.862 2.039-2.037 2.039" fill="#202124"/><path d="M620.023 560.784h-31.882V168.941l31.569-2.274z" fill="#E7F8EE"/><path d="M620.025 561.412h-31.804a.7.7 0 0 1-.705-.706V168.941c0-.392.313-.627.626-.706l31.491-2.196c.157 0 .392.078.548.157q.235.236.235.471l.314 394.039c0 .157-.079.392-.235.47-.157.236-.314.236-.47.236m-31.178-1.334h30.473l-.314-392.627-30.159 2.117z" fill="#202124"/><path d="M705.41 560.784h-85.386c-.156 0-.313-.235-.313-.47V167.137c0-.235.157-.47.313-.47l85.386 4.549c.156 0 .313.235.313.47v388.628c0 .235-.157.47-.313.47" fill="#E7F8EE"/><path d="M705.411 561.412h-85.385c-.548 0-1.018-.471-1.018-1.098V167.137c0-.314.156-.627.391-.863.157-.156.47-.313.705-.235l85.386 4.549c.548 0 .94.549.94 1.098v388.628c-.079.627-.47 1.098-1.019 1.098m-85.071-1.334h84.601V171.843l-84.601-4.47z" fill="#202124"/><path d="M677.369 356a.7.7 0 0 1-.705-.706V196.235c0-.392.313-.706.705-.706s.705.314.705.706v159.138c0 .313-.313.627-.705.627M650.342 299.294a.7.7 0 0 1-.705-.706v-46.98c0-.392.313-.706.705-.706s.705.314.705.706v46.98a.703.703 0 0 1-.705.706M650.342 460.314a.7.7 0 0 1-.705-.706v-81.02c0-.392.313-.706.705-.706s.705.314.705.706v81.02a.703.703 0 0 1-.705.706" fill="#202124"/><path d="M512.624 560.784h-31.647V268.235l31.49-9.961z" fill="#E7F8EE"/><path d="M512.626 561.49h-31.648a.703.703 0 0 1-.705-.706V268.235c0-.314.157-.549.47-.627l31.491-9.961c.235-.078.47 0 .627.078.157.157.313.314.313.549l.157 302.51c0 .157-.078.392-.235.471q-.117.235-.47.235m-31.021-1.333h30.316l-.157-300.863-30.159 9.569z" fill="#202124"/><path d="M598.167 560.784h-85.385a.34.34 0 0 1-.313-.313V258.667c0-.157.156-.314.313-.314l85.385 3.451c.157 0 .314.157.314.314v298.353c0 .156-.157.313-.314.313" fill="#E7F8EE"/><path d="M598.169 561.49h-85.385c-.548 0-1.018-.47-1.018-1.019V258.667c0-.314.078-.549.313-.785.235-.157.47-.313.705-.313l85.385 3.451c.549 0 .94.47.94 1.019v298.353a.952.952 0 0 1-.94 1.098m-84.993-1.333h84.602V262.431l-84.602-3.451z" fill="#202124"/><path d="M555.475 416.392a.7.7 0 0 1-.705-.706V281.647c0-.392.313-.706.705-.706s.705.314.705.706v134.039a.703.703 0 0 1-.705.706M532.994 326.118a.7.7 0 0 1-.705-.706v-22.824c0-.392.313-.706.705-.706s.705.314.705.706v22.824c-.078.392-.392.706-.705.706M532.994 477.647a.7.7 0 0 1-.705-.706V363.137c0-.392.313-.706.705-.706s.705.314.705.706v113.804c-.078.392-.392.706-.705.706M578.037 371.137a.7.7 0 0 1-.705-.706v-22.823c0-.392.313-.706.705-.706s.705.314.705.706v22.823a.7.7 0 0 1-.705.706" fill="#202124"/><path d="M406.01 560.784h-31.49V392.706l31.49-6.981z" fill="#E7F8EE"/><path d="M406.012 561.49h-31.491a.703.703 0 0 1-.705-.706V392.706c0-.314.235-.628.549-.706l31.49-6.902c.235-.078.392 0 .549.157a.72.72 0 0 1 .235.549v174.98c.078.392-.235.706-.627.706m-30.786-1.333h30.159V386.588l-30.159 6.588z" fill="#202124"/><path d="M492.024 560.784h-86.012V386.118c0-.236.156-.393.391-.393l85.621 2.902z" fill="#E7F8EE"/><path d="M492.026 561.49h-86.012a.7.7 0 0 1-.705-.706V386.118c0-.314.078-.549.313-.785.235-.157.47-.313.783-.313l85.621 2.902c.391 0 .626.313.626.705v172.157c.079.392-.235.706-.626.706m-85.307-1.333h84.602V389.333l-84.602-2.823z" fill="#202124"/><path d="M428.885 511.686a.7.7 0 0 1-.705-.706V406.667c0-.393.313-.706.705-.706s.705.313.705.706V510.98a.703.703 0 0 1-.705.706M474.006 523.843a.7.7 0 0 1-.705-.706V418.823c0-.392.313-.705.705-.705s.705.313.705.705v104.314c-.079.392-.392.706-.705.706M451.447 482.98a.7.7 0 0 1-.705-.706v-21.333c0-.392.313-.706.705-.706s.705.314.705.706v21.333a.7.7 0 0 1-.705.706" fill="#202124"/><path d="M300.023 560.784h-31.804v-83.372l31.49-6.196z" fill="#E7F8EE"/><path d="M300.025 561.49h-31.804a.7.7 0 0 1-.705-.706v-83.372c0-.314.235-.628.548-.706l31.491-6.196c.235-.079.391 0 .548.157a.7.7 0 0 1 .235.549l.313 89.647c0 .157-.078.392-.235.47 0 .079-.156.157-.391.157m-31.099-1.333h30.472l-.313-88.079-30.159 5.961z" fill="#202124"/><path d="M385.41 560.784h-85.386c-.156 0-.313-.157-.313-.314v-88.941c0-.157.157-.313.313-.313l85.386 1.411c.156 0 .313.157.313.314v87.608c0 .157-.078.235-.313.235" fill="#E7F8EE"/><path d="M385.411 561.49h-85.385c-.548 0-1.018-.47-1.018-1.019v-88.942c0-.235.078-.549.313-.706s.47-.313.705-.313l85.385 1.412c.549 0 .94.47.94 1.019v87.608c.079.471-.391.941-.94.941m-84.993-1.333h84.602v-86.902l-84.602-1.412z" fill="#202124"/><path d="M359.717 540.314a.7.7 0 0 1-.705-.706V486.51c0-.392.313-.706.705-.706s.705.314.705.706v53.098a.703.703 0 0 1-.705.706M332.768 521.412a.703.703 0 0 1-.706-.706V505.02c0-.393.314-.706.706-.706s.705.313.705.706v15.686a.703.703 0 0 1-.705.706" fill="#202124"/><path d="M194.035 560.784h-31.883v-43.686l31.569-5.255z" fill="#E7F8EE"/><path d="M194.037 561.49h-31.883a.7.7 0 0 1-.705-.706v-43.686c0-.314.235-.627.549-.706l31.49-5.333c.235 0 .392 0 .549.157a.71.71 0 0 1 .235.549l.313 49.019c0 .157-.078.392-.235.471 0 .157-.157.235-.313.235m-31.178-1.333h30.473l-.314-47.53-30.159 5.099z" fill="#202124"/><path d="M279.421 560.784h-85.385c-.157 0-.313-.078-.313-.157V512c0-.078.156-.157.313-.157l85.385.784c.157 0 .314.079.314.157v47.922s-.157.078-.314.078" fill="#E7F8EE"/><path d="M279.423 561.49h-85.385c-.548 0-1.018-.392-1.018-.862V512c0-.235.078-.392.235-.549s.47-.314.783-.314l85.385.785c.549 0 .94.392.94.862v47.922c0 .392-.391.784-.94.784m-85.072-1.333h84.602v-46.824l-84.602-.784z" fill="#202124"/><path d="M253.728 549.882a.7.7 0 0 1-.705-.705v-29.02c0-.392.314-.706.705-.706.392 0 .705.314.705.706v29.02a.7.7 0 0 1-.705.705M226.701 539.608a.7.7 0 0 1-.705-.706v-8.549c0-.392.313-.706.705-.706s.705.314.705.706v8.549a.7.7 0 0 1-.705.706" fill="#202124"/><path d="m287.723 426.118-3.133 27.686 11.828 4.941 4.309-30.196z" fill="#fff"/><path d="M296.42 459.451c-.078 0-.156 0-.235-.079l-11.75-4.862c-.313-.157-.47-.392-.392-.706l3.134-27.686c0-.157.156-.393.235-.471.156-.078.313-.157.548-.157l13.004 2.431c.391.079.626.393.548.785l-4.308 30.196c0 .235-.157.392-.314.47-.235 0-.391.079-.47.079m-11.045-6.039 10.497 4.392 4.073-28.628-11.593-2.117z" fill="#202124"/><path d="M281.929 451.216c-.392 2.588-.941 7.451-1.019 11.843 0 2.745 2.037 5.019 4.7 5.412 7.677 1.019 25.067 2.039 39.951.705 1.019-.078 2.82-.862 3.29-3.372 1.645-8.549-13.16-10.588-29.375-16.784-.627-.236-1.332-.079-1.88.392l-1.724 1.725c-1.723 1.726-4.387 2.196-6.58 1.255l-5.327-2.274c-.94-.471-1.958.156-2.036 1.098" fill="#202124"/><path d="M310.051 470.51c-9.949 0-19.271-.706-24.519-1.334-3.055-.392-5.405-2.98-5.327-6.117.078-4.471.627-9.412 1.018-11.922a1.94 1.94 0 0 1 1.097-1.568c.627-.314 1.332-.393 1.958-.079l5.327 2.275c1.959.862 4.309.392 5.875-1.098l1.724-1.726c.705-.627 1.645-.863 2.585-.549a203 203 0 0 0 10.967 3.765c11.28 3.686 20.21 6.666 18.878 13.804-.548 2.666-2.428 3.764-3.916 3.921-5.17.471-10.497.628-15.667.628m-27.496-19.216c-.392 2.51-.94 7.373-1.018 11.765a4.735 4.735 0 0 0 4.151 4.706c7.912 1.019 25.068 2.039 39.795.706.391 0 2.193-.314 2.663-2.824 1.175-5.961-6.815-8.549-17.939-12.235-3.525-1.177-7.206-2.353-11.045-3.843-.392-.157-.862-.079-1.097.235l-1.723 1.725c-1.958 1.883-4.857 2.432-7.363 1.334l-5.327-2.275c-.235-.078-.47-.078-.705.079a1.7 1.7 0 0 0-.392.627" fill="#fff"/><path d="M280.91 462.431v.628c0 2.745 2.037 5.019 4.7 5.411 7.677 1.02 25.067 2.04 39.951.706 1.019-.078 2.82-.862 3.29-3.372.157-.784.079-2.196.079-2.196l-1.019.078c-14.962.706-30.002.392-44.964-1.098z" fill="#202124"/><path d="M310.051 470.51c-9.949 0-19.271-.706-24.519-1.334-3.055-.392-5.405-2.98-5.327-6.117v-.628c0-.157.078-.392.235-.47.157-.157.313-.157.548-.157l2.037.235c14.884 1.412 29.924 1.804 44.808 1.098l1.018-.078c.392 0 .705.235.705.627 0 .157.078 1.49-.078 2.353-.549 2.667-2.429 3.765-3.917 3.922-5.013.392-10.34.549-15.51.549m-28.514-7.373c0 2.353 1.801 4.314 4.151 4.628 7.912 1.019 25.068 2.039 39.795.705.391 0 2.193-.313 2.663-2.823.078-.314.078-.863.078-1.333h-.391c-14.962.706-30.159.392-45.043-1.098zM303.236 458.902q-.235 0-.47-.235c-.235-.236-.235-.706 0-.942l5.719-5.725c.235-.235.705-.235.94 0s.235.706 0 .941l-5.719 5.726q-.235.235-.47.235M308.798 459.529c-.157 0-.314-.078-.47-.156-.235-.236-.314-.706 0-.942l4.543-4.706c.235-.235.705-.313.94 0 .235.236.314.706 0 .942l-4.543 4.706c-.079.078-.314.156-.47.156" fill="#fff"/><path d="m299.988 354.524.001-.001c16.31-23.968 18.405-48.104 20.262-69.494.375-4.32.741-8.528 1.212-12.6 1.4-12.113 3.862-19.124 5.924-23.074 1.031-1.973 1.96-3.181 2.607-3.881.324-.35.577-.574.739-.704l.094-.074.17-.038c.231-.051.573-.125 1.008-.214.872-.177 2.12-.415 3.62-.652 3.006-.476 7.001-.949 10.998-.949 4.02 0 7.931.479 10.836 1.829 1.44.669 2.598 1.535 3.41 2.631.806 1.086 1.31 2.449 1.372 4.184.276 7.743 1.301 15.631 2.254 21.573.477 2.974.937 5.465 1.278 7.215.17.874.311 1.564.409 2.035l.099.472-.142.466c-.142.469-.354 1.159-.629 2.047a835.697 835.697 0 0 1-10.624 31.889c-6.732 18.884-15.393 40.699-23.193 52.783l.706.457-.706-.456c-14.964 23.182-28.236 63.142-30.896 71.367-.164.489-.608.796-1.149.802l-14.863-.548-.018-.001h-.019c-.557 0-1.077-.489-1.039-1.2.448-4.974.757-10.466 1.081-16.23q.13-2.325.268-4.702c.436-7.494.966-15.344 1.907-23.11 1.885-15.56 5.408-30.655 13.023-41.822Z" fill="#09B850" stroke="#202124" stroke-width="2"/><path d="m418.154 344.078-6.267 27.138 11.045 6.196 7.834-29.49z" fill="#fff"/><path d="M423.009 378.118c-.078 0-.235 0-.313-.079l-11.124-6.196a.74.74 0 0 1-.313-.784l6.266-27.137c.079-.157.157-.314.314-.471.156-.078.391-.157.548-.078l12.612 3.921c.392.079.548.471.47.863l-7.755 29.49a.8.8 0 0 1-.392.471zm-10.34-7.294 9.87 5.568 7.363-28-11.28-3.451z" fill="#202124"/><path d="M410.554 369.569c-.391 2.588-2.742 7.607-2.742 11.921 0 2.745 2.037 5.02 4.701 5.412 7.676 1.02 26.869 1.961 41.674.627 1.018-.078 2.82-.862 3.29-3.372 1.645-8.549-13.16-10.588-29.376-16.784-.626-.236-1.331-.079-1.88.392l-1.723 1.725c-1.723 1.726-4.387 2.196-6.58 1.255l-5.327-2.274c-.94-.471-1.958.156-2.037 1.098" fill="#202124"/><path d="M437.736 388.941c-10.653 0-20.68-.706-25.302-1.255-3.055-.392-5.405-2.98-5.327-6.117 0-2.824 1.019-5.961 1.802-8.393.47-1.411.862-2.666 1.018-3.607a1.94 1.94 0 0 1 1.097-1.569c.627-.314 1.332-.392 1.959-.078l5.326 2.274c1.959.863 4.309.392 5.875-1.098l1.724-1.725c.705-.628 1.645-.863 2.585-.549a204 204 0 0 0 10.967 3.764c11.28 3.687 20.21 6.667 18.879 13.804-.549 2.667-2.429 3.765-3.917 3.922-5.484.392-11.202.627-16.686.627m-26.555-19.216c-.157 1.02-.549 2.353-1.019 3.844-.783 2.431-1.723 5.411-1.723 8a4.735 4.735 0 0 0 4.152 4.706c6.972.862 26.32 1.96 41.517.627.392 0 2.194-.314 2.664-2.824 1.175-5.96-6.815-8.549-17.939-12.235-3.525-1.176-7.207-2.353-11.045-3.843-.392-.157-.862-.078-1.097.235l-1.723 1.726c-1.959 1.882-4.857 2.431-7.364 1.333l-5.327-2.274c-.235-.079-.47-.079-.705.078-.156.157-.313.314-.391.627" fill="#fff"/><path d="M408.125 380.706v.627c0 2.745 2.037 5.02 4.7 5.412 7.677 1.02 26.399 2.118 41.283.784 1.018-.078 2.82-.862 3.29-3.372.156-.784.078-2.196.078-2.196l-1.018.078c-14.962.706-30.003.392-44.965-1.098z" fill="#202124"/><path d="M438.989 388.863c-11.124 0-21.542-.785-26.164-1.412-3.055-.392-5.405-2.98-5.327-6.118v-.627c0-.157.078-.392.235-.471.157-.157.313-.157.548-.157l3.369.236c14.883 1.412 29.924 1.804 44.807 1.098l1.019-.079c.391 0 .705.236.705.628 0 .157.078 1.49-.079 2.353-.548 2.666-2.428 3.764-3.916 3.921-4.857.471-10.105.628-15.197.628m-30.159-7.373c0 2.353 1.801 4.314 4.151 4.628 6.737.862 25.616 2.196 41.126.784.392 0 2.194-.314 2.664-2.824.078-.313.078-.862.078-1.333h-.392c-14.962.706-30.159.392-45.042-1.098zM431.861 377.255q-.235 0-.47-.235c-.235-.236-.235-.706 0-.942l5.719-5.725c.235-.235.705-.235.94 0s.235.706 0 .941l-5.719 5.726c-.157.235-.313.235-.47.235M437.423 377.882c-.157 0-.314-.078-.47-.157-.235-.235-.314-.705 0-.941l4.543-4.706c.235-.235.705-.313.94 0 .235.236.314.706 0 .942l-4.543 4.705c-.079.079-.314.157-.47.157" fill="#fff"/><path d="M355.789 242.933a3369.45 3369.45 0 0 1 11.16-2.053c7.29-1.33 17.099-3.096 27.171-4.846 10.074-1.749 20.405-3.481 28.744-4.74 4.171-.63 7.836-1.141 10.717-1.476 2.917-.34 4.943-.49 5.894-.428h.007c.806.047 1.704.079 2.672.113 4.069.144 9.365.33 14.142 1.843 2.93.927 5.584 2.334 7.585 4.478 1.988 2.131 3.389 5.05 3.725 9.121v.001c.153 1.824-.201 4.761-1.007 8.616-.8 3.825-2.025 8.459-3.554 13.63-3.058 10.339-7.317 22.769-11.784 35.055-8.939 24.585-18.678 48.506-21.24 53.871l-.004.009-.004.009c-.218.479-.625.742-1.19.746l-14.305-.469c-.838-.052-1.379-.785-1.254-1.494l.002-.008.001-.008c.342-2.132.78-4.921 1.289-8.167 1.302-8.294 3.071-19.57 4.908-30.482 1.277-7.589 2.585-14.993 3.788-21.084 1.209-6.119 2.297-10.834 3.127-13.1a232 232 0 0 0 2.453-7.024q.405-1.213.765-2.259c.842-2.442 1.535-4.205 2.407-5.587l.006-.01c.523-.85.459-1.936.118-2.69-.176-.39-.481-.817-.967-1.057-.535-.265-1.132-.224-1.661.074-18.588 9.986-36.204 15.645-49.173 18.806-6.485 1.58-11.804 2.535-15.498 3.095a117 117 0 0 1-4.764.627z" fill="#09B850" stroke="#202124" stroke-width="2"/><path d="M257.33 262.118c1.175-1.412 2.663-2.981 3.917-4.236 1.645-1.647 7.206-12.47 7.206-12.47l9.714 2.745s-4.543 7.921-3.447 11.921c1.019 3.687 1.802 11.451-3.603 17.177-.627.627-1.959.784-2.429.706-1.41-.314-1.41-2.275-.783-3.53l1.958-3.607c.157-.314-.078-.706-.47-.628-1.488.235-4.621 1.177-7.99 5.255-2.585 3.216-7.677 10.274-9.4 9.098-2.977-2.196-.94-14.902 5.327-22.431" fill="#fff"/><path d="M252.552 285.333c-.313 0-.548-.078-.784-.235-.861-.549-1.41-1.725-1.566-3.294-.705-5.02 1.723-14.118 6.737-20.078 1.175-1.334 2.663-2.981 3.995-4.314 1.331-1.255 5.562-9.334 7.05-12.314.157-.314.47-.471.783-.314l9.714 2.745a.8.8 0 0 1 .47.393c.078.156.078.392-.079.627-1.253 2.118-4.23 8.392-3.368 11.373.47 1.803 2.663 11.058-3.76 17.803-.862.863-2.428 1.02-3.133.942-.627-.157-1.175-.628-1.489-1.255-.391-.941-.313-2.275.235-3.294l1.724-3.138c-1.567.314-4.231 1.491-7.051 4.942-.391.47-.861 1.019-1.331 1.647-3.525 4.392-6.267 7.764-8.147 7.764m5.327-22.823c-4.622 5.568-7.051 14.274-6.424 18.98.157 1.177.548 2.039 1.019 2.353.626.392 3.055-2.039 7.206-7.294.47-.627.94-1.176 1.332-1.647 3.447-4.235 6.815-5.255 8.46-5.569.392-.078.862.157 1.097.471s.235.784.078 1.176l-1.958 3.608c-.392.706-.47 1.569-.235 2.118.078.235.313.392.548.47.314.079 1.41-.078 1.802-.549 5.875-6.196 3.838-14.823 3.447-16.47-.94-3.451 1.958-9.49 3.133-11.686l-8.303-2.353c-1.175 2.353-5.562 10.588-7.051 12.157a35 35 0 0 0-4.151 4.235" fill="#202124"/><path d="m490.142 139.922-6.266-10.589c-1.019-1.725-4.309-2.274-5.876-1.098-35.485 26.432-73.165 15.687-79.04 14.275-14.492-3.451-21.777-4-33.136-4.706-16.685-1.02-40.734 8.627-56.871 24.863-12.847 12.862-34.781 54.666-44.729 83.686-.392 1.255.157 2.588 1.253 3.137l9.949 5.177c1.253.627 2.82.157 3.525-1.098 5.092-9.569 27.104-49.334 50.134-62.432 1.724-.941 4.23.079 4.152 2.04-.313 6.117-4.073 28.784-5.248 49.725-.157 2.745 1.723 5.255 4.465 5.725l10.105 1.883c17.547 4.078 34.076-.471 41.283-3.059 2.193-.784 3.29-2.902 3.603-5.255.548-3.843 8.382-34.98 22.561-55.529 1.801-2.589 4.465-4.392 7.676-4.549 12.691-.706 48.803-5.804 72.382-38.902.548-1.02.627-2.275.078-3.294" fill="#fff"/><path d="M276.524 255.686c-.47 0-1.018-.157-1.488-.392l-9.949-5.176c-1.488-.785-2.115-2.432-1.567-4 10.262-29.961 32.509-71.53 44.886-83.922 15.589-15.608 39.716-26.118 57.42-25.02 11.672.706 18.957 1.255 33.292 4.706.235.079.47.157.862.236 28.671 7.137 55.461 2.117 77.63-14.353.94-.706 2.429-.941 3.839-.706 1.41.314 2.506.941 3.055 1.961l6.267 10.588a3.86 3.86 0 0 1-.157 4c-23.422 32.863-58.752 38.353-72.852 39.216-2.742.156-5.327 1.725-7.128 4.235-13.552 19.608-21.699 50.196-22.483 55.294-.391 2.98-1.88 5.02-4.073 5.804-8.068 2.902-24.284 7.137-41.674 3.059l-10.027-1.883c-3.055-.549-5.249-3.372-5.014-6.431.705-13.49 2.585-27.529 3.839-37.726.705-5.49 1.253-9.882 1.41-12 0-.705-.47-1.098-.783-1.333-.705-.47-1.645-.47-2.351-.078-22.482 12.784-43.867 50.823-49.821 62.196-.783 1.098-1.88 1.725-3.133 1.725m86.717-117.255c-17.077 0-39.324 10.118-53.895 24.706-12.298 12.314-34.389 53.647-44.572 83.373-.314.941.078 1.882.94 2.353l9.948 5.176c.94.471 2.115.157 2.585-.784 6.032-11.451 27.574-49.726 50.37-62.745 1.096-.628 2.663-.628 3.76.078.94.549 1.488 1.49 1.41 2.51-.078 2.196-.705 6.588-1.41 12.157-1.332 10.196-3.134 24.157-3.839 37.647-.156 2.431 1.567 4.549 3.917 5.02l10.105 1.882c17.078 4 32.98-.157 40.97-3.059 2.193-.784 2.898-2.98 3.211-4.706.47-3.451 8.069-34.745 22.718-55.843 2.036-2.902 5.013-4.706 8.146-4.863 13.944-.784 48.725-6.196 71.834-38.588.548-.784.548-1.725.156-2.51l-6.266-10.588c-.392-.627-1.175-1.098-2.115-1.255-1.097-.235-2.115-.078-2.742.392-22.169 16.549-50.135 21.726-78.727 14.589-.313-.079-.627-.157-.783-.236-14.179-3.372-21.464-3.921-33.058-4.627-1.018 0-1.801-.079-2.663-.079" fill="#202124"/><path d="M481.446 132.471c-.156-.785.157-1.569.784-2.118.783-.706 2.193-1.882 4.151-3.608 3.447-3.059 7.834-9.098 11.594-10.902s17.469-7.216 19.662-6.039c2.193 1.176 1.097 3.686-2.037 5.255-3.133 1.49-7.207 3.059-7.207 3.059s2.272-.157 3.917 2.509c1.645 2.589-.626 3.687.314 4.942 1.253 1.647.861 3.607-.079 4.47-2.271 1.961-5.013-1.882-7.05 2.039-1.41 2.745-4.778 4.549-11.594 5.804a14 14 0 0 0-5.17 2.04c-.626.392-1.488.47-2.115.078-1.566-.941-4.386-3.137-5.17-7.529" fill="#fff"/><path d="M487.713 140.941c-.47 0-.94-.157-1.332-.392-1.723-.941-4.778-3.294-5.562-8-.156-1.02.235-2.039 1.019-2.745s2.193-1.882 4.151-3.53c1.254-1.098 2.585-2.509 3.995-4.078 2.585-2.823 5.249-5.725 7.756-6.902 1.645-.784 17.468-7.529 20.288-6.039 1.019.549 1.567 1.333 1.489 2.353 0 1.49-1.41 3.059-3.525 4.157-1.724.862-3.839 1.725-5.327 2.274.783.392 1.645 1.098 2.35 2.275 1.175 1.804.705 3.059.392 3.921-.235.628-.235.785-.079 1.02 1.489 1.961 1.019 4.314-.235 5.412-1.253 1.019-2.585.784-3.681.549-1.411-.314-2.272-.471-3.212 1.333-1.567 3.059-5.17 4.863-12.064 6.196-1.723.314-3.368 1.02-4.935 1.961-.47.078-1.018.235-1.488.235m28.984-30.588c-3.055 0-13.787 3.921-18.409 6.196-2.272 1.098-4.857 3.922-7.364 6.588-1.488 1.569-2.82 3.059-4.073 4.236-1.958 1.725-3.29 2.901-4.152 3.607-.391.393-.626.942-.548 1.491.705 4.156 3.368 6.196 4.857 7.058.47.236 1.018.236 1.488-.078 1.723-1.02 3.525-1.804 5.405-2.118 6.424-1.255 9.792-2.902 11.124-5.49 1.41-2.745 3.368-2.353 4.778-2.039 1.097.235 1.802.314 2.507-.235.627-.549 1.097-2.04 0-3.53-.627-.863-.313-1.647-.078-2.353.235-.784.548-1.49-.235-2.745-1.41-2.196-3.212-2.196-3.29-2.196a.75.75 0 0 1-.706-.549c-.078-.314.079-.627.392-.784.079 0 4.074-1.569 7.129-2.981 1.88-.941 2.741-2.117 2.741-2.902 0-.47-.235-.784-.783-1.098-.313-.078-.548-.078-.783-.078" fill="#202124"/><path d="m389.794 109.176-18.722 31.138c-.235.392-2.977.235-6.11.549-1.488.157-2.977.392-4.23.549-1.019.157-1.332 1.49-.47 2.117l3.368 2.196c7.05 4.706 15.432 7.059 23.814 6.51 2.35-.157 4.622-.549 6.58-1.176l7.207-2.275c1.097-.313 1.097-1.882 0-2.196l-9.165-2.745 7.755-16.392z" fill="#fff"/><path d="M385.016 153.02c-7.599 0-15.197-2.353-21.777-6.746l-3.369-2.196a1.8 1.8 0 0 1-.783-1.882c.156-.784.783-1.333 1.488-1.412 1.567-.235 3.055-.47 4.23-.549 1.254-.157 2.507-.157 3.525-.235.862-.078 1.802-.078 2.194-.157l18.643-30.98c.157-.236.314-.314.627-.314.235 0 .47.157.627.392l9.948 18.275c.079.156.079.392 0 .627l-7.363 15.686 8.382 2.51c.783.235 1.331.941 1.331 1.726 0 .862-.47 1.49-1.253 1.725l-7.207 2.275c-1.958.627-4.23 1.019-6.737 1.176-.861.079-1.645.079-2.506.079m4.778-42.51-18.174 30.117c-.391.471-.94.549-3.211.706-.94.079-2.194.079-3.447.236s-2.663.313-4.152.549c-.313.078-.391.235-.391.392 0 .078-.079.313.235.47l3.368 2.196c7.05 4.706 15.354 6.981 23.422 6.432 2.35-.157 4.544-.549 6.424-1.098l7.206-2.275c.314-.078.314-.314.314-.47 0-.079 0-.314-.314-.471l-9.165-2.745a.94.94 0 0 1-.391-.392.67.67 0 0 1 0-.549l7.598-16.079z" fill="#202124"/><path d="M398.174 128.078c1.019.157 1.959.157 3.055.079l1.88-.079s10.654-1.411 12.299-4.078c1.723-2.667-1.88-12.235-1.88-12.235 1.645-1.255 2.037-2.902 1.645-3.451-.313-.549-2.742-1.334-3.682-2.118-.783-.549-2.506-5.176-3.29-7.137 0 0-1.41-7.765-13.865-6.745-28.514 2.274-7.99 28.706-7.99 28.706.47.549.861 1.019 1.331 1.49z" fill="#fff"/><path d="M400.29 128.941c-1.566 0-3.133-.235-4.621-.627-.392-.079-.549-.471-.47-.863.078-.392.47-.549.861-.471 1.645.471 3.369.628 5.092.549l1.88-.078c3.917-.549 10.654-2.039 11.75-3.765s-.626-8-1.958-11.608c-.078-.313 0-.627.235-.784 1.41-1.098 1.567-2.353 1.488-2.51-.156-.157-1.018-.549-1.566-.862-.705-.314-1.489-.706-1.959-1.02-.705-.471-1.645-2.588-3.525-7.451v-.157c-.078-.314-1.488-7.137-13.082-6.196-7.05.55-11.593 2.588-13.395 6.04-3.055 5.803 1.802 14.509 4.7 19.686l.235.47c.157.314.078.784-.235.941s-.783.079-.94-.235l-.235-.471c-3.055-5.411-8.225-14.509-4.778-21.02 2.036-3.92 6.971-6.195 14.492-6.744 12.22-1.02 14.335 6.431 14.57 7.215 1.958 5.177 2.742 6.51 3.055 6.746.392.313 1.097.627 1.723.941 1.175.549 1.802.862 2.115 1.333.549.863.079 2.667-1.41 4 .784 2.118 3.369 9.804 1.645 12.392-1.801 2.824-11.671 4.235-12.846 4.392l-1.881.079c-.313 0-.626.078-.94.078" fill="#202124"/><path d="M388.542 89.02c3.133-.628 6.658-.157 8.147-.628 2.428-.863 2.35-3.686 5.796-3.921 3.055-.236 5.876.313 7.364 2.666.235.392.47.785.627 1.334 2.35 6.588-.94 9.725-2.351 10.745 0 0-9.243 4.47-10.81 5.725-1.488 1.177-3.211 4-2.271 8.157.156.549-.157 1.098-.627 1.333-.548.314-1.254.157-1.645-.392-1.175-1.647-3.682-4.863-5.484-4.157-2.193.863-2.898 6.353 1.097 7.687 1.253.392 1.645 2.039.783 2.98-.705.784-1.88 1.333-3.525.941 0 0-9.948-7.059-11.123-16.47-1.254-9.334 9.87-15.138 14.022-16M482.235 30.667c-1.019 0-2.037-.314-2.977-.942a5.17 5.17 0 0 1-2.115-3.372 5.14 5.14 0 0 1 .861-3.843 5.153 5.153 0 0 1 7.207-1.255 5.17 5.17 0 0 1 2.115 3.372 5.15 5.15 0 0 1-.861 3.844c-.94 1.411-2.585 2.195-4.23 2.195m.078-8.942c-1.175 0-2.429.55-3.134 1.647-.548.863-.783 1.883-.626 2.824.156 1.02.705 1.882 1.567 2.431a3.87 3.87 0 0 0 5.326-.94 3.88 3.88 0 0 0-.94-5.334c-.705-.47-1.488-.628-2.193-.628M515.603 36.47a.85.85 0 0 1-.549-.235c-.235-.314-.235-.706.079-.941l3.368-2.823c.313-.236.705-.236.94.078s.235.706-.078.941l-3.369 2.824a.6.6 0 0 1-.391.157M505.106 45.49a.85.85 0 0 1-.548-.235c-.235-.314-.235-.706.078-.941l3.369-2.824c.313-.235.705-.235.94.078.235.314.235.706-.078.942l-3.369 2.823a.6.6 0 0 1-.392.157M508.946 35.922a.84.84 0 0 1-.548-.236l-2.82-3.372c-.235-.314-.235-.706.078-.942.313-.235.705-.235.94.079l2.82 3.372c.235.314.235.706-.078.942-.079.157-.235.157-.392.157M517.954 46.51a.84.84 0 0 1-.548-.236l-2.821-3.372c-.235-.314-.235-.706.079-.941.313-.236.705-.236.94.078l2.82 3.373c.235.313.235.706-.078.94a.6.6 0 0 1-.392.158M240.569 431.921c-.392 0-.705-.313-.705-.627l-.157-4.392c0-.392.313-.706.627-.706.391 0 .705.314.705.627l.156 4.393c.079.392-.235.705-.626.705M241.037 445.725c-.391 0-.705-.313-.705-.627l-.156-4.392c0-.392.313-.706.626-.706.392 0 .705.314.705.627l.157 4.393c.078.392-.157.705-.627.705q.119 0 0 0M231.639 437.019c-.392 0-.705-.313-.705-.627 0-.392.313-.706.626-.706l4.387-.157c.392 0 .705.314.705.628 0 .392-.313.706-.627.706zM245.424 436.47c-.392 0-.705-.313-.705-.627 0-.392.313-.706.626-.706l4.387-.157c.392 0 .705.314.705.628 0 .392-.313.706-.626.706zM494.767 247.686c-.235 0-.392-.078-.548-.314-.235-.313-.157-.705.156-.941l30.081-22.274c.313-.236.705-.157.94.157.235.313.157.705-.157.941l-30.08 22.274c-.157.157-.235.157-.392.157M449.412 208.471c-.235 0-.392-.079-.549-.314-.235-.314-.156-.706.157-.941l76.69-56.863c.313-.235.705-.157.94.157.235.313.157.706-.157.941l-76.69 56.863c-.156.157-.235.157-.391.157M503.619 182.902c-.235 0-.392-.079-.549-.314-.235-.314-.156-.706.157-.941l40.343-29.882c.313-.236.704-.157.939.156.235.314.157.706-.156.942l-40.343 29.882c-.156.078-.235.157-.391.157M263.991 253.961c-.627 0-1.332-.157-1.959-.392a5.82 5.82 0 0 1-3.055-2.902c-1.175-2.824.079-6.04 2.742-7.295.313-.156.783 0 .94.314s0 .784-.313.941c-2.037.942-2.977 3.373-2.115 5.491.47 1.019 1.253 1.803 2.271 2.196 1.019.392 2.115.392 3.055-.079 2.037-.941 2.977-3.372 2.115-5.49-.156-.314 0-.784.392-.941.313-.157.783 0 .94.392 1.175 2.824-.078 6.039-2.742 7.294-.783.314-1.488.471-2.271.471" fill="#202124"/><path d="m549.95 558.948.001-.002 21.307-104.078c1.707-8.322 8.976-14.26 17.429-14.26h119.821l-6.56 133.216H562.053c-7.827 0-13.697-7.184-12.103-14.876Z" fill="#223C2E" stroke="#202124" stroke-width="2"/><path d="M720.998 574.823h-27.339c-8.46 0-14.806-7.764-13.082-16.078l23.579-114.588c.548-2.588 2.82-4.471 5.483-4.471h7.05c2.899 0 5.327 2.275 5.562 5.177l9.635 118.196c.47 6.274-4.543 11.764-10.888 11.764" fill="#fff"/><path d="M720.997 575.451h-27.339c-4.23 0-8.226-1.882-10.889-5.177s-3.76-7.529-2.898-11.686L703.45 444c.626-2.902 3.211-5.02 6.188-5.02h7.05c3.212 0 6.032 2.51 6.267 5.804l9.635 118.196c.235 3.216-.861 6.432-3.055 8.785-2.272 2.353-5.327 3.686-8.538 3.686M709.56 440.314c-2.35 0-4.309 1.647-4.779 3.921l-23.579 114.588a12.6 12.6 0 0 0 2.585 10.589c2.429 2.98 6.032 4.706 9.792 4.706h27.339c2.899 0 5.562-1.177 7.52-3.295 1.959-2.117 2.899-4.862 2.664-7.764l-9.635-118.196c-.235-2.51-2.35-4.549-4.857-4.549z" fill="#202124"/><path d="M675.795 494.98h-99.172a.7.7 0 0 1-.705-.706c0-.392.313-.705.705-.705h99.251c2.976 0 5.483-2.04 6.188-4.942l9.714-41.098c.078-.392.47-.627.861-.549.392.079.627.471.549.863l-9.714 41.098c-.94 3.53-4.073 6.039-7.677 6.039" fill="#fff"/><path d="m641.171 494.275-3.055 12.47c-.47 2.118-2.35 3.608-4.543 3.608h-21.856c-2.35 0-4.073-2.275-3.447-4.549l3.212-11.529z" fill="#fff"/><path d="M633.496 511.059h-21.855c-1.332 0-2.585-.628-3.447-1.726-.783-1.098-1.097-2.431-.705-3.764l3.212-11.53c.078-.314.391-.47.626-.47h29.768a.71.71 0 0 1 .548.235c.157.157.157.392.157.627l-3.055 12.471c-.627 2.431-2.742 4.157-5.249 4.157m-21.542-16.079-3.055 10.981c-.235.862-.078 1.804.47 2.51s1.41 1.176 2.35 1.176h21.856c1.88 0 3.446-1.255 3.916-3.059l2.899-11.608z" fill="#202124"/><path d="m687.549 438.98 2.507-13.019c1.175-8.157-3.133-12.706-9.322-12.706h-57.028c-6.188 0-12.064 6.51-13.16 12.706l-2.507 13.019h9.165l2.194-11.059c.783-4.862 3.76-7.294 8.617-7.294h48.019c4.857 0 5.405 2.432 4.622 7.294l-2.194 11.059z" fill="#fff"/><path d="M687.547 439.608h-9.165a.71.71 0 0 1-.548-.236c-.157-.156-.157-.392-.157-.549l2.194-11.058c.47-2.902.391-4.549-.392-5.412-.627-.706-1.802-1.098-3.525-1.098h-48.02c-4.543 0-7.206 2.274-7.911 6.745l-2.194 11.137c-.078.314-.313.549-.705.549h-9.165a.7.7 0 0 1-.548-.235c-.157-.157-.157-.392-.157-.549l2.507-13.02c1.018-6.274 6.971-13.255 13.787-13.255h57.184c3.134 0 5.875 1.177 7.755 3.216 2.115 2.431 2.899 6.039 2.272 10.275l-2.507 13.098c-.156.156-.391.392-.705.392m-8.381-1.334h7.755l2.428-12.47c.548-3.843-.157-6.981-1.958-9.098-1.567-1.804-3.917-2.745-6.659-2.745h-57.028c-5.953 0-11.515 6.431-12.455 12.157l-2.35 12.235h7.755l2.115-10.51c.862-5.098 4.074-7.843 9.244-7.843h48.019c2.272 0 3.682.47 4.622 1.569 1.332 1.568 1.097 4.078.705 6.509z" fill="#202124"/><path d="M676.895 411.059h-48.176c-1.959 0-3.76 1.568-4.074 3.529l-.705 4.235c-.313 1.961 1.019 3.53 2.899 3.53h48.176c1.958 0 3.76-1.569 4.073-3.53l.705-4.235c.392-1.961-.94-3.529-2.898-3.529M693.342 559.059c-.235 0-.47-.157-.627-.314-.157-.314-.078-.784.235-.941l18.565-10.588v-92.314c0-.392.314-.706.706-.706s.705.314.705.706v92.706c0 .235-.157.47-.314.627l-18.879 10.745c-.156 0-.235.079-.391.079" fill="#202124"/><path d="M374.207 475.059s6.267 36.314 37.993 34.588c-.079 0-2.507-32-37.993-34.588" fill="#fff"/><path d="M374.209 474.431c-.157 0-.392.079-.47.157-.157.157-.157.314-.157.471.078.314 6.424 35.137 36.348 35.137.705 0 1.488 0 2.193-.078a.43.43 0 0 0 .392-.236c.078-.157.156-.313.156-.47s-2.82-32.314-38.462-34.981m35.721 34.667c-26.478 0-33.92-28.392-35.016-33.412 31.177 2.745 35.956 29.02 36.582 33.412z" fill="#202124"/><path d="m385.812 484.936-.789.872 26.716 24.213.789-.873z" fill="#202124"/><path d="M416.039 509.647c31.647 1.726 37.993-34.588 37.993-34.588-35.486 2.588-37.993 34.588-37.993 34.588" fill="#fff"/><path d="M453.955 474.431c-35.643 2.667-38.463 34.824-38.463 35.138 0 .157.078.313.157.47.078.157.235.157.391.235.784.079 1.489.079 2.194.079 29.924 0 36.269-34.745 36.347-35.137 0-.157 0-.392-.156-.471-.079-.235-.235-.314-.47-.314m-35.721 34.667h-1.567c.549-4.314 5.327-30.667 36.583-33.412-1.019 5.02-8.46 33.412-35.016 33.412" fill="#202124"/><path d="m442.408 485.016-26.705 24.223.789.872 26.705-24.223z" fill="#202124"/><path d="M396.768 433.412s-4.465 26.196 17.469 32.627c0 0 5.954-22.274-17.469-32.627" fill="#fff"/><path d="M397.003 432.863a.66.66 0 0 0-.548 0c-.157.078-.235.235-.314.392-.078.235-4.308 26.823 17.861 33.333h.156c.079 0 .235 0 .314-.078.156-.079.235-.235.313-.392s5.875-22.824-17.782-33.255m16.764 32.47c-18.487-5.882-17.077-26.745-16.529-31.058 20.132 9.333 17.312 27.45 16.529 31.058" fill="#202124"/><path d="m402.331 442.855-1.034.559 12.346 22.917 1.034-.558z" fill="#202124"/><path d="M414.313 482.824c22.718-2.51 22.953-29.02 22.953-29.02-24.911 6.039-22.953 29.02-22.953 29.02" fill="#fff"/><path d="M437.11 453.255c-25.145 6.118-23.422 29.412-23.344 29.647 0 .157.079.314.235.392a.6.6 0 0 0 .392.157h.078c22.953-2.51 23.423-29.333 23.423-29.647 0-.157-.079-.392-.235-.471-.157-.078-.314-.157-.549-.078m-22.247 28.941c-.078-3.608.548-22.039 21.777-27.608-.235 4.235-2.585 25.098-21.777 27.608" fill="#202124"/><path d="m430.08 462.097-16.189 20.378.919.733L431 462.829z" fill="#202124"/><path d="M440.715 509.882h-49.508v5.255h49.508z" fill="#F6851F"/><path d="M440.716 509.255h-49.507a.62.62 0 0 0-.627.627v5.255c0 .314.235.628.627.628h49.507a.62.62 0 0 0 .627-.628v-5.255c-.078-.313-.313-.627-.627-.627m-.626 5.333h-48.333v-4.078h48.333z" fill="#202124"/><path d="M406.326 568.863h19.27l12.142-53.726h-43.633z" fill="#F6851F"/><path d="M437.737 514.51h-43.633q-.234 0-.47.235c-.078.157-.156.314-.078.471l12.142 53.725c.078.236.313.471.548.471h19.271c.313 0 .548-.157.548-.471l12.142-53.725c.078-.157 0-.392-.078-.471 0-.157-.157-.235-.392-.235m-12.612 53.804h-18.33l-11.907-52.549h42.144z" fill="#202124"/><path d="M395.359 518.98h35.721l-6.894 49.883h1.41l12.142-53.726h-43.633z" fill="#202124"/><path d="M437.737 514.51h-43.633c-.156 0-.391.078-.47.235s-.156.314-.078.549l1.253 3.843a.59.59 0 0 0 .549.393h35.015l-6.815 49.254c0 .157 0 .314.157.471q.117.235.47.235h1.41c.313 0 .548-.157.548-.47l12.142-53.726c.079-.157 0-.392-.078-.47-.078-.236-.235-.314-.47-.314m-12.612 53.804h-.235l6.815-49.255c0-.157 0-.314-.157-.471q-.117-.235-.47-.235h-35.25l-.862-2.667h42.066zM414.706 465.098h-1.175v44.627h1.175z" fill="#202124"/><path d="M455.28 59.922h-.156c0 6.117-5.014 11.058-11.124 11.137v.157c6.11.078 11.045 5.02 11.124 11.137h.156c.079-6.118 5.014-11.059 11.124-11.137v-.157c-6.11-.079-11.124-5.02-11.124-11.137" fill="#fff"/><path d="M466.406 70.431c-5.797-.078-10.497-4.784-10.576-10.588 0-.314-.235-.549-.626-.549h-.079c-.313 0-.548.235-.626.55 0 5.803-4.779 10.509-10.576 10.587-.313 0-.548.236-.548.628v.157c0 .313.235.549.548.627 5.797.078 10.497 4.784 10.576 10.588 0 .314.235.55.626.55h.157c.313 0 .548-.236.627-.55.078-5.804 4.778-10.51 10.575-10.588.313 0 .548-.235.548-.627v-.157c-.078-.392-.313-.628-.626-.628m-11.202 8.55c-1.175-3.765-4.152-6.746-7.834-7.844 3.76-1.176 6.737-4.078 7.834-7.843 1.175 3.765 4.151 6.745 7.833 7.843-3.76 1.098-6.658 4.079-7.833 7.843" fill="#202124"/><path d="M463.27 81.804h-.078c0 3.294-2.742 6.039-6.032 6.039v.078c3.29 0 6.032 2.746 6.032 6.04h.078c0-3.294 2.742-6.04 6.032-6.04v-.078c-3.29-.078-6.032-2.745-6.032-6.04" fill="#fff"/><path d="M469.304 87.216c-2.977 0-5.405-2.432-5.483-5.49 0-.314-.235-.55-.627-.55h-.078c-.314 0-.549.236-.627.55 0 2.98-2.429 5.411-5.484 5.49-.313 0-.548.235-.548.627v.078c0 .314.235.55.548.628 2.977 0 5.406 2.431 5.484 5.49 0 .314.235.55.627.55h.078c.313 0 .548-.236.627-.55 0-2.98 2.506-5.412 5.483-5.49.313 0 .548-.235.548-.628v-.078c.079-.314-.235-.627-.548-.627m-6.032 4.157a7.03 7.03 0 0 0-3.525-3.53 7.2 7.2 0 0 0 3.525-3.45c.705 1.568 1.959 2.823 3.525 3.45-1.645.706-2.898 1.96-3.525 3.53" fill="#202124"/></g><defs><clipPath id="a"><path fill="#fff" d="M0 0h734v580H0z"/></clipPath></defs></svg>