<svg width="286" height="433" viewBox="0 0 286 433" fill="none" xmlns="http://www.w3.org/2000/svg"><circle cx="26" cy="54" r="26" fill="#B4C8FB"/><g clip-path="url(#a)"><path d="M14.772 68.998 20.542 59h23.084l-5.77 9.998z" fill="#3777E3"/><path d="M32.084 59h11.541L32.084 39.004H20.54z" fill="#FFCF63"/><path d="m9 59 5.771 9.997 11.542-19.995-5.771-9.998z" fill="#11A861"/></g><g clip-path="url(#b)"><path d="M261 234.414c13.484 0 24.414-10.93 24.414-24.414s-10.93-24.414-24.414-24.414-24.414 10.93-24.414 24.414 10.93 24.414 24.414 24.414" fill="#5C6BC0"/><path d="M275.508 200.368c-4.328-3.106-8.361-3.235-9.131-3.251l-.492.467c5.525 1.545 8.197 3.959 8.197 3.959-4.742-2.291-9.211-3.096-13.082-3.144-3.871.048-8.34.853-13.082 3.144 0 0 2.672-2.414 8.197-3.959l-.492-.467c-.77.016-4.803.145-9.131 3.251 0 0-4.836 8.11-4.836 18.072.164-.194 3 4.28 10.311 4.441 0 0 1.23-1.368 2.115-2.575-4.262-1.207-5.869-3.62-5.869-3.62 4.432 2.739 8.57 3.794 12.787 3.657 4.217.136 8.355-.918 12.787-3.657 0 0-1.607 2.413-5.87 3.62.886 1.207 2.115 2.575 2.115 2.575 7.311-.161 10.147-4.635 10.311-4.441.001-9.962-4.835-18.072-4.835-18.072m-20.459 14.95c-1.869 0-3.377-1.545-3.377-3.444s1.508-3.444 3.377-3.444v.016c1.852 0 3.377 1.545 3.377 3.444 0 1.883-1.508 3.428-3.377 3.428m11.901 0c-1.869 0-3.377-1.545-3.377-3.428 0-1.899 1.525-3.444 3.377-3.444v-.016c1.869 0 3.377 1.545 3.377 3.444s-1.507 3.444-3.376 3.444z" fill="#fff"/></g><circle cx="120.5" cy="198.5" r="36.5" fill="#0F0F10"/><g clip-path="url(#c)"><path d="M139.91 218.185a.78.78 0 0 1-.576.231.78.78 0 0 1-.576-.231.78.78 0 0 1-.23-.576c0-.23.076-.442.249-.595a.75.75 0 0 1 .557-.212q.346 0 .576.231a.78.78 0 0 1 .231.576.66.66 0 0 1-.231.576m-1.037-1.056a.63.63 0 0 0-.192.461c0 .192.058.346.192.48a.64.64 0 0 0 .48.192.64.64 0 0 0 .481-.192.64.64 0 0 0 .192-.48.6.6 0 0 0-.192-.461.66.66 0 0 0-.481-.211.73.73 0 0 0-.48.211m.73.883a.37.37 0 0 1-.23.077.45.45 0 0 1-.327-.134.46.46 0 0 1-.134-.346q0-.202.115-.346c.077-.096.192-.134.326-.134q.115 0 .231.057a.4.4 0 0 1 .192.308h-.211c-.02-.058-.039-.115-.077-.135-.039-.019-.077-.038-.115-.038a.17.17 0 0 0-.154.077.4.4 0 0 0-.058.23c0 .096.02.173.058.211s.096.077.154.077a.3.3 0 0 0 .134-.038l.058-.115h.192a.37.37 0 0 1-.154.249m2.036-8.527c0-.077-.019-.154-.019-.23 0-.058-.02-.096-.02-.135a2 2 0 0 0-.076-.326 1.9 1.9 0 0 0-.346-.596 2 2 0 0 0-.499-.403 2.6 2.6 0 0 0-.538-.192c-.058 0-.096-.019-.135-.019a2.84 2.84 0 0 0-.23-1.959l.038-.039c.231-.23.423-.441.596-.653l.038-.038c.135-.192.211-.384.269-.557.038-.154.077-.288.077-.422v-.365a2.8 2.8 0 0 0-.25-1.057 2.7 2.7 0 0 0-.403-.595 2.3 2.3 0 0 0-.634-.499c-.019-.02-.038-.02-.058-.039a9.3 9.3 0 0 0-1.613-1.786c-.269-.23-.518-.422-.73-.576s-.384-.269-.48-.346a3 3 0 0 0-.48-.307 5 5 0 0 1-.403-.269c-.058-.058-.096-.077-.115-.096 0 0 0-.019-.02-.058-.019-.057-.019-.134-.019-.268 0-.193 0-.481.019-.865.039-.614.096-1.44.173-2.573.019-.365.019-.711.019-1.018a7.5 7.5 0 0 0-.192-1.402c-.019-.096-.057-.192-.076-.288-.02-.077-.039-.115-.058-.154-.019-.057-.038-.115-.077-.192-.019-.038-.019-.077-.057-.115-.039-.096-.077-.192-.135-.288l-.019-.019-.019-.058-.02-.038a3 3 0 0 0-.326-.461 7 7 0 0 0-.327-1.095 6.2 6.2 0 0 0-.633-1.229c-.096-.154-.212-.288-.327-.423l.039-.038a19.8 19.8 0 0 0 2.477-3.323c1.978-3.438 1.325-5.531.423-6.683l-.02-.039-.019-.038c-.864-.96-2.055-1.537-3.495-1.729-3.015-.384-6.434 1.114-7.337 1.537l-1.651-1.805c-.154-.154-.308-.308-.48-.423a5 5 0 0 0-.557-.326 4.4 4.4 0 0 0-1.268-.346c-.903-.115-1.94 0-3.054.288-1.671.422-3.533 1.267-5.492 2.439s-3.995 2.689-5.973 4.494c-2.42 2.19-4.418 4.513-5.877 6.741-.73 1.095-1.325 2.17-1.767 3.208-.442 1.017-.73 1.997-.845 2.88-.077.653-.077 1.268.057 1.825.058.25.135.48.25.71.135.289.307.557.519.788l1.709 1.786.192.192-.019.019-.058.116c-.038.057-.057.115-.096.153l-.057.115c-.02.058-.058.116-.077.173l-.058.115c-.019.058-.057.116-.077.173-.019.039-.038.077-.038.116l-.058.172c-.019.039-.019.077-.038.116-.019.057-.039.115-.058.192 0 .019-.019.038-.019.057s-.019.039-.019.058c-.019.058-.039.134-.058.192 0 .038-.019.077-.019.115 0 .019-.019.058-.019.077 0 .038-.019.077-.019.115s-.02.077-.02.115c-.019.077-.019.154-.038.25 0 .019 0 .039-.019.077v.019c0 .058-.019.115-.019.154 0 .077-.02.173-.02.25v.96c0 .038 0 .077.02.115 0 .038 0 .096.019.154v.057c0 .039.019.096.019.135 0 .038.019.077.019.134 0 .019 0 .039.019.058 0 .019.02.057.02.077v.038c0 .038.019.077.038.154 0 .019 0 .019.019.038a.2.2 0 0 1 .019.096l.02.038c0 .02 0 .02.019.039l.019.038v.058c0 .019 0 .019.019.038l.019.039c0 .038.02.057.02.096.019.038.019.077.038.153 0 .02 0 .02.019.039.019.057.039.096.039.115a.7.7 0 0 1 .057.154l.02.019c.019.038.019.077.038.096l.019.038c0 .02.019.039.019.058s.02.058.039.077l.019.038c.019.019.019.058.038.077.02.019.02.038.02.058.019.038.038.076.057.134l.019.019c.02.019.02.039.039.058s.019.058.038.077a.3.3 0 0 1 .058.115l.019.019c.019.019.019.039.038.058.02.038.039.057.039.077a.4.4 0 0 1 .057.096v.019c.02.019.02.038.039.057a.3.3 0 0 0 .057.077c.02.019.039.058.077.116.02.019.039.038.039.057a.3.3 0 0 0 .057.077c.02.019.039.058.058.096.019.019.038.058.058.077a.15.15 0 0 0 .076.077l.058.057.019.019c.039.039.058.077.096.116l.039.038.057.058.115.115.039.038.058.058.019.019c.038.039.096.077.134.135l.019.019c.02.019.039.019.058.057.058.058.115.096.173.154l.038.019.019.019.039.02c.057.038.096.077.154.115l.019.019a.06.06 0 0 0 .038.019l.039.039c.038.038.076.057.115.096l.038.019.039.038.019.02c.038.019.096.057.134.076.019.02.039.039.077.039l.038.019.02.019h.019c.077.039.134.077.192.115l.038.02.231.115h.019l.038.019.116.058c.019 0 .038.019.057.019.019.019.039.019.077.038h.019c.039.02.077.039.116.039h.019a1 1 0 0 0 .134.057h.019l.039.02c.019 0 .038.019.057.019h.02c.057.019.115.038.192.057h.019c.096.039.192.058.288.077h.019c.077.019.173.039.25.058h.077a1 1 0 0 0 .23.038h.077c.058 0 .096.019.154.019 0 .02.019.039.019.058.134.365.269.73.422 1.076 2.267 6.28 8.547 11.158 15.71 12.061 7.164.883 14.827-3.88 17.938-10.314.135-.249.25-.48.365-.73.307-.326.557-.653.711-.998.249-.211.307-.634.288-.999" fill="#664F44"/><path d="M135.513 178.067a3.8 3.8 0 0 0-1.191-.884 1 1 0 0 0-.249-.076c-.039-.02-.077-.058-.116-.077a5 5 0 0 0-1.21-.308c-2.074-.268-4.455.5-5.8 1.038-.076.038-.153.057-.23.096-.115.057-.23.096-.346.153-.192.077-.384.173-.595.269-.039.019-.058.019-.096.039l-.365-.423-.173-.192-.154-.173-.057-.077-1.402-1.613-.115-.134-.154-.173h-.019l-.404.096-.46.096a3.6 3.6 0 0 0-.903-.25c-.692-.096-1.575 0-2.574.25-.998.249-2.131.691-3.322 1.287-2.401 1.19-5.051 3.015-7.625 5.358a39 39 0 0 0-2.496 2.477 37 37 0 0 0-2.036 2.42c-1.249 1.633-2.19 3.208-2.804 4.629-.404.941-.653 1.805-.75 2.554-.076.538-.057 1.018.04 1.402.038.135.076.231.114.346.096.23.212.422.365.595l1.556 1.633.173.173.019-.02a.6.6 0 0 1 .154-.153l.019-.02.057-.057c.039-.058.096-.096.135-.154.038-.038.057-.057.096-.077.038-.019.058-.057.096-.076l.038-.039c.039-.019.058-.057.096-.077.039-.038.096-.076.135-.115.019-.019.057-.038.077-.058h.019c.057-.038.096-.076.153-.115a.3.3 0 0 0 .096-.077c.058-.038.097-.076.154-.115.039-.019.058-.038.096-.057a.8.8 0 0 1 .173-.096c.038-.02.058-.039.096-.058.058-.038.115-.058.173-.096.038-.019.058-.039.096-.058l.038-.019c.058-.019.096-.058.154-.077.019-.019.058-.019.077-.038.038-.019.077-.039.134-.058l.115-.057.039-.02.288-.115c.038-.019.058-.019.096-.038s.058-.019.096-.039l.038-.019c.02 0 .039-.019.058-.019.038-.019.077-.019.134-.038h.039c.058-.02.096-.02.154-.039.038-.019.096-.019.134-.038.058-.019.115-.019.173-.039.019 0 .038-.019.077-.019.019 0 .057 0 .076-.019.058-.019.116-.019.173-.019.058 0 .096-.02.154-.02.038 0 .077-.019.115-.019h.154c.192 0 .422 0 .653.019h.038c.231.02.5.058.768.116.058.019.135.019.193.038.019-.019.019-.057.038-.077.154-.249.288-.518.442-.768a29 29 0 0 1 2.727-3.822c.326-.384.653-.73.979-1.075a25.4 25.4 0 0 1 3.957-3.361c.269-.192.557-.365.806-.538.365-.23.711-.423 1.037-.615.269-.153.519-.288.769-.403q.605-.317 1.094-.518l.288-.116c.135-.057.269-.115.384-.153-.096-.02-.211-.02-.307-.02h-.384c-.096 0-.211 0-.307.02-.192.019-.404.038-.615.057-.077.019-.134.019-.211.039a10 10 0 0 1 1.517-.615c.327-.096.653-.173.96-.23a10 10 0 0 1 1.191-.154c.25-.019.48-.019.692-.019s.422.019.595.019a6 6 0 0 1 1.018.134 1.7 1.7 0 0 0-.327-.326 3.2 3.2 0 0 0-.71-.384c-.096-.039-.173-.058-.25-.096-.058-.019-.115-.039-.154-.039.116-.019.212-.038.308-.038.115-.019.211-.019.326-.038a9.5 9.5 0 0 1 2.305.096c.71.134 1.152.307 1.152.307a1.8 1.8 0 0 0-.422-.519 5 5 0 0 0-.365-.269c.249.058.461.116.691.193.576.172 1.056.384 1.441.556l.345.173c.039.02.058.039.077.039.346.192.538.326.538.326a1.45 1.45 0 0 0-.327-.576c-.038-.038-.076-.096-.115-.134h.019c.02 0 .039.019.077.019.019 0 .058.019.096.038.154.058.384.154.653.288.019 0 .019.02.039.02l.115.057c.096.058.192.096.288.173l.288.173c.058.038.096.057.154.096.096.077.211.154.307.25.115.096.211.192.307.288l.058.057a4.564 4.564 0 0 1 .576.73c.134.211.23.461.326.711 0 .019 0 .038.02.038.057-.058.173-.173.307-.326 1.114-1.306 4.456-5.532 2.439-8.105" fill="#132134"/><path d="M140.487 209.62s.038-.288-.115-.557c0-.019-.02-.038-.02-.038l-.019-.019-.057-.058c-.039-.038-.077-.077-.135-.115-.019-.019-.058-.038-.096-.058a1.4 1.4 0 0 0-.326-.096c-.096-.019-.192-.019-.308-.019h-.153v.039c0 .019.019.038.019.076 0 .02 0 .039.019.039.019.057.038.153.058.23 0 0 0 .019-.02.058v.019c-.057.135-.211.442-.557.826-.057.077-.115.134-.192.211-.96.999-3.034 2.401-7.413 3.188-1.479.212-2.861.231-4.014.077-1.728-.211-3.015-.768-3.63-1.517-.057-.058-.096-.135-.153-.192-.039-.058-.058-.096-.096-.154-.02-.019-.02-.038-.039-.057a3.04 3.04 0 0 1-.365-1.441c0-.595.192-1.152.5-1.575.249-.345.576-.614.979-.729a1.6 1.6 0 0 1 .615-.077c.038 0 .096 0 .173.019.134.019.345.038.595.077.019 0 .058 0 .077.019.826.096 2.132.23 3.706.134 2.881-.172 6.665-1.075 10.103-4.186v-.02c.019-.269-.02-.729-.346-1.094-.058-.058-.115-.116-.192-.173-.039-.039-.096-.058-.135-.096-.057-.019-.096-.058-.134-.077l-.173-.115v-.019a.4.4 0 0 0-.077-.116c-.883-1.344-2.112-2.132-2.612-2.496a3 3 0 0 0-.384-.25c-1.056-.653-1.21-.864-1.114-2.612.039-.634.096-1.46.173-2.593 0-.153.019-.288.019-.422v-.557c0-.096-.019-.192-.019-.269 0-.039 0-.077-.019-.115-.019-.096-.019-.192-.039-.288 0-.039-.019-.096-.019-.135 0-.057-.019-.096-.038-.154-.019-.038-.019-.096-.039-.134-.019-.058-.038-.115-.038-.173 0-.019-.019-.038-.019-.057s-.019-.039-.019-.058v-.019l-.02-.058a.3.3 0 0 1-.038-.115v-.019l-.019-.039-.019-.038c-.039-.077-.058-.154-.096-.211l-.02-.058c-.038-.058-.076-.134-.115-.192l-.019-.019-.019-.019c-.039-.039-.058-.077-.096-.116l-.039-.057c-.038-.058-.077-.096-.115-.135v-.153c-.019-.077-.038-.173-.058-.269 0-.019-.019-.058-.019-.077v-.019c0-.039-.019-.058-.019-.096a1 1 0 0 0-.077-.231c0-.019-.019-.057-.019-.077l-.058-.172c-.019-.039-.019-.077-.038-.096a.6.6 0 0 0-.077-.173l-.057-.116c-.02-.057-.058-.115-.077-.172l-.058-.116c-.038-.057-.058-.115-.096-.173l-.058-.115a2 2 0 0 1-.115-.192c-.019-.038-.038-.057-.057-.096-.02-.019-.039-.057-.058-.077-.058-.057-.096-.115-.154-.172l-.038-.02c-.077-.077-.134-.153-.211-.211l-.02-.019c-.038-.019-.076-.058-.096-.077h-.019c-.038-.019-.057-.038-.096-.058l-.019-.019c-.038-.019-.096-.057-.173-.096-.019-.019-.057-.019-.096-.038-.173-.058-.384-.135-.653-.212-.019 0-.038 0-.057-.019a6 6 0 0 0-.73-.153c-.096-.02-.173-.02-.269-.039-.039 0-.077 0-.135-.019h-.057c-.211-.019-.404-.038-.615-.038h-.019c-.269 0-.538.019-.787.076.057-.096.23-.211.384-.307a4 4 0 0 1 .403-.192c-.115 0-.23.019-.346.039-.038 0-.077.019-.115.019-.019 0-.058 0-.077.019h-.019c-.019 0-.038 0-.058.019-.595.135-1.171.346-1.498.48l-.115.058h-.019c-.038 0-.058 0-.096.019.23-.442.576-.672.845-.787.038-.02.096-.039.134-.058.02 0 .02 0 .039-.019.038-.019.077-.019.096-.039.057-.019.096-.019.096-.019h-.307a4.6 4.6 0 0 0-1.748.576 7 7 0 0 0-.922.615c-.077.019-.134.038-.211.038-.73.154-1.556.346-2.42.615-.327.096-.653.211-.98.326-.249.096-.518.192-.768.289-.192.076-.365.153-.557.23-1.325.595-2.65 1.383-3.745 2.439l-.115.115-.288.288-.115.116a1 1 0 0 1-.135.153c-.211.231-.403.48-.595.749a7 7 0 0 0-.384.615l-.019.019c-.25.442-.481.903-.653 1.421-.097.25-.173.519-.25.788-.019.077-.039.134-.058.211l-.019.038a7 7 0 0 0-.173.903c0 .058-.019.115-.019.192-.019.154-.038.307-.038.48-.02.154-.02.288-.02.442v.595c0 .173 0 .346.02.519v.019c0 .173.019.346.038.538 0 .077.019.153.019.23v.058c0 .038 0 .077.019.134.02.192.058.404.077.615 0 .058.019.115.019.173.039.173.058.365.096.538 0 0-.038-.231-.019-.577 0-.076.019-.172.019-.249a2.7 2.7 0 0 1 .135-.634l.057-.173c0-.019.02-.038.039-.077.038-.096.096-.211.154-.307.019.077.019.154.038.211v1.018c.019.653.077 1.441.211 2.113 0 0 .019-1.21.231-1.364 0 0 .365 2.266.691 3.111.038.116.096.192.135.25v-.23l-.039-1.249v-.134c.25.518.538 1.037.864 1.594.096.153.173.307.269.461-.614.538-1.191 1.325-1.613 2.247-.058.153-.134.307-.192.461-.038.096-.058.173-.096.269 0 .019-.019.057-.019.076-.02.058-.039.135-.058.193 0 .038-.019.057-.019.096-.019.057-.039.134-.058.192 0 .038-.019.057-.019.096l-.058.288a1.5 1.5 0 0 0-.038.288c0 .038 0 .057-.019.096 0 .077-.019.134-.019.211 0 .038 0 .077-.02.115 0 .077-.019.135-.019.212v.672c0 .077 0 .153.019.249v.058c0 .096.02.192.039.307 0 .039 0 .058.019.096 0 .077.019.135.038.212 0 .038.02.076.02.115.019.057.019.134.038.192 0 .038.019.077.019.115.019.058.039.115.039.192.019.039.019.077.038.135.019.057.038.134.058.192.019.038.019.077.038.115.019.058.039.134.058.192.019.038.019.077.038.115.019.077.058.154.077.211.019.039.019.058.038.096l.288.634c.02.039.039.058.058.096l.115.231a.4.4 0 0 0 .077.115c.039.058.077.134.115.192.02.038.058.077.077.115.039.058.077.135.135.192.038.039.057.077.096.135.038.057.096.134.134.192.038.038.058.077.096.134.058.058.096.135.154.192.038.039.057.077.096.116.057.076.115.134.192.211l.096.096c.096.096.192.211.288.307 0 0-.058-.077-.135-.23a.15.15 0 0 1-.038-.096l-.058-.116a1 1 0 0 1-.057-.134 3.2 3.2 0 0 1-.269-1.383l.173.231c.057.134.153.307.249.499a1 1 0 0 1 .097.192c.153.269.307.576.499.864.23.365.461.711.71 1.037 0 0-.288-.614-.384-1.018-.019-.115-.038-.211-.019-.268.019.019.039.057.077.076.019.02.038.058.077.077q.057.087.173.231l.038.038c.038.039.058.096.096.135.038.057.077.115.135.172.403.519.96 1.21 1.344 1.575.134.116.25.212.326.25l-.557-.999c1.268 1.037 6.53 2.363 11.697.884a14 14 0 0 0 1.862-.672c.365-.154.73-.346 1.095-.538l.058-.039c.249-.134.499-.288.749-.441.192-.116.384-.25.557-.365q.46-.317.922-.692c.019-.019.038-.038.057-.038.288-.25.576-.519.826-.788q.519-.546.922-1.094l.019-.019c.077-.096.135-.173.192-.269l.019-.02c.02-.038.039-.057.058-.096.096-.134.173-.249.269-.384.019-.038.038-.057.058-.096.038-.076.076-.134.134-.211.038-.058.058-.096.096-.154s.077-.115.096-.172c.058-.096.115-.212.173-.308l.058-.115.115-.23.057-.116.02-.038c.038-.096.096-.192.134-.288v-.019c.173-.154.288-.308.403-.442.02-.019.039-.038.039-.058.115-.365.192-.653.192-.922m-30.902-3.725c0-.02 0-.039-.019-.077a9 9 0 0 1-.134-1.018v-.077c-.058.019-.116.096-.193.192-.019.039-.057.077-.076.135-.173.326-.327.787-.327.787.019-.154.039-.307.039-.461v-.058l.057-.48v-.057c.019-.192.058-.365.096-.538 0-.019 0-.038.019-.077v-.019c0-.019 0-.039.02-.058 0-.038.019-.057.019-.096.019-.134.057-.269.077-.403.019-.115.038-.231.057-.327v-.038c0-.019 0-.038.019-.038v-.039c0-.019.02-.057.02-.077s0-.038.019-.057c0-.039.019-.077.019-.096s.019-.058.019-.077c0-.038.02-.077.02-.096s0-.039.019-.058c0-.019 0-.038.019-.038 0-.039.019-.058.019-.077v-.058l-.038.039c-.039.019-.058.057-.096.077l-.039.038a.5.5 0 0 0-.096.115l-.019.02-.115.172-.019.02c0 .019-.02.019-.02.038l-.057.115v.039c-.019.057-.058.115-.077.172a6 6 0 0 0-.154.442c-.019.039-.019.096-.038.115-.019.077-.039.154-.039.173 0-.057 0-.096.02-.153 0-.096.019-.212.019-.308 0-.076.019-.172.038-.249 0-.02 0-.058.02-.077 0-.039.019-.077.019-.115s.019-.077.019-.116v-.057c0-.039.019-.096.019-.135v-.134c0-.019 0-.039.019-.058a.7.7 0 0 0 .039-.192v-.019c.019-.038.019-.096.038-.134v-.02c.019-.096.058-.192.077-.288v-.038c0-.019 0-.039.019-.058.039-.153.096-.307.135-.441v-.02c.038-.115.096-.249.134-.365v-.019c.019-.057.038-.096.058-.153.038-.077.057-.154.096-.231 0-.019.019-.057.057-.134.02-.02.02-.058.039-.077.019-.039.038-.077.057-.135l.02-.038.326-.595c.019-.02.019-.058.038-.077v-.019l.02-.039c.038-.057.076-.134.115-.192.058-.096.096-.192.154-.269.096-.173.172-.326.23-.403a.2.2 0 0 1 .058-.096c-.02 0-.116-.077-.269-.173a9 9 0 0 0-.788-.422c-.115-.058-.211-.096-.326-.154-.135-.058-.288-.115-.442-.173-.038-.019-.077-.019-.115-.038-.135-.039-.25-.077-.384-.116-.096-.019-.192-.038-.269-.057s-.154-.019-.231-.039c-.038 0-.076 0-.115-.019-.038 0-.077 0-.115-.019-.096 0-.211-.019-.307-.019h-.154c-.23 0-.442.019-.653.057h-.038a5.7 5.7 0 0 0-1.114.288c-.116.039-.231.097-.365.154-.039.019-.058.039-.096.039l-.115.057a5.4 5.4 0 0 0-.98.653h-.019a5 5 0 0 0-.711.711l-.173.23a3 3 0 0 0-.192.288c-.115.173-.23.365-.326.557-.039.077-.077.135-.096.212 0 .019-.019.019-.019.038-.192.461-.346.941-.404 1.46-.019.096-.019.192-.038.307v.038c0 .077-.019.154-.019.25v.346c0 .076 0 .153.019.23v.096c0 .058.019.115.019.173v.019c0 .039 0 .058.019.096 0 .058.02.115.02.154s.019.077.019.115c.019.058.019.096.038.154 0 .038.019.077.039.115v.019l.019.039v.038l.019.038c.019.039.019.077.038.116.02.038.02.096.039.134a.3.3 0 0 1 .038.134l.019.039c.02.038.02.057.039.096a1 1 0 0 1 .057.134l.058.116c.019.019.019.038.038.057.02.019.02.039.039.058l.057.115c.02.038.039.096.077.134.02.039.039.077.058.097.019.038.058.096.077.134s.038.058.057.096a.6.6 0 0 0 .096.134c.02.039.039.058.058.077.038.039.058.096.096.135.019.019.038.057.058.077.038.038.076.096.115.134.019.019.038.038.057.077.039.038.077.096.116.134l.057.058c.039.038.077.096.135.134l.057.058.135.134c.019.02.038.039.057.039.039.038.096.077.154.134.019.019.039.019.058.039.057.038.096.076.153.115.02.019.039.019.039.038l.173.115.038.02.173.115.038.019c.058.038.135.077.192.115l.039.02a1 1 0 0 0 .192.096l.038.019c.077.038.135.057.211.096l.02.019c.077.038.153.058.211.096h.019c.077.019.154.058.231.077h.019c.038.019.077.019.115.038s.077.019.134.039h.02c.077.019.173.038.249.057s.173.039.25.039c.269.038.538.057.807.077h.192c.096 0 .173 0 .269-.02.115-.019.249-.019.384-.038.115-.019.23-.039.326-.058.173-.038.346-.077.5-.134.499-.135.921-.327 1.19-.538 0 0-.173-.768-.307-1.536-.038-.039-.058-.116-.077-.192" fill="#90694C"/><path d="m121.916 177.356-.058-.768.384-.845.154-.039a3.6 3.6 0 0 0-.903-.249c-.691-.096-1.574 0-2.573.249-.999.25-2.132.692-3.323 1.287-2.4 1.191-5.051 3.015-7.624 5.358a38 38 0 0 0-2.497 2.478 37 37 0 0 0-2.036 2.42c-1.248 1.632-2.189 3.207-2.804 4.628-.403.941-.653 1.806-.749 2.555-.077.537-.057 1.018.039 1.402.038.134.076.23.115.345.096.231.211.423.365.596l1.555 1.632.173.173.019-.019a.6.6 0 0 1 .154-.154l.019-.019.058-.058c.038-.057.096-.096.134-.153.039-.039.058-.058.096-.077.039-.019.058-.058.096-.077l.039-.038c.038-.02.057-.058.096-.077.038-.039.096-.077.134-.115.02-.02.058-.039.077-.058h.019c.058-.038.096-.077.154-.115a.3.3 0 0 0 .096-.077c.058-.039.096-.077.154-.115.038-.02.057-.039.096-.058.057-.038.115-.077.173-.096.038-.019.057-.038.096-.058.057-.038.115-.057.172-.096.039-.019.058-.038.096-.057l.039-.019c.365-1.018.922-2.151 1.652-3.304.883-1.421 2.016-2.919 3.36-4.417a38 38 0 0 1 2.766-2.785 41 41 0 0 1 3.918-3.15 34 34 0 0 1 2.593-1.651c.077-.039.153-.096.249-.135.231-.134.442-.249.673-.365.48-.249.96-.48 1.421-.672l-.231-.269-.038-.038-.288-.327-1.594-1.92.019-1.383-.019-.019 1.133-.346z" fill="#2F83C1"/><path d="M140.488 209.62s.038-.288-.116-.557c0-.019-.019-.039-.019-.039l-.019-.019-.058-.057a1 1 0 0 0-.134-.116c-.019-.019-.058-.038-.096-.057a1.3 1.3 0 0 0-.327-.096c-.096-.019-.192-.019-.307-.019h-.154v.038c0 .019.02.038.02.077 0 .019 0 .038.019.038.019.058.038.154.057.231 0 0 0 .019-.019.057v.02c-.057.134-.211.441-.557.825-.057.077-.115.135-.192.212-.96.998-3.034 2.4-7.413 3.188-1.479.211-2.862.23-4.014.077-1.729-.212-3.015-.769-3.63-1.518-.057-.057-.096-.134-.154-.192-.038-.057-.057-.096-.096-.153-.019-.02-.019-.039-.038-.058a3 3 0 0 1-.365-1.44c0-.596.192-1.153.499-1.575.25-.346.577-.615.98-.73.192-.058.403-.096.615-.077.038 0 .096 0 .172.019.135.02.346.039.596.077.019 0 .057 0 .077.019.825.096 2.131.231 3.706.135 2.881-.173 6.665-1.076 10.102-4.187v-.019c.02-.269-.019-.73-.345-1.095a2 2 0 0 0-.192-.173c-.039-.038-.096-.057-.135-.096-.058-.019-.096-.057-.134-.077l-.173-.115v-.019a.4.4 0 0 0-.077-.115c-.883-1.345-2.113-2.132-2.612-2.497a3 3 0 0 0-.384-.25c-1.056-.653-1.21-.864-1.114-2.612.038-.633.096-1.459.173-2.592 0-.154.019-.288.019-.423v-.557c0-.096-.019-.192-.019-.269 0-.038 0-.077-.019-.115-.02-.096-.02-.192-.039-.288 0-.038-.019-.096-.019-.134 0-.058-.019-.097-.038-.154-.02-.039-.02-.096-.039-.135a.6.6 0 0 1-.038-.172c0-.02-.019-.039-.019-.058s-.02-.038-.02-.058v-.019l-.019-.057c-.019-.039-.038-.077-.038-.116v-.019l-.019-.038-.02-.039c-.038-.077-.057-.153-.096-.211l-.019-.058c-.038-.057-.077-.134-.115-.192l-.019-.019-.019-.019c-.039-.038-.058-.077-.097-.115l-.038-.058c-.038-.058-.077-.096-.115-.134l-.154-.154c-.057-.038-.115-.077-.173-.096-.019-.019-.038-.019-.057-.019l-.116-.058c-.019 0-.038-.019-.057-.019-.039-.019-.077-.019-.096-.038-.019 0-.039-.02-.077-.02s-.058-.019-.096-.019h-.423c-.019 0-.038 0-.057.019-.019 0-.039 0-.058.02-.038 0-.077.019-.134.038h-.039c-.115.038-.211.077-.326.115l-.039.019a1 1 0 0 1-.134.058l-.058.019-.115.058-.057.038-.116.058-.057.038c-.039.019-.077.058-.115.077l-.039.019c-.038.039-.096.058-.134.096l-.02.02c-.057.038-.096.076-.153.096-.096.057-.192.134-.288.192-.077.057-.154.115-.25.172l-.038.02a2 2 0 0 1-.25.153l-.038.02c-.077.057-.173.096-.25.153l-.039.019c-.076.058-.172.096-.268.135l-.039.019c-.096.038-.173.077-.269.115l-.038.019c-.096.039-.192.058-.288.096h-.019c-.096.02-.212.039-.308.058a5 5 0 0 1-.537.038 7 7 0 0 1-.884-.057l-.288-.058c-.038 0-.077-.019-.096-.019-.25-.058-.519-.115-.768-.173-.115-.019-.211-.057-.327-.077-.173-.038-.345-.076-.537-.115-.039 0-.077-.019-.096-.019s-.058-.019-.077-.019c-.039 0-.077-.019-.116-.019-.038 0-.076-.02-.115-.02h-.038c-.039 0-.077-.019-.096-.019-.077-.019-.154-.038-.25-.038-.019 0-.057 0-.077-.019-.057 0-.115-.02-.173-.02-.038 0-.057 0-.096-.019-.057 0-.096-.019-.153-.019h-.884c-.096 0-.173.019-.269.019h-.076c-.058 0-.116.019-.173.019h-.019c-.039 0-.058.02-.096.02-.058.019-.116.019-.173.038-.039 0-.077.019-.096.019-.058.019-.116.039-.173.039-.039 0-.058.019-.096.038-.058.019-.135.038-.192.058-.039.019-.058.019-.077.038a4 4 0 0 0-.269.115 6.1 6.1 0 0 0-1.844 1.652 7 7 0 0 0-.461.691c-.153.25-.268.519-.384.788-.038.077-.057.153-.096.23-.038.135-.096.269-.134.403 0 .02 0 .039-.019.039-.039.154-.077.307-.116.48a5 5 0 0 0-.076.499c-.02.096-.02.173-.02.269-.019.25-.019.48 0 .73v.058c0 .057 0 .115.02.192.019.173.038.345.076.518.02.058.039.116.039.192.019.058.019.116.038.173.115.442.288.845.5 1.191.787 1.364 2.093 2.189 3.053 2.631.365.154.749.307 1.153.442l-.039.038c-.077.019-.154.039-.25.058-.134.038-.307.096-.48.153-.192.058-.422.154-.653.25a7.7 7.7 0 0 0-1.92 1.114c-.077.058-.154.134-.231.192a3.4 3.4 0 0 0-.365.365l-.038.038-.058.058c-.038.058-.096.096-.134.154l-.058.057c-.057.077-.115.154-.153.231-.058.077-.096.153-.154.23-.365.634-.576 1.402-.518 2.324v-.038c0-.02 0-.039.019-.058v-.019c0-.019.019-.039.019-.077v-.019c0-.019.019-.058.019-.096 0-.039.019-.058.039-.096v-.019c.019-.039.019-.077.038-.116v-.019c.019-.038.019-.077.038-.115v-.019a1 1 0 0 0 .058-.135l.019-.019c.019-.038.039-.096.077-.134.038-.077.077-.135.115-.212.019-.019.039-.057.058-.076l.019-.02.115-.173c.039-.038.077-.096.116-.134l.038-.038c.038-.039.058-.077.096-.096l.038-.039c.039-.038.096-.077.135-.134 0 0-.826 1.882-.461 3.361v-.288c0-.039 0-.077.019-.116 0-.038 0-.076.019-.115v-.019c0-.038.019-.096.019-.134v-.039c.02-.058.02-.096.039-.154v-.019a.6.6 0 0 0 .038-.153c0-.02.02-.039.02-.058l.019-.038c.019-.039.038-.096.057-.135a1 1 0 0 1 .096-.173c0-.019.02-.038.02-.038l.115-.173s-.039.461-.039 1.018c0 .096 0 .173.02.269 0 .057 0 .115.019.173-.019.384-.019.768.019 1.171.058.672.23 1.402.519 2.151 0 0-.269-.864.115-1.728l.115.23c.038.25.077.615.154 1.018.076.672.384 2.689 1.767 4.091 0 0-.519-.672-.442-1.537.057.116.115.212.153.308.231.441.692 1.248 1.21 1.824 0 0-.403-.787-.307-.96 0 0 1.345 1.671 1.767 1.824l-.557-.921-.019-.02c1.94 1.422 4.628 1.94 7.932 1.018a15 15 0 0 0 1.767-.614c.365-.154.729-.346 1.094-.538l.058-.038c.25-.135.499-.289.749-.442.192-.115.384-.25.557-.365q.461-.317.922-.691c.019-.02.038-.039.057-.039a11.6 11.6 0 0 0 1.748-1.882l.019-.019c.077-.096.135-.173.192-.269l.02-.019c.019-.039.038-.058.057-.096.096-.135.173-.25.269-.384.019-.039.038-.058.058-.096.038-.077.077-.135.134-.212.039-.057.058-.096.096-.153a.8.8 0 0 0 .096-.173c.058-.096.115-.212.173-.308l.058-.115.115-.23.058-.115.019-.039c.038-.096.096-.192.134-.288v-.019c.173-.154.288-.307.403-.442.02-.019.039-.038.039-.058.173-.249.25-.537.25-.806m-31.056-4.898c-.057.02-.115.096-.192.193-.019.038-.057.076-.077.134-.172.326-.326.787-.326.787.019-.153.038-.307.038-.461v-.057c.02-.154.039-.327.058-.48v-.058c.019-.192.058-.365.096-.538 0-.019 0-.038.019-.076v-.02c0-.019 0-.038.019-.057 0-.039.02-.058.02-.096.019-.135.057-.269.076-.404.02-.115.039-.23.058-.326v-.039c0-.019 0-.038.019-.038v-.038c0-.02.019-.058.019-.077s0-.039.02-.058c0-.038.019-.077.019-.096s.019-.057.019-.077c0-.038.019-.076.019-.096 0-.019 0-.038.019-.057 0-.02 0-.039.02-.039 0-.038.019-.057.019-.077v-.057l-.039.038c-.038.019-.057.058-.096.077l-.038.038c-.038.039-.077.077-.096.116l-.019.019-.115.173-.02.019c0 .019-.019.019-.019.038l-.057.116v.038c-.02.058-.058.115-.077.173-.058.154-.116.307-.154.442-.019.038-.019.096-.038.115-.02.077-.039.153-.039.173 0-.058 0-.096.019-.154 0-.096.02-.211.02-.307 0-.077.019-.173.038-.25 0-.019 0-.058.019-.077 0-.038.019-.077.019-.115s.02-.077.02-.115v-.058c0-.038.019-.096.019-.134v-.135c0-.019 0-.038.019-.057a.7.7 0 0 0 .039-.192v-.02c.019-.038.019-.096.038-.134v-.019c.019-.096.058-.192.077-.288v-.039c0-.019 0-.038.019-.057.038-.154.096-.308.134-.442v-.019c.039-.115.096-.25.135-.365v-.019c.019-.058.038-.096.057-.154.039-.077.058-.154.096-.23 0-.02.02-.058.058-.135.019-.019.019-.058.039-.077a1 1 0 0 0 .057-.134l.019-.039c-.019-.019-.057-.019-.076-.038h-.02l-.038-.019a5 5 0 0 0-.557-.211h-.038a3 3 0 0 0-.385-.077c-.076 0-.153-.019-.23-.019h-.192c-.096 0-.192.019-.288.019-.039 0-.058 0-.096.019-.039 0-.096.019-.135.019-.019 0-.038 0-.057.019-.039 0-.058.02-.096.02-.058.019-.135.038-.192.057-.02 0-.058.019-.077.019-.077.039-.173.058-.25.096-.038.02-.057.039-.096.039l-.115.057-.039.02c-.038.019-.076.038-.115.076-.038.02-.077.039-.115.077-.038.019-.077.058-.115.077-.019.019-.058.038-.077.058-.058.057-.134.115-.192.173l-.096.096c-.058.057-.096.115-.154.172l-.019.02c-.019.038-.058.057-.077.096l-.057.057a3.4 3.4 0 0 0-.269.442c-.019.019-.019.038-.039.058-.038.076-.057.153-.096.23-.019.038-.019.058-.038.096-.019.077-.058.154-.077.25v.077c-.019.057-.019.115-.038.172 0 .039 0 .058-.02.096 0 .039 0 .058-.019.097v.076c0 .096-.019.192 0 .288 0 .077 0 .154.019.231v.038c0 .039.02.077.02.116.019.153.057.288.096.441.038.115.076.212.115.308.077.192.173.364.288.537.23.346.538.653.903.884.192.134.422.23.653.307.211.077.441.134.691.154.058 0 .115.019.154.019h.249c.077 0 .154-.019.231-.019.038 0 .096 0 .134-.02.115-.019.211-.038.327-.057h.019c.038-.019.077-.019.134-.039.135-.038.269-.096.384-.153l.02-.019a.3.3 0 0 1 .096-.039 9 9 0 0 1-.135-1.018c.096-.038.096-.057.096-.077" fill="#FCE9CD"/><path d="M139.316 208.834c0-.019 0-.038-.02-.038-.019-.039-.019-.058-.019-.077a2.8 2.8 0 0 0-.326-.711c-.135-.211-.25-.326-.25-.326l.058-.231c.019-.096.038-.192.038-.288a2.77 2.77 0 0 0-.25-1.536c-.019-.058-.038-.096-.057-.135-.116.077-.212.154-.327.231a16.75 16.75 0 0 1-6.914 2.688c-1.728.269-3.553.289-5.454.058l.038.019s-1.152.154-1.459 1.249l.019.019-.096.73c.038.998.48 1.613.999 1.939.537.212 1.19.365 1.92.461 1.248.154 2.708.116 4.168-.115 1.959-.269 4.724-1.306 6.702-2.65.442-.308.865-.634 1.21-.961l.02-.019.019-.019c0-.134-.019-.211-.019-.288" fill="#fff"/><path d="M135.571 199.345c-1.056-.653-1.21-.864-1.114-2.612.039-.634.096-1.46.173-2.593 0-.153.019-.288.019-.422v-.557c0-.096-.019-.192-.019-.269 0-.039 0-.077-.019-.115-.019-.096-.019-.192-.039-.288 0-.039-.019-.096-.019-.135 0-.057-.019-.096-.038-.153-.019-.039-.019-.097-.039-.135a2.7 2.7 0 0 0-.537-.595l-.039-.039-.038-.019h-.019c-.039-.019-.058-.038-.097-.058a.5.5 0 0 1-.096-.057 2.8 2.8 0 0 0-1.037-.365c-.211-.038-.422-.038-.633-.038-.096 0-.212.019-.308.019a7 7 0 0 0-.826.173c-.096.057-.192.134-.288.192-.076.057-.153.115-.249.172l-.039.02a2 2 0 0 1-.249.153l-.039.02c-.077.057-.173.096-.249.153l-.039.019c-.077.058-.173.096-.269.135l-.038.019c-.096.038-.173.077-.269.115l-.038.019c-.096.039-.192.058-.289.097h-.019c-.096.019-.211.038-.307.057a5 5 0 0 1-.538.039c-.288 0-.576-.02-.883-.058l-.288-.058c-.039 0-.077-.019-.096-.019-.25-.058-.519-.115-.769-.173-.115-.019-.211-.057-.326-.077a34 34 0 0 0-.538-.115c-.038 0-.077-.019-.096-.019-.153 0-.307.019-.442.038h-.038a6.4 6.4 0 0 0-1.306.308c-.019 0-.038.019-.077.019-.077.019-.134.058-.211.077-.096.038-.173.077-.269.115-.634.269-1.229.653-1.805 1.133a10 10 0 0 0-.653.615 8.5 8.5 0 0 0-.826 1.037c-.019.019-.019.038-.038.057-.135.192-.25.404-.346.596-.039.077-.077.153-.115.211v.019c-.116.25-.212.48-.288.73 0 .019 0 .038-.02.038-.019.039-.019.077-.038.116-.038.115-.077.23-.096.345a2 2 0 0 0-.077.365c0 .019-.019.058-.019.077-.019.077-.019.154-.039.211-.038.269-.057.538-.076.807v.192c.115.442.288.845.499 1.191.787 1.363 2.093 2.189 3.054 2.631.365.154.749.307 1.152.442l.019.019.019-.019c.058-.039.096-.077.154-.116.019-.019.038-.019.058-.038l.173-.115c.019-.019.038-.019.057-.039l.173-.115c.019-.019.038-.019.058-.038.057-.039.115-.077.192-.116.019-.019.038-.019.057-.038.058-.038.135-.077.192-.115.02-.019.039-.019.058-.039.058-.038.134-.076.192-.115.019-.019.058-.019.077-.038.057-.039.134-.077.192-.115a.14.14 0 0 1 .077-.039c.057-.038.134-.077.211-.115.038-.019.058-.039.096-.039.077-.038.134-.076.211-.096.039-.019.058-.038.096-.038.077-.038.135-.058.212-.096l.115-.058c.077-.038.134-.057.211-.096a1 1 0 0 1 .134-.057c.077-.019.135-.058.212-.077.038-.019.096-.038.134-.058.077-.019.135-.057.211-.077.058-.019.096-.038.154-.057.077-.019.134-.058.211-.077l.173-.058c.058-.019.135-.038.192-.076.058-.02.135-.039.192-.058.058-.019.135-.038.192-.058.077-.019.154-.038.212-.057s.115-.039.192-.058c.076-.019.153-.038.249-.077.039-.019.077-.019.116-.038.307-.788 1.248-2.746 2.842-2.958.173-.019.326-.038.48-.038h.115a2 2 0 0 1-.038-.365c-.058-.845.211-1.556.576-1.575.288-.019.519.403.557.538.115.25.192.576.211.941.02.326-.019.634-.077.903.039.038.058.076.097.096.364.461.422 1.075.403 1.536.134-.019.288-.019.442-.038.038 0 .076 0 .115-.02h.077c.172-.019.365-.038.557-.038.422-.038.845-.058 1.286-.077a17 17 0 0 0-.403-.211m4.014 11.831a12 12 0 0 1-2.151 1.517 14.265 14.265 0 0 1-3.284 1.267c-1.479.365-2.497.365-2.497.365.807.442 1.825.442 2.516.384.48-.038.807-.134.807-.134-.02.288-.058.557-.096.826a4 4 0 0 1-.231.768v.019a4.2 4.2 0 0 1-.422.768c-.02.02-.039.058-.058.077l.058-.038c.249-.135.499-.288.749-.442.192-.115.384-.25.557-.365q.46-.317.921-.691c.02-.019.039-.039.058-.039a11.6 11.6 0 0 0 1.748-1.882l.019-.019c.077-.096.134-.173.192-.269l.019-.019c.019-.039.039-.058.058-.096.096-.135.173-.25.269-.384.019-.039.038-.058.057-.096.039-.077.077-.135.135-.212.038-.057.057-.096.096-.153.038-.058.077-.115.096-.173.057-.096.115-.211.173-.307l.057-.116.116-.23.057-.115.019-.039c.039-.096.096-.192.135-.288-.077.019-.115.058-.173.116m-17.515-7.74a7 7 0 0 0-.653.249 7.7 7.7 0 0 0-1.921 1.114c-.077.058-.154.135-.23.192a3.3 3.3 0 0 0-.365.365l-.039.039-.057.057c-.039.058-.096.096-.135.154l-.057.058a1.5 1.5 0 0 0-.154.23c-.058.077-.096.154-.154.23-.365.634-.576 1.402-.518 2.324v-.038c0-.019 0-.038.019-.058v-.019c0-.019.019-.038.019-.077v-.019c0-.019.019-.058.019-.096s.02-.058.039-.096v-.019c.019-.039.019-.077.038-.115v-.02c.019-.038.019-.076.039-.115v-.019a1 1 0 0 0 .057-.135l.019-.019c.02-.038.039-.096.077-.134.039-.077.077-.135.115-.211.02-.02.039-.058.058-.077l.019-.019.116-.173c.038-.039.076-.096.115-.135l.038-.038c.039-.039.058-.077.096-.096l.039-.039c.038-.038.096-.076.134-.134 0 0-.826 1.882-.461 3.361v-.288c0-.039 0-.077.019-.115 0-.039 0-.077.02-.116v-.019c0-.038.019-.096.019-.134v-.039c.019-.057.019-.096.038-.153v-.02c.019-.057.039-.115.039-.153 0-.019.019-.039.019-.058l.019-.038c.019-.039.038-.096.058-.135a.7.7 0 0 1 .096-.172c0-.02.019-.039.019-.039l.115-.173s-.038.461-.038 1.018c0 .096 0 .173.019.269 0 .058 0 .115.019.173a7.6 7.6 0 0 1 .307-1.671c.039-.134.096-.288.135-.423 0-.019.019-.038.019-.057.058-.135.096-.25.154-.384.019-.019.019-.039.038-.077.058-.115.115-.25.173-.365.019-.019.019-.038.019-.058q.202-.374.403-.691c.02-.019.02-.038.039-.058.057-.076.115-.153.173-.249.019-.019.019-.039.038-.058s.019-.038.038-.057c.077-.097.135-.193.212-.289.019-.019.019-.038.038-.038.077-.096.154-.192.231-.269.096-.115.192-.211.288-.326.077-.077.134-.154.211-.212l.077-.076c.153-.154.307-.308.461-.442.422-.384.768-.634.883-.711-.077.019-.153.039-.249.058a3 3 0 0 1-.461.173" fill="#F2D2AC"/><path d="M133.132 199.267s0-.038-.019-.115c-.077-.269-.346-.922-1.402-.826-1.114.115-1.498 1.018-1.594 1.325-.019.058-.019.096-.019.096l.038.019c.134-.115.403-.115.653.058.115.077.192.154.269.25.096.153.115.307.058.422l-.058.058s.038.019.115.038c.307.096 1.172.269 1.633-.326.019-.039.038-.058.057-.096-.096-.039-.134-.173-.134-.346 0-.077.019-.154.038-.25.058-.23.231-.365.365-.307m-5.55 8.22c-.73.154-1.364.269-1.844.346.019 0 .058 0 .077.019.826.096 2.132.23 3.706.134 2.881-.173 6.665-1.075 10.103-4.186v-.02c.019-.269-.02-.729-.346-1.094-.058-.058-.115-.116-.192-.173-.019 0-.019-.019-.039-.019-.096-.058-.172-.096-.249-.154l-.173-.115v-.02a6 6 0 0 1-.73.865c-.096.096-.192.192-.307.288-.941.845-2.17 1.575-3.496 2.151-2.189.96-4.647 1.594-6.51 1.978m-18.207-5.013c-.038.02-.058.058-.096.077l-.038.039a.5.5 0 0 0-.097.115l-.019.019-.115.173-.019.019c0 .019-.019.019-.019.038l-.058.116v.038c-.019.058-.058.115-.077.173-.057.154-.115.307-.153.442-.02.038-.02.096-.039.115-.019.077-.038.154-.038.173 0-.058 0-.096.019-.154 0-.096.019-.211.019-.307 0-.077.019-.173.039-.25 0-.019 0-.057.019-.077 0-.038.019-.076.019-.115 0-.038.019-.077.019-.115v-.058c0-.038.019-.096.019-.134v-.135c0-.019 0-.038.02-.057a.7.7 0 0 0 .038-.192v-.019c.019-.039.019-.097.038-.135v-.019c.02-.096.058-.192.077-.288v-.039c0-.019 0-.038.019-.057.039-.154.096-.308.135-.442v-.019c.038-.115.096-.25.134-.365v-.019c.02-.058.039-.096.058-.154.038-.077.058-.154.096-.23 0-.02.019-.058.058-.135.019-.019.019-.057.038-.077.019-.038.038-.076.058-.134l.019-.038c-.019-.02-.058-.02-.077-.039h-.019l-.039-.019a5 5 0 0 0-.557-.211h-.038a3 3 0 0 0-.384-.077c-.077 0-.154-.019-.231-.019h-.192c-.096 0-.192.019-.288.019-.038 0-.057 0-.096.019-.038 0-.096.019-.134.019-.019 0-.039 0-.058.019-.038 0-.057.02-.096.02-.057.019-.134.038-.192.057-.019 0-.058.019-.077.019-.077.039-.173.058-.249.096-.039.02-.058.039-.096.039l-.116.058-.038.019c-.038.019-.077.038-.115.077a.4.4 0 0 0-.116.076c-.038.02-.076.058-.115.077-.019.019-.057.039-.077.058-.057.057-.134.115-.192.173l-.096.096c-.057.057-.096.115-.153.173l-.02.019c-.019.038-.057.057-.076.096l-.058.057a3.4 3.4 0 0 0-.269.442c-.019.019-.019.039-.038.058-.039.077-.058.153-.096.23-.019.039-.019.058-.039.096 0 .019.02.039.02.058.019.077.038.134.057.211v.038c.019.058.058.135.077.193.077.192.154.364.25.518.019.019.019.039.038.058v.019l.019.019q.087.173.173.288c.096.135.173.231.231.307l.038.039c0 .019.019.019.019.019l.039.039c0-.039-.02-.077-.02-.097a3.2 3.2 0 0 1-.076-.729v-.039c0-.153 0-.307.019-.441l.057.172c.02.077.058.154.077.231v.038c.115.327.25.596.384.807.154.269.288.442.384.557.02.019.039.038.039.057l.038.039a3.7 3.7 0 0 1-.096-.768v-.25c0-.115 0-.211.019-.307.039.173.096.345.154.499v.019c.211.557.461.961.634 1.21l.019.019a.4.4 0 0 1 .077.116c.019.019.038.038.038.057l.039.039.019.019v-.039c0-.038-.019-.076-.019-.115a18 18 0 0 0-.058-.384c0-.077-.019-.173-.019-.25v-.422c0-.096.019-.211.019-.307.019.057.039.134.058.192.019.038.038.096.057.134v.019l.02.02c.019.057.038.115.057.153.039.096.077.192.135.269.057.115.096.211.153.288a1 1 0 0 1 .077.135c.038.057.077.115.096.153a.4.4 0 0 1 .077.115l.019.02c.019.038.058.057.077.096.019.019.038.038.038.057.039.039.058.077.077.077l.019.019v-.057c.02-.154.039-.327.058-.48v-.058c.019-.192.058-.365.096-.538 0-.019 0-.038.019-.077v-.019c0-.019 0-.038.019-.057 0-.039.02-.058.02-.096.019-.135.057-.269.076-.404.02-.115.039-.23.058-.326v-.039c0-.019 0-.038.019-.038v-.038c0-.02.019-.058.019-.077 0-.02 0-.039.02-.058 0-.038.019-.077.019-.096s.019-.058.019-.077c0-.038.019-.077.019-.096s0-.038.02-.057c0-.02 0-.039.019-.039 0-.038.019-.057.019-.077v-.057zm23.277 8.028c.269-.096.499-.173.691-.249.365-.154.557-.269.557-.308-.019-.038-.23-.019-.614.077-.192.039-.423.077-.711.154-.134.038-.288.057-.442.077-.153.019-.326.057-.499.076-.346.058-.73.096-1.152.135l-.634.057c-.211.02-.442.02-.672.039-.922.019-1.94-.019-2.977-.211a6.5 6.5 0 0 1-1.805-.634l-.02-.019c.308-1.095 1.46-1.249 1.46-1.249l-.038-.019h-.058a11 11 0 0 1-.442-.058c-.096-.019-.173-.019-.23-.038-.058 0-.115-.019-.135-.019-.691-.039-1.075.538-1.19.787l-.058.115a2.4 2.4 0 0 0-.192.769 2.14 2.14 0 0 0 .499 1.555c.269.327.73.615 1.325.845-.518-.326-.979-.96-.998-1.939.595.249 1.267.403 1.786.499 1.095.211 2.17.23 3.111.173.231-.019.48-.039.692-.058.23-.038.441-.057.653-.077.422-.076.787-.134 1.152-.211.173-.038.346-.077.499-.134.173-.039.308-.077.442-.135" fill="#F2D2AC"/><path d="M131.75 197.675c.576.019.96.192 1.229.461.058-.25.096-.557.077-.903a2.6 2.6 0 0 0-.211-.941c-.039-.153-.269-.557-.557-.537-.365.019-.634.729-.577 1.574 0 .116.02.231.039.346m.96 2.17c0 .154.058.288.135.346.134.077.307-.077.384-.326 0-.02.019-.039.019-.058.058-.231 0-.461-.135-.519-.134-.076-.307.077-.384.327 0 .077-.019.154-.019.23m-2.612.423a.9.9 0 0 0 .269.269c.25.153.519.173.672.038l.058-.057c.058-.116.038-.269-.058-.423a.67.67 0 0 0-.269-.25c-.249-.153-.518-.173-.653-.057-.019.019-.038.038-.057.077-.058.096-.039.249.038.403m9.545 3.514q-.029 0 0 0m-.307 5.32a9 9 0 0 1-1.229.98c-1.978 1.344-4.744 2.401-6.703 2.65-1.479.231-2.919.269-4.167.115a8.6 8.6 0 0 1-1.921-.46c-.595-.231-1.056-.519-1.325-.846-.403-.48-.519-1.056-.499-1.555.019-.269.076-.538.192-.768l.057-.116c.135-.249.5-.845 1.191-.787.019 0 .077 0 .134.019.058 0 .154.019.231.039.134.019.269.038.442.057h.057c1.902.231 3.726.211 5.455-.057a16.8 16.8 0 0 0 6.914-2.689c.115-.077.211-.154.326-.231l1.133-1.69c-3.438 3.131-7.221 4.033-10.102 4.206a19 19 0 0 1-3.707-.134c-.038 0-.057 0-.076-.019-.25-.039-.442-.058-.596-.077-.077 0-.134-.019-.173-.019a1.6 1.6 0 0 0-.614.076c-.384.116-.73.385-.98.73a2.75 2.75 0 0 0-.499 1.575c0 .48.115.98.365 1.44.019.02.019.039.038.058.039.058.058.096.096.154.039.057.096.134.154.192.595.749 1.901 1.287 3.63 1.517 1.171.154 2.535.134 4.014-.077 4.379-.787 6.453-2.208 7.413-3.188a2 2 0 0 0 .192-.211c.346-.403.499-.711.557-.826v-.019c.019-.039.019-.058.019-.058z" fill="#664F44"/><path d="M125.41 193.931a1.8 1.8 0 0 0-.441-.173 9 9 0 0 0-.308-.057c-.038 0-.076 0-.115-.019-.518-.039-.96.038-.96.038a1 1 0 0 0-.269.077 3.05 3.05 0 0 0-1.517.999c-.269.345-.461.71-.557 1.075-.019.038-.019.058-.019.096-.02.096-.058.192-.077.269a4.5 4.5 0 0 0-.096.807c0 .307.019.499.019.499.115-.269.25-.499.384-.73a6.9 6.9 0 0 1 1.037-1.383c.692-.71 1.402-1.094 1.94-1.286.576-.193.979-.212.979-.212m8.316-.979-.019-.039a1.3 1.3 0 0 0-.288-.269c-.269-.172-.634-.268-1.133-.172 0 0-.595.134-.941.537 0 0 1.037-.441 2.151.346.096.077.211.154.307.25s.211.192.308.326c0 0-.039-.48-.327-.902a.24.24 0 0 0-.058-.077" fill="#E9B784"/><path d="M125.545 200.595c.403-.115.826-.231 1.306-.346.077-.365.096-.807.038-1.287-.134-1.114-.633-1.978-1.133-1.92-.499.057-.787 1.018-.653 2.132.077.576.231 1.075.442 1.421" fill="#664F44"/><path d="m123.26 175.492-1.037.231.211 1.882-2.746-1.402-1.133.345.019.02 3.342 3.802.038-.019.038-.019c.096-.058.212-.134.308-.192.038-.019.077-.038.115-.077.154-.096.307-.192.461-.269l-1.421-1.632 2.285 1.114c.077-.039.135-.077.211-.116l-.211-1.632 1.037 1.21h.019c.096-.038.173-.096.269-.135l.039-.019.038-.019c.019 0 .039-.019.039-.019l.115-.058s.019 0 .019-.019c.115-.058.25-.115.365-.173z" fill="#FFD250"/><path d="m122.243 175.723.154-.038a3.6 3.6 0 0 0-.903-.25c-.691-.096-1.575 0-2.574.25-.998.249-2.131.691-3.322 1.287-2.401 1.19-5.051 3.015-7.625 5.358a38 38 0 0 0-2.496 2.477l3.111 3.841a42 42 0 0 1 2.746-2.746 39 39 0 0 1 3.995-3.207 31.6 31.6 0 0 1 3.783-2.286l-.537-2.458.019-1.383-.019-.019 1.133-.346 2.208 1.133-.057-.768z" fill="#4D9ED7"/><path d="m122.243 175.723-.385.845.058.787.538.269zm-.788 2.439 2.305 1.133-.884.499zm2.305-.634.211 1.632.826-.422z" fill="#132134"/><path d="M132.441 176.935h.423c.384 0 .749.057 1.094.134.02 0 .039 0 .058.019h.019l.039.02h.038c-.038-.02-.077-.058-.115-.077a5 5 0 0 0-1.21-.308c-2.074-.268-4.456.5-5.8 1.037-.077.039-.154.058-.231.097-.115.057-.23.096-.345.153-.192.077-.385.173-.596.269-.038.019-.057.019-.096.038-.115.058-.249.116-.365.173 0 0-.019 0-.019.02l-.115.057c-.019 0-.039.019-.039.019h-.076l-.02.02a1.7 1.7 0 0 0-.268.134h-.02c-.019.019-.038.019-.057.038h-.019c-.02 0-.039.02-.039.02-.134.076-.269.134-.403.211-.096.057-.192.096-.288.153h-.02c-.076.039-.134.077-.211.116-.23.115-.441.249-.672.384-.019.019-.038.019-.077.038-.019.019-.038.019-.057.039-.02.019-.039.019-.058.038l-.019.019c-.154.096-.308.173-.461.269a.4.4 0 0 0-.115.077c-.096.058-.212.134-.308.192l-.038.019-.038.019-.865.577c-.48.326-.941.653-1.402.998-.057.039-.115.096-.173.135-1.21.902-2.362 1.882-3.476 2.881a68 68 0 0 0-3.361 3.284 45 45 0 0 0-1.459 1.517c-.807.864-1.249 1.402-1.23 1.421 0 0 .077-.057.212-.192l-.308.365c1.767-1.882 3.707-3.803 5.801-5.608a57 57 0 0 1 3.956-3.131c.595-.422 1.21-.845 1.824-1.248.192-.134.404-.25.596-.384.096-.058.192-.115.307-.173.058-.038.115-.077.173-.096.115-.057.211-.134.326-.192.096-.058.212-.115.308-.192.057-.038.115-.058.173-.096l.403-.23c.077-.039.153-.096.23-.135.25-.134.5-.269.769-.403.019-.019.038-.019.057-.039l.115-.057c.058-.019.096-.058.154-.077.019-.019.038-.019.058-.038l.115-.058s.019 0 .019-.019h.019c.115-.058.231-.116.327-.154.019 0 .038-.019.057-.038l.116-.058c.134-.058.249-.115.384-.173.038-.019.077-.038.096-.057.019 0 .038-.02.057-.02.039-.019.077-.038.116-.038.153-.058.288-.134.441-.192.135-.058.25-.115.384-.173.73-.307 1.402-.557 2.036-.768 1.191-.327 2.247-.538 3.169-.576" fill="#fff"/></g><circle cx="208" cy="30" r="30" fill="#FF4500"/><path d="M225.259 30.225a3.7 3.7 0 0 1-.539 1.981 3.7 3.7 0 0 1-1.513 1.39q.01.138.015.278a7 7 0 0 1 0 .558 7 7 0 0 1-.015.278c0 5.677-6.615 10.29-14.776 10.29s-14.775-4.613-14.775-10.29a6.48 6.48 0 0 1 0-1.115 3.7 3.7 0 0 1-2.018-2.362 3.7 3.7 0 0 1 .494-3.068 3.69 3.69 0 0 1 2.656-1.609 3.7 3.7 0 0 1 2.948.982 18.1 18.1 0 0 1 7.269-2.887 18 18 0 0 1 2.615-.23l1.876-8.795a.776.776 0 0 1 .629-.614.8.8 0 0 1 .308.006l6.209 1.242a2.535 2.535 0 1 1-.329 1.546l-5.424-1.14-1.647 7.907q1.3.028 2.583.242a18 18 0 0 1 7.174 2.875 3.7 3.7 0 0 1 3.951-.76 3.7 3.7 0 0 1 2.309 3.294m-25.151 3.504a2.53 2.53 0 0 0 1.372 1.372 2.535 2.535 0 1 0-1.372-1.372m14.516 6.084a.68.68 0 0 0 .012-.968.69.69 0 0 0-.481-.206.83.83 0 0 0-.503.177 8.34 8.34 0 0 1-3.893 1.504 8.3 8.3 0 0 1-1.404.042 8.28 8.28 0 0 1-5.271-1.597.687.687 0 0 0-.919.045.69.69 0 0 0-.045.918 9.8 9.8 0 0 0 2.961 1.52 9.8 9.8 0 0 0 3.299.432 9.759 9.759 0 0 0 6.26-1.951zm-.465-4.317a2.55 2.55 0 0 0 1.845-.769 2.53 2.53 0 0 0 .715-1.867 2.536 2.536 0 1 0-2.535 2.535z" fill="#fff"/><g clip-path="url(#d)"><path d="M72 433c17.673 0 32-14.327 32-32s-14.327-32-32-32-32 14.327-32 32 14.327 32 32 32" fill="#4353FF"/><path d="m81.4 397.2-2.9 9.14c0-.7-2-15.86-2-15.86-4.6 0-7.04 3.26-8.32 6.72l-3.54 9.16c0-.66-.5-9.08-.5-9.08a7.483 7.483 0 0 0-7.26-6.78l3.76 22.96c4.8 0 7.4-3.26 8.74-6.72l3-7.8c0 .32 2 14.52 2 14.52a9.24 9.24 0 0 0 8.8-6.46l6.8-16.52c-4.8 0-7.32 3.26-8.6 6.72z" fill="#fff"/></g><path d="M207.5 390c12.426 0 22.5-10.074 22.5-22.5S219.926 345 207.5 345 185 355.074 185 367.5s10.074 22.5 22.5 22.5" fill="#334C8C"/><path d="m213.203 365.371-.373 3.133a.596.596 0 0 1-.592.527h-3.257v9.296a.42.42 0 0 1-.414.423h-3.319a.43.43 0 0 1-.296-.127.5.5 0 0 1-.089-.138.4.4 0 0 1-.03-.161l.018-9.293h-2.466a.594.594 0 0 1-.592-.593v-3.132a.59.59 0 0 1 .592-.592h2.451v-3.037c0-3.514 2.091-5.427 5.152-5.427h2.507a.593.593 0 0 1 .592.592v2.638a.593.593 0 0 1-.592.592h-1.536c-1.664.027-1.978.823-1.978 2.013v2.62h3.645a.6.6 0 0 1 .437.204.6.6 0 0 1 .14.462" fill="#fff"/><defs><clipPath id="a"><path fill="#fff" d="M9 39h34.626v30H9z"/></clipPath><clipPath id="b"><path fill="#fff" d="M236 185h50v50h-50z"/></clipPath><clipPath id="c"><path fill="#fff" d="M98.6 174.168h43.04v48.667H98.6z"/></clipPath><clipPath id="d"><path fill="#fff" d="M40 369h64v64H40z"/></clipPath></defs></svg>