<svg width="323" height="423" viewBox="0 0 323 423" fill="none" xmlns="http://www.w3.org/2000/svg"><circle cx="303" cy="403" r="20" fill="#7952B3"/><path fill-rule="evenodd" clip-rule="evenodd" d="M295.896 393.484c-1.345 0-2.34 1.183-2.296 2.465.043 1.231-.013 2.827-.412 4.128-.402 1.304-1.08 2.131-2.188 2.237v1.198c1.108.106 1.786.933 2.188 2.237.399 1.301.455 2.897.412 4.128-.044 1.282.951 2.465 2.296 2.465h13.781c1.345 0 2.34-1.183 2.296-2.465-.043-1.231.013-2.827.412-4.128.402-1.304 1.078-2.131 2.186-2.237v-1.198c-1.108-.106-1.784-.933-2.186-2.237-.399-1.301-.455-2.897-.412-4.128.044-1.282-.951-2.465-2.296-2.465zm11.085 11.608c0 1.766-1.312 2.836-3.488 2.836h-3.704a.4.4 0 0 1-.399-.401v-9.228a.398.398 0 0 1 .399-.401h3.683c1.815 0 3.006.987 3.006 2.502 0 1.064-.802 2.016-1.822 2.183v.055c1.389.153 2.325 1.12 2.325 2.454m-3.891-5.922h-2.112v2.996h1.778c1.376 0 2.134-.557 2.134-1.551 0-.931-.652-1.445-1.8-1.445m-2.112 4.184v3.302h2.189c1.432 0 2.19-.577 2.19-1.661s-.779-1.641-2.282-1.641z" fill="#fff"/><circle cx="148" cy="353" r="35" fill="#2F2C30"/><g clip-path="url(#a)" fill-rule="evenodd" clip-rule="evenodd"><path d="M142.637 333a3.996 3.996 0 0 0-3.992 3.999 3.996 3.996 0 0 0 3.993 3.999h3.993v-3.997a4 4 0 0 0-3.994-4.001q.001 0 0 0m0 10.667h-10.644a3.995 3.995 0 0 0-3.993 3.999 3.997 3.997 0 0 0 3.991 4.001h10.646a3.997 3.997 0 0 0 3.992-4 3.995 3.995 0 0 0-3.992-4" fill="#36C5F0"/><path d="M167.92 347.666a3.995 3.995 0 0 0-3.992-3.999 3.995 3.995 0 0 0-3.993 3.999v4.001h3.993a3.997 3.997 0 0 0 3.992-4.001m-10.645 0v-10.667a3.997 3.997 0 0 0-3.991-3.999 3.996 3.996 0 0 0-3.993 3.999v10.667a3.997 3.997 0 0 0 3.991 4.001 4 4 0 0 0 3.993-4.001" fill="#2EB67D"/><path d="M153.282 373a3.995 3.995 0 0 0 3.992-3.999 3.996 3.996 0 0 0-3.992-3.999h-3.993v3.999a4 4 0 0 0 3.993 3.999m0-10.668h10.645a3.997 3.997 0 0 0 3.993-3.999 3.996 3.996 0 0 0-3.991-4.001h-10.646a3.996 3.996 0 0 0-3.992 3.999 3.995 3.995 0 0 0 3.991 4.001" fill="#ECB22E"/><path d="M128 358.331a3.995 3.995 0 0 0 3.993 3.999 3.995 3.995 0 0 0 3.992-3.999v-3.999h-3.992a3.996 3.996 0 0 0-3.993 3.999m10.645 0v10.667a3.997 3.997 0 0 0 3.991 4.001 3.997 3.997 0 0 0 3.993-3.999v-10.666a3.993 3.993 0 1 0-7.984-.003" fill="#E01E5A"/></g><circle cx="56" cy="260" r="29" fill="#0F0765"/><path d="m56.726 263.882-15.863-10.095a3.75 3.75 0 0 1 4.026-6.326l11.638 7.405 10.449-7.314a3.75 3.75 0 0 1 4.3 6.144z" fill="#EA4435"/><path d="M70.375 273.125h-5v-22.5a3.752 3.752 0 0 1 6.402-2.652 3.75 3.75 0 0 1 1.098 2.652v20a2.5 2.5 0 0 1-2.5 2.5" fill="#00AC47"/><path d="M72.82 250.082c-.01-.075-.01-.152-.025-.226-.024-.115-.069-.221-.103-.332a4 4 0 0 0-.12-.374c-.025-.059-.063-.112-.091-.169a4 4 0 0 0-.27-.481c-.05-.073-.112-.134-.168-.203a4 4 0 0 0-.306-.356c-.084-.081-.178-.149-.269-.222a4 4 0 0 0-.3-.232c-.099-.065-.207-.114-.312-.17-.11-.057-.219-.12-.334-.166-.111-.045-.23-.073-.346-.107-.116-.035-.231-.075-.35-.098a4 4 0 0 0-.447-.045c-.095-.006-.189-.023-.284-.022a4 4 0 0 0-.527.053c-.07.011-.141.01-.211.024q-.354.108-.706.223c-.064.027-.12.068-.183.099a3.63 3.63 0 0 0-2.093 3.347v7.203l5.9-4.131a3.61 3.61 0 0 0 1.546-3.615" fill="#FFBA00"/><path d="M42.875 246.875a3.75 3.75 0 0 1 3.75 3.75v22.5h-5a2.5 2.5 0 0 1-2.5-2.5v-20a3.75 3.75 0 0 1 3.75-3.75" fill="#4285F4"/><path d="M39.18 250.083c.011-.075.01-.152.026-.227.024-.114.069-.22.103-.331q.05-.19.12-.374c.024-.059.063-.112.091-.169q.117-.251.27-.481c.05-.073.112-.135.168-.203a4 4 0 0 1 .306-.356c.083-.081.178-.149.269-.222q.144-.124.3-.232c.099-.065.207-.115.312-.17q.162-.092.334-.167c.111-.045.23-.073.346-.107.116-.035.231-.075.35-.098q.222-.035.447-.045c.095-.006.189-.023.284-.022q.266.008.527.053c.07.011.142.01.212.024q.18.047.357.111.177.048.348.112c.064.027.12.068.183.099q.244.114.468.263a3.73 3.73 0 0 1 1.624 3.085v7.202l-5.9-4.13a3.61 3.61 0 0 1-1.545-3.615" fill="#C52528"/><circle cx="173" cy="165" r="20" fill="#0062FF"/><g clip-path="url(#b)"><path d="M167.367 155.859 162 159.302l5.367 3.393 5.367-3.393zm10.734 0-5.367 3.443 5.367 3.393 5.367-3.393zM162 166.138l5.367 3.443 5.367-3.443-5.367-3.443zm16.101-3.443-5.367 3.443 5.367 3.443 5.367-3.443zm-10.734 8 5.367 3.443 5.367-3.443-5.367-3.393z" fill="#fff"/></g><g filter="url(#c)"><circle cx="40" cy="63" r="35" fill="#95BF46"/></g><path d="M52.657 50.854a.385.385 0 0 0-.348-.323c-.145-.012-3.203-.24-3.203-.24l-2.358-2.341c-.233-.234-.688-.163-.865-.11l-1.189.366c-.71-2.042-1.962-3.918-4.165-3.918q-.09 0-.186.006c-.627-.828-1.403-1.188-2.073-1.188-5.132 0-7.584 6.415-8.353 9.676-1.994.617-3.411 1.057-3.592 1.114-1.113.349-1.148.384-1.295 1.433-.11.794-3.022 23.318-3.022 23.318L44.703 82.9l12.298-2.66s-4.317-29.186-4.344-29.386m-9.217-2.26-1.92.595v-.414c0-1.27-.176-2.291-.458-3.101 1.135.142 1.891 1.434 2.378 2.92m-3.786-2.669c.315.791.52 1.926.52 3.458l-.001.222-3.966 1.228c.764-2.947 2.195-4.37 3.447-4.907m-1.525-1.443c.221 0 .444.075.658.222-1.645.774-3.408 2.724-4.152 6.616l-3.135.971c.872-2.969 2.943-7.809 6.629-7.809" fill="#5E8E3E"/><path d="M52.308 50.532c-.145-.012-3.203-.238-3.203-.238s-2.125-2.11-2.358-2.343a.6.6 0 0 0-.328-.15l-1.716 35.1L57 80.241s-4.317-29.186-4.344-29.386a.385.385 0 0 0-.347-.323" fill="#72A94E"/><path d="m40.529 57.329-1.517 4.51s-1.328-.709-2.957-.709c-2.387 0-2.507 1.498-2.507 1.876 0 2.06 5.37 2.85 5.37 7.674 0 3.797-2.408 6.241-5.655 6.241-3.896 0-5.888-2.425-5.888-2.425l1.043-3.446s2.048 1.758 3.776 1.758c1.13 0 1.589-.889 1.589-1.539 0-2.687-4.406-2.806-4.406-7.222 0-3.716 2.668-7.313 8.052-7.313 2.075 0 3.1.595 3.1.595" fill="#fff"/><circle cx="255.5" cy="27.5" r="27.5" fill="#DEE8E9"/><g clip-path="url(#d)"><mask id="e" style="mask-type:luminance" maskUnits="userSpaceOnUse" x="241" y="13" width="30" height="30"><path d="M271 13h-30v30h30z" fill="#fff"/></mask><g mask="url(#e)"><path d="m247.649 31.13-1.045 3.898-3.816.08A14.9 14.9 0 0 1 241 28c0-2.488.605-4.833 1.677-6.898h.001l3.398.622 1.489 3.378a8.9 8.9 0 0 0-.482 2.898c0 1.101.2 2.156.566 3.13" fill="#FBBB00"/><path d="M270.736 25.2c.173.907.262 1.844.262 2.801a14.996 14.996 0 0 1-5.609 11.698h-.001l-4.28-.22-.605-3.78a8.94 8.94 0 0 0 3.846-4.566h-8.021V25.2h14.408" fill="#518EF8"/><path d="m265.391 39.696.001.001a14.94 14.94 0 0 1-9.391 3.302c-5.712 0-10.678-3.192-13.212-7.891l4.861-3.98a8.92 8.92 0 0 0 12.856 4.569z" fill="#28B446"/><path d="m265.573 16.453-4.859 3.979a8.922 8.922 0 0 0-13.151 4.67l-4.886-4h-.001c2.496-4.814 7.525-8.102 13.323-8.102 3.639 0 6.976 1.296 9.574 3.453" fill="#F14336"/></g></g><defs><clipPath id="a"><path fill="#fff" d="M128 333h39.92v40H128z"/></clipPath><clipPath id="b"><path fill="#fff" d="M162 155h21.468v20H162z"/></clipPath><clipPath id="d"><path fill="#fff" d="M241 13h30v30h-30z"/></clipPath><filter id="c" x="0" y="23" width="80" height="80" filterUnits="userSpaceOnUse" color-interpolation-filters="sRGB"><feFlood flood-opacity="0" result="BackgroundImageFix"/><feColorMatrix in="SourceAlpha" values="0 0 0 0 0 0 0 0 0 0 0 0 0 0 0 0 0 0 127 0" result="hardAlpha"/><feOffset/><feGaussianBlur stdDeviation="2.5"/><feComposite in2="hardAlpha" operator="out"/><feColorMatrix values="0 0 0 0 0 0 0 0 0 0 0 0 0 0 0 0 0 0 0.1 0"/><feBlend in2="BackgroundImageFix" result="effect1_dropShadow_2031_947"/><feBlend in="SourceGraphic" in2="effect1_dropShadow_2031_947" result="shape"/></filter></defs></svg>