<svg width="1299" height="351" viewBox="0 0 1299 351" fill="none" xmlns="http://www.w3.org/2000/svg"><path opacity=".2" d="M955.5 149.996c0 4.674-2.072 9.279-6.099 13.774-4.031 4.498-9.998 8.861-17.725 13.033-15.452 8.344-37.845 15.874-65.559 22.203-55.419 12.657-132.005 20.49-216.617 20.49s-161.198-7.833-216.617-20.49c-27.714-6.329-50.107-13.859-65.559-22.203-7.727-4.172-13.694-8.535-17.725-13.033-4.027-4.495-6.099-9.1-6.099-13.774s2.072-9.278 6.099-13.774c4.031-4.498 9.998-8.861 17.725-13.033 15.452-8.344 37.845-15.874 65.559-22.203 55.419-12.657 132.005-20.49 216.617-20.49s161.198 7.833 216.617 20.49c27.714 6.329 50.107 13.859 65.559 22.203 7.727 4.172 13.694 8.535 17.725 13.033 4.027 4.496 6.099 9.1 6.099 13.774Z" stroke="#7A7D7C"/><path opacity=".2" d="M1298.5 211.996c0 8.934-4.45 17.711-13.05 26.248-8.59 8.538-21.3 16.798-37.71 24.682-32.81 15.766-80.32 29.978-139.07 41.918-117.498 23.879-279.839 38.652-459.17 38.652s-341.672-14.773-459.166-38.652c-58.752-11.94-106.264-26.152-139.076-41.918-16.408-7.884-29.113-16.144-37.71-24.682C4.952 229.707.5 220.93.5 211.996s4.452-17.711 13.048-26.248 21.302-16.798 37.71-24.682c32.812-15.766 80.324-29.978 139.076-41.918C307.828 95.269 470.169 80.496 649.5 80.496s341.672 14.773 459.17 38.652c58.75 11.94 106.26 26.152 139.07 41.918 16.41 7.884 29.12 16.144 37.71 24.682 8.6 8.537 13.05 17.314 13.05 26.248Z" stroke="#7A7D7C"/><g clip-path="url(#a)"><path d="M649.345 90.69c25.043 0 45.345-20.302 45.345-45.345S674.388 0 649.345 0 604 20.302 604 45.345s20.302 45.345 45.345 45.345" fill="#09B850"/><path d="M623.916 48.65a3.592 3.592 0 1 0 0-7.183 3.592 3.592 0 0 0 0 7.183M675.638 54.612h-.502c-1.222 0-2.156-.934-2.156-2.155V37.659c0-1.221.934-2.155 2.156-2.155h.502c1.222 0 2.155.934 2.155 2.155v14.87c0 1.15-.933 2.083-2.155 2.083M666.084 64.239h-.503c-1.221 0-2.155-.934-2.155-2.155v-34.05c0-1.221.934-2.155 2.155-2.155h.503c1.221 0 2.155.934 2.155 2.155v33.978c0 1.221-1.006 2.227-2.155 2.227M656.459 52.242h-.503c-1.221 0-2.155-.934-2.155-2.155V40.03c0-1.221.934-2.155 2.155-2.155h.503c1.221 0 2.155.934 2.155 2.155v10.057c0 1.221-.934 2.155-2.155 2.155M629.877 45.49c.43 1.795 1.508 2.8 2.801 3.016.718.144 1.365.647 1.652 1.293l9.411 22.628a2.21 2.21 0 0 0 2.011 1.293h1.149c1.222 0 2.155-.934 2.155-2.155V18.48c0-1.221-.933-2.155-2.155-2.155h-1.221a2.21 2.21 0 0 0-2.011 1.293l-9.411 22.7c-.287.718-.933 1.15-1.652 1.293-1.293.287-2.37 1.221-2.801 3.017 0 .287 0 .575.072.862m7.973-1.294 4.598-11.134c.359-.934 1.795-.647 1.795.359v23.203c0 1.005-1.436 1.293-1.795.359l-4.598-11.135c-.215-.502-.215-1.077 0-1.652" fill="#fff"/></g><g opacity=".5" filter="url(#b)"><ellipse cx="652.806" cy="106.446" rx="37.275" ry="2.69" fill="#7A7D7C"/></g><path stroke="#DCE0E5" stroke-dasharray="2 2" d="M126.5 232.996v54M522.5 285.996v54M291.5 50.996v54M1043.5 260.996v54M1194.5 86.996v54M878.5 153.996v46M431.5 152.996v46"/><g filter="url(#c)"><circle cx="291" cy="101.996" r="7" fill="#fff"/><circle cx="291" cy="101.996" r="7" fill="#DCE0E5" fill-opacity=".5"/></g><g filter="url(#d)"><circle cx="100" cy="141.996" r="5" fill="#fff"/><circle cx="100" cy="141.996" r="5" fill="#09B850" fill-opacity=".5"/></g><g filter="url(#e)"><circle cx="126" cy="287.996" r="7" fill="#fff"/><circle cx="126" cy="287.996" r="7" fill="#DCE0E5" fill-opacity=".5"/></g><g filter="url(#f)"><circle cx="522" cy="339.996" r="7" fill="#fff"/><circle cx="522" cy="339.996" r="7" fill="#DCE0E5" fill-opacity=".5"/></g><g filter="url(#g)"><circle cx="775" cy="340.996" r="5" fill="#fff"/><circle cx="775" cy="340.996" r="5" fill="#09B850" fill-opacity=".5"/></g><g filter="url(#h)"><circle cx="1044" cy="315.996" r="7" fill="#fff"/><circle cx="1044" cy="315.996" r="7" fill="#DCE0E5" fill-opacity=".5"/></g><g filter="url(#i)"><circle cx="1194" cy="138.996" r="7" fill="#fff"/><circle cx="1194" cy="138.996" r="7" fill="#DCE0E5" fill-opacity=".5"/></g><g filter="url(#j)"><circle cx="978" cy="97.996" r="5" fill="#fff"/><circle cx="978" cy="97.996" r="5" fill="#09B850" fill-opacity=".5"/></g><g filter="url(#k)"><circle cx="431" cy="196.996" r="7" fill="#fff"/><circle cx="431" cy="196.996" r="7" fill="#DCE0E5" fill-opacity=".5"/></g><g filter="url(#l)"><circle cx="672" cy="217.996" r="5" fill="#fff"/><circle cx="672" cy="217.996" r="5" fill="#09B850" fill-opacity=".5"/></g><g filter="url(#m)"><path d="M886 195.996a7 7 0 1 1-14 0 7 7 0 0 1 14 0" fill="#fff"/><path d="M886 195.996a7 7 0 1 1-14 0 7 7 0 0 1 14 0" fill="#DCE0E5" fill-opacity=".5"/></g><circle cx="878" cy="141.996" r="20" fill="#7952B3"/><path fill-rule="evenodd" clip-rule="evenodd" d="M870.896 132.479c-1.345 0-2.34 1.182-2.296 2.464.043 1.231-.013 2.827-.412 4.128-.402 1.304-1.08 2.131-2.188 2.237v1.198c1.108.106 1.786.933 2.188 2.237.399 1.301.455 2.897.412 4.128-.044 1.282.951 2.465 2.296 2.465h13.781c1.345 0 2.34-1.183 2.296-2.465-.043-1.231.013-2.827.412-4.128.402-1.304 1.078-2.131 2.186-2.237v-1.198c-1.108-.106-1.784-.933-2.186-2.237-.399-1.301-.455-2.897-.412-4.128.044-1.282-.951-2.464-2.296-2.464zm11.085 11.607c0 1.766-1.312 2.836-3.488 2.836h-3.704a.4.4 0 0 1-.399-.401v-9.228a.398.398 0 0 1 .399-.401h3.683c1.815 0 3.006.987 3.006 2.502 0 1.064-.802 2.016-1.822 2.183v.055c1.389.153 2.325 1.12 2.325 2.454m-3.891-5.922h-2.112v2.996h1.778c1.376 0 2.134-.556 2.134-1.55 0-.932-.652-1.446-1.8-1.446m-2.112 4.184v3.302h2.189c1.432 0 2.19-.577 2.19-1.661s-.779-1.641-2.282-1.641z" fill="#fff"/><circle cx="126.5" cy="215.496" r="27.5" fill="#DEE8E9"/><g clip-path="url(#n)"><mask id="o" style="mask-type:luminance" maskUnits="userSpaceOnUse" x="112" y="200" width="30" height="31"><path d="M142 200.996h-30v30h30z" fill="#fff"/></mask><g mask="url(#o)"><path d="m118.649 219.125-1.045 3.899-3.816.08a14.9 14.9 0 0 1-1.788-7.108c0-2.487.605-4.833 1.677-6.898h.001l3.398.623 1.489 3.377a8.9 8.9 0 0 0-.482 2.898c0 1.101.2 2.156.566 3.129" fill="#FBBB00"/><path d="M141.736 213.193c.173.908.262 1.845.262 2.803a14.996 14.996 0 0 1-5.609 11.697l-.001-.001-4.28-.218-.605-3.781a8.95 8.95 0 0 0 3.846-4.566h-8.021v-5.934h14.408" fill="#518EF8"/><path d="m136.391 227.692.001.001a14.94 14.94 0 0 1-9.391 3.303c-5.712 0-10.678-3.193-13.212-7.892l4.861-3.979a8.92 8.92 0 0 0 8.351 5.787 8.9 8.9 0 0 0 4.505-1.219z" fill="#28B446"/><path d="m136.573 204.449-4.859 3.979a8.922 8.922 0 0 0-13.151 4.67l-4.886-4h-.001c2.496-4.813 7.525-8.102 13.323-8.102 3.639 0 6.976 1.297 9.574 3.453" fill="#F14336"/></g></g><circle cx="522" cy="266.996" r="35" fill="#2F2C30"/><g clip-path="url(#p)" fill-rule="evenodd" clip-rule="evenodd"><path d="M516.637 246.996a3.996 3.996 0 0 0-3.992 3.999 3.996 3.996 0 0 0 3.993 3.999h3.993v-3.997a4 4 0 0 0-3.994-4.001q.001 0 0 0m0 10.667h-10.644a3.995 3.995 0 0 0-3.993 3.999 3.997 3.997 0 0 0 3.991 4.001h10.646a3.996 3.996 0 0 0 3.992-3.999 3.995 3.995 0 0 0-3.992-4.001" fill="#36C5F0"/><path d="M541.918 261.662a3.995 3.995 0 0 0-3.992-3.999 3.995 3.995 0 0 0-3.993 3.999v4.001h3.993a3.997 3.997 0 0 0 3.992-4.001m-10.645 0v-10.667a3.997 3.997 0 0 0-3.991-3.999 3.997 3.997 0 0 0-3.993 3.999v10.667a3.997 3.997 0 0 0 3.991 4.001 4 4 0 0 0 3.993-4.001" fill="#2EB67D"/><path d="M527.282 286.996a3.995 3.995 0 0 0 3.992-3.999 3.996 3.996 0 0 0-3.992-3.999h-3.993v3.999a4 4 0 0 0 3.993 3.999m0-10.668h10.645a3.997 3.997 0 0 0 3.993-3.999 3.996 3.996 0 0 0-3.991-4.001h-10.646a3.996 3.996 0 0 0-3.992 3.999 3.995 3.995 0 0 0 3.991 4.001" fill="#ECB22E"/><path d="M502 272.329a3.995 3.995 0 0 0 3.993 3.999 3.995 3.995 0 0 0 3.992-3.999v-3.999h-3.992a3.997 3.997 0 0 0-3.993 3.999m10.645 0v10.667a3.997 3.997 0 0 0 3.991 4.001 3.997 3.997 0 0 0 3.993-3.999v-10.665a3.996 3.996 0 0 0-3.991-4.001 3.994 3.994 0 0 0-3.993 3.997" fill="#E01E5A"/></g><g filter="url(#q)"><circle cx="1043" cy="237.996" r="35" fill="#95BF46"/></g><g clip-path="url(#r)"><path d="M1055.66 225.852a.394.394 0 0 0-.35-.323l-3.2-.239s-2.13-2.109-2.36-2.342-.69-.163-.87-.111c-.02.008-.46.143-1.19.367-.71-2.041-1.96-3.918-4.16-3.918-.06 0-.12.003-.19.006-.62-.828-1.4-1.188-2.07-1.188-5.13 0-7.58 6.415-8.35 9.676-2 .617-3.41 1.057-3.6 1.114-1.11.349-1.14.384-1.29 1.433-.11.794-3.02 23.318-3.02 23.318l22.69 4.253 12.3-2.661s-4.32-29.185-4.34-29.385m-9.22-2.26-1.92.595v-.414c0-1.269-.18-2.291-.46-3.101 1.14.142 1.89 1.434 2.38 2.92m-3.79-2.668c.32.79.52 1.925.52 3.457v.222l-3.96 1.228c.76-2.947 2.19-4.37 3.44-4.907m-1.52-1.444q.33 0 .66.222c-1.65.774-3.41 2.724-4.16 6.616l-3.13.971c.87-2.969 2.94-7.809 6.63-7.809" fill="#5E8E3E"/><path d="M1055.31 225.529c-.15-.013-3.21-.239-3.21-.239s-2.12-2.109-2.35-2.343a.6.6 0 0 0-.33-.15l-1.72 35.1 12.3-2.66s-4.32-29.186-4.34-29.386a.39.39 0 0 0-.35-.322" fill="#72A94E"/><path d="m1043.53 232.323-1.52 4.51s-1.33-.709-2.95-.709c-2.39 0-2.51 1.498-2.51 1.876 0 2.06 5.37 2.849 5.37 7.674 0 3.797-2.41 6.241-5.66 6.241-3.89 0-5.88-2.424-5.88-2.424l1.04-3.447s2.05 1.758 3.77 1.758c1.13 0 1.59-.889 1.59-1.538 0-2.688-4.4-2.807-4.4-7.223 0-3.716 2.66-7.312 8.05-7.312 2.07 0 3.1.594 3.1.594" fill="#fff"/></g><circle cx="1195" cy="82.996" r="20" fill="#0062FF"/><g clip-path="url(#s)"><path d="m1189.37 73.857-5.37 3.444 5.37 3.392 5.36-3.392zm10.73 0-5.37 3.444 5.37 3.392 5.37-3.392zM1184 84.136l5.37 3.443 5.36-3.443-5.36-3.443zm16.1-3.443-5.37 3.443 5.37 3.443 5.37-3.443zm-10.73 8 5.36 3.443 5.37-3.443-5.37-3.392z" fill="#fff"/></g><circle cx="291" cy="49.996" r="20" fill="#FF4500"/><path d="M302.506 50.146a2.44 2.44 0 0 1-.36 1.321 2.47 2.47 0 0 1-1.008.926 6 6 0 0 1 .01.557l-.01.186c0 3.785-4.41 6.86-9.851 6.86-5.44 0-9.85-3.075-9.85-6.86a4 4 0 0 1-.01-.186 4 4 0 0 1 0-.371 4 4 0 0 1 .01-.186 2.47 2.47 0 0 1-1.345-1.575 2.48 2.48 0 0 1 .329-2.045 2.468 2.468 0 0 1 3.736-.418 12.12 12.12 0 0 1 4.846-1.925 12 12 0 0 1 1.744-.153l1.25-5.863a.52.52 0 0 1 .625-.405l4.14.827a1.69 1.69 0 1 1-.22 1.03l-3.616-.76-1.098 5.272a12 12 0 0 1 5.008 1.211q.78.38 1.497.867a2.465 2.465 0 0 1 3.728.364c.273.39.428.85.445 1.326m-16.767 2.336a1.69 1.69 0 0 0 1.561 1.043 1.691 1.691 0 0 0 1.194-2.884 1.689 1.689 0 0 0-2.755 1.841m9.677 4.056a.46.46 0 0 0 .138-.32.46.46 0 0 0-.451-.463.55.55 0 0 0-.335.118 5.54 5.54 0 0 1-3.531 1.031 5.5 5.5 0 0 1-2.717-.577 5.5 5.5 0 0 1-.798-.487.454.454 0 0 0-.612.03.46.46 0 0 0-.03.612 6.5 6.5 0 0 0 4.174 1.3q.558.024 1.112-.049a6.5 6.5 0 0 0 3.061-1.251zm-.31-2.878a1.69 1.69 0 0 0 1.596-1.086c.082-.214.12-.442.11-.671a1.69 1.69 0 1 0-1.689 1.69z" fill="#fff"/><circle cx="431" cy="140.996" r="15" fill="#0F0F10"/><g clip-path="url(#t)"><path d="M438.979 149.086a.32.32 0 0 1-.237.095.32.32 0 0 1-.237-.095.32.32 0 0 1-.095-.236c0-.095.032-.182.103-.245a.3.3 0 0 1 .229-.087.32.32 0 0 1 .331.332.27.27 0 0 1-.094.236m-.426-.434a.26.26 0 0 0-.079.19c0 .079.023.142.079.197a.26.26 0 0 0 .197.079.26.26 0 0 0 .197-.079.26.26 0 0 0 .079-.197.25.25 0 0 0-.079-.19.27.27 0 0 0-.197-.087.3.3 0 0 0-.197.087m.299.363a.15.15 0 0 1-.094.032.19.19 0 0 1-.19-.197q0-.084.048-.142c.031-.04.079-.056.134-.056q.047 0 .095.024a.17.17 0 0 1 .079.126h-.087c-.008-.023-.016-.047-.032-.055q-.024-.014-.047-.016c-.024 0-.048.008-.063.032a.17.17 0 0 0-.024.095c0 .039.008.071.024.086.015.016.039.032.063.032a.1.1 0 0 0 .055-.016l.024-.047h.079a.15.15 0 0 1-.064.102m.837-3.504c0-.032-.008-.063-.008-.095 0-.023-.008-.039-.008-.055a1 1 0 0 0-.031-.134.8.8 0 0 0-.142-.245.8.8 0 0 0-.206-.166 1 1 0 0 0-.221-.078c-.023 0-.039-.008-.055-.008a1.17 1.17 0 0 0-.094-.805l.015-.016c.095-.095.174-.182.245-.269l.016-.015a.9.9 0 0 0 .11-.229c.016-.063.032-.119.032-.174v-.15a1.1 1.1 0 0 0-.103-.434 1.1 1.1 0 0 0-.166-.245 1 1 0 0 0-.26-.205c-.008-.008-.016-.008-.024-.016a4 4 0 0 0-.663-.734 5 5 0 0 0-.3-.236c-.086-.064-.157-.111-.197-.142a1.5 1.5 0 0 0-.197-.127c-.079-.047-.134-.087-.166-.11-.024-.024-.039-.032-.047-.04 0 0 0-.008-.008-.023-.008-.024-.008-.056-.008-.111 0-.079 0-.197.008-.355l.071-1.058c.008-.15.008-.292.008-.418a3 3 0 0 0-.079-.576c-.008-.04-.024-.079-.032-.119-.008-.031-.016-.047-.023-.063-.008-.023-.016-.047-.032-.079-.008-.015-.008-.031-.024-.047a1 1 0 0 0-.055-.118l-.008-.008-.008-.024-.008-.016a1 1 0 0 0-.134-.189 2.8 2.8 0 0 0-.394-.955 1.4 1.4 0 0 0-.135-.174l.016-.016a8 8 0 0 0 1.018-1.365c.813-1.413.545-2.273.174-2.747l-.008-.015-.008-.016c-.355-.395-.844-.632-1.436-.711-1.239-.157-2.644.458-3.015.632l-.679-.742a1.4 1.4 0 0 0-.197-.174 2 2 0 0 0-.229-.134 1.8 1.8 0 0 0-.521-.142c-.371-.047-.797 0-1.255.118-.687.174-1.452.521-2.257 1.003a15.5 15.5 0 0 0-2.455 1.847c-.994.9-1.815 1.855-2.415 2.77-.3.45-.545.892-.726 1.318-.182.418-.3.821-.348 1.184-.031.268-.031.521.024.75.024.102.055.197.103.292.055.118.126.229.213.323l.702.734.079.079-.008.008-.023.048c-.016.023-.024.047-.04.063l-.024.047c-.007.024-.023.048-.031.071l-.024.048c-.008.023-.023.047-.031.071a.1.1 0 0 0-.016.047l-.024.071c-.008.016-.008.032-.016.047l-.023.079c0 .008-.008.016-.008.024s-.008.016-.008.024l-.024.079c0 .015-.008.031-.008.047 0 .008-.008.024-.008.031 0 .016-.007.032-.007.048s-.008.031-.008.047c-.008.032-.008.063-.016.103q.002.01-.008.031v.008c0 .024-.008.048-.008.063 0 .032-.008.071-.008.103v.395a.1.1 0 0 0 .008.047q-.002.025.008.063v.024c0 .016.008.039.008.055s.008.032.008.055c0 .008 0 .016.008.024 0 .008.008.024.008.032v.015c0 .016.007.032.015.063 0 .008 0 .008.008.016.008.016.008.032.008.04l.008.016c0 .007 0 .007.008.015l.008.016v.024c0 .008 0 .008.008.016l.008.015c0 .016.008.024.008.04.007.016.007.031.015.063 0 .008 0 .008.008.016.008.023.016.039.016.047.008.016.016.032.024.063l.008.008c.007.016.007.032.015.04l.008.015c0 .008.008.016.008.024a.06.06 0 0 0 .016.032l.008.015c.008.008.008.024.016.032q.009.012.007.024a.3.3 0 0 1 .024.055l.008.008c.008.008.008.016.016.023.008.008.008.024.016.032a.1.1 0 0 1 .023.047l.008.008c.008.008.008.016.016.024.008.016.016.024.016.032a.1.1 0 0 1 .023.039v.008c.008.008.008.016.016.024q.012.02.024.031.01.012.031.047c.008.008.016.016.016.024a.1.1 0 0 0 .024.032.2.2 0 0 1 .024.039c.007.008.015.024.023.032a.06.06 0 0 0 .032.031l.024.024.007.008c.016.016.024.031.04.047l.016.016.023.024.048.047.015.016.024.024.008.007c.016.016.04.032.055.056l.008.008c.008.007.016.007.024.023.024.024.047.04.071.063l.016.008.008.008.015.008c.024.016.04.032.064.047l.007.008a.03.03 0 0 0 .016.008l.016.016c.016.016.032.024.047.039l.016.008.016.016.008.008c.016.008.039.024.055.032.008.007.016.015.032.015l.015.008.008.008h.008c.032.016.055.032.079.048l.016.007.095.048h.008l.015.008.048.023c.008 0 .015.008.023.008.008.008.016.008.032.016h.008q.024.014.047.016h.008q.022.012.055.023h.008l.016.008c.008 0 .016.008.024.008h.008l.078.024h.008q.06.022.119.032h.008l.102.023h.032a.4.4 0 0 0 .095.016h.031c.024 0 .04.008.063.008 0 .008.008.016.008.024q.081.226.174.442c.931 2.58 3.512 4.585 6.456 4.956 2.944.363 6.093-1.594 7.372-4.238a7 7 0 0 0 .15-.3c.126-.134.229-.268.292-.411.102-.086.126-.26.118-.41" fill="#664F44"/><path d="M437.168 132.598a1.6 1.6 0 0 0-.489-.363.4.4 0 0 0-.103-.031c-.015-.008-.031-.024-.047-.032a2 2 0 0 0-.497-.126c-.853-.111-1.831.205-2.384.426-.031.016-.063.024-.095.039-.047.024-.094.04-.142.063q-.117.05-.244.111c-.016.008-.024.008-.04.016l-.15-.174-.071-.079-.063-.071-.024-.031-.576-.663-.047-.056-.063-.071h-.008l-.166.04-.189.039a1.5 1.5 0 0 0-.371-.102c-.284-.04-.647 0-1.058.102a7 7 0 0 0-1.365.529c-.987.489-2.076 1.239-3.134 2.202a14.92 14.92 0 0 0-1.862 2.013c-.513.671-.9 1.318-1.153 1.902a4 4 0 0 0-.308 1.05c-.031.221-.023.418.016.576.016.055.032.094.048.142a.8.8 0 0 0 .15.244l.639.671.071.071.008-.007a.2.2 0 0 1 .063-.064l.008-.008.024-.023c.015-.024.039-.04.055-.063.016-.016.023-.024.039-.032s.024-.024.04-.031l.015-.016c.016-.008.024-.024.04-.032.016-.016.039-.031.055-.047.008-.008.024-.016.032-.024h.008c.023-.016.039-.031.063-.047.016-.008.023-.016.039-.032.024-.016.04-.031.063-.047.016-.008.024-.016.04-.024a.3.3 0 0 1 .071-.039c.016-.008.024-.016.039-.024.024-.016.048-.024.071-.039.016-.008.024-.016.04-.024l.016-.008c.023-.008.039-.024.063-.032.008-.007.023-.007.031-.015a.4.4 0 0 1 .056-.024l.047-.024.016-.008.118-.047c.016-.008.024-.008.04-.016.015-.008.023-.008.039-.016l.016-.007c.008 0 .016-.008.024-.008.015-.008.031-.008.055-.016h.016c.023-.008.039-.008.063-.016.015-.008.039-.008.055-.016.024-.008.047-.008.071-.015.008 0 .016-.008.032-.008.007 0 .023 0 .031-.008q.036-.01.071-.008c.024 0 .04-.008.063-.008.016 0 .032-.008.048-.008h.063c.079 0 .173 0 .268.008h.016c.095.008.205.024.316.047.023.008.055.008.079.016.007-.008.007-.024.015-.031.063-.103.119-.214.182-.316.355-.592.734-1.113 1.121-1.571.134-.158.268-.3.402-.442a10.5 10.5 0 0 1 1.626-1.381c.111-.079.229-.15.332-.221.15-.095.292-.174.426-.253q.163-.095.315-.165.249-.13.45-.213l.119-.048c.055-.023.11-.047.158-.063-.04-.008-.087-.008-.127-.008h-.158c-.039 0-.086 0-.126.008l-.252.024c-.032.008-.056.008-.087.016.213-.111.426-.19.623-.253a4.3 4.3 0 0 1 .884-.158c.103-.008.198-.008.284-.008.087 0 .174.008.245.008.261.016.418.055.418.055-.039-.055-.086-.094-.134-.134a1.3 1.3 0 0 0-.292-.158c-.039-.015-.071-.023-.102-.039a.3.3 0 0 0-.064-.016c.048-.008.087-.016.127-.016.047-.008.087-.008.134-.015.371-.032.702 0 .947.039.292.055.474.126.474.126a.8.8 0 0 0-.174-.213 2 2 0 0 0-.15-.11 4.694 4.694 0 0 1 .876.307l.142.072c.016.007.024.015.032.015.142.079.221.134.221.134a.6.6 0 0 0-.134-.236c-.016-.016-.032-.04-.048-.056h.008c.008 0 .016.008.032.008.008 0 .023.008.039.016.063.024.158.063.268.119.008 0 .008.007.016.007l.048.024c.039.024.079.04.118.071l.118.071.064.04c.039.031.086.063.126.102q.069.06.126.119l.024.023c.031.032.063.063.087.095.055.063.102.134.15.205.055.087.094.19.134.292 0 .008 0 .016.008.016.023-.024.071-.071.126-.134.458-.537 1.831-2.273 1.002-3.331" fill="#132134"/><path d="M439.213 145.566s.016-.118-.047-.229c0-.008-.008-.016-.008-.016l-.008-.008-.024-.023a.3.3 0 0 0-.055-.048c-.008-.008-.024-.015-.039-.023-.04-.016-.079-.032-.135-.04-.039-.008-.079-.008-.126-.008h-.063v.016c0 .008.008.016.008.032q-.002.014.008.015c.008.024.016.064.023.095q.002 0-.007.024v.008a1.3 1.3 0 0 1-.229.339c-.024.032-.048.055-.079.087-.395.41-1.247.987-3.047 1.31a6.2 6.2 0 0 1-1.649.032c-.711-.087-1.24-.316-1.492-.624-.024-.023-.04-.055-.063-.079-.016-.023-.024-.039-.04-.063-.008-.008-.008-.016-.016-.024a1.25 1.25 0 0 1-.149-.591c0-.245.078-.474.205-.648a.76.76 0 0 1 .402-.3.7.7 0 0 1 .324-.023c.055.008.142.016.245.031.007 0 .023 0 .031.008.339.04.876.095 1.523.055 1.184-.071 2.739-.442 4.152-1.72v-.008a.61.61 0 0 0-.142-.45c-.024-.024-.047-.047-.079-.071-.016-.016-.04-.024-.055-.039-.024-.008-.04-.024-.056-.032l-.071-.047v-.008a.14.14 0 0 0-.031-.048c-.363-.552-.868-.876-1.074-1.026a1 1 0 0 0-.157-.102c-.435-.269-.498-.355-.458-1.074.016-.26.039-.6.071-1.065 0-.063.008-.119.008-.174v-.229c0-.039-.008-.079-.008-.11 0-.016 0-.032-.008-.048-.008-.039-.008-.078-.016-.118 0-.016-.008-.039-.008-.055 0-.024-.008-.04-.016-.063-.007-.016-.007-.04-.015-.056a.2.2 0 0 1-.016-.071c0-.008-.008-.015-.008-.023s-.008-.016-.008-.024v-.008l-.008-.024a.1.1 0 0 1-.016-.047v-.008l-.007-.016-.008-.015c-.016-.032-.024-.064-.04-.087l-.008-.024c-.015-.024-.031-.055-.047-.079l-.008-.008-.008-.008c-.016-.015-.024-.031-.039-.047l-.016-.024q-.024-.033-.047-.055v-.063l-.024-.11c0-.008-.008-.024-.008-.032v-.008c0-.016-.008-.024-.008-.039q-.01-.048-.031-.095c0-.008-.008-.024-.008-.032l-.024-.071c-.008-.016-.008-.031-.016-.039q-.01-.036-.031-.071l-.024-.048c-.008-.023-.024-.047-.032-.071l-.023-.047c-.016-.024-.024-.047-.04-.071l-.023-.047q-.024-.034-.048-.079c-.008-.016-.016-.024-.023-.04-.008-.008-.016-.023-.024-.031-.024-.024-.04-.048-.063-.071l-.016-.008c-.032-.032-.055-.063-.087-.087l-.008-.008c-.016-.008-.031-.024-.039-.032h-.008c-.016-.007-.024-.015-.04-.023l-.008-.008c-.015-.008-.039-.024-.071-.04-.007-.007-.023-.007-.039-.015-.071-.024-.158-.056-.268-.087-.008 0-.016 0-.024-.008a3 3 0 0 0-.3-.063c-.039-.008-.071-.008-.11-.016-.016 0-.032 0-.056-.008h-.023c-.087-.008-.166-.016-.253-.016h-.008c-.11 0-.221.008-.323.032a.5.5 0 0 1 .157-.126c.087-.048.166-.079.166-.079-.047 0-.095.008-.142.015-.016 0-.031.008-.047.008-.008 0-.024 0-.032.008h-.008q-.012-.002-.023.008a4 4 0 0 0-.616.197l-.047.024h-.008c-.016 0-.024 0-.04.008a.7.7 0 0 1 .348-.324c.015-.007.039-.015.055-.023.008 0 .008 0 .016-.008.015-.008.031-.008.039-.016.024-.008.039-.008.039-.008h-.126a1.9 1.9 0 0 0-.718.237 3 3 0 0 0-.379.253c-.031.007-.055.015-.087.015-.3.063-.639.142-.994.253-.134.039-.269.087-.403.134-.102.04-.213.079-.315.118-.079.032-.15.064-.229.095-.545.245-1.089.568-1.539 1.003l-.048.047-.118.118-.047.048a3.06 3.06 0 0 0-.458.623l-.008.008a3.3 3.3 0 0 0-.268.584q-.058.156-.103.324l-.024.087-.008.015a3 3 0 0 0-.071.371c0 .024-.008.048-.008.079-.007.063-.015.126-.015.198-.008.063-.008.118-.008.181v.245c0 .071 0 .142.008.213v.008c0 .071.008.142.015.221 0 .031.008.063.008.094v.024c0 .016 0 .032.008.055.008.079.024.166.032.253 0 .024.008.047.008.071.015.071.023.15.039.221 0 0-.016-.095-.008-.237 0-.031.008-.071.008-.102a1.1 1.1 0 0 1 .055-.261l.024-.071c0-.008.008-.016.016-.032a1 1 0 0 1 .063-.126c.008.032.008.063.016.087v.418c.008.269.031.592.087.869 0 0 .007-.498.094-.561 0 0 .15.931.284 1.279.016.047.04.079.056.102v-.094l-.016-.513v-.056c.103.213.221.427.355.655.04.064.071.127.111.19-.253.221-.49.544-.663.923-.024.063-.056.127-.079.19-.016.039-.024.071-.04.11 0 .008-.008.024-.008.032-.008.023-.015.055-.023.079 0 .016-.008.023-.008.039l-.024.079c0 .016-.008.024-.008.04l-.024.118c-.007.039-.015.079-.015.118 0 .016 0 .024-.008.04 0 .031-.008.055-.008.087 0 .015 0 .031-.008.047 0 .032-.008.055-.008.087V146c0 .032 0 .063.008.103v.023c0 .04.008.079.016.127 0 .015 0 .023.008.039 0 .032.008.055.015.087 0 .016.008.031.008.047.008.024.008.056.016.079 0 .016.008.032.008.048a.2.2 0 0 1 .016.078c.008.016.008.032.016.056.008.023.015.055.023.079.008.015.008.031.016.047l.024.079c.008.016.008.032.016.047.007.032.023.063.031.087.008.016.008.024.016.04l.118.26c.008.016.016.024.024.04l.047.094a.2.2 0 0 0 .032.048c.016.023.031.055.047.079.008.015.024.031.032.047.016.024.031.055.055.079.016.016.024.031.04.055.015.024.039.055.055.079.016.016.023.032.039.055.024.024.04.055.063.079.016.016.024.032.04.047a1 1 0 0 0 .079.087l.039.04c.04.039.079.087.119.126 0 0-.024-.032-.056-.095a.06.06 0 0 1-.015-.039l-.024-.047a1.324 1.324 0 0 1-.134-.624l.071.095c.023.055.063.126.102.205a.4.4 0 0 1 .04.079c.063.11.126.237.205.355.095.15.189.292.292.426 0 0-.118-.252-.158-.418-.008-.047-.016-.087-.008-.111.008.008.016.024.032.032.008.008.016.024.031.032q.024.035.072.094l.015.016c.016.016.024.04.04.055.016.024.031.048.055.071.166.213.395.498.552.648a1 1 0 0 0 .135.102l-.229-.41c.521.426 2.683.971 4.806.363.261-.071.513-.166.766-.276.15-.064.3-.143.45-.221l.024-.016c.102-.055.205-.119.307-.182.079-.047.158-.102.229-.15a6 6 0 0 0 .379-.284c.008-.008.016-.016.024-.016a4.715 4.715 0 0 0 .718-.773l.008-.008a1 1 0 0 0 .079-.111l.008-.007c.008-.016.016-.024.023-.04.04-.055.071-.102.111-.158.008-.016.016-.023.024-.039a.5.5 0 0 1 .055-.087l.039-.063q.026-.036.04-.071c.023-.04.047-.087.071-.126l.023-.048.048-.095.024-.047.007-.016c.016-.039.04-.079.056-.118v-.008c.071-.063.118-.126.165-.181.008-.008.016-.016.016-.024.048-.15.079-.269.079-.379m-12.699-1.531c0-.008 0-.016-.008-.032a4 4 0 0 1-.055-.418v-.032c-.024.008-.048.04-.079.079-.008.016-.024.032-.032.056a3 3 0 0 0-.134.323c.008-.063.016-.126.016-.189v-.024l.023-.197v-.024a2 2 0 0 1 .04-.221c0-.008 0-.016.008-.032v-.007q-.002-.012.008-.024c0-.016.008-.024.008-.04.007-.055.023-.11.031-.165l.024-.134v-.016c0-.008 0-.016.008-.016v-.016c0-.008.008-.024.008-.031q-.002-.012.008-.024c0-.016.007-.032.007-.04 0-.007.008-.023.008-.031 0-.016.008-.032.008-.04q-.002-.01.008-.023-.002-.014.008-.016c0-.016.008-.024.008-.032v-.023l-.016.015c-.016.008-.024.024-.039.032l-.016.016q-.026.024-.04.047l-.008.008-.047.071-.008.008c0 .008-.008.008-.008.016l-.023.047v.016c-.008.024-.024.047-.032.071a2 2 0 0 0-.063.182c-.008.015-.008.039-.016.047a1 1 0 0 0-.016.071c0-.024 0-.04.008-.063 0-.04.008-.087.008-.127 0-.031.008-.071.016-.102 0-.008 0-.024.008-.032 0-.015.008-.031.008-.047s.008-.032.008-.047v-.024c0-.016.008-.04.008-.055v-.056q-.002-.01.007-.023a.3.3 0 0 0 .016-.079v-.008c.008-.016.008-.04.016-.055v-.008c.008-.04.024-.079.032-.119v-.015q-.002-.012.007-.024c.016-.063.04-.126.056-.182v-.008c.015-.047.039-.102.055-.149v-.008c.008-.024.016-.04.024-.063.015-.032.023-.064.039-.095q0-.01.024-.055c.008-.008.008-.024.016-.032q.01-.022.023-.055l.008-.016.134-.245c.008-.008.008-.023.016-.031v-.008l.008-.016c.016-.024.032-.055.047-.079.024-.039.04-.079.063-.11.04-.071.072-.135.095-.166.008-.024.016-.032.024-.04-.008 0-.047-.031-.111-.071a4 4 0 0 0-.323-.173c-.048-.024-.087-.04-.134-.063a4 4 0 0 0-.182-.071c-.016-.008-.031-.008-.047-.016l-.158-.048-.111-.023c-.031-.008-.063-.008-.094-.016-.016 0-.032 0-.048-.008-.015 0-.031 0-.047-.008-.04 0-.087-.008-.126-.008h-.063c-.095 0-.182.008-.269.024h-.016a2.3 2.3 0 0 0-.457.118c-.048.016-.095.04-.15.063-.016.008-.024.016-.04.016l-.047.024a2.3 2.3 0 0 0-.403.268h-.008a2 2 0 0 0-.292.292l-.071.095q-.045.059-.079.118a2 2 0 0 0-.134.229c-.016.032-.031.056-.039.087 0 .008-.008.008-.008.016a2.2 2.2 0 0 0-.166.6c-.008.039-.008.079-.016.126v.016c0 .031-.008.063-.008.102v.142c0 .032 0 .064.008.095v.04c0 .023.008.047.008.071v.008c0 .015 0 .023.008.039 0 .024.008.047.008.063s.008.032.008.048c.008.023.008.039.016.063 0 .015.008.031.016.047v.008l.007.016v.016l.008.015c.008.016.008.032.016.048.008.015.008.039.016.055s.016.031.016.055l.008.016c.007.016.007.024.015.039a.4.4 0 0 1 .024.056l.024.047c.008.008.008.016.015.024.008.008.008.015.016.023l.024.048c.008.015.016.039.031.055a.2.2 0 0 0 .024.039l.032.056c.008.015.016.023.023.039a.2.2 0 0 0 .04.055.1.1 0 0 0 .024.032c.015.016.023.039.039.055.008.008.016.024.024.032.015.016.031.039.047.055a.1.1 0 0 1 .024.032c.016.015.031.039.047.055l.024.024c.016.015.031.039.055.055l.024.023.055.056q.012.013.024.015c.015.016.039.032.063.056.008.008.016.008.023.016.024.015.04.031.064.047.007.008.015.008.015.016l.071.047.016.008.071.047.016.008c.024.016.055.032.079.048l.016.007a.4.4 0 0 0 .079.04l.015.008c.032.016.056.023.087.039l.008.008c.032.016.063.024.087.04h.008c.031.007.063.023.095.031h.007c.016.008.032.008.048.016s.031.008.055.016h.008l.103.023a4.658 4.658 0 0 0 .434.048h.079c.039 0 .071 0 .11-.008.047-.008.103-.008.158-.016l.134-.024q.109-.02.205-.055a1.4 1.4 0 0 0 .49-.221s-.071-.316-.127-.631c-.015-.016-.023-.048-.031-.079" fill="#90694C"/><path d="m431.58 132.306-.024-.316.158-.347.063-.016a1.5 1.5 0 0 0-.37-.102c-.285-.04-.648 0-1.058.102a7 7 0 0 0-1.366.529c-.986.49-2.075 1.239-3.133 2.202a15.254 15.254 0 0 0-1.863 2.013c-.513.671-.899 1.318-1.152 1.902a4 4 0 0 0-.308 1.05c-.031.221-.023.418.016.576.016.055.032.095.047.142.04.095.087.174.15.245l.64.671.071.071.008-.008a.2.2 0 0 1 .063-.063l.008-.008.023-.024c.016-.024.04-.039.056-.063a.1.1 0 0 1 .039-.032c.016-.008.024-.023.04-.031l.015-.016c.016-.008.024-.024.04-.032.016-.015.039-.031.055-.047.008-.008.024-.016.032-.024h.007c.024-.015.04-.031.064-.047.015-.008.023-.016.039-.032.024-.015.04-.031.063-.047.016-.008.024-.016.04-.024.023-.015.047-.031.071-.039.016-.008.023-.016.039-.024.024-.016.048-.023.071-.039.016-.008.024-.016.04-.024l.015-.008c.15-.418.379-.884.679-1.357.363-.584.829-1.2 1.381-1.816a16.697 16.697 0 0 1 2.747-2.439c.363-.252.718-.481 1.066-.678.031-.016.063-.04.102-.056.095-.055.182-.102.276-.149q.298-.156.585-.277l-.095-.11-.016-.016-.118-.134-.655-.789.007-.569-.007-.008.465-.142z" fill="#2F83C1"/><path d="M439.214 145.565s.016-.118-.047-.228c0-.008-.008-.016-.008-.016l-.008-.008-.023-.024a.4.4 0 0 0-.095-.071.6.6 0 0 0-.134-.039c-.04-.008-.079-.008-.127-.008h-.063v.016c0 .007.008.015.008.031q-.002.014.008.016c.008.024.016.063.024.095 0 0 0 .008-.008.023v.008a1.3 1.3 0 0 1-.229.34 1 1 0 0 1-.079.086c-.395.411-1.247.987-3.047 1.311a6.2 6.2 0 0 1-1.649.031c-.71-.087-1.239-.316-1.492-.623-.024-.024-.039-.056-.063-.079l-.039-.063c-.008-.008-.008-.016-.016-.024a1.24 1.24 0 0 1-.15-.592c0-.245.079-.474.205-.647a.76.76 0 0 1 .655-.332q.024-.002.071.008c.055.008.142.016.245.032.008 0 .023 0 .031.008.34.039.876.094 1.524.055 1.184-.071 2.738-.442 4.151-1.721v-.008a.62.62 0 0 0-.142-.45c-.024-.023-.047-.047-.079-.071-.016-.015-.039-.023-.055-.039-.024-.008-.039-.024-.055-.032l-.071-.047v-.008a.2.2 0 0 0-.032-.047c-.363-.553-.868-.876-1.073-1.026-.095-.071-.158-.103-.158-.103-.434-.268-.497-.355-.458-1.073.016-.261.04-.6.071-1.066 0-.063.008-.118.008-.173v-.229c0-.04-.008-.079-.008-.111 0-.016 0-.031-.008-.047-.008-.04-.008-.079-.016-.119 0-.015-.007-.039-.007-.055 0-.023-.008-.039-.016-.063-.008-.016-.008-.039-.016-.055a.2.2 0 0 1-.016-.071c0-.008-.008-.016-.008-.024s-.008-.016-.008-.024v-.007l-.007-.024a.1.1 0 0 1-.016-.047v-.008l-.008-.016-.008-.016c-.016-.032-.024-.063-.04-.087l-.007-.023c-.016-.024-.032-.056-.048-.079l-.008-.008-.008-.008c-.015-.016-.023-.032-.039-.047l-.016-.024a.3.3 0 0 0-.047-.055l-.063-.064c-.024-.015-.048-.031-.071-.039-.008-.008-.016-.008-.024-.008l-.047-.024c-.008 0-.016-.007-.024-.007-.016-.008-.032-.008-.04-.016-.007 0-.015-.008-.031-.008s-.024-.008-.04-.008h-.173c-.008 0-.016 0-.024.008-.008 0-.016 0-.024.008q-.02.002-.055.016h-.016c-.047.015-.086.031-.134.047l-.016.008a.3.3 0 0 1-.055.023l-.023.008-.048.024-.023.016-.048.023-.024.016c-.015.008-.031.024-.047.032l-.016.008c-.015.016-.039.023-.055.039l-.008.008c-.023.016-.039.032-.063.04-.039.023-.079.055-.118.078-.032.024-.063.048-.103.071l-.016.008a1 1 0 0 1-.102.064l-.016.007c-.032.024-.071.04-.103.064l-.016.007c-.031.024-.071.04-.11.056l-.016.008c-.039.015-.071.031-.11.047l-.016.008c-.04.016-.079.024-.118.039h-.008l-.127.024a2 2 0 0 1-.584-.008l-.118-.024c-.016 0-.032-.007-.04-.007l-.315-.072c-.048-.007-.087-.023-.134-.031-.071-.016-.142-.032-.221-.047-.016 0-.032-.008-.04-.008s-.024-.008-.031-.008c-.016 0-.032-.008-.048-.008s-.031-.008-.047-.008h-.016c-.016 0-.032-.008-.039-.008a.4.4 0 0 0-.103-.016c-.008 0-.024 0-.032-.008-.023 0-.047-.007-.071-.007-.015 0-.023 0-.039-.008-.024 0-.04-.008-.063-.008h-.363c-.04 0-.071.008-.111.008h-.031c-.024 0-.048.008-.071.008h-.008c-.016 0-.024.007-.04.007-.023.008-.047.008-.071.016-.016 0-.031.008-.039.008q-.036.014-.071.016c-.016 0-.024.008-.04.016-.023.008-.055.015-.079.023-.015.008-.023.008-.031.016q-.062.024-.111.047c-.3.174-.56.411-.757.679q-.107.143-.19.284c-.063.103-.11.213-.158.324-.015.032-.023.063-.039.095-.016.055-.04.11-.055.165 0 .008 0 .016-.008.016l-.048.198a2 2 0 0 0-.031.205c-.008.039-.008.071-.008.11a2 2 0 0 0 0 .3v.024c0 .024 0 .047.008.079q.01.107.031.213c.008.024.016.047.016.079.008.023.008.047.016.071.047.181.118.347.205.489.324.561.86.9 1.255 1.081q.225.098.474.182l-.016.016c-.032.008-.063.016-.103.023-.055.016-.126.04-.197.064-.079.023-.174.063-.268.102a3.2 3.2 0 0 0-.79.458c-.031.024-.063.055-.094.079a1.3 1.3 0 0 0-.15.15l-.016.016-.024.023c-.016.024-.039.04-.055.063l-.024.024c-.023.032-.047.063-.063.095-.024.031-.039.063-.063.095-.15.26-.237.576-.213.955v-.016c0-.008 0-.016.008-.024v-.008c0-.008.008-.016.008-.031v-.008c0-.008.008-.024.008-.04 0-.015.007-.023.015-.039v-.008c.008-.016.008-.032.016-.047v-.008c.008-.016.008-.032.016-.048v-.008a.3.3 0 0 0 .024-.055l.007-.008c.008-.015.016-.039.032-.055.016-.031.032-.055.047-.087.008-.008.016-.023.024-.031l.008-.008.047-.071c.016-.016.032-.04.048-.055l.015-.016c.016-.016.024-.032.04-.04l.016-.016c.015-.015.039-.031.055-.055 0 0-.339.774-.189 1.381v-.118q-.002-.024.007-.047-.002-.024.008-.048v-.008c0-.015.008-.039.008-.055v-.016c.008-.023.008-.039.016-.063v-.008a.2.2 0 0 0 .016-.063c0-.008.008-.016.008-.023l.008-.016c.007-.016.015-.04.023-.055a.3.3 0 0 1 .04-.071c0-.008.008-.016.008-.016l.047-.071s-.016.189-.016.418c0 .039 0 .071.008.11q-.002.036.008.072-.014.234.008.481c.023.276.095.576.213.884 0 0-.111-.355.047-.71l.048.094c.015.103.031.253.063.419.031.276.158 1.105.726 1.681 0 0-.213-.276-.182-.632.024.048.048.087.064.127.094.181.284.513.497.749 0 0-.166-.323-.127-.394 0 0 .553.686.727.75l-.229-.379-.008-.008c.797.584 1.902.797 3.259.418.237-.063.474-.15.727-.252.15-.064.3-.142.449-.221l.024-.016c.103-.055.205-.119.308-.182.079-.047.158-.102.229-.15a6 6 0 0 0 .379-.284c.008-.008.015-.016.023-.016a4.867 4.867 0 0 0 .719-.773l.008-.008a1 1 0 0 0 .078-.11l.008-.008c.008-.016.016-.024.024-.04l.111-.158c.007-.015.015-.023.023-.039a1 1 0 0 1 .055-.087l.04-.063a.3.3 0 0 0 .039-.071c.024-.04.048-.087.071-.126l.024-.048.047-.094.024-.048.008-.016c.016-.039.039-.079.055-.118v-.008c.071-.063.119-.126.166-.181.008-.008.016-.016.016-.024a.6.6 0 0 0 .102-.332m-12.762-2.012c-.024.008-.047.039-.079.079-.008.016-.024.031-.032.055-.071.134-.134.324-.134.324.008-.064.016-.127.016-.19v-.024l.024-.197v-.024q.013-.115.039-.221-.002-.009.008-.031v-.008q-.002-.012.008-.024c0-.015.008-.023.008-.039.008-.055.024-.111.031-.166l.024-.134v-.016c0-.008 0-.016.008-.016v-.015c0-.008.008-.024.008-.032q-.002-.012.008-.024c0-.015.008-.031.008-.039s.008-.024.008-.032c0-.015.007-.031.007-.039q-.002-.012.008-.024c0-.008 0-.016.008-.016 0-.015.008-.023.008-.031v-.024l-.016.016c-.015.008-.023.024-.039.031l-.016.016a.2.2 0 0 0-.039.048l-.008.008-.048.071-.007.007c0 .008-.008.008-.008.016l-.024.048v.015c-.008.024-.024.048-.032.071-.023.064-.047.127-.063.182-.008.016-.008.039-.016.047-.007.032-.015.063-.015.071 0-.023 0-.039.008-.063 0-.039.007-.087.007-.126a.5.5 0 0 1 .016-.103c0-.008 0-.023.008-.031 0-.016.008-.032.008-.048 0-.015.008-.031.008-.047v-.024c0-.015.008-.039.008-.055v-.055q-.002-.012.008-.024a.3.3 0 0 0 .015-.079v-.008c.008-.015.008-.039.016-.055v-.008c.008-.039.024-.079.032-.118v-.016q-.002-.012.008-.024c.016-.063.039-.126.055-.181v-.008c.016-.047.039-.103.055-.15v-.008c.008-.024.016-.039.024-.063.016-.032.024-.063.039-.095 0-.008.008-.023.024-.055.008-.008.008-.024.016-.032a.3.3 0 0 0 .024-.055l.007-.016c-.007-.008-.023-.008-.031-.015h-.008l-.016-.008a2 2 0 0 0-.229-.087h-.016a1 1 0 0 0-.157-.032c-.032 0-.063-.008-.095-.008h-.079c-.039 0-.079.008-.118.008-.016 0-.024 0-.04.008-.016 0-.039.008-.055.008q-.012-.002-.024.008c-.016 0-.023.008-.039.008l-.079.024c-.008 0-.024.007-.032.007-.031.016-.071.024-.102.04-.016.008-.024.016-.04.016l-.047.023-.016.008c-.016.008-.032.016-.047.032q-.024.01-.048.031c-.015.008-.031.024-.047.032-.008.008-.024.016-.032.024-.023.023-.055.047-.079.071l-.039.039c-.024.024-.039.048-.063.071l-.008.008c-.008.016-.024.024-.032.04l-.023.023a1.4 1.4 0 0 0-.111.182c-.008.008-.008.016-.016.023-.015.032-.023.064-.039.095-.008.016-.008.024-.016.04-.008.031-.023.063-.031.102v.032c-.008.023-.008.047-.016.071 0 .016 0 .023-.008.039 0 .016 0 .024-.008.04v.031c0 .04-.008.079 0 .119 0 .031 0 .063.008.094v.016c0 .016.008.032.008.048.008.063.024.118.039.181q.024.069.048.126a1.248 1.248 0 0 0 1.042.774c.023 0 .047.008.063.008h.102c.032 0 .063-.008.095-.008.016 0 .039 0 .055-.008l.134-.024h.008c.016-.008.032-.008.056-.016a1 1 0 0 0 .157-.063l.008-.008c.016-.007.032-.015.04-.015a4 4 0 0 1-.056-.419c.04-.015.04-.023.04-.031" fill="#FCE9CD"/><path d="M438.735 145.242c0-.007 0-.015-.008-.015q-.01-.022-.008-.032a1.2 1.2 0 0 0-.237-.426l.024-.095a.6.6 0 0 0 .015-.118 1.14 1.14 0 0 0-.102-.632.4.4 0 0 0-.024-.055c-.047.032-.087.063-.134.095a6.9 6.9 0 0 1-2.841 1.105q-1.068.165-2.242.024l.016.007s-.474.064-.6.513l.008.008-.04.3c.016.411.198.663.411.797.221.087.489.15.789.19a6.3 6.3 0 0 0 1.713-.048c.805-.11 1.941-.536 2.754-1.089.182-.126.356-.26.498-.394l.008-.008.007-.008c0-.055-.007-.087-.007-.119" fill="#fff"/><path d="M437.195 141.344c-.434-.268-.497-.355-.457-1.074.015-.26.039-.599.071-1.065 0-.063.007-.118.007-.174v-.229c0-.039-.007-.078-.007-.11q.002-.024-.008-.047c-.008-.04-.008-.079-.016-.119 0-.016-.008-.039-.008-.055 0-.024-.008-.04-.016-.063-.008-.016-.008-.04-.016-.055a1 1 0 0 0-.221-.245l-.015-.016-.016-.008h-.008c-.016-.008-.024-.016-.04-.023-.015-.008-.031-.016-.039-.024a1.15 1.15 0 0 0-.426-.15c-.087-.016-.174-.016-.261-.016-.039 0-.086.008-.126.008q-.164.023-.339.071c-.04.024-.079.055-.119.079a1 1 0 0 1-.102.071l-.016.008a1 1 0 0 1-.103.063l-.015.008c-.032.024-.072.039-.103.063l-.016.008c-.031.024-.071.039-.11.055l-.016.008c-.04.016-.071.032-.111.047l-.015.008c-.04.016-.079.024-.119.04h-.008l-.126.023c-.071.008-.15.016-.221.016a3 3 0 0 1-.363-.023l-.118-.024c-.016 0-.032-.008-.04-.008l-.316-.071c-.047-.008-.086-.024-.134-.032l-.221-.047c-.016 0-.031-.008-.039-.008-.063 0-.127.008-.182.016h-.016a2.7 2.7 0 0 0-.536.126c-.008 0-.016.008-.032.008-.031.008-.055.024-.087.032-.039.015-.071.031-.11.047a3 3 0 0 0-.742.466 4 4 0 0 0-.268.252 3.5 3.5 0 0 0-.34.426c-.008.008-.008.016-.016.024a2 2 0 0 0-.142.245 1 1 0 0 1-.047.087v.008a2 2 0 0 0-.118.299q.002.014-.008.016c-.008.016-.008.032-.016.048-.016.047-.032.094-.04.142a1 1 0 0 0-.031.15c0 .008-.008.023-.008.031-.008.032-.008.063-.016.087-.016.111-.023.221-.031.332v.078c.047.182.118.348.205.49.323.56.86.9 1.255 1.081q.225.096.473.182l.008.008.008-.008c.024-.016.04-.032.063-.048.008-.008.016-.008.024-.016l.071-.047c.008-.008.016-.008.024-.016l.071-.047c.008-.008.015-.008.023-.016a1 1 0 0 1 .079-.047c.008-.008.016-.008.024-.016.024-.016.055-.032.079-.047.008-.008.016-.008.024-.016.023-.016.055-.032.079-.047.007-.008.023-.008.031-.016.024-.016.055-.032.079-.048a.1.1 0 0 1 .032-.015c.023-.016.055-.032.086-.048.016-.008.024-.016.04-.016.031-.015.055-.031.087-.039.015-.008.023-.016.039-.016.032-.016.055-.023.087-.039l.047-.024c.032-.016.056-.024.087-.039a.4.4 0 0 1 .055-.024c.032-.008.056-.024.087-.032.016-.008.04-.015.055-.023.032-.008.056-.024.087-.032.024-.008.04-.016.063-.024.032-.007.056-.023.087-.031l.071-.024c.024-.008.056-.016.079-.031l.079-.024.079-.024.087-.023c.024-.008.047-.016.079-.024.031-.008.063-.016.102-.032.016-.008.032-.008.048-.015.126-.324.513-1.129 1.168-1.216.071-.008.134-.016.197-.016h.048a1 1 0 0 1-.016-.15c-.024-.347.087-.639.237-.647.118-.008.213.166.228.221.048.103.079.237.087.387.008.134-.008.26-.031.371.015.016.023.031.039.039.15.19.174.442.166.632.055-.008.118-.008.181-.016.016 0 .032 0 .048-.008h.031q.108-.014.229-.016c.174-.016.347-.023.529-.031-.103-.056-.166-.087-.166-.087m1.65 4.862a5 5 0 0 1-.884.623 5.907 5.907 0 0 1-1.35.521c-.608.15-1.026.15-1.026.15.332.182.75.182 1.034.158.197-.016.332-.055.332-.055a4 4 0 0 1-.04.339 1.6 1.6 0 0 1-.095.316v.008c-.047.118-.11.221-.173.315-.008.008-.016.024-.024.032l.024-.016q.153-.085.308-.181c.079-.048.157-.103.228-.15q.19-.13.379-.284.012-.014.024-.016a4.715 4.715 0 0 0 .718-.774l.008-.008a1 1 0 0 0 .079-.11l.008-.008c.008-.016.016-.024.024-.039l.11-.158c.008-.016.016-.024.024-.04a.6.6 0 0 1 .055-.087c.016-.023.024-.039.04-.063.015-.023.031-.047.039-.071.024-.039.047-.087.071-.126l.024-.047.047-.095.024-.047.008-.016c.015-.04.039-.079.055-.119-.032.008-.047.024-.071.048m-7.198-3.181a3 3 0 0 0-.269.103 3.1 3.1 0 0 0-.789.457c-.031.024-.063.056-.095.079a2 2 0 0 0-.15.15l-.015.016-.024.024c-.016.023-.039.039-.055.063l-.024.024a1 1 0 0 0-.063.094c-.024.032-.04.063-.063.095-.15.26-.237.576-.213.955v-.016c0-.008 0-.016.008-.023v-.008c0-.008.007-.016.007-.032v-.008c0-.008.008-.024.008-.039 0-.016.008-.024.016-.04v-.008c.008-.015.008-.031.016-.047v-.008c.008-.016.008-.031.016-.047v-.008a.4.4 0 0 0 .023-.055l.008-.008c.008-.016.016-.04.032-.056l.047-.086c.008-.008.016-.024.024-.032l.008-.008.047-.071c.016-.016.032-.039.047-.055l.016-.016c.016-.016.024-.031.04-.039l.016-.016c.015-.016.039-.032.055-.055 0 0-.34.773-.19 1.381v-.119q-.002-.023.008-.047-.002-.024.008-.047v-.008c0-.016.008-.04.008-.055v-.016c.008-.024.008-.04.016-.063v-.008c.008-.024.016-.048.016-.063 0-.008.007-.016.007-.024l.008-.016.024-.055q.014-.035.04-.071c0-.008.007-.016.007-.016l.048-.071s-.016.189-.016.418c0 .04 0 .071.008.111q-.002.036.008.071c.016-.245.063-.474.126-.687.016-.055.04-.118.055-.173 0-.008.008-.016.008-.024.024-.055.04-.103.063-.158.008-.008.008-.016.016-.032.024-.047.047-.102.071-.149q.01-.012.008-.024.083-.154.166-.284c.008-.008.008-.016.016-.024.023-.032.047-.063.071-.103.008-.007.008-.015.015-.023.008-.008.008-.016.016-.024.032-.039.055-.079.087-.118.008-.008.008-.016.016-.016q.047-.061.095-.111c.039-.047.078-.086.118-.134.031-.031.055-.063.087-.087l.031-.031q.095-.096.19-.182c.173-.158.315-.26.363-.292-.032.008-.063.016-.103.024q-.07.036-.189.071" fill="#F2D2AC"/><path d="M436.191 141.313s0-.016-.008-.048c-.031-.11-.142-.379-.576-.339-.458.047-.616.418-.655.544-.008.024-.008.04-.008.04l.016.008c.055-.048.166-.048.268.023a.5.5 0 0 1 .111.103c.039.063.047.126.023.174l-.023.023s.016.008.047.016c.126.04.482.111.671-.134.008-.016.016-.024.024-.04-.04-.015-.056-.071-.056-.142 0-.031.008-.063.016-.102.024-.095.095-.15.15-.126m-2.281 3.378c-.3.063-.56.11-.758.142.008 0 .024 0 .032.008.339.039.876.094 1.523.055 1.184-.071 2.739-.442 4.152-1.721v-.008a.62.62 0 0 0-.142-.45q-.034-.035-.079-.071c-.008 0-.008-.007-.016-.007-.039-.024-.071-.04-.102-.064l-.072-.047v-.008a2.5 2.5 0 0 1-.299.355c-.04.04-.079.079-.127.119-.386.347-.892.647-1.436.884-.9.394-1.91.655-2.676.813m-7.482-2.06c-.016.008-.024.023-.04.031l-.015.016q-.026.024-.04.047l-.008.008-.047.071-.008.008c0 .008-.008.008-.008.016l-.023.047v.016c-.008.024-.024.047-.032.071a2 2 0 0 0-.063.182c-.008.015-.008.039-.016.047-.008.032-.016.063-.016.071 0-.024 0-.039.008-.063 0-.04.008-.087.008-.126a.5.5 0 0 1 .016-.103c0-.008 0-.024.008-.032 0-.015.008-.031.008-.047s.007-.031.007-.047v-.024c0-.016.008-.039.008-.055v-.055c0-.008 0-.016.008-.024a.3.3 0 0 0 .016-.079v-.008c.008-.016.008-.039.016-.055v-.008c.008-.04.024-.079.031-.118v-.016q-.002-.012.008-.024c.016-.063.04-.126.056-.181v-.008c.015-.048.039-.103.055-.15v-.008c.008-.024.016-.04.023-.063.016-.032.024-.064.04-.095q0-.01.024-.055c.008-.008.008-.024.015-.032.008-.016.016-.031.024-.055l.008-.016c-.008-.008-.024-.008-.032-.016h-.007l-.016-.008a2 2 0 0 0-.229-.086h-.016a1 1 0 0 0-.158-.032c-.031 0-.063-.008-.095-.008h-.078c-.04 0-.079.008-.119.008-.016 0-.023 0-.039.008-.016 0-.04.008-.056.008-.007 0-.015 0-.023.008-.016 0-.024.008-.04.008l-.079.023c-.007 0-.023.008-.031.008-.032.016-.071.024-.103.04-.016.007-.023.015-.039.015l-.048.024-.015.008a.2.2 0 0 0-.048.032.14.14 0 0 0-.047.031c-.016.008-.032.024-.047.032-.008.008-.024.015-.032.023-.024.024-.055.048-.079.071l-.039.04c-.024.024-.04.047-.064.071l-.007.008c-.008.016-.024.023-.032.039l-.024.024a1.4 1.4 0 0 0-.11.181c-.008.008-.008.016-.016.024-.016.032-.024.063-.039.095-.008.016-.008.024-.016.039 0 .008.008.016.008.024l.023.087v.016c.008.023.024.055.032.079q.045.117.103.213c.007.008.007.015.015.023v.008l.008.008a1 1 0 0 0 .071.118c.04.056.071.095.095.127l.016.016c0 .007.008.007.008.007l.015.016c0-.016-.007-.031-.007-.039a1.3 1.3 0 0 1-.032-.3v-.016c0-.063 0-.126.008-.181l.024.071c.007.031.023.063.031.094v.016c.047.134.103.245.158.332.063.11.118.181.158.228.008.008.016.016.016.024l.015.016a1.6 1.6 0 0 1-.039-.316v-.102c0-.048 0-.087.008-.127.016.071.039.142.063.205v.008c.087.229.189.395.26.498l.008.008q.022.023.032.047c.008.008.016.016.016.024l.015.015.008.008v-.016c0-.015-.008-.031-.008-.047l-.023-.158c0-.031-.008-.071-.008-.102v-.174c0-.039.008-.087.008-.126.008.023.016.055.023.079.008.015.016.039.024.055v.008l.008.008c.008.023.016.047.024.063a.4.4 0 0 0 .055.11c.024.048.039.087.063.119a.4.4 0 0 1 .032.055c.015.024.031.047.039.063q.022.024.032.047l.008.008c.007.016.023.024.031.04.008.008.016.016.016.023.016.016.024.032.031.032l.008.008v-.024l.024-.197v-.024c.008-.079.024-.15.04-.221q-.002-.01.007-.031v-.008q-.002-.012.008-.024c0-.016.008-.024.008-.039.008-.056.024-.111.032-.166l.023-.134v-.016c0-.008 0-.016.008-.016v-.016c0-.007.008-.023.008-.031q-.002-.012.008-.024c0-.016.008-.031.008-.039s.008-.024.008-.032c0-.016.008-.031.008-.039s0-.016.008-.024c0-.008 0-.016.008-.016 0-.016.007-.023.007-.031v-.024zm9.566 3.299c.11-.04.205-.071.284-.103.15-.063.229-.11.229-.126-.008-.016-.095-.008-.253.031-.079.016-.173.032-.292.064-.055.015-.118.023-.181.031s-.134.024-.205.032q-.214.033-.474.055l-.26.024c-.087.008-.182.008-.277.015a6 6 0 0 1-1.223-.086 2.7 2.7 0 0 1-.742-.261l-.008-.008c.126-.45.6-.513.6-.513l-.016-.008h-.024l-.181-.023c-.039-.008-.071-.008-.095-.016-.023 0-.047-.008-.055-.008-.284-.016-.442.221-.489.324l-.024.047a1 1 0 0 0-.079.316.88.88 0 0 0 .205.639c.111.134.3.253.545.347-.213-.134-.403-.394-.411-.797.245.103.521.166.734.205.45.087.892.095 1.279.071l.284-.023c.095-.016.182-.024.269-.032.173-.032.323-.055.473-.087.071-.016.142-.031.205-.055.071-.016.127-.032.182-.055" fill="#F2D2AC"/><path d="M435.623 140.657c.237.008.395.079.505.189.024-.102.04-.229.032-.371a1.1 1.1 0 0 0-.087-.387c-.016-.063-.111-.228-.229-.221-.15.008-.26.3-.237.648q.002.07.016.142m.395.892c0 .063.023.118.055.142.055.031.126-.032.158-.135 0-.007.008-.015.008-.023.023-.095 0-.19-.056-.213-.055-.032-.126.031-.158.134 0 .031-.007.063-.007.095m-1.074.173q.037.061.111.111c.102.063.213.071.276.016l.024-.024c.023-.048.015-.111-.024-.174a.3.3 0 0 0-.111-.102c-.102-.064-.213-.071-.268-.024q-.012.01-.024.031c-.023.04-.015.103.016.166m3.923 1.445q-.012 0 0 0m-.126 2.186q-.223.213-.506.402c-.813.553-1.949.987-2.754 1.09a6.4 6.4 0 0 1-1.713.047c-.3-.04-.56-.103-.789-.189-.245-.095-.434-.214-.545-.348a.93.93 0 0 1-.205-.639.9.9 0 0 1 .079-.316l.024-.047c.055-.103.205-.347.489-.324.008 0 .032 0 .055.008a.5.5 0 0 1 .095.016c.055.008.111.016.182.024h.023a8.2 8.2 0 0 0 2.242-.024 6.9 6.9 0 0 0 2.841-1.105c.047-.032.087-.063.134-.095l.466-.694c-1.413 1.286-2.968 1.657-4.152 1.728a7.7 7.7 0 0 1-1.523-.055c-.016 0-.024 0-.031-.008q-.153-.022-.245-.032c-.032 0-.055-.007-.071-.007a.7.7 0 0 0-.253.031.8.8 0 0 0-.402.3c-.127.174-.205.41-.205.647 0 .198.047.403.15.592.007.008.007.016.015.024l.04.063a.6.6 0 0 0 .063.079c.245.308.781.529 1.492.623a6.1 6.1 0 0 0 1.649-.031c1.8-.324 2.652-.908 3.047-1.31.031-.032.055-.056.079-.087.142-.166.205-.292.229-.339v-.008q.009-.024.007-.024z" fill="#664F44"/><path d="M433.018 139.117a.8.8 0 0 0-.181-.071l-.127-.023c-.015 0-.031 0-.047-.008-.213-.016-.395.016-.395.016-.039.008-.079.015-.11.031a1.26 1.26 0 0 0-.624.411c-.11.142-.189.292-.229.442-.007.015-.007.023-.007.039-.008.04-.024.079-.032.111a2 2 0 0 0-.039.331c0 .126.007.205.007.205.048-.11.103-.205.158-.3q.202-.343.427-.568c.284-.292.576-.45.797-.529.236-.079.402-.087.402-.087m3.418-.402-.008-.016a.5.5 0 0 0-.119-.11c-.11-.071-.26-.111-.465-.071 0 0-.245.055-.387.221 0 0 .426-.182.884.142.039.031.087.063.126.102.04.04.087.079.127.134 0 0-.016-.197-.135-.371a.1.1 0 0 0-.023-.031" fill="#E9B784"/><path d="M433.074 141.856c.166-.048.339-.095.537-.142.031-.15.039-.332.015-.529-.055-.458-.26-.813-.465-.789s-.324.418-.269.876c.032.237.095.442.182.584" fill="#664F44"/><path d="m432.133 131.541-.426.095.087.773-1.129-.576-.466.142.008.008 1.373 1.563.016-.008.016-.008.126-.079a.2.2 0 0 0 .048-.032q.094-.06.189-.11l-.584-.671.939.458c.032-.016.055-.032.087-.047l-.087-.671.426.497h.008c.04-.016.071-.04.111-.055l.016-.008.015-.008c.008 0 .016-.008.016-.008l.048-.024s.007 0 .007-.008c.048-.023.103-.047.15-.071z" fill="#FFD250"/><path d="m431.715 131.635.063-.015a1.5 1.5 0 0 0-.371-.103c-.284-.039-.648 0-1.058.103-.41.102-.876.284-1.365.528-.987.49-2.076 1.24-3.134 2.202-.371.332-.71.679-1.026 1.019l1.279 1.578c.347-.379.718-.758 1.128-1.128.545-.498 1.098-.94 1.642-1.319a13 13 0 0 1 1.555-.939l-.221-1.01.008-.568-.008-.008.466-.142.907.465-.023-.315z" fill="#4D9ED7"/><path d="m431.714 131.635-.158.347.024.324.221.11zm-.323 1.002.947.466-.363.205zm.947-.26.087.671.339-.174z" fill="#132134"/><path d="M435.907 132.133h.173a2 2 0 0 1 .474.063h.008l.016.008h.015c-.015-.008-.031-.024-.047-.031a2 2 0 0 0-.497-.127c-.853-.11-1.831.205-2.384.426-.031.016-.063.024-.094.04-.048.024-.095.039-.143.063q-.115.05-.244.111c-.016.007-.024.007-.04.015-.047.024-.102.048-.15.071 0 0-.008 0-.008.008l-.047.024c-.008 0-.016.008-.016.008h-.031l-.008.008a.6.6 0 0 0-.111.055h-.008c-.007.008-.015.008-.023.016h-.008c-.008 0-.016.008-.016.008-.055.031-.11.055-.166.086-.039.024-.079.04-.118.064h-.008c-.031.015-.055.031-.087.047-.094.047-.181.103-.276.158-.008.008-.016.008-.032.016-.007.007-.015.007-.023.015s-.016.008-.024.016l-.008.008c-.063.04-.126.071-.189.111a.14.14 0 0 0-.048.031l-.126.079-.016.008-.015.008-.356.237c-.197.134-.386.268-.576.41-.023.016-.047.039-.071.055-.497.371-.971.774-1.428 1.184-.482.442-.947.892-1.382 1.35-.236.237-.442.45-.599.623-.332.356-.513.576-.506.584 0 0 .032-.023.087-.079-.039.048-.087.103-.126.15a32 32 0 0 1 2.384-2.304c.52-.45 1.065-.884 1.625-1.287.245-.173.498-.347.75-.513.079-.055.166-.102.245-.158q.057-.035.126-.071c.024-.015.048-.031.071-.039.048-.024.087-.055.134-.079.04-.024.087-.047.127-.079.023-.016.047-.024.071-.039l.166-.095c.031-.016.063-.04.094-.055a9 9 0 0 1 .316-.166c.008-.008.016-.008.024-.016l.047-.024c.024-.007.039-.023.063-.031.008-.008.016-.008.024-.016l.047-.024s.008 0 .008-.008h.008c.047-.023.095-.047.134-.063.008 0 .016-.008.024-.015l.047-.024.158-.071c.016-.008.032-.016.039-.024.008 0 .016-.008.024-.008a.1.1 0 0 1 .047-.016c.064-.023.119-.055.182-.078.055-.024.103-.048.158-.071.3-.127.576-.229.836-.316.49-.134.924-.221 1.303-.237" fill="#fff"/></g><defs><filter id="b" x="607.531" y="95.756" width="90.551" height="21.381" filterUnits="userSpaceOnUse" color-interpolation-filters="sRGB"><feFlood flood-opacity="0" result="BackgroundImageFix"/><feBlend in="SourceGraphic" in2="BackgroundImageFix" result="shape"/><feGaussianBlur stdDeviation="4" result="effect1_foregroundBlur_1582_553"/></filter><filter id="c" x="280" y="90.996" width="22" height="22" filterUnits="userSpaceOnUse" color-interpolation-filters="sRGB"><feFlood flood-opacity="0" result="BackgroundImageFix"/><feBlend in="SourceGraphic" in2="BackgroundImageFix" result="shape"/><feGaussianBlur stdDeviation="2" result="effect1_foregroundBlur_1582_553"/></filter><filter id="d" x="91" y="132.996" width="18" height="18" filterUnits="userSpaceOnUse" color-interpolation-filters="sRGB"><feFlood flood-opacity="0" result="BackgroundImageFix"/><feBlend in="SourceGraphic" in2="BackgroundImageFix" result="shape"/><feGaussianBlur stdDeviation="2" result="effect1_foregroundBlur_1582_553"/></filter><filter id="e" x="115" y="276.996" width="22" height="22" filterUnits="userSpaceOnUse" color-interpolation-filters="sRGB"><feFlood flood-opacity="0" result="BackgroundImageFix"/><feBlend in="SourceGraphic" in2="BackgroundImageFix" result="shape"/><feGaussianBlur stdDeviation="2" result="effect1_foregroundBlur_1582_553"/></filter><filter id="f" x="511" y="328.996" width="22" height="22" filterUnits="userSpaceOnUse" color-interpolation-filters="sRGB"><feFlood flood-opacity="0" result="BackgroundImageFix"/><feBlend in="SourceGraphic" in2="BackgroundImageFix" result="shape"/><feGaussianBlur stdDeviation="2" result="effect1_foregroundBlur_1582_553"/></filter><filter id="g" x="766" y="331.996" width="18" height="18" filterUnits="userSpaceOnUse" color-interpolation-filters="sRGB"><feFlood flood-opacity="0" result="BackgroundImageFix"/><feBlend in="SourceGraphic" in2="BackgroundImageFix" result="shape"/><feGaussianBlur stdDeviation="2" result="effect1_foregroundBlur_1582_553"/></filter><filter id="h" x="1033" y="304.996" width="22" height="22" filterUnits="userSpaceOnUse" color-interpolation-filters="sRGB"><feFlood flood-opacity="0" result="BackgroundImageFix"/><feBlend in="SourceGraphic" in2="BackgroundImageFix" result="shape"/><feGaussianBlur stdDeviation="2" result="effect1_foregroundBlur_1582_553"/></filter><filter id="i" x="1183" y="127.996" width="22" height="22" filterUnits="userSpaceOnUse" color-interpolation-filters="sRGB"><feFlood flood-opacity="0" result="BackgroundImageFix"/><feBlend in="SourceGraphic" in2="BackgroundImageFix" result="shape"/><feGaussianBlur stdDeviation="2" result="effect1_foregroundBlur_1582_553"/></filter><filter id="j" x="969" y="88.996" width="18" height="18" filterUnits="userSpaceOnUse" color-interpolation-filters="sRGB"><feFlood flood-opacity="0" result="BackgroundImageFix"/><feBlend in="SourceGraphic" in2="BackgroundImageFix" result="shape"/><feGaussianBlur stdDeviation="2" result="effect1_foregroundBlur_1582_553"/></filter><filter id="k" x="420" y="185.996" width="22" height="22" filterUnits="userSpaceOnUse" color-interpolation-filters="sRGB"><feFlood flood-opacity="0" result="BackgroundImageFix"/><feBlend in="SourceGraphic" in2="BackgroundImageFix" result="shape"/><feGaussianBlur stdDeviation="2" result="effect1_foregroundBlur_1582_553"/></filter><filter id="l" x="663" y="208.996" width="18" height="18" filterUnits="userSpaceOnUse" color-interpolation-filters="sRGB"><feFlood flood-opacity="0" result="BackgroundImageFix"/><feBlend in="SourceGraphic" in2="BackgroundImageFix" result="shape"/><feGaussianBlur stdDeviation="2" result="effect1_foregroundBlur_1582_553"/></filter><filter id="m" x="868" y="184.996" width="22" height="22" filterUnits="userSpaceOnUse" color-interpolation-filters="sRGB"><feFlood flood-opacity="0" result="BackgroundImageFix"/><feBlend in="SourceGraphic" in2="BackgroundImageFix" result="shape"/><feGaussianBlur stdDeviation="2" result="effect1_foregroundBlur_1582_553"/></filter><filter id="q" x="1003" y="197.996" width="80" height="80" filterUnits="userSpaceOnUse" color-interpolation-filters="sRGB"><feFlood flood-opacity="0" result="BackgroundImageFix"/><feColorMatrix in="SourceAlpha" values="0 0 0 0 0 0 0 0 0 0 0 0 0 0 0 0 0 0 127 0" result="hardAlpha"/><feOffset/><feGaussianBlur stdDeviation="2.5"/><feComposite in2="hardAlpha" operator="out"/><feColorMatrix values="0 0 0 0 0 0 0 0 0 0 0 0 0 0 0 0 0 0 0.1 0"/><feBlend in2="BackgroundImageFix" result="effect1_dropShadow_1582_553"/><feBlend in="SourceGraphic" in2="effect1_dropShadow_1582_553" result="shape"/></filter><clipPath id="a"><path fill="#fff" d="M604 0h90.69v90.69H604z"/></clipPath><clipPath id="n"><path fill="#fff" d="M112 200.996h30v30h-30z"/></clipPath><clipPath id="p"><path fill="#fff" d="M502 246.996h39.92v40H502z"/></clipPath><clipPath id="r"><path fill="#fff" d="M1025 217.996h35.072v40H1025z"/></clipPath><clipPath id="s"><path fill="#fff" d="M1184 72.996h21.468v20H1184z"/></clipPath><clipPath id="t"><path fill="#fff" d="M422 130.996h17.688v20H422z"/></clipPath></defs></svg>