<svg version="1.1" id="Layer_1" xmlns="http://www.w3.org/2000/svg" x="0" y="0" width="2279.4" height="1442.2" viewBox="0 0 2279.4 1442.2" xml:space="preserve"><style>.st0,.st1,.st2,.st3{fill-rule:evenodd;clip-rule:evenodd;fill:#1b3771}.st1,.st2,.st3{fill:#e9b040}.st2,.st3{fill:#cc2131}.st3{fill:#fff}</style><path class="st0" d="M0 1442.2h2279.4V0H0z"/><path class="st1" d="M1141.5 1181.9c110 100.2 257.9 161.3 418 161.3 344.7 0 623.3-278.7 623.3-623.3 0-343.4-278.6-623.3-623.3-623.3-160.1 0-308 61.1-418 161.3-125.9 114.9-205.3 278.7-205.3 462s79.4 348.3 205.3 462"/><path class="st1" d="M2099.8 1067c0-11 8.5-19.6 20.8-19.6 11 0 19.6 8.6 19.6 19.6s-8.6 20.8-19.6 20.8c-11.4.1-20.7-9.1-20.8-20.4zm20.7 15.9c7.3 0 14.7-7.3 14.7-15.9s-7.3-14.7-14.7-14.7c-8.6 0-15.9 6.1-15.9 14.7 0 8.5 7.4 15.9 15.9 15.9m-3.6-6.1h-3.7v-18.3h7.3c1.2 0 3.7 0 4.9 1.2s2.4 2.5 2.4 3.7c0 2.5-1.2 4.9-3.6 4.9l3.6 8.6h-4.9l-2.4-7.3h-3.7zm0-11h4.9c1.2 0 1.2-1.2 1.2-2.5 0 0 0-1.2-1.2-1.2h-4.9z"/><path class="st2" d="M1343.2 653.9c-2.5-22.2-6.1-44.2-11-66H950.9q7.5-33.45 18.3-66h344.7c-7.5-22.4-16.1-44.4-25.7-66H994.9c11.3-22.5 23.5-44.5 36.7-66h220c-13.7-23.5-29.6-45.6-47.7-66h-124.7c18.3-23.2 40.3-45.2 62.3-66-110-100.2-256.7-161.3-418-161.3-344.7 0-623.3 279.9-623.3 623.3 0 344.7 278.7 623.3 623.3 623.3 161.3 0 308-61.1 418-161.3 22-20.8 44-42.8 63.6-66h-125.9c-17.2-21-33.2-43-47.7-66h220c13.7-21.2 25.9-43.2 36.7-66H994.9c-10-21.4-18.6-43.4-25.7-66h344.7c7.2-21.7 13.4-43.7 18.3-66 4.9-22 8.5-44 11-66 4.9-43.9 4.9-88.2 0-132"/><path class="st3" d="M2099.8 864.1c0-11 8.5-19.6 20.8-19.6 11 0 19.6 8.6 19.6 19.6s-8.6 20.8-19.6 20.8c-11.4.1-20.7-9-20.8-20.4zm20.7 15.9c7.3 0 14.7-7.3 14.7-15.9s-7.3-14.7-14.7-14.7c-8.6 0-15.9 6.1-15.9 14.7 0 8.5 7.4 15.9 15.9 15.9m-3.6-6.1h-3.7v-18.3h7.3c1.2 0 3.7 0 4.9 1.2s2.4 2.5 2.4 3.7c0 2.5-1.2 4.9-3.6 4.9l3.6 8.6h-4.9l-2.4-7.3h-3.7zm0-11h4.9c1.2 0 1.2-1.2 1.2-2.5 0 0 0-1.2-1.2-1.2h-4.9z"/><path class="st0" d="M930.1 899.5c-20.8 6.1-35.4 8.6-51.3 8.6-31.8 0-51.3-19.6-51.3-56.2 0-7.3 1.2-14.7 2.4-23.2l3.7-24.4 3.7-20.8 29.3-176h64.8l-7.3 39.1h40.3l-9.8 64.8h-40.3L896 816.5c0 3.7-1.2 7.3-1.2 9.8 0 13.4 7.3 19.6 23.2 19.6 8.6 0 13.4-1.2 20.8-2.5zm209-2.4c-22.5 7.2-46 11-69.7 11-72.1 0-114.9-39.1-114.9-114.9 0-88 50.1-154 118.6-154 55 0 90.4 36.7 90.4 94.1 0 18.3-2.4 36.7-8.5 63.6h-134.5v7.3c0 30.5 19.6 45.2 58.7 45.2 24.4 0 46.4-4.9 70.9-15.9zm-40.3-152.8v-12.2c0-20.8-12.2-33-31.8-33-22 0-36.7 15.9-42.8 45.2zM413.1 903.2h-67.2L385 660l-86.8 243.2h-46.4l-4.9-242-41.6 242h-64.8l52.6-316.6h96.5l3.7 195.6 64.8-195.6h107.6zm162.6-114.9c-7.3 0-8.6-1.2-13.4-1.2-37.9 0-57.4 14.7-57.4 39.1 0 17.1 9.8 26.9 24.4 26.9 32.9 0 45.1-26.9 46.4-64.8m53.7 114.9h-58.7l1.2-26.9c-14.7 20.8-34.2 31.8-70.9 31.8-33 0-59.9-29.3-59.9-70.9 0-12.2 2.4-23.2 4.9-33 11-40.3 51.3-64.8 112.4-66 7.3 0 19.6 0 29.3 1.2 2.4-8.5 2.4-12.2 2.4-17.1 0-17.1-13.4-22-45.2-22-19.6 0-40.3 3.7-56.2 7.3l-8.5 3.7h-4.9l9.8-57.4c31.8-9.8 53.8-13.4 78.2-13.4 58.7 0 89.2 25.7 89.2 75.8 0 12.2 1.2 22-3.7 50.1L635.5 858l-2.4 15.9-2.4 13.4v8.6zM1464.2 649c18.3 0 35.4 4.9 59.9 17.1l11-69.7c-6.1-2.4-7.3-2.4-15.9-6.1l-28.1-6.1c-8.6-2.4-18.3-3.7-30.5-3.7-33 0-52.6 0-73.3 13.4-11 6.1-24.4 15.9-40.3 33l-7.3-2.5-69.7 48.9 3.7-26.9h-72.1l-40.3 256.7h67.2l24.4-138.1s9.8-19.6 14.7-25.7c12.2-15.9 23.2-15.9 36.7-15.9h4.9c-1.2 14.7-2.5 31.8-2.5 48.9 0 84.3 47.7 136.9 121 136.9 18.3 0 34.2-2.5 58.7-9.8l12.2-72.1c-22 11-40.3 15.9-57.4 15.9-39.1 0-62.3-28.1-62.3-77-.3-68.3 34-117.2 85.3-117.2m570.8-62.4-14.7 90.5c-15.9-24.4-35.4-35.4-61.1-35.4-35.4 0-68.4 19.6-89.2 57.4l-42.8-25.7 3.7-26.9h-72.1l-41.5 256.7h68.4l22-138.1s17.1-19.6 22-25.7c9.8-12.2 20.8-15.9 29.3-15.9-8.1 24.4-12.2 50-12.2 75.8 0 64.8 34.2 107.5 83.1 107.5 24.4 0 44-8.5 62.3-29.3l-3.7 25.7h64.8l51.3-316.6zm-81.9 255.5c-23.2 0-34.2-15.9-34.2-50.1 0-50.1 20.8-86.8 52.5-86.8 23.2 0 35.5 18.3 35.5 51.3 0 50.2-22 85.6-53.8 85.6m-311.7-53.8c-7.3 0-8.5-1.2-13.4-1.2-37.9 0-57.5 14.7-57.5 39.1 0 17.1 9.8 26.9 24.4 26.9 33.1 0 45.3-26.9 46.5-64.8m53.8 114.9h-58.6l1.2-26.9c-14.7 20.8-34.2 31.8-70.9 31.8-33 0-62.3-28.1-62.3-70.9 1.2-61.1 46.4-99 119.8-99 7.3 0 19.6 0 29.3 1.2 2.5-8.5 2.5-12.2 2.5-17.1 0-17.1-13.4-22-45.2-22-19.6 0-41.5 3.7-56.2 7.3l-9.8 3.7h-3.7l9.8-57.4c31.8-9.8 53.8-13.4 78.2-13.4 58.7 0 89.2 25.7 89.2 75.8 0 12.2 1.2 22-3.7 50.1l-13.4 91.7-2.5 15.9-2.4 13.4-1.2 8.6v7.2zM770 701.5c13.4 0 31.8 1.2 51.3 3.7l9.8-59.9c-19.6-2.4-45.2-4.9-61.1-4.9-74.6 0-100.2 40.3-100.2 88 0 30.5 14.7 53.8 50.1 69.7 28.1 13.4 33 15.9 33 26.9 0 15.9-14.7 25.7-41.6 25.7-19.5 0-37.9-3.7-59.9-9.8l-7.3 58.7h1.2l12.2 2.5c3.7 1.2 9.8 2.4 17.1 2.4 17.1 2.4 30.5 2.4 39.1 2.4 74.6 0 106.3-28.1 106.3-85.5 0-35.4-17.1-56.2-51.3-70.9-28-13.5-31.7-14.7-31.7-27 0-12.2 12.2-22 33-22"/><path class="st3" d="m1553.4 576.9-11 68.4c-24.4-12.2-41.5-17.1-59.9-17.1-51.3 0-86.8 48.9-86.8 118.6 0 47.7 24.4 77 63.5 77 17.1 0 35.5-4.9 57.5-15.9l-12.2 72.1c-24.4 6.1-40.3 8.6-59.9 8.6-72.1 0-117.3-51.3-117.3-135.7 0-113.7 62.3-191.9 151.5-191.9 12.2 0 22 1.2 30.6 2.4l28.1 7.3c8.6 3.7 9.8 3.7 15.9 6.2m-216.3 47.6c-2.5-1.2-4.9-1.2-7.3-1.2-22 0-34.2 11-55 41.6l6.1-39.1h-62.3l-40.3 257.9h67.2c24.4-157.7 30.5-184.6 63.6-184.6h4.9c6.1-30.6 13.4-53.8 25.7-74.6zM947.2 880c-18.3 6.1-33 8.6-48.9 8.6-34.2 0-53.8-19.6-53.8-56.2 0-7.3 1.2-14.7 2.4-23.2l3.7-25.7 3.7-19.6 29.3-176h67.2l-7.3 37.9h34.2l-9.8 63.6h-34.2l-18.3 106.3c0 4.9-1.2 8.6-1.2 11 0 13.4 7.3 19.6 23.2 19.6 8.6 0 13.4-1.2 18.3-2.5zM686.9 707.7c0 31.8 15.9 55 51.3 70.9 28.1 13.4 31.8 17.1 31.8 29.3 0 15.9-12.2 23.2-39.1 23.2-19.6 0-37.9-3.7-59.9-11l-9.8 59.9h3.7l12.2 2.5c5.5 1.7 11.3 2.5 17.1 2.4 15.9 1.2 29.3 2.4 37.9 2.4 70.9 0 103.9-26.9 103.9-85.5 0-35.4-13.4-56.2-47.7-72.1-28.1-12.2-31.8-15.9-31.8-26.9 0-14.7 11-22 33-22 13.4 0 31.8 2.4 48.9 4.9l9.8-59.9c-17.1-2.4-44-4.9-59.9-4.9-75.8 0-101.4 39.1-101.4 86.8m1383.5 176h-64.8l3.6-25.7c-18.3 19.6-37.9 28.1-62.3 28.1-48.9 0-81.9-41.5-81.9-106.3 0-85.6 50.1-157.7 110-157.7 26.9 0 46.5 11 64.8 35.4l14.7-90.5h67.2zm-100.2-61.2c31.8 0 53.8-35.4 53.8-86.8 0-31.8-12.2-50.1-35.4-50.1-30.5 0-52.6 35.4-52.6 86.8 0 33 11 50.1 34.2 50.1m-816.4 55c-23.2 7.3-45.2 11-69.7 11-75.8 0-114.9-40.3-114.9-114.9 0-89.2 50.1-154 118.6-154 55 0 90.4 36.7 90.4 94.1 0 18.3-2.4 36.7-7.3 63.6h-134.4c-1.2 3.7-1.2 4.9-1.2 7.3 0 29.3 19.6 45.2 59.9 45.2 23.2 0 45.2-4.9 69.7-15.9zm-37.9-152.7v-13.4c0-20.8-11-33-31.8-33s-36.7 17.1-42.8 46.4zM430.2 883.7H363l39.1-243.2-86.8 243.2h-46.4l-4.9-242-41.6 242h-62.3l52.6-316.6h96.5l3.7 195.6 64.8-195.6h105.1zm167.5-114.9c-7.3-1.2-11-1.2-15.9-1.2-37.9 0-57.4 13.4-57.4 39.1 0 15.9 9.8 26.9 24.4 26.9 28.1 0 47.6-26.9 48.9-64.8m48.8 114.9h-56.2l1.2-26.9c-17.1 20.8-39.1 30.5-70.9 30.5-36.7 0-61.1-28.1-61.1-69.7 0-62.3 42.8-99 118.6-99 7.3 0 17.1 0 26.9 1.2 2.4-7.3 2.4-11 2.4-15.9 0-17.1-11-23.2-42.8-23.2-19.6 0-41.6 2.4-56.2 7.3l-9.8 2.4-6.1 1.2 9.8-57.4c34.2-9.8 56.2-13.4 80.7-13.4 58.7 0 89.2 25.7 89.2 74.6 0 13.4-1.2 23.2-6.1 51.3l-13.4 91.7-2.4 15.9-1.2 13.4-1.2 8.6zm1016.9-114.9c-7.3-1.2-11-1.2-15.9-1.2-37.9 0-57.5 13.4-57.5 39.1 0 15.9 9.8 26.9 24.4 26.9 27 0 47.8-26.9 49-64.8m48.9 114.9h-56.2l1.2-26.9c-17.1 20.8-40.3 30.5-70.9 30.5-36.7 0-62.3-28.1-62.3-69.7 0-62.3 44-99 119.8-99 7.3 0 17.1 0 26.9 1.2 2.5-7.3 2.5-11 2.5-15.9 0-17.1-11-23.2-42.8-23.2-19.6 0-41.5 2.4-56.2 7.3l-9.8 2.4-6.1 1.2 9.8-57.4c34.2-9.8 56.2-13.4 80.7-13.4 58.7 0 89.2 25.7 89.2 74.6 0 13.4-1.2 23.2-6.1 51.3l-13.4 91.7-2.4 15.9-2.5 13.4-1.2 8.6zm180.9-259.2c-1.2-1.2-3.7-1.2-6.1-1.2-22 0-35.4 11-56.2 41.6l6.1-39.1h-61.1l-41.6 257.9h68.4c23.2-157.7 30.6-184.6 62.3-184.6h4.9c6.1-30.6 14.7-53.8 25.7-74.6z"/></svg>