<svg width="93" height="93" viewBox="0 0 93 93" fill="none" xmlns="http://www.w3.org/2000/svg"><g clip-path="url(#a)"><path d="M36.565 9.037 1.69 13.567A1.94 1.94 0 0 0 0 15.505V42.63c0 1.07.868 1.937 1.938 1.937h34.875c1.07 0 1.937-.867 1.937-1.937V10.955c0-.556-.24-1.085-.659-1.453a1.98 1.98 0 0 0-1.526-.465" fill="#F44336"/><path d="M92.341 2.427a1.94 1.94 0 0 0-1.526-.485l-46.5 6.065a1.937 1.937 0 0 0-1.69 1.937V42.63c0 1.07.868 1.938 1.938 1.938h46.5c1.07 0 1.937-.868 1.937-1.938V3.88c0-.557-.24-1.086-.659-1.453" fill="#7FBA00"/><path d="M36.813 48.442H1.938C.868 48.442 0 49.31 0 50.38v27.125a1.94 1.94 0 0 0 1.69 1.937l34.875 4.55q.123.007.247 0c1.07 0 1.938-.868 1.938-1.938V50.38c0-1.07-.867-1.938-1.937-1.938" fill="#2196F3"/><path d="M91.063 48.442h-46.5c-1.07 0-1.938.868-1.938 1.938v32.685a1.94 1.94 0 0 0 1.69 1.938l46.5 6.064q.123.009.247 0c1.07 0 1.938-.867 1.938-1.937V50.38c0-1.07-.867-1.938-1.937-1.938" fill="#FFC107"/></g><defs><clipPath id="a"><path fill="#fff" d="M0 0h93v93H0z"/></clipPath></defs></svg>