<svg version="1.1" id="Layer_1" xmlns="http://www.w3.org/2000/svg" x="0" y="0" width="508.8" height="496" viewBox="0 0 508.8 496" xml:space="preserve"><style>.st0{fill:#fff}</style><path class="st0" d="M470.4 68.5s-.1 0 0 0l-66.2-12.3c-.1 0-.1-.1-.1-.1 0-.1 0-.1.1-.2L469.4 0c.1 0 .1-.1.2 0 .1 0 .1.1.1.2l.8 68.1c0 .1 0 .1-.1.1zm-65.8-12.6 65.6 12.2-.8-67.5zM340.4 135.6c-.1 0-.1 0-.1-.1v-.2l24.5-51.5c0-.1.1-.1.1-.1.1 0 .1 0 .2.1l32.4 42.7v.2c0 .1-.1.1-.1.1zm24.5-51.4-24.2 51 56.3-8.7z"/><path class="st0" d="M397.3 126.7s-.1 0-.1-.1l-.1-.1 6.9-70.6c0-.1.1-.1.1-.2.1 0 .1 0 .2.1l49.3 64v.2c0 .1-.1.1-.1.1zm7-70.3-6.8 69.9 55.6-6.5z"/><path class="st0" d="M397.3 126.7c-.1 0-.1 0-.1-.1L364.7 84v-.1s0-.1.1-.1l39.3-27.9h.2c.1 0 .1.1.1.2l-6.9 70.6c-.1-.1-.1 0-.2 0m-32.2-42.8 32 42.2 6.8-69.8zM497.1 124.7l-43.7-4.5c-.1 0-.1 0-.1-.1v-.2l16.9-51.7c0-.1.1-.1.2-.1s.1 0 .2.1l26.8 56.2v.2c-.1 0-.2.1-.3.1m-43.4-4.9 43.2 4.4-26.5-55.5z"/><path class="st0" d="M453.5 120.2c-.1 0-.1 0-.1-.1l-49.3-64v-.2c0-.1.1-.1.2-.1l66.2 12.3s.1 0 .1.1v.1L453.7 120zm-48.9-64 48.8 63.4 16.7-51.2zM360.5 162l-48.8-10c-.1 0-.1-.1-.1-.1 0-.1 0-.1.1-.2l28.6-16.4h.2l20.2 26.4v.2s-.1.1-.2.1m-48.2-10.3 47.8 9.8-19.8-25.9z"/><path class="st0" d="M360.5 162c-.1 0-.1 0-.2-.1v-.2l36.7-35.2s.1-.1.2 0c.1 0 .1.1.1.1l11.3 28.7v.2l-.1.1zc.1 0 0 0 0 0m36.7-35.1L361 161.5l47.3-6.4z"/><path class="st0" d="M360.5 162c-.1 0-.1 0-.1-.1l-20.2-26.4v-.2c0-.1.1-.1.1-.1l56.9-8.8c.1 0 .2 0 .2.1v.2l-36.7 35.2c-.1 0-.1.1-.2.1m-19.8-26.5 19.9 26 36.2-34.7zM425.1 162.3q-.15 0 0 0l-16.5-6.9c-.1 0-.1-.1-.1-.1 0-.1 0-.1.1-.2l44.9-35.3c.1-.1.2-.1.2 0 .1.1.1.2 0 .2l-28.4 42.1c-.1.2-.2.2-.2.2m-16.2-7.1 16 6.7 27.7-41.1z"/><path class="st0" d="M408.6 155.5c-.1 0-.1-.1-.2-.1l-11.3-28.7v-.2l.1-.1 56.2-6.6c.1 0 .2 0 .2.1s0 .2-.1.2l-44.9 35.3c.1.1 0 .1 0 .1m-11.1-28.8 11.1 28.3 44.2-34.8zM425.1 162.3c-.1 0-.2-.1-.2-.1 0-.1 0-.2.1-.2l72.1-37.6h.2c.1.1.1.1 0 .2l-17 36.6c0 .1-.1.1-.2.1zm71.7-37.4-71 37.1 54.2-1z"/><path class="st0" d="M425.1 162.3s-.1 0-.1-.1c-.1-.1-.1-.1 0-.2l28.4-42.1c0-.1.1-.1.2-.1l43.7 4.5c.1 0 .1.1.2.1 0 .1 0 .2-.1.2zm28.4-42.1-28 41.5 71-37zM288.9 225.7l-50-18.9c-.1 0-.1-.1-.1-.1 0-.1 0-.1.1-.2l72.8-54.8h.2c.1 0 .1.1.1.2l-22.9 73.7s-.1 0-.2.1c.1 0 0 0 0 0m-49.6-19.2 49.5 18.8 22.7-73.1z"/><path class="st0" d="M288.9 225.7c-.1 0-.1 0-.2-.1v-.2l71.6-63.7c.1-.1.2-.1.2 0 .1.1.1.1 0 .2l-24.7 48.7-.1.1zm71.1-63.2L289.7 225l46-14.7z"/><path class="st0" d="M288.9 225.7s-.1 0 0 0c-.2-.1-.2-.2-.2-.2l22.9-73.8c0-.1.1-.1.2-.1l48.7 10c.1 0 .1.1.1.1 0 .1 0 .1-.1.2L289 225.6c0 .1 0 .1-.1.1m23-73.7-22.7 73 70.9-63.1zM386.4 214.7l-50.6-4c-.1 0-.1-.1-.2-.1 0-.1 0-.1.1-.2l72.8-55.2h.2c.1 0 .1.1.1.2l-22.2 59.2c0 .1-.1.1-.2.1m-50.1-4.3 50 4 21.9-58.5z"/><path class="st0" d="M335.8 210.7h-.1c-.1-.1-.1-.1 0-.2l24.7-48.7c0-.1.1-.1.1-.1l48.1-6.5c.1 0 .2 0 .2.1s0 .2-.1.2l-72.8 55.2zm24.9-48.8-24.4 48 71.7-54.3zM415.3 234.3s-.1-.1 0 0l-29-19.6-.1-.1v-.1l38.6-52.4c0-.1.1-.1.2-.1s.1.1.1.2l-9.8 72c.2 0 .1 0 0 .1.1 0 0 0 0 0m-28.6-19.8 28.5 19.3 9.6-71z"/><path class="st0" d="M386.4 214.7c-.2-.1-.2-.2-.2-.2l22.2-59.2.1-.1h.1l16.5 6.8.1.1v.2l-38.6 52.4zm22.3-59.2L387 213.4l37.8-51.2zM415.3 234.3c-.1 0-.1 0-.1-.1v-.2l64.8-73 .1-.1c.1 0 .1 0 .1.1l28.5 42.7v.2c0 .1-.1.1-.1.1zm64.8-72.9-64.2 72.3 92.4-29.9z"/><path class="st0" d="M415.3 234.3c-.1 0-.2-.1-.2-.2l9.8-72c0-.1.1-.2.2-.2l55.1-1c.1 0 .1 0 .2.1v.2l-64.8 72.9c-.2.1-.2.2-.3.2m9.9-72-9.7 71.2 64.2-72.2zM185.8 298.3s-.1 0-.1-.1c-.1-.1-.1-.1 0-.2l53.2-91.5c0-.1.1-.1.2-.1s.1.1.1.2l-5.8 64.5c0 .1 0 .1-.1.1zm52.9-91-52.5 90.3L233 271z"/><path class="st0" d="M277.8 288q-.15 0 0 0l-44.6-16.7c-.1 0-.1-.1-.1-.1 0-.1 0-.1.1-.2l55.7-45.6c.1 0 .1-.1.2 0 .1 0 .1.1.1.2L278 287.9c-.1 0-.1.1-.2.1m-44.2-16.9 44.1 16.6 11-61.7z"/><path class="st0" d="M233.2 271.3c-.1-.1-.2-.1-.2-.2l5.8-64.5c0-.1 0-.1.1-.1h.2l49.9 18.9c.1 0 .1.1.1.1 0 .1 0 .1-.1.2l-55.7 45.6zm5.9-64.5-5.7 63.9 55.1-45.2zM277.8 288h-.1c-.1-.1-.1-.2 0-.2l58-77.3c.1-.1.1-.1.2 0 .1 0 .1.1.1.2l-15 43s0 .1-.1.1l-43 34.3zm57.5-76.5-56.5 75.3 41.9-33.4z"/><path class="st0" d="M277.8 288q-.15 0 0 0c-.1 0-.2-.1-.2-.2l11.2-62.3c0-.1.1-.1.1-.1l46.9-15c.1 0 .2 0 .2.1v.2L278 288zm11.3-62.4-11 61.5 57.3-76.3zM400.6 255.1l-79.8-1.4c-.1 0-.1-.1-.2-.1 0-.1 0-.2.1-.2l65.7-39h.1l.1.1 14.1 40.4v.2c0-.1-.1 0-.1 0m-79.2-1.7 78.9 1.3-14-39.9z"/><path class="st0" d="M320.8 253.7h-.1c-.1 0-.1-.1-.1-.2l15-43c0-.1.1-.1.2-.1l50.6 4c.1 0 .1.1.2.1 0 .1 0 .2-.1.2zm15.1-43-14.8 42.4 64.8-38.5zM435.4 258.5l-34.9-3.4c-.1 0-.1 0-.1-.1v-.2l14.7-20.8.1-.1c.1 0 .1 0 .1.1l20.1 24.2c0 .1.1.1 0 .2.1 0 .1.1 0 .1m-34.5-3.8 34.1 3.4-19.7-23.7z"/><path class="st0" d="M400.6 255.1c-.1 0-.1-.1-.2-.1l-14.1-40.4c0-.1 0-.2.1-.2h.2l28.9 19.6.1.1v.1L400.7 255zM386.8 215l13.9 39.5 14.4-20.4zM435.4 258.5c-.1 0-.1 0-.2-.1 0-.1 0-.2.1-.2l73.2-54.4c.1-.1.2 0 .2 0 .1.1.1.2 0 .2l-30.5 46.5-.1.1zm72.5-53.9L436.1 258l41.8-7.7z"/><path class="st0" d="M435.4 258.5c-.1 0-.1 0-.1-.1l-20.1-24.2v-.2c0-.1.1-.1.1-.1l93.3-30.2c.1 0 .2 0 .2.1s0 .2-.1.2l-73.2 54.4c0 .1-.1.1-.1.1m-19.8-24.3 19.8 23.9 72.2-53.7zM133.6 332.8c-.1 0-.1 0-.2-.1 0-.1 0-.2.1-.2l52.1-34.6h.2l24 23.7s.1.1 0 .2c0 .1-.1.1-.1.1zc.1 0 0 0 0 0m52.1-34.5-51.3 34.1 75-10.7z"/><path class="st0" d="M209.8 322c-.1 0-.1 0-.1-.1s-.1-.1 0-.2l23.5-50.7c0-.1.1-.1.2-.1s.1.1.2.1l11.3 41.1c0 .1 0 .2-.1.2zm23.4-50.4-23.1 50 34.3-9.5z"/><path class="st0" d="M209.8 322s-.1 0-.1-.1l-24-23.7-.1-.1s0-.1.1-.1l47.5-27h.2c.1.1.1.1 0 .2l-23.5 50.7c0 .1-.1.1-.1.1M186 298.1l23.7 23.4 23.1-50zM303.7 324.3l-59.2-11.9c-.1 0-.1-.1-.1-.1 0-.1 0-.1.1-.2l33.2-24.4h.1s.1 0 .1.1l25.9 36.3v.2zM245 312.1l58.3 11.8-25.6-35.8z"/><path class="st0" d="M244.6 312.4q-.15 0 0 0c-.1 0-.2-.1-.2-.1L233 271.2c0-.1 0-.1.1-.2s.1-.1.2 0l44.5 16.7c.1 0 .1.1.1.1 0 .1 0 .1-.1.2zm-11.1-41 11.2 40.5 32.7-24zM303.7 324.3h-.1s-.1-.1-.1-.2l17.1-70.6c0-.1.1-.1.2-.1s.2.1.1.2l-7.2 67.2c0 .1-.1.1-.1.1zm16.6-68.1-16.4 67.7 9.5-3.3z"/><path class="st0" d="M303.7 324.3c-.1 0-.1 0-.1-.1l-25.9-36.3c-.1-.1 0-.2 0-.2l43-34.3c.1 0 .1-.1.2 0 .1 0 .1.1.1.2l-17.1 70.6c-.1.1-.1.1-.2.1M278 287.9l25.6 35.9 16.9-69.8zM390.2 327.9l-76.7-7c-.1 0-.1-.1-.2-.1 0-.1 0-.1.1-.2l87-65.8h.2c.1 0 .1.1.1.2l-10.3 72.8s-.1.1-.2.1m-76.1-7.3 76 6.9 10.2-72.2z"/><path class="st0" d="M313.6 320.9s-.1 0 0 0c-.1-.1-.2-.1-.2-.2l7.2-67.2c0-.1.1-.2.2-.2l79.8 1.4c.1 0 .1.1.2.1 0 .1 0 .1-.1.2l-87 65.8c0 .1-.1.1-.1.1m7.3-67.2-7.1 66.6L400 255zM390.2 327.9c-.1 0-.1 0-.2-.1v-.2l45.2-69.4c0-.1.1-.1.2-.1s.1.1.1.2l-5.9 66.3c0 .1-.1.2-.2.2zc.1 0 0 0 0 0m45-68.9-44.6 68.5 38.8-3z"/><path class="st0" d="M390.2 327.9c-.1 0-.2-.1-.2-.2l10.3-72.8c0-.1.1-.2.2-.2l34.8 3.4c.1 0 .1 0 .1.1v.2l-45.2 69.4c.2 0 .1.1 0 .1m10.5-72.8-10.2 71.8 44.6-68.5zM481.9 336.3l-52.4-11.6c-.1 0-.1-.1-.1-.1v-.2l48.5-74.2c0-.1.1-.1.2-.1s.1.1.1.2l3.9 85.7c0 .1 0 .1-.1.1 0 .2-.1.2-.1.2m-52.1-11.8 51.9 11.5-3.8-85z"/><path class="st0" d="M429.5 324.8c-.1 0-.2-.1-.2-.2l5.9-66.3c0-.1.1-.1.1-.2l42.7-7.9c.1 0 .1 0 .2.1v.2l-48.5 74.2c0 .1-.1.1-.2.1m6.1-66.3-5.8 65.5 47.9-73.3zM101.5 379.1c-.1 0-.1 0-.1-.1v-.2l32.2-46.3.1-.1c.1 0 .1 0 .1.1l23.4 37.1v.2c0 .1-.1.1-.1.1zm32.1-46.1-31.8 45.7 54.9-9z"/><path class="st0" d="M183.9 371.3 157 370c-.1 0-.1 0-.2-.1v-.2l52.7-47.9c.1-.1.2-.1.2 0 .1.1.1.1 0 .2L184 371.2c0 .1 0 .1-.1.1m-26.4-1.7 26.3 1.3 25.3-48.3z"/><path class="st0" d="M157 370c-.1 0-.1 0-.1-.1l-23.4-37.1v-.2c0-.1.1-.1.1-.1l76.1-10.8c.1 0 .2 0 .2.1v.2l-52.7 47.9c-.1 0-.1.1-.2.1m-23.1-37.2 23.1 36.7 52.1-47.4zM183.9 371.3c-.1 0-.1 0-.2-.1v-.2l60.7-58.9s.1-.1.2 0c.1 0 .1.1.1.1l13.9 41.5v.1l-.1.1zm60.6-58.8-60 58.3 73.8-17.2z"/><path class="st0" d="M183.9 371.3h-.1c-.1-.1-.1-.1-.1-.2l25.9-49.3.1-.1 34.8-9.6c.1 0 .2 0 .2.1v.2L184 371.2c0 .1-.1.1-.1.1m26-49.3-25.3 48.2 59.4-57.7zM293.6 377.5s-.1 0 0 0l-35.2-23.6-.1-.1c0-.1 0-.1.1-.1l45.2-29.6h.2c.1 0 .1.1.1.2l-10.1 53.1s-.1 0-.2.1c.1 0 0 0 0 0m-34.8-23.8 34.7 23.3 10-52.5z"/><path class="st0" d="M258.5 353.9q-.15 0 0 0c-.1 0-.1-.1-.2-.1l-13.9-41.5v-.2s.1-.1.2-.1l59.1 11.9c.1 0 .1.1.1.1 0 .1 0 .1-.1.2zm-13.7-41.5 13.7 41 44.7-29.2zM355 394.5s-.1 0 0 0l-61.4-17s-.1 0-.1-.1v-.1l20-56.6c0-.1.1-.1.2-.1s.1 0 .2.1l41.4 73.6v.2c-.2-.1-.3 0-.3 0m-61.2-17.3 60.8 16.8-41-72.9z"/><path class="st0" d="M293.6 377.5c-.1 0-.2-.1-.2-.2l10.1-53.1c0-.1.1-.1.1-.1l9.9-3.5h.2s.1.1 0 .2l-20 56.6s0 .1-.1.1m10.2-53.2-9.6 50.8 19.1-54.1zM355 394.5s-.1 0-.1-.1c-.1-.1-.1-.1 0-.2l35.3-66.6c0-.1.1-.1.2-.1s.1.1.1.2l-8.3 55.3c0 .1 0 .1-.1.1zm34.9-65.8L355.3 394l26.4-11.1z"/><path class="st0" d="M355 394.5c-.1 0-.1 0-.2-.1l-41.4-73.6v-.2c0-.1.1-.1.2-.1l76.6 7c.1 0 .1 0 .1.1v.2L355 394.4c.1 0 0 .1 0 .1m-41.1-73.6 41.1 73 35-66.1zM381.9 383.1c-.1 0-.1 0-.2-.1v-.2l47.6-58.3.1-.1c.1 0 .1 0 .1.1l33.6 43.5v.2c0 .1-.1.1-.1.1zm47.6-58.2-47.2 57.8 80.4-14.7z"/><path class="st0" d="M381.9 383.1s-.1 0 0 0c-.1 0-.2-.1-.2-.2l8.3-55.3c0-.1.1-.1.2-.1l39.3-3.1c.1 0 .1 0 .2.1v.2L382 383.1zm8.5-55.3-8.2 54.5 47-57.5zM471.6 374.4h-.1l-8.5-6.1c-.1-.1-.1-.2 0-.2l18.8-31.9c0-.1.1-.1.2-.1s.1.1.1.2l-10.3 38.1c-.1-.1-.1 0-.2 0m-8.3-6.4 8.2 5.9 9.9-36.5z"/><path class="st0" d="M463.1 368.3c-.1 0-.1 0-.1-.1l-33.6-43.5v-.2c0-.1.1-.1.2-.1L482 336c.1 0 .1.1.1.1v.2l-18.8 31.9c-.1 0-.1.1-.2.1M430 324.9l33.1 42.9 18.6-31.5zM50.4 421.9c-.1 0-.1 0-.2-.1 0-.1 0-.2.1-.2l106.6-51.9c.1 0 .2 0 .2.1v.2l-29.8 36.8-.1.1zm106-51.6-104.7 51 75.5-14.9z"/><path class="st0" d="M50.4 421.9c-.1 0-.1 0-.1-.1v-.2l51.1-42.8h.1l55.5-9.1c.1 0 .1 0 .2.1v.2h-.1zm51.2-42.8-50 41.8 104.3-50.8zM198.5 408.9l-71.2-2.2c-.1 0-.1-.1-.2-.1 0-.1 0-.2.1-.2l56.6-35.4h.1l.1.1 14.6 37.6v.2zm-70.7-2.5 70.4 2.1-14.4-37.2z"/><path class="st0" d="M127.2 406.7s-.1 0-.1-.1c-.1-.1-.1-.2 0-.2l29.8-36.8.1-.1 26.9 1.3c.1 0 .1.1.2.1 0 .1 0 .2-.1.2zq.15 0 0 0m29.9-36.7L128 405.9l55.3-34.6zM235 435.5h-.1l-36.5-26.6-.1-.1c0-.1 0-.1.1-.1l60-55c.1-.1.1-.1.2 0 .1 0 .1.1.1.2l-23.5 81.6zm-36.2-26.8 36.1 26.4 23.3-80.8z"/><path class="st0" d="M198.5 408.9c-.1 0-.1-.1-.2-.1l-14.6-37.6v-.1l.1-.1 74.6-17.4c.1 0 .2 0 .2.1v.2l-60 55zm-14.4-37.7 14.4 37.2 59.3-54.4zM235 435.5c-.1 0-.1 0-.1-.1-.1-.1-.1-.2 0-.2l58.6-58.1c.1-.1.2-.1.2 0 .1 0 .1.1.1.2l-10.4 25.6s0 .1-.1.1zm58.1-57.5-56.7 56.2 46.6-31.4z"/><path class="st0" d="M235 435.5q-.15 0 0 0c-.2-.1-.2-.1-.2-.2l23.5-81.6c0-.1.1-.1.1-.1h.2l35.2 23.6.1.1c0 .1 0 .1-.1.1l-58.6 58.1zm23.6-81.5-23.2 80.8 58-57.5zM315.4 444.4c-.1 0-.1 0-.1-.1L283.1 403v-.2c0-.1.1-.1.1-.1l71.8-8.6c.1 0 .1 0 .2.1v.2l-39.6 49.9c-.1.1-.2.1-.2.1M283.5 403l31.8 41 39.2-49.4z"/><path class="st0" d="M283.2 403c-.1 0-.1 0-.1-.1v-.2l10.4-25.6c0-.1.1-.1.2-.1l61.4 17c.1 0 .1.1.1.2s-.1.2-.2.2zm10.5-25.5-10.2 25.1 70.6-8.4zM315.4 444.4c-.1 0-.1 0-.2-.1v-.2l66.5-61.3s.1-.1.2 0c.1 0 .1.1.1.1l12.6 39.8v.1l-.1.1zm66.4-61.1L316 443.9l78.3-21.2z"/><path class="st0" d="M315.4 444.4h-.1c-.1-.1-.1-.2 0-.2l39.6-49.9.1-.1 26.9-11.3c.1 0 .2 0 .2.1v.2l-66.5 61.3zm39.7-50-38.2 48.1 64.1-59.1zM394.5 422.9c-.1 0-.1 0-.2-.1v-.2L463 368c.1-.1.2-.1.2 0 .1.1.1.2 0 .2L429 413.4l-.1.1zm67.6-53.8-66.8 53.3 33.5-9.2z"/><path class="st0" d="M394.5 422.9c-.1 0-.1-.1-.2-.1L381.7 383v-.1l.1-.1 81.2-14.9c.1 0 .2 0 .2.1s0 .2-.1.2zc.1 0 0 0 0 0m-12.4-39.8 12.5 39.4 67.9-54.1zM428.9 413.5c-.1 0-.1 0-.2-.1v-.2l42.7-39.1s.1-.1.1 0c.1 0 .1 0 .1.1l19.6 36.9v.2c0 .1-.1.1-.1.1zm42.6-39-42.2 38.6 61.6-2.1z"/><path class="st0" d="M428.9 413.5h-.1c-.1-.1-.1-.2 0-.2L463 368c.1-.1.2-.1.2 0l8.5 6.1.1.1c0 .1 0 .1-.1.1L429 413.4c0 .1-.1.1-.1.1m34.2-45.2-32.9 43.5 41.1-37.6zM69.5 496 .1 460.9c-.1 0-.1-.1-.1-.1 0-.1 0-.1.1-.2l50.2-39h.2c.1 0 .1.1.1.1l19.1 74.1c0 .1 0 .1-.1.2zm-69-35.3 68.7 34.8-19-73.5z"/><path class="st0" d="M69.5 496c-.1 0-.1 0-.1-.1v-.2l57.7-89.3c0-.1.1-.1.2-.1s.1.1.1.2l2.7 73.7c0 .1-.1.2-.1.2zm57.6-88.9-57.2 88.4 59.9-15.4z"/><path class="st0" d="M69.5 496c-.1 0-.2-.1-.2-.1l-19.1-74.1v-.1l.1-.1 76.9-15.2c.1 0 .1 0 .2.1v.2L69.7 496zm-18.9-74.1 19 73.5 57.3-88.6zM129.9 480.5c-.1 0-.1 0-.2-.1v-.2l68.6-71.6s.1-.1.2 0c.1 0 .1.1.1.1l11.4 50c0 .1 0 .2-.1.2zc.1 0 0 0 0 0m68.5-71.4L130.5 480l79.1-21.4z"/><path class="st0" d="M129.9 480.5c-.1 0-.2-.1-.2-.2l-2.7-73.7s0-.1.1-.1c0 0 .1 0 .1-.1l71.2 2.2c.1 0 .1 0 .2.1v.2L130 480.5zm-2.5-73.8 2.7 73.1 68-71zM219.2 469.8c-.1 0-.1 0-.1-.1l-9.4-10.9c-.1-.1-.1-.2 0-.2l25.1-23.4c.1-.1.2-.1.2 0 .1 0 .1.1.1.2l-15.7 34.3c0 .1-.1.1-.2.1q.15 0 0 0m-9.1-11.1 9.1 10.6 15.2-33.2z"/><path class="st0" d="M209.8 458.9c-.1 0-.2-.1-.2-.1l-11.4-50c0-.1 0-.1.1-.2h.2l36.5 26.6.1.1c0 .1 0 .1-.1.1l-25 23.4c-.1.1-.1.1-.2.1m-11-49.8 11.2 49.2 24.7-23zM219.2 469.8c-.1 0-.1 0-.2-.1v-.2l63.9-66.8s.1-.1.2 0c.1 0 .1.1.1.1l7.6 61.6v.1l-.1.1zc.1 0 0 0 0 0m63.9-66.6-63.4 66.2 70.9-5.2z"/><path class="st0" d="M219.2 469.8c-.2-.1-.2-.2-.2-.2l15.7-34.3s0-.1.1-.1l48.2-32.5h.2c.1.1.1.2 0 .2l-63.9 66.8c0 .1 0 .1-.1.1m15.9-34.3-15.3 33.3 62.1-64.8zM325.5 482.4l-34.8-17.8c-.1 0-.1-.1-.1-.1 0-.1 0-.1.1-.2l24.6-20.2h.2c.1 0 .1.1.1.1l10.1 38c0 .1 0 .1-.1.2zm-34.4-18 34.1 17.5-10-37.4z"/><path class="st0" d="M290.8 464.6s-.1 0 0 0c-.1 0-.2-.1-.2-.2l-7.6-61.6c0-.1 0-.2.1-.2s.2 0 .2.1l32.2 41.4c.1.1 0 .2 0 .2l-24.6 20.2c0 .1-.1.1-.1.1m-7.4-61.1 7.5 60.6 24.2-19.9zM325.5 482.4c-.1 0-.1 0-.2-.1v-.2l69-59.5s.1-.1.2 0c.1 0 .1.1.1.2l3.7 57.9v.1l-.1.1zm68.8-59.3L326 482l72.1-1.5z"/><path class="st0" d="M325.5 482.4c-.1 0-.2-.1-.2-.1l-10.1-38c0-.1 0-.2.1-.2l79.1-21.5c.1 0 .2 0 .2.1v.2l-69 59.5zm-9.9-38.1 10 37.6 68.2-58.8zM398.2 480.9c-.1 0-.1 0-.1-.1s-.1-.1 0-.2l30.7-67.4c0-.1.1-.1.2-.1s.1.1.1.2l2.3 59.3c0 .1-.1.2-.1.2zc.1 0 0 0 0 0m30.6-66.9-30.2 66.4 32.5-8z"/><path class="st0" d="M398.2 480.9c-.1 0-.2-.1-.2-.2l-3.7-57.9c0-.1 0-.2.1-.2l34.4-9.5c.1 0 .1 0 .2.1 0 .1.1.1 0 .2l-30.7 67.4c.1 0 0 .1-.1.1m-3.5-58 3.7 57.1 30.2-66.4z"/></svg>