<svg width="85" height="99" viewBox="0 0 85 99" fill="none" xmlns="http://www.w3.org/2000/svg"><path d="m24.1 95.3 1.7-10.9-3.8-.1H3.8L16.4 4.2c.1-.5.5-.9 1-.9h30.7c10.2 0 17.2 2.1 20.9 6.3 1.7 2 2.8 4 3.3 6.3.6 2.4.6 5.2 0 8.6V27l1.7 1c1.3.7 2.5 1.6 3.5 2.7 1.5 1.7 2.4 3.8 2.8 6.3.4 2.6.3 5.7-.4 9.2-.8 4-2.1 7.5-3.8 10.4-1.5 2.6-3.5 4.8-6 6.5-2.3 1.6-5 2.8-8 3.6s-6.3 1.2-10 1.2h-2.4c-1.7 0-3.4.6-4.7 1.7s-2.2 2.7-2.4 4.3l-.2 1-3 19.1-.1.7c0 .2-.1.3-.2.4s-.2.1-.3.1z" fill="#253B80"/><path d="m75.698 25.102-.3 1.8c-4 20.8-17.9 27.9-35.6 27.9h-9c-2.2 0-4 1.6-4.3 3.7l-4.6 29.2-1.3 8.3c-.2 1.3.7 2.4 1.9 2.6h16.4c1.9 0 3.5-1.4 3.8-3.2l.2-.8 3-19.1.2-1c.3-1.9 1.9-3.2 3.8-3.2h2.4c15.5 0 27.6-6.3 31.1-24.4 1.5-7.6.7-13.9-3.2-18.4-1.4-1.4-2.8-2.6-4.5-3.4" fill="#179BD7"/><path d="M71.5 23.398q-1.95-.6-3.9-.9c-2.6-.4-5.3-.6-7.9-.6h-24c-1.9 0-3.5 1.4-3.8 3.2l-5.1 32.4-.1.9c.3-2.1 2.2-3.7 4.3-3.7h9c17.7 0 31.5-7.2 35.6-27.9l.3-1.8c-1.1-.6-2.2-1-3.3-1.4-.5 0-.8-.1-1.1-.2" fill="#222D65"/><path d="M31.8 25.2c.3-1.9 1.9-3.2 3.8-3.2h24c2.8 0 5.5.2 7.9.6 1.6.3 3.3.6 4.8 1.2 1.2.4 2.3.9 3.3 1.4 1.2-7.7 0-12.9-4.2-17.6C67 2.2 58.7 0 48.2 0H17.5c-2.2 0-4 1.6-4.3 3.7L.4 84.7c-.2 1.4.8 2.8 2.2 3h19.3l4.8-30.2z" fill="#253B80"/></svg>