<svg width="490" height="492" viewBox="0 0 490 492" fill="none" xmlns="http://www.w3.org/2000/svg"><path d="m451.861 418.149-298.327 15.939c-9.552.509-17.28-7.03-17.28-16.878V207.297c0-9.82 7.728-18.192 17.28-18.702l298.327-15.939c9.552-.51 17.28 7.03 17.28 16.878v209.913c0 9.794-7.728 18.192-17.28 18.702" fill="#fff"/><path d="M152.622 434.705c-4.347 0-8.398-1.61-11.538-4.589-3.488-3.3-5.42-7.888-5.42-12.906V207.297c0-10.116 7.996-18.783 17.844-19.292l298.326-15.939c4.696-.242 9.123 1.368 12.478 4.562 3.488 3.3 5.42 7.888 5.42 12.906v209.913c0 10.116-7.996 18.783-17.844 19.292l-298.326 15.939c-.296 0-.618.027-.94.027M452.773 173.22c-.295 0-.59 0-.885.027l-298.326 15.938c-9.231.483-16.717 8.614-16.717 18.112V417.21c0 4.669 1.797 8.962 5.044 12.048 3.113 2.951 7.245 4.454 11.619 4.239l298.326-15.938c9.231-.483 16.717-8.614 16.717-18.112v-209.94c0-4.669-1.798-8.962-5.044-12.048-2.925-2.763-6.709-4.239-10.734-4.239" fill="#000"/><path d="M430.504 57.276c15.67-9.768 23.774-22.54 27.745-48.031 2.683 8.989 3.515 15.67 2.173 22.727l8.533-4.75c.188 6.924-1.154 15.269-6.923 20.555l10.707-4.937c-5.313 11.725-11.485 33.594-34.883 23.907z" fill="#fff"/><path d="M448.454 69.753c-3.166 0-6.762-.725-10.84-2.442a.43.43 0 0 1-.242-.188l-7.325-9.499a.56.56 0 0 1-.108-.456.6.6 0 0 1 .269-.402c16.207-10.116 23.639-23.023 27.476-47.628a.63.63 0 0 1 .537-.51c.268 0 .537.16.617.429 2.683 8.935 3.408 15.375 2.415 21.788l7.433-4.132a.58.58 0 0 1 .59 0 .57.57 0 0 1 .295.51c.161 5.662-.644 13.175-5.044 18.783l7.969-3.676c.215-.108.483-.054.671.107.188.16.215.43.134.67a144 144 0 0 0-1.637 3.784c-4.051 9.445-9.74 22.862-23.21 22.862m-10.25-3.489c20.366 8.345 27.289-7.942 32.306-19.856.349-.832.671-1.61 1.02-2.361l-9.284 4.293a.594.594 0 0 1-.751-.215c-.161-.241-.134-.563.107-.75 5.581-5.1 6.789-13.015 6.762-19.133l-7.647 4.24a.62.62 0 0 1-.644-.027.63.63 0 0 1-.242-.59c1.127-6.01.725-11.914-1.449-19.91-3.944 22.754-11.672 35.714-27.021 45.482z" fill="#000"/><path d="M380.571 63.796c-15.671-9.767-23.774-22.54-27.745-48.03-2.684 8.988-3.515 15.67-2.174 22.727l-8.533-4.75c-.187 6.923 1.154 15.268 6.923 20.554l-10.706-4.937c5.313 11.726 11.484 33.595 34.883 23.908z" fill="#fff"/><path d="M362.618 76.273c-13.47 0-19.132-13.39-23.157-22.861-.563-1.342-1.1-2.603-1.637-3.784-.107-.215-.053-.483.134-.67a.61.61 0 0 1 .671-.108l7.97 3.676c-4.401-5.608-5.206-13.121-5.045-18.783 0-.215.107-.402.295-.51a.58.58 0 0 1 .59 0l7.433 4.133c-.993-6.413-.268-12.826 2.415-21.789.081-.268.322-.429.617-.429.269.027.51.215.537.51 3.837 24.606 11.27 37.512 27.477 47.628.134.08.241.242.268.402a.56.56 0 0 1-.107.457l-7.326 9.499a.6.6 0 0 1-.241.187c-4.132 1.69-7.728 2.442-10.894 2.442m-23.076-25.706c.322.752.67 1.557 1.019 2.362 5.045 11.913 11.941 28.228 32.307 19.856l6.842-8.855c-15.375-9.767-23.103-22.727-27.02-45.481-2.174 7.996-2.576 13.899-1.449 19.91.053.214-.054.456-.242.59a.565.565 0 0 1-.644.027l-7.647-4.267c-.054 6.091 1.18 14.034 6.762 19.132.214.188.268.51.107.751-.161.242-.483.322-.751.215z" fill="#000"/><path d="M406.702 113.007c20.435 0 37.002-16.53 37.002-36.922s-16.567-36.922-37.002-36.922-37.003 16.53-37.003 36.922 16.567 36.922 37.003 36.922" fill="#000"/><path d="M408.152 110.619c19.828 0 35.902-16.038 35.902-35.822s-16.074-35.821-35.902-35.821-35.902 16.037-35.902 35.821 16.074 35.822 35.902 35.822" fill="#fff"/><path d="M408.125 111.209c-18.3 0-34.131-13.765-36.224-32.333-1.101-9.66 1.663-19.186 7.727-26.78 6.092-7.593 14.758-12.396 24.445-13.47 19.991-2.253 38.103 12.156 40.357 32.093 1.1 9.66-1.664 19.185-7.728 26.779-6.091 7.593-14.758 12.396-24.445 13.47a36 36 0 0 1-4.132.241m.053-71.616c-1.314 0-2.629.08-3.971.214-9.364 1.047-17.763 5.689-23.666 13.041-5.877 7.352-8.533 16.556-7.487 25.894 2.174 19.292 19.696 33.245 39.042 31.072 9.365-1.047 17.763-5.689 23.667-13.04 5.876-7.353 8.532-16.557 7.486-25.894-2.039-17.978-17.361-31.287-35.071-31.287" fill="#000"/><path d="M408.153 104.85c16.642 0 30.133-13.455 30.133-30.053s-13.491-30.052-30.133-30.052S378.02 58.2 378.02 74.797s13.491 30.053 30.133 30.053" fill="#fff"/><path d="M435.145 88.75a1 1 0 0 1-.269-.053c-.295-.135-.402-.51-.268-.805a29 29 0 0 0 2.63-7.97c.053-.322.348-.536.697-.483a.606.606 0 0 1 .483.698 30.4 30.4 0 0 1-2.737 8.291.56.56 0 0 1-.536.322M382.017 60.469a.54.54 0 0 1-.295-.08.58.58 0 0 1-.215-.806c4.857-8.452 13.551-14.14 23.237-15.24 11.807-1.316 23.077 4.078 29.409 14.086.188.269.081.644-.188.805-.268.188-.644.08-.805-.187-6.118-9.633-16.931-14.812-28.281-13.551-9.311 1.046-17.656 6.52-22.325 14.65a.65.65 0 0 1-.537.323M408.123 105.467c-15.402 0-28.738-11.592-30.509-27.208a30.8 30.8 0 0 1 2.201-15.322.626.626 0 0 1 .778-.322.627.627 0 0 1 .322.778c-1.959 4.616-2.684 9.714-2.12 14.731 1.824 16.154 16.475 27.799 32.655 25.975.322-.027.617.187.644.509s-.188.618-.51.644a30 30 0 0 1-3.461.215" fill="#000"/><path d="m407.801 96.21-.564-4.91c-3.488.24-6.949-.323-9.069-1.235l.859-6.225c2.307.939 5.5 1.69 8.854 1.315 2.952-.322 4.857-1.69 4.616-3.757-.215-1.959-2.013-3.005-6.011-3.89-5.742-1.235-9.821-3.408-10.384-8.4-.51-4.56 2.308-8.479 7.728-10.196l-.564-4.91 5.072-.564.509 4.562c3.489-.242 5.904.215 7.701.859l-.831 6.01c-1.422-.43-3.918-1.341-7.648-.912-3.381.375-4.293 1.959-4.132 3.408.188 1.717 2.12 2.576 6.708 3.756 6.413 1.476 9.231 4.052 9.741 8.694.509 4.588-2.308 8.882-8.131 10.599l.591 5.26z" fill="#09B850"/><path d="M347.242 177.379c19.373-12.075 29.436-27.879 34.319-59.435 3.328 11.109 4.347 19.373 2.71 28.121l10.546-5.876c.241 8.559-1.422 18.89-8.587 25.437l13.229-6.118c-6.574 14.517-14.222 41.591-43.147 29.597z" fill="#fff"/><path d="M369.566 192.7c-4.105 0-8.587-1.019-13.47-3.032a.43.43 0 0 1-.242-.188l-9.069-11.752c-.107-.135-.134-.296-.107-.457a.6.6 0 0 1 .268-.402c19.829-12.37 29.382-28.926 34.051-59.032a.63.63 0 0 1 .536-.51c.269 0 .537.161.618.429 3.354 11.19 4.212 19.186 2.924 27.182l9.445-5.259a.58.58 0 0 1 .591 0 .57.57 0 0 1 .295.51c.215 7.137-.859 16.69-6.601 23.612l10.411-4.803c.215-.107.483-.053.671.108s.215.429.134.67a244 244 0 0 0-2.012 4.696c-3.113 7.326-6.977 16.475-13.309 22.271-4.401 3.972-9.392 5.957-15.134 5.957m-12.88-4.078c25.384 10.411 33.944-9.848 40.196-24.633.483-1.127.939-2.227 1.395-3.273l-11.806 5.447a.596.596 0 0 1-.752-.215.586.586 0 0 1 .108-.778c7.03-6.413 8.479-16.395 8.398-24.015l-9.686 5.393a.62.62 0 0 1-.644-.027.63.63 0 0 1-.242-.59c1.449-7.621.886-15.08-1.959-25.33-4.83 28.576-14.409 44.73-33.621 56.885z" fill="#000"/><path d="M288.474 167.209c-23.425-14.597-35.553-33.675-41.456-71.804-4.025 13.416-5.259 23.425-3.247 33.97l-12.745-7.084c-.296 10.331 1.717 22.835 10.357 30.724l-15.992-7.379c7.915 17.521 17.173 50.231 52.136 35.741z" fill="#fff"/><path d="M261.509 185.616c-6.923 0-12.933-2.388-18.166-7.191-7.647-7.003-12.289-18.004-16.046-26.859-.858-2.013-1.663-3.918-2.442-5.662-.107-.215-.053-.483.135-.671a.61.61 0 0 1 .67-.107l13.095 6.037c-7.245-8.372-8.56-20.124-8.318-28.872 0-.214.107-.402.295-.51a.58.58 0 0 1 .59 0l11.646 6.494c-1.61-9.74-.591-19.427 3.488-33.031.08-.269.322-.43.617-.43.268.027.51.215.537.51 5.661 36.412 17.199 56.43 41.188 71.402a.6.6 0 0 1 .268.403.56.56 0 0 1-.107.456l-10.948 14.194a.6.6 0 0 1-.241.188c-5.93 2.415-11.324 3.649-16.261 3.649m-34.963-38.773c.59 1.342 1.181 2.764 1.825 4.24 7.593 17.924 17.978 42.476 48.755 29.811l10.464-13.551c-23.371-14.758-34.936-34.372-40.758-69.255-3.569 12.665-4.294 21.842-2.523 31.18.054.214-.053.456-.241.59a.565.565 0 0 1-.644.027l-11.86-6.601c-.134 9.23 1.61 21.466 10.196 29.301.215.188.268.51.107.779a.625.625 0 0 1-.751.214z" fill="#000"/><path d="M311.632 229.944c28.676 0 51.922-23.186 51.922-51.787s-23.246-51.787-51.922-51.787-51.921 23.186-51.921 51.787 23.246 51.787 51.921 51.787" fill="#000"/><path d="M313.857 226.885c27.816 0 50.365-22.501 50.365-50.258 0-27.756-22.549-50.257-50.365-50.257s-50.365 22.501-50.365 50.257c0 27.757 22.549 50.258 50.365 50.258" fill="#fff"/><path d="M313.857 227.476c-28.094 0-50.982-22.808-50.982-50.849s22.861-50.848 50.982-50.848 50.982 22.808 50.982 50.848c-.026 28.041-22.888 50.849-50.982 50.849m0-100.516c-27.45 0-49.775 22.271-49.775 49.667s22.325 49.668 49.775 49.668 49.775-22.271 49.775-49.668-22.325-49.667-49.775-49.667" fill="#000"/><path d="M313.859 218.809c23.355 0 42.288-18.886 42.288-42.182 0-23.295-18.933-42.181-42.288-42.181-23.356 0-42.289 18.886-42.289 42.181 0 23.296 18.933 42.182 42.289 42.182" fill="#fff"/><path d="M349.385 200.052a.5.5 0 0 1-.322-.107.63.63 0 0 1-.187-.832 40.7 40.7 0 0 0 4.937-10.76c.08-.322.429-.483.724-.402.322.08.483.429.403.724a42.4 42.4 0 0 1-5.098 11.082c-.081.215-.269.295-.457.295M351.907 158.811a.65.65 0 0 1-.537-.322c-7.03-14.463-21.412-23.452-37.512-23.452-13.228 0-25.813 6.359-33.648 17.012a.6.6 0 0 1-.832.134.6.6 0 0 1-.134-.832c8.05-10.948 20.983-17.495 34.587-17.495 16.556 0 31.341 9.231 38.586 24.123a.62.62 0 0 1-.268.805c-.081.027-.161.027-.242.027M313.859 219.399c-23.639 0-42.879-19.186-42.879-42.772 0-7.325 1.879-14.543 5.474-20.902.161-.295.51-.376.805-.215s.376.51.215.805a41.65 41.65 0 0 0-5.313 20.312c0 22.942 18.703 41.591 41.698 41.591.322 0 .591.269.591.591s-.269.59-.591.59" fill="#000"/><path d="M309.966 206.412v-6.923c-4.91-.215-9.66-1.529-12.45-3.139l2.2-8.533c3.086 1.69 7.379 3.22 12.155 3.22 4.159 0 7.03-1.61 7.03-4.535 0-2.764-2.334-4.535-7.754-6.359-7.836-2.63-13.175-6.279-13.175-13.363 0-6.413 4.534-11.458 12.37-12.987v-6.923h7.164v6.413c4.91.215 8.184 1.234 10.599 2.415l-2.12 8.238c-1.905-.805-5.259-2.469-10.545-2.469-4.75 0-6.279 2.039-6.279 4.079 0 2.415 2.549 3.944 8.774 6.278 8.694 3.059 12.209 7.084 12.209 13.658 0 6.494-4.615 12.048-13.014 13.497v7.433z" fill="#09B850"/><path d="M459.698 439.159h-308.04c-9.821 0-17.763-7.942-17.763-17.763V211.43c0-9.821 7.942-17.764 17.763-17.764h308.04c9.821 0 17.763 7.943 17.763 17.764v209.966c0 9.794-7.942 17.763-17.763 17.763" fill="#fff"/><path d="M459.698 439.749h-308.04c-10.116 0-18.353-8.237-18.353-18.353V211.43c0-10.116 8.237-18.354 18.353-18.354h308.04c10.116 0 18.354 8.238 18.354 18.354v209.966c0 10.116-8.238 18.353-18.354 18.353m-308.04-245.492c-9.472 0-17.173 7.701-17.173 17.173v209.966c0 9.472 7.701 17.173 17.173 17.173h308.04c9.472 0 17.173-7.701 17.173-17.173V211.43c0-9.472-7.701-17.173-17.173-17.173z" fill="#000"/><path d="M455.996 431.458h-7.084a.596.596 0 0 1-.591-.59c0-.322.269-.591.591-.591h7.11c.752 0 1.503-.08 2.228-.187.322-.054.617.161.697.483.054.322-.161.617-.483.697-.805.108-1.637.188-2.468.188m-14.195 0h-7.111a.595.595 0 0 1-.59-.59c0-.322.268-.591.59-.591h7.111c.322 0 .59.269.59.591s-.268.59-.59.59m-14.221 0h-7.111a.595.595 0 0 1-.59-.59c0-.322.268-.591.59-.591h7.111c.322 0 .59.269.59.591s-.268.59-.59.59m-14.195 0h-7.11a.596.596 0 0 1-.591-.59c0-.322.269-.591.591-.591h7.11c.322 0 .591.269.591.591s-.269.59-.591.59m-14.221 0h-7.111a.595.595 0 0 1-.59-.59c0-.322.268-.591.59-.591h7.111c.322 0 .59.269.59.591s-.268.59-.59.59m-14.222 0h-7.11a.595.595 0 0 1-.59-.59c0-.322.268-.591.59-.591h7.11c.322 0 .591.269.591.591s-.242.59-.591.59m-14.194 0h-7.111a.595.595 0 0 1-.59-.59c0-.322.268-.591.59-.591h7.111c.322 0 .59.269.59.591s-.268.59-.59.59m-14.221 0h-7.111a.595.595 0 0 1-.59-.59c0-.322.268-.591.59-.591h7.111c.322 0 .59.269.59.591s-.268.59-.59.59m-14.222 0h-7.11a.596.596 0 0 1-.591-.59c0-.322.269-.591.591-.591h7.11c.322 0 .591.269.591.591.026.322-.242.59-.591.59m-14.194 0H321a.595.595 0 0 1-.59-.59c0-.322.268-.591.59-.591h7.111c.322 0 .59.269.59.591s-.268.59-.59.59m-14.222 0h-7.11a.596.596 0 0 1-.591-.59c0-.322.269-.591.591-.591h7.11c.322 0 .591.269.591.591s-.269.59-.591.59m-14.194 0h-7.111a.595.595 0 0 1-.59-.59c0-.322.268-.591.59-.591h7.111c.322 0 .59.269.59.591s-.268.59-.59.59m-14.221 0h-7.111a.596.596 0 0 1-.591-.59c0-.322.269-.591.591-.591h7.111c.321 0 .59.269.59.591s-.269.59-.59.59m-14.222 0h-7.111a.595.595 0 0 1-.59-.59c0-.322.268-.591.59-.591h7.111c.322 0 .59.269.59.591s-.268.59-.59.59m-14.194 0h-7.111a.595.595 0 0 1-.59-.59c0-.322.268-.591.59-.591h7.111c.322 0 .59.269.59.591s-.268.59-.59.59m-14.222 0h-7.11a.596.596 0 0 1-.591-.59c0-.322.269-.591.591-.591h7.11c.322 0 .591.269.591.591s-.269.59-.591.59m-14.221 0h-7.111a.595.595 0 0 1-.59-.59c0-.322.268-.591.59-.591h7.111c.322 0 .59.269.59.591s-.241.59-.59.59m-14.195 0h-7.11a.596.596 0 0 1-.591-.59c0-.322.269-.591.591-.591h7.11c.322 0 .591.269.591.591s-.269.59-.591.59m-14.221 0h-7.111a.595.595 0 0 1-.59-.59c0-.322.268-.591.59-.591h7.111c.322 0 .59.269.59.591s-.268.59-.59.59m-14.195 0h-7.11a.596.596 0 0 1-.591-.59c0-.322.269-.591.591-.591h7.11c.322 0 .591.269.591.591s-.269.59-.591.59m-14.221 0h-7.111a.595.595 0 0 1-.59-.59c0-.322.268-.591.59-.591h7.111c.322 0 .59.269.59.591s-.268.59-.59.59m-14.221-.027h-.027c-2.496-.134-4.884-.966-6.95-2.361a.604.604 0 0 1-.161-.832.604.604 0 0 1 .832-.161 12.27 12.27 0 0 0 6.333 2.147.614.614 0 0 1 .563.617c0 .349-.268.59-.59.59m307.101-3.247a.67.67 0 0 1-.457-.214.594.594 0 0 1 .054-.832 12.5 12.5 0 0 0 3.676-5.608.58.58 0 0 1 .752-.376c.321.108.482.43.375.752a13.8 13.8 0 0 1-4.025 6.144.58.58 0 0 1-.375.134m-318.264-4.373a.62.62 0 0 1-.536-.349 13.6 13.6 0 0 1-1.261-5.742v-1.422c0-.322.268-.591.59-.591s.59.269.59.591v1.422c0 1.824.376 3.595 1.154 5.259a.59.59 0 0 1-.295.778c-.081.027-.161.054-.242.054m322.745-8.533a.596.596 0 0 1-.591-.59v-7.111c0-.322.269-.59.591-.59s.59.268.59.59v7.111c0 .322-.268.59-.59.59m-323.952-5.501a.595.595 0 0 1-.59-.59v-7.111c0-.322.268-.59.59-.59s.59.268.59.59v7.111c0 .322-.268.59-.59.59m323.952-8.72a.597.597 0 0 1-.591-.591v-7.11c0-.322.269-.591.591-.591s.59.269.59.591v7.11a.596.596 0 0 1-.59.591m-323.952-5.501a.595.595 0 0 1-.59-.59v-7.111c0-.322.268-.59.59-.59s.59.268.59.59v7.111c0 .322-.268.59-.59.59m323.952-8.694a.596.596 0 0 1-.591-.59v-7.111c0-.322.269-.59.591-.59s.59.268.59.59v7.111c0 .322-.268.59-.59.59m-323.952-5.501a.595.595 0 0 1-.59-.59v-7.111c0-.322.268-.59.59-.59s.59.268.59.59v7.111c0 .322-.268.59-.59.59m323.952-8.72a.597.597 0 0 1-.591-.591v-7.11c0-.322.269-.591.591-.591s.59.269.59.591v7.11a.596.596 0 0 1-.59.591m-323.952-5.501a.595.595 0 0 1-.59-.59v-7.111c0-.322.268-.59.59-.59s.59.268.59.59v7.111c0 .322-.268.59-.59.59m323.952-8.721a.596.596 0 0 1-.591-.59v-7.111c0-.322.269-.59.591-.59s.59.268.59.59v7.111c0 .349-.268.59-.59.59m-323.952-5.5a.596.596 0 0 1-.59-.591v-7.11c0-.322.268-.591.59-.591s.59.269.59.591v7.11a.58.58 0 0 1-.59.591m323.952-8.694a.597.597 0 0 1-.591-.591v-7.11c0-.322.269-.591.591-.591s.59.269.59.591v7.11a.596.596 0 0 1-.59.591m-323.952-5.501a.595.595 0 0 1-.59-.59v-7.111c0-.322.268-.59.59-.59s.59.268.59.59v7.111c0 .322-.268.59-.59.59m323.952-8.721a.596.596 0 0 1-.591-.59v-7.111c0-.322.269-.59.591-.59s.59.268.59.59v7.111c0 .322-.268.59-.59.59m-323.952-5.5a.596.596 0 0 1-.59-.591v-7.11c0-.322.268-.591.59-.591s.59.269.59.591v7.11a.596.596 0 0 1-.59.591m323.952-8.694a.596.596 0 0 1-.591-.59v-7.111c0-.322.269-.59.591-.59s.59.268.59.59v7.111c0 .322-.268.59-.59.59m-323.952-5.501a.595.595 0 0 1-.59-.59v-7.111c0-.322.268-.59.59-.59s.59.268.59.59v7.111c0 .322-.268.59-.59.59m323.952-8.72a.597.597 0 0 1-.591-.591v-7.11c0-.322.269-.591.591-.591s.59.269.59.591v7.11a.596.596 0 0 1-.59.591m-323.952-5.501a.595.595 0 0 1-.59-.59v-7.111c0-.322.268-.59.59-.59s.59.268.59.59v7.111c0 .322-.268.59-.59.59m323.952-8.721a.596.596 0 0 1-.591-.59v-7.111c0-.322.269-.59.591-.59s.59.268.59.59v7.111c0 .322-.268.59-.59.59m-323.952-5.5a.596.596 0 0 1-.59-.591v-7.11c0-.322.268-.591.59-.591s.59.269.59.591v7.11a.596.596 0 0 1-.59.591m323.952-8.694a.597.597 0 0 1-.591-.591v-7.11c0-.322.269-.591.591-.591s.59.269.59.591v7.11a.596.596 0 0 1-.59.591m-323.952-5.501a.595.595 0 0 1-.59-.59v-7.111c0-.322.268-.59.59-.59s.59.268.59.59v7.111c0 .322-.268.59-.59.59m323.952-8.721a.596.596 0 0 1-.591-.59v-7.111c0-.322.269-.59.591-.59s.59.268.59.59v7.111c0 .322-.268.59-.59.59m-323.952-5.5a.596.596 0 0 1-.59-.591v-7.11c0-.322.268-.591.59-.591s.59.269.59.591v7.11a.596.596 0 0 1-.59.591m323.952-8.721a.596.596 0 0 1-.591-.59v-7.111c0-.322.269-.59.591-.59s.59.268.59.59v7.111c0 .322-.268.59-.59.59m-323.952-5.501a.595.595 0 0 1-.59-.59v-7.111c0-.322.268-.59.59-.59s.59.268.59.59v7.111c0 .349-.268.59-.59.59m323.952-8.694a.596.596 0 0 1-.591-.59v-7.111c0-.322.269-.59.591-.59s.59.268.59.59v7.111c0 .322-.268.59-.59.59m-323.952-5.5a.596.596 0 0 1-.59-.591v-7.11c0-.322.268-.591.59-.591s.59.269.59.591v7.11a.596.596 0 0 1-.59.591m323.952-8.721a.596.596 0 0 1-.591-.59v-.242c0-2.2-.563-4.347-1.663-6.252a.6.6 0 0 1 .214-.805.6.6 0 0 1 .805.215 13.8 13.8 0 0 1 1.825 6.842v.242c0 .322-.268.59-.59.59m-322.932-5.366c-.081 0-.161-.027-.242-.054a.627.627 0 0 1-.322-.778 13.8 13.8 0 0 1 4.562-5.742.596.596 0 0 1 .697.966 12.5 12.5 0 0 0-4.159 5.259.56.56 0 0 1-.536.349m316.197-6.36a.6.6 0 0 1-.296-.08 12.4 12.4 0 0 0-6.091-1.583h-.429a.596.596 0 0 1-.59-.591c0-.322.268-.59.59-.59h.429c2.335 0 4.643.59 6.682 1.744.295.161.375.51.241.805a.69.69 0 0 1-.536.295m-305.277-1.61a.606.606 0 0 1-.59-.536.6.6 0 0 1 .537-.644c.402-.027.805-.054 1.234-.054h5.93c.322 0 .59.268.59.59a.596.596 0 0 1-.59.591h-5.93c-.376 0-.751.026-1.127.053zm291.35-.053h-7.11a.597.597 0 0 1-.591-.591c0-.322.269-.59.591-.59h7.11c.322 0 .591.268.591.59a.597.597 0 0 1-.591.591m-14.221 0h-7.111a.596.596 0 0 1-.59-.591c0-.322.268-.59.59-.59h7.111c.322 0 .59.268.59.59a.596.596 0 0 1-.59.591m-14.221 0h-7.084a.596.596 0 0 1-.59-.591c0-.322.268-.59.59-.59h7.111c.322 0 .59.268.59.59a.6.6 0 0 1-.617.591m-14.195 0h-7.11a.597.597 0 0 1-.591-.591c0-.322.269-.59.591-.59h7.11c.322 0 .591.268.591.59a.597.597 0 0 1-.591.591m-14.221 0h-7.111a.596.596 0 0 1-.59-.591c0-.322.268-.59.59-.59h7.111c.322 0 .59.268.59.59a.596.596 0 0 1-.59.591m-14.195 0h-7.11a.597.597 0 0 1-.591-.591c0-.322.269-.59.591-.59h7.11c.322 0 .591.268.591.59a.597.597 0 0 1-.591.591m-14.221 0h-7.111a.596.596 0 0 1-.59-.591c0-.322.268-.59.59-.59h7.111c.322 0 .59.268.59.59a.596.596 0 0 1-.59.591m-14.221 0h-7.111a.596.596 0 0 1-.59-.591c0-.322.268-.59.59-.59h7.111c.322 0 .59.268.59.59a.58.58 0 0 1-.59.591m-14.195 0h-7.111a.596.596 0 0 1-.59-.591c0-.322.268-.59.59-.59h7.111c.322 0 .59.268.59.59a.596.596 0 0 1-.59.591m-14.221 0h-7.111a.596.596 0 0 1-.59-.591c0-.322.268-.59.59-.59h7.111c.322 0 .59.268.59.59a.596.596 0 0 1-.59.591m-14.222 0h-7.11a.597.597 0 0 1-.591-.591c0-.322.269-.59.591-.59h7.11c.322 0 .591.268.591.59a.58.58 0 0 1-.591.591m-14.194 0h-7.111a.596.596 0 0 1-.59-.591c0-.322.268-.59.59-.59h7.111c.322 0 .59.268.59.59a.596.596 0 0 1-.59.591m-14.221 0h-7.111a.597.597 0 0 1-.591-.591c0-.322.269-.59.591-.59h7.111c.321 0 .59.268.59.59a.597.597 0 0 1-.59.591m-14.195 0h-7.111a.596.596 0 0 1-.59-.591c0-.322.268-.59.59-.59h7.111c.322 0 .59.268.59.59a.596.596 0 0 1-.59.591m-14.221 0h-7.111a.596.596 0 0 1-.59-.591c0-.322.268-.59.59-.59h7.111c.322 0 .59.268.59.59a.596.596 0 0 1-.59.591m-14.222 0h-7.11a.597.597 0 0 1-.591-.591c0-.322.269-.59.591-.59h7.11c.322 0 .591.268.591.59a.597.597 0 0 1-.591.591m-14.194 0h-7.111a.596.596 0 0 1-.59-.591c0-.322.268-.59.59-.59h7.111c.322 0 .59.268.59.59a.596.596 0 0 1-.59.591m-14.222 0h-7.11a.597.597 0 0 1-.591-.591c0-.322.269-.59.591-.59h7.11c.322 0 .591.268.591.59a.597.597 0 0 1-.591.591m-14.221 0h-7.111a.596.596 0 0 1-.59-.591c0-.322.268-.59.59-.59h7.111c.322 0 .59.268.59.59a.58.58 0 0 1-.59.591m-14.195 0h-7.11a.597.597 0 0 1-.591-.591c0-.322.269-.59.591-.59h7.11c.322 0 .591.268.591.59a.597.597 0 0 1-.591.591" fill="#000"/><path d="M478.695 340.119h-66.062c-5.876 0-10.653-4.776-10.653-10.652v-26.108c0-5.877 4.777-10.653 10.653-10.653h66.062c5.877 0 10.653 4.776 10.653 10.653v26.108c0 5.876-4.776 10.652-10.653 10.652" fill="#fff"/><path d="M478.696 340.71h-66.062c-6.199 0-11.243-5.045-11.243-11.243v-26.108c0-6.199 5.044-11.243 11.243-11.243h66.062c6.198 0 11.243 5.044 11.243 11.243v26.108c0 6.198-5.045 11.243-11.243 11.243m-66.062-47.441c-5.555 0-10.063 4.508-10.063 10.063v26.108c0 5.554 4.508 10.062 10.063 10.062h66.062c5.554 0 10.062-4.508 10.062-10.062v-26.108c0-5.555-4.508-10.063-10.062-10.063z" fill="#000"/><path d="M420.979 325.898a9.5 9.5 0 1 0 0-18.998 9.5 9.5 0 0 0 0 18.998" fill="#09B850"/><path d="M308.36 359.144a.64.64 0 0 1-.375-.134c-.242-.215-.296-.591-.081-.832l23.532-29.114c.215-.241.591-.295.832-.08.242.214.295.59.081.832l-23.533 29.113a.57.57 0 0 1-.456.215M336.188 324.744a.64.64 0 0 1-.375-.134c-.242-.215-.296-.59-.081-.832l28.175-34.829c.214-.241.59-.295.831-.08.242.215.295.59.081.832l-28.175 34.829a.66.66 0 0 1-.456.214M368.575 284.656a.65.65 0 0 1-.376-.134c-.241-.215-.295-.59-.08-.832l8.667-10.706c.214-.242.59-.295.832-.081.241.215.295.591.08.832l-8.667 10.706a.61.61 0 0 1-.456.215M215.036 356.165a.64.64 0 0 1-.376-.134c-.241-.214-.295-.59-.08-.832l16.448-20.366c.215-.241.591-.295.832-.08.242.215.295.59.081.832l-16.449 20.366a.57.57 0 0 1-.456.214M234.731 331.828a.64.64 0 0 1-.375-.134c-.242-.215-.296-.59-.081-.832l19.32-23.881c.214-.242.59-.295.832-.081.241.215.295.591.08.832l-19.32 23.881a.61.61 0 0 1-.456.215M260.223 300.3a.64.64 0 0 1-.375-.135c-.242-.214-.295-.59-.081-.831l20.366-25.169c.215-.242.591-.296.832-.081.242.215.295.59.081.832l-20.366 25.169a.62.62 0 0 1-.457.215M292.958 415.117a.65.65 0 0 1-.376-.134c-.241-.215-.295-.59-.08-.832l29.596-36.627c.215-.241.591-.295.832-.08s.295.59.081.832l-29.597 36.626c-.107.161-.295.215-.456.215M325.696 374.626a.64.64 0 0 1-.376-.134c-.241-.214-.295-.59-.08-.832l25.303-31.287c.215-.241.591-.295.832-.08.242.215.295.59.081.832l-25.304 31.287a.57.57 0 0 1-.456.214" fill="#000"/><path d="M290.008 39.512c13.416 12.665 18.836 26.78 17.656 52.566 4.427-8.265 6.547-14.651 6.654-21.842l7.406 6.332c1.556-6.735 1.905-15.187-2.71-21.52l9.499 6.95c-2.871-12.53-4.589-35.204-29.436-30.32z" fill="#fff"/><path d="M307.664 92.641c-.053 0-.107 0-.161-.027-.268-.08-.456-.322-.429-.59 1.127-24.874-3.596-38.988-17.468-52.11-.134-.107-.188-.268-.188-.455 0-.161.08-.322.215-.43l9.069-7.862a.5.5 0 0 1 .268-.134c22.916-4.508 26.753 14.302 29.275 26.752.295 1.423.563 2.791.859 4.025a.6.6 0 0 1-.242.617c-.215.135-.483.135-.671-.026l-7.084-5.18c3.194 6.36 2.523 13.9 1.235 19.4-.054.189-.188.377-.403.43a.61.61 0 0 1-.563-.107l-6.467-5.528c-.295 6.467-2.281 12.639-6.681 20.876-.161.242-.349.35-.564.35m-16.77-53.129c13.121 12.612 18.139 26.833 17.468 49.91 3.703-7.407 5.286-13.122 5.366-19.24 0-.241.135-.43.349-.537a.57.57 0 0 1 .617.08l6.655 5.69c1.261-5.957 1.637-13.98-2.818-20.071a.65.65 0 0 1 .054-.779.58.58 0 0 1 .778-.053l8.238 6.037c-.161-.805-.349-1.663-.51-2.522-2.576-12.665-6.091-30-27.718-25.867z" fill="#000"/><path d="M242.647 23.44c-17.79 4.937-29.194 14.892-40.249 38.21-.027-9.365 1.073-16.02 4.374-22.406l-9.526 2.147c1.771-6.682 5.447-14.33 12.504-17.737l-11.672 1.717c8.425-9.74 20.581-28.979 40.249-13.067z" fill="#fff"/><path d="M202.4 62.24c-.054 0-.08 0-.134-.027a.575.575 0 0 1-.456-.564c-.027-9.338 1.1-15.697 3.89-21.573l-8.318 1.878c-.188.054-.402-.027-.563-.161a.63.63 0 0 1-.134-.563c1.449-5.474 4.373-12.45 10.196-16.583l-8.694 1.288a.64.64 0 0 1-.617-.295.62.62 0 0 1 .081-.671c.831-.966 1.717-2.04 2.656-3.166 8.077-9.821 20.259-24.66 38.425-9.982.08.053.134.16.187.241l4.32 11.163a.6.6 0 0 1-.026.483.52.52 0 0 1-.376.295C224.43 29.1 213.616 39.378 202.963 61.89a.63.63 0 0 1-.563.349m4.374-23.586c.188 0 .349.08.456.241a.62.62 0 0 1 .054.644c-2.791 5.447-4.079 11.216-4.294 19.507 10.25-20.714 21.332-30.938 38.854-35.955l-4.025-10.465c-17.173-13.765-28.416-.08-36.626 9.901-.564.698-1.101 1.342-1.637 1.986l10.116-1.476a.57.57 0 0 1 .644.402c.08.269-.054.59-.295.698-6.816 3.3-10.224 10.572-11.914 16.422l8.559-1.932c.027.026.054.026.108.026" fill="#000"/><path d="M265.056 79.547c21.933 0 39.713-17.744 39.713-39.632S286.989.283 265.056.283c-21.932 0-39.712 17.744-39.712 39.632s17.78 39.632 39.712 39.632" fill="#000"/><path d="M266.934 77.507c21.281 0 38.532-17.215 38.532-38.45 0-21.237-17.251-38.452-38.532-38.452s-38.532 17.215-38.532 38.451 17.252 38.451 38.532 38.451" fill="#fff"/><path d="M266.962 78.098c-2.227 0-4.481-.188-6.735-.59-10.304-1.798-19.266-7.46-25.303-15.993-6.011-8.533-8.345-18.89-6.547-29.167 3.702-21.198 24.015-35.446 45.266-31.77 10.304 1.798 19.293 7.46 25.304 15.992s8.345 18.89 6.547 29.167c-3.327 18.971-19.883 32.36-38.532 32.36m-.054-76.903c-18.085 0-34.158 12.987-37.351 31.368-1.744 9.954.51 19.99 6.333 28.281 5.822 8.265 14.543 13.792 24.525 15.51q3.3.563 6.52.563c18.085 0 34.158-12.987 37.351-31.367 1.745-9.955-.509-19.99-6.332-28.282-5.823-8.265-14.543-13.792-24.525-15.51a38 38 0 0 0-6.521-.563" fill="#000"/><path d="M266.931 71.309c17.857 0 32.334-14.44 32.334-32.253S284.788 6.803 266.931 6.803s-32.333 14.44-32.333 32.253 14.476 32.253 32.333 32.253" fill="#fff"/><path d="M290.708 61.515a.6.6 0 0 1-.402-.16c-.242-.216-.242-.591-.027-.833a31.4 31.4 0 0 0 5.125-7.432c.134-.296.51-.403.805-.269s.402.51.268.805a32.3 32.3 0 0 1-5.313 7.701.63.63 0 0 1-.456.188M298.032 30.765a.57.57 0 0 1-.563-.43c-3.381-11.78-12.987-20.393-25.089-22.485-9.928-1.718-20.205 1.422-27.476 8.398-.242.215-.617.215-.832-.027-.215-.241-.215-.617.027-.832 7.54-7.244 18.192-10.491 28.496-8.693 12.343 2.146 22.566 11.296 26.028 23.317.08.322-.081.644-.403.725-.08.027-.134.027-.188.027M261.378 71.416h-.108c-8.667-1.502-16.233-6.278-21.278-13.47-5.071-7.19-7.03-15.885-5.501-24.552a32.85 32.85 0 0 1 6.896-15.106c.215-.242.591-.296.832-.081.242.215.295.59.081.832a31.8 31.8 0 0 0-6.655 14.543c-1.449 8.345.429 16.744 5.313 23.64 4.884 6.923 12.155 11.538 20.527 12.987a.606.606 0 0 1 .483.697.58.58 0 0 1-.59.51" fill="#000"/><path d="m260.093 60.979.912-5.233c-3.676-.805-7.084-2.415-8.962-3.998l2.764-6.145c2.093 1.664 5.152 3.381 8.72 3.998 3.14.537 5.501-.295 5.877-2.495.375-2.093-1.181-3.73-5.018-5.796-5.554-3.005-9.096-6.467-8.157-11.78.832-4.83 4.937-8.05 11.028-8.184l.912-5.232 5.394.94-.832 4.83c3.676.804 6.011 2.012 7.674 3.192l-2.683 5.93c-1.315-.858-3.649-2.549-7.621-3.247-3.595-.617-5.017.725-5.286 2.255-.322 1.824 1.422 3.3 5.796 5.876 6.145 3.461 8.265 6.923 7.406 11.887-.859 4.883-5.044 8.479-11.592 8.479l-.966 5.608z" fill="#09B850"/><path d="M130.361 446.511s3.971 12.156 7.942 15.859 19.776 11.001 19.991 18.917c.268 9.203-5.099 10.921-19.454 7.593-10.384-2.415-18.944-8.72-22.003-12.343-2.71-3.193-1.181-5.903-.537-9.633.805-4.588.966-9.257.966-13.926v-7.62z" fill="#fff"/><path d="M149.653 491.054c-2.818 0-6.386-.537-10.948-1.583-10.599-2.442-19.319-8.989-22.325-12.531-2.361-2.764-1.744-5.313-1.127-8.023.161-.671.322-1.369.456-2.12.832-4.776.966-9.66.966-13.819v-7.62c0-.161.081-.322.188-.43a.73.73 0 0 1 .456-.161l13.068 1.154a.62.62 0 0 1 .51.403c.027.107 3.971 12.047 7.781 15.616 1.047.993 3.032 2.281 5.34 3.757 6.198 4.025 14.677 9.525 14.865 15.59.108 3.863-.724 6.386-2.656 7.942-1.476 1.208-3.596 1.825-6.574 1.825m-31.797-45.052v6.976c0 4.213-.107 9.15-.966 14.034-.134.778-.295 1.475-.456 2.173-.644 2.71-1.1 4.669.859 6.977 2.897 3.434 11.35 9.767 21.68 12.155 8.909 2.066 14.007 2.066 16.529 0 1.61-1.315 2.308-3.542 2.201-7.004-.161-5.42-8.345-10.733-14.329-14.623-2.334-1.53-4.374-2.818-5.501-3.891-3.703-3.435-7.271-13.631-7.996-15.751z" fill="#000"/><path d="M157.727 485.714h-.054l-5.098-.376c-13.202-.966-25.572-6.627-34.775-15.965-1.235-1.261-1.905-2.039-1.959-2.066a.59.59 0 0 1 .054-.832.59.59 0 0 1 .831.054s.671.778 1.879 2.012c9.015 9.15 21.117 14.704 34.024 15.617l5.098.375a.58.58 0 0 1 .536.644c.027.295-.214.537-.536.537M126.923 466.18a.61.61 0 0 1-.591-.483.58.58 0 0 1 .483-.671c.054 0 6.682-1.154 9.124-4.347.187-.268.563-.295.831-.107.269.188.296.563.108.832-2.737 3.568-9.58 4.749-9.875 4.803-.027-.027-.053-.027-.08-.027M132.99 470.285c-.268 0-.51-.188-.59-.483a.57.57 0 0 1 .456-.697c.054 0 6.306-1.369 8.13-4.455.161-.268.537-.375.805-.214.269.161.376.536.215.805-2.093 3.542-8.613 4.937-8.909 4.991-.026.053-.053.053-.107.053M139.534 474.176a.61.61 0 0 1-.563-.376.6.6 0 0 1 .349-.751c.053-.027 5.152-1.932 6.627-5.045a.56.56 0 0 1 .779-.268.557.557 0 0 1 .268.778c-1.691 3.515-7.057 5.555-7.272 5.635-.053 0-.134.027-.188.027" fill="#000"/><path d="M99.717 416.62c-.483 0-7.406-.671-11.377-1.074-1.556-.161-2.925.966-3.112 2.523l-.779 7.218a42.6 42.6 0 0 1-1.502 7.54c-1.315 4.481-3.247 12.182-2.174 15.697 1.127 3.756 4.67 9.016 7.004 11.994 1.073 1.369 2.898 1.932 4.561 1.369 2.979-.993 7.701-2.898 10.492-5.689 4.266-4.266-.349-12.45-.349-12.45z" fill="#fff"/><path d="M90.996 462.692a4.77 4.77 0 0 1-3.73-1.798c-2.576-3.301-5.984-8.453-7.11-12.182-1.047-3.515.616-10.653 2.173-16.046a43 43 0 0 0 1.502-7.433l.779-7.218a3.445 3.445 0 0 1 3.756-3.032c6.735.671 10.975 1.073 11.324 1.073.295 0 .563.242.59.537l2.71 26.994c.563 1.073 4.508 8.747.188 13.04-2.791 2.764-7.38 4.696-10.733 5.823a4.4 4.4 0 0 1-1.45.242m-2.952-46.555c-1.127 0-2.12.858-2.227 2.012l-.778 7.218c-.268 2.549-.805 5.098-1.53 7.647-1.26 4.294-3.193 11.968-2.173 15.376.993 3.327 4.186 8.318 6.896 11.779.912 1.181 2.495 1.637 3.89 1.181 2.657-.886 7.514-2.791 10.251-5.528 3.917-3.89-.403-11.672-.429-11.752l-.081-.242-2.683-26.618c-1.664-.134-6.682-.617-10.921-1.046-.08-.027-.161-.027-.215-.027" fill="#000"/><path d="M94.159 461.484a.57.57 0 0 1-.483-.241c-8.452-11.861-7.889-14.973-6.628-21.789.269-1.395.537-2.978.778-4.83.645-4.937 2.55-18.46 2.576-18.595.054-.322.35-.563.671-.509a.62.62 0 0 1 .51.67c-.027.134-1.932 13.658-2.576 18.595a77 77 0 0 1-.805 4.884c-1.18 6.467-1.744 9.418 6.44 20.876a.6.6 0 0 1-.134.832.6.6 0 0 1-.349.107" fill="#000"/><path d="M93.008 440.796a.604.604 0 0 1-.59-.51c-.054-.322.188-.617.51-.671l7.781-1.153c.322-.054.617.187.671.509.053.322-.188.618-.51.671l-7.782 1.154zM93.813 446.404a.604.604 0 0 1-.59-.51c-.054-.322.187-.617.51-.671l7.781-1.153c.322-.054.617.187.67.509s-.187.618-.509.671l-7.782 1.154z" fill="#000"/><path d="M102.287 448.98c4.535 3.112 14.141 7.137 30.321 2.308l-6.949-191.506-30.429-5.796s-4.427 68.692-.107 109.585c3.944 37.325 4.105 69.121 4.025 79.237a7.3 7.3 0 0 0 3.139 6.172" fill="#000"/><path d="m102.422 245.4 52.163-17.307 17.495 97.751c-1.798 24.069-29.463 87.824-39.874 94.962-16.395 11.269-29.784-175.406-29.784-175.406" fill="#000"/><path d="M132.313 421.879q-.04 0 0 0c-.349 0-.59-.268-.59-.617l3.381-133.681c0-.322.268-.59.59-.59h.027c.322 0 .59.268.59.617l-3.381 133.681c-.054.348-.295.59-.617.59M205.432 129.67a.866.866 0 0 1-.698-.858c.054-2.174.51-8.694 4.186-11.699 4.455-3.623 8.211-11.968 10.894-11.163 2.684.805-3.22 8.05-2.549 8.855s5.394-3.757 6.869-6.44c1.476-2.683 3.274-7.942 5.421-7.755 2.951.242 3.595 4.669-.295 13.417-3.703 8.318-16.207 10.545-17.173 16.046a.85.85 0 0 1-1.02.671z" fill="#fff"/><path d="M211.229 131.388c-.081 0-.188 0-.268-.027l-5.608-1.1a1.47 1.47 0 0 1-1.181-1.449c.054-2.63.59-9.043 4.4-12.156 1.825-1.475 3.569-3.864 5.126-5.957 2.441-3.273 4.373-5.876 6.305-5.286.483.135.832.457.993.886.51 1.261-.51 3.247-1.986 5.903-.348.617-.805 1.422-1.019 1.959 1.341-.805 4.427-3.837 5.635-6.037.348-.618.697-1.396 1.073-2.201 1.395-2.978 2.844-6.064 4.91-5.876 1.02.08 1.825.59 2.335 1.449 1.315 2.227.563 6.762-2.147 12.799-2.039 4.535-6.467 7.272-10.411 9.687-3.381 2.093-6.306 3.89-6.735 6.225-.08.376-.268.724-.59.939-.242.134-.537.242-.832.242m8.211-24.874c-1.181 0-3.032 2.495-4.803 4.91-1.583 2.147-3.408 4.588-5.34 6.171-3.515 2.872-3.918 9.338-3.944 11.27 0 .134.08.242.214.269l5.608 1.1c.108.027.161-.027.215-.054a.4.4 0 0 0 .107-.161c.51-2.898 3.649-4.803 7.272-7.03 3.783-2.335 8.077-4.964 9.955-9.15 3.542-7.943 2.737-10.841 2.2-11.699-.322-.537-.778-.805-1.395-.859h-.054c-1.207 0-2.629 3.005-3.676 5.206-.402.832-.751 1.61-1.127 2.254-1.261 2.254-5.42 6.681-7.03 6.842-.429.054-.698-.161-.805-.295-.483-.59-.027-1.476 1.154-3.596.858-1.529 2.254-4.051 1.932-4.883-.027-.054-.081-.134-.242-.188-.107-.107-.161-.107-.241-.107" fill="#000"/><path d="m211.873 128.892-6.252-1.234c-1.368-.269-2.737.59-3.059 1.932-1.959 7.996-8.506 33.004-13.497 35.016-5.957 2.415-10.813-3.729-20.929-8.801-5.421-2.71-13.685-3.703-20.205-4.051-5.716-.322-11.431.187-17.012 1.448l-17.817 4.025c-2.174.376-9.445 1.745-17.388 6.118.51.805-7.808 3.918-7.352 4.75 6.225 11.887 6.788 29.167 5.5 42.53 6.145 8.962 16.154 12.584 12.236 18.648-7.888 12.182-10.303 19.669-10.545 30.616 10.196-7.486 25.679-16.877 46.179-22.968a151 151 0 0 1 30.67-5.689c-1.61-2.737-3.944-7.245-5.313-13.175-2.039-8.774-.349-13.577-1.61-23.666-.456-3.73-1.449-9.338-3.944-16.073 11.484 10.545 26.564 15.187 37.914 10.545 16.637-6.869 26.699-34.292 12.424-59.971" fill="#fff"/><path d="M95.528 260.399a.5.5 0 0 1-.268-.08.65.65 0 0 1-.322-.537c.241-11.35 2.844-18.863 10.626-30.911 2.119-3.247-.161-5.581-4.696-9.767-2.469-2.281-5.26-4.857-7.54-8.211-.08-.107-.108-.242-.108-.403.779-8.076 1.825-28.389-5.42-42.181a.9.9 0 0 1-.053-.59c.214-.644 1.26-1.207 3.97-2.576 1.182-.59 2.953-1.476 3.355-1.878 0-.054 0-.081.027-.134.053-.161.134-.296.295-.376 7.272-3.998 14.141-5.581 17.575-6.172l17.791-3.998a61.8 61.8 0 0 1 17.173-1.449c6.225.349 14.838 1.315 20.446 4.133 3.354 1.663 6.091 3.434 8.533 4.99 4.937 3.194 8.211 5.287 11.94 3.784 3.784-1.53 9.258-18.89 13.149-34.614.402-1.664 2.066-2.71 3.756-2.388l6.252 1.234a.56.56 0 0 1 .403.295c7.298 13.148 8.881 28.094 4.347 41.027-3.328 9.445-9.553 16.61-17.093 19.696-10.787 4.4-25.035.804-36.814-9.15a74 74 0 0 1 3.219 14.06c.564 4.508.537 7.889.51 11.162-.027 4.079-.053 7.621 1.074 12.451 1.046 4.534 2.817 8.908 5.259 13.014a.6.6 0 0 1 .027.563.62.62 0 0 1-.483.322 147 147 0 0 0-30.536 5.662c-16.529 4.937-31.985 12.611-46.045 22.915a.54.54 0 0 1-.349.107m-1.073-49.989c2.2 3.139 4.883 5.635 7.245 7.835 4.266 3.944 7.62 7.057 4.883 11.297-7.379 11.404-10.008 18.648-10.41 29.086 13.899-10.008 29.166-17.521 45.373-22.325 9.687-2.871 19.722-4.749 29.838-5.634a47.2 47.2 0 0 1-4.91-12.531c-1.154-4.964-1.127-8.748-1.1-12.746.027-3.247.027-6.574-.51-11.001-.644-5.313-1.959-10.68-3.918-15.939-.107-.268 0-.537.215-.698a.57.57 0 0 1 .725.054c11.564 10.626 26.564 14.839 37.297 10.438 7.218-2.952 13.202-9.874 16.422-18.998 4.4-12.53 2.898-27.047-4.133-39.846l-5.983-1.181a2.054 2.054 0 0 0-2.388 1.503c-2.469 9.955-8.721 33.353-13.846 35.446-4.293 1.744-7.943-.617-13.014-3.864-2.415-1.556-5.125-3.3-8.399-4.937-5.42-2.71-13.845-3.676-19.963-3.998a62.5 62.5 0 0 0-16.851 1.422l-17.817 4.025c-3.354.563-9.928 2.093-16.958 5.903-.242.617-1.342 1.207-3.972 2.549-1.127.563-2.79 1.395-3.273 1.825 7.164 13.899 6.225 34.024 5.447 42.315" fill="#000"/><path d="M140.473 232.52a1 1 0 0 1-.269-.054c-.295-.134-.402-.509-.268-.805l15.295-31.072c.134-.295.51-.402.805-.268s.402.51.268.805l-15.295 31.072a.59.59 0 0 1-.536.322M153.834 222.27a.5.5 0 0 1-.214-.054c-.295-.134-.456-.483-.322-.778l4.186-10.116c.134-.295.483-.456.778-.322s.456.483.322.778l-4.186 10.116a.61.61 0 0 1-.564.376" fill="#000"/><path d="M95.716 163.318s-60.695 28.336-43.523 62.601c13.444 26.806 47.387-5.42 47.387-5.42l-7.62-13.228s-14.517 11.135-15.912 5.393c-1.342-5.635 5.42-12.611 24.444-8.989l4.186 4.803s6.574-15.429-7.567-42.691z" fill="#fff"/><path d="m93.836 210.571 8.452-9.043c7.621.349 13.39 2.066 17.871 4.696 1.207.725.939 2.549-.456 2.817-2.523.483-6.252 1.342-10.787 2.737-8.748 2.711-10.653 4.589-10.653 4.589z" fill="#fff"/><path d="M98.265 216.984h-.053c-.162 0-.323-.107-.43-.242l-4.427-5.822a.57.57 0 0 1 .027-.752l8.452-9.042c.107-.134.295-.188.456-.188 7.325.349 13.255 1.905 18.139 4.776a2.09 2.09 0 0 1 1.02 2.201 2.15 2.15 0 0 1-1.664 1.717 102 102 0 0 0-10.733 2.737c-8.372 2.603-10.384 4.427-10.411 4.454-.08.107-.215.161-.376.161m-3.65-6.359 3.758 4.937c1.046-.725 3.837-2.308 10.357-4.32 4.669-1.449 8.479-2.308 10.867-2.764.59-.107.698-.59.725-.751a.93.93 0 0 0-.457-.966c-4.668-2.737-10.33-4.24-17.333-4.616z" fill="#000"/><path d="m131.753 338.402-13.336 9.526-10.491-41.135-3.086-45.508 5.849 3.891z" fill="#fff"/><path d="M118.417 348.518c-.081 0-.134 0-.215-.027a.62.62 0 0 1-.376-.402l-10.491-41.135c0-.027-.027-.08-.027-.107l-3.086-45.535c-.027-.215.108-.43.295-.564a.57.57 0 0 1 .617.027l5.85 3.891c.107.08.215.187.242.322l21.063 73.226a.59.59 0 0 1-.214.644l-13.336 9.526c-.081.107-.188.134-.322.134m-9.902-41.805 10.251 40.249 12.289-8.801-20.876-72.61-4.669-3.112z" fill="#000"/><path d="m35.445 353.589 18.059-90.828 51.331-1.476 13.577 86.643z" fill="#fff"/><path d="M35.447 354.18c-.16 0-.322-.081-.456-.188-.134-.134-.16-.322-.134-.51l18.085-90.829c.054-.268.295-.456.564-.483l51.331-1.502c.295 0 .563.214.59.509l13.578 86.67a.58.58 0 0 1-.135.456.56.56 0 0 1-.429.215l-82.967 5.662zm18.569-90.829-17.817 89.594 81.544-5.554-13.389-85.516z" fill="#000"/><path d="M95.876 267.134c-.295 0-.563-.214-.59-.51l-4.588-38.639a.62.62 0 0 1 .51-.67.62.62 0 0 1 .67.509l4.589 38.64a.62.62 0 0 1-.51.67zM63.65 266.678h-.053a.574.574 0 0 1-.536-.617c.134-1.637 14.167-46.823 18.917-55.061.993-1.69 2.71-1.395 3.542-1.261.134.027.349.081.402.054.322-.081.617.134.698.456s-.134.644-.456.724c-.242.054-.51 0-.832-.053-.966-.161-1.798-.215-2.335.697-4.668 8.077-18.514 52.619-18.756 54.578-.027.242-.295.483-.59.483" fill="#000"/><path d="m75.057 327.642-18.112 7.379 5.877-29.435 13.175-37.164 2.254 3.542z" fill="#fff"/><path d="M56.947 335.638a.64.64 0 0 1-.376-.134.63.63 0 0 1-.214-.563l5.903-29.436c0-.027 0-.054.027-.08l13.148-37.164a.62.62 0 0 1 .483-.402.59.59 0 0 1 .563.268l2.254 3.542c.08.107.108.242.08.349l-3.192 55.678c0 .214-.161.429-.376.51l-18.112 7.405c-.054 0-.107.027-.188.027m6.467-29.891-5.662 28.335 16.744-6.842 3.166-55.115-1.503-2.361z" fill="#000"/><path d="m38.54 251.276 37.458 17.146-19.052 66.599L.598 301.99s28.442-29.543 37.941-50.714" fill="#fff"/><path d="M56.946 335.638a.55.55 0 0 1-.295-.08L.3 302.527a.56.56 0 0 1-.294-.43.54.54 0 0 1 .16-.483c.296-.295 28.47-29.73 37.835-50.553a.63.63 0 0 1 .322-.322.55.55 0 0 1 .456.027l37.459 17.146c.268.135.402.43.322.698l-19.052 66.599a.55.55 0 0 1-.349.376c-.08.026-.134.053-.214.053m-55.41-33.782 55.034 32.28 18.703-65.392-36.44-16.69c-8.935 19.4-33.406 45.723-37.297 49.802" fill="#000"/><path d="M67.916 273.118c-.054 0-.107 0-.161-.027-.322-.08-.483-.429-.402-.724l11.377-38.344c.08-.322.429-.483.724-.403.322.081.483.43.403.725L68.48 272.689c-.054.268-.296.429-.564.429M44.843 261.178a.5.5 0 0 1-.322-.108.6.6 0 0 1-.16-.832c1.26-1.905 31.233-46.876 34.533-50.392 1.825-1.958 4.105-2.817 5.957-2.227 1.341.43 2.227 1.557 2.415 3.059.053.322-.188.617-.51.671a.62.62 0 0 1-.67-.51c-.135-1.046-.699-1.798-1.61-2.093-1.101-.348-2.899-.053-4.723 1.905-3.22 3.435-34.078 49.775-34.4 50.231a.58.58 0 0 1-.51.296" fill="#000"/><path d="M67.996 237.162c-1.1 0-2.2-.08-3.274-.268-5.58-.966-9.981-4.588-13.04-10.706-3.596-7.192-4.079-14.651-1.45-22.218 8.238-23.693 44.892-41.027 45.24-41.188a.59.59 0 0 1 .483 1.073c-.375.161-36.546 17.28-44.622 40.518-2.523 7.244-2.04 14.409 1.395 21.305 2.898 5.769 7.003 9.15 12.182 10.062.993.161 2.013.268 3.032.268 13.148 0 28.416-13.362 30.885-15.589l-7.057-12.236c-2.415 1.798-11.002 7.889-14.651 6.574-.832-.295-1.422-.966-1.637-1.905-.51-2.174.08-4.374 1.664-6.172 1.825-2.093 6.654-5.447 18.192-4.32a.6.6 0 0 1 .537.644.6.6 0 0 1-.644.537c-8.05-.805-14.302.617-17.173 3.917-1.315 1.53-1.825 3.328-1.395 5.125.134.564.402.913.885 1.074 2.925 1.046 11.163-4.562 14.087-6.816.135-.107.322-.134.483-.107a.56.56 0 0 1 .403.295l7.62 13.229a.61.61 0 0 1-.107.724c-.805.671-17.334 16.18-32.038 16.18" fill="#000"/><path d="M129.603 143.006s-1.959 2.147-6.064 1.395z" fill="#fff"/><path d="M125.258 145.153c-.564 0-1.154-.054-1.798-.161a.607.607 0 0 1-.483-.698.607.607 0 0 1 .698-.483c3.729.698 5.5-1.207 5.5-1.207a.567.567 0 0 1 .832-.027c.242.214.268.59.027.832-.054.08-1.637 1.744-4.776 1.744" fill="#000"/><path d="M135.935 113.436c0 19.159-12.773 41.001-31.958 41.001-19.186 0-38.746-16.502-38.746-35.661 0-19.158 16.153-37.592 35.338-37.592 19.212.026 35.366 13.12 35.366 32.252" fill="#000"/><path d="M73.227 129.455c0 2.201-1.798 3.972-3.999 3.972s-3.997-1.771-3.997-3.972 1.797-3.971 3.998-3.971c2.2 0 3.998 1.771 3.998 3.971" fill="#000"/><path d="M75.29 143.06c3.35 0 6.065-2.703 6.065-6.038 0-3.334-2.715-6.037-6.064-6.037s-6.064 2.703-6.064 6.037 2.715 6.038 6.064 6.038" fill="#000"/><path d="M77.762 138.203c-2.844 2.817-2.844 7.406 0 10.25a7.303 7.303 0 0 0 10.277 0c2.844-2.817 2.844-7.406 0-10.25-2.844-2.817-7.46-2.817-10.277 0" fill="#000"/><path d="M85.73 147.38c0 4.535 3.677 8.211 8.238 8.211 4.562 0 8.238-3.676 8.238-8.211s-3.676-8.211-8.238-8.211c-4.535-.027-8.237 3.649-8.237 8.211" fill="#000"/><path d="M105.694 156.449c5.024 0 9.096-4.06 9.096-9.069s-4.072-9.07-9.096-9.07-9.096 4.061-9.096 9.07 4.072 9.069 9.096 9.069M69.148 123.15a7.406 7.406 0 1 0 0-14.812 7.406 7.406 0 0 0 0 14.812" fill="#000"/><path d="M73.308 115.019c4.445 0 8.05-3.592 8.05-8.022 0-4.431-3.605-8.023-8.05-8.023s-8.05 3.592-8.05 8.023 3.604 8.022 8.05 8.022M69.147 128.409a4.588 4.588 0 1 0 0-9.176 4.588 4.588 0 0 0 0 9.176M131.776 120.789a6.225 6.225 0 1 0 0-12.45 6.225 6.225 0 0 0 0 12.45" fill="#000"/><path d="M132.124 113.168a6.6 6.6 0 1 0 0-13.202 6.601 6.601 0 0 0 0 13.202" fill="#000"/><path d="M127.538 105.682c3.868 0 7.004-3.124 7.004-6.977s-3.136-6.976-7.004-6.976-7.003 3.123-7.003 6.976 3.136 6.977 7.003 6.977" fill="#000"/><path d="M122.571 96.72a6.547 6.547 0 1 0 0-13.095 6.548 6.548 0 1 0 0 13.095" fill="#000"/><path d="M114.282 90.173a4.48 4.48 0 1 0 0-8.962 4.48 4.48 0 0 0 0 8.962" fill="#000"/><path d="M106.259 89.877a5.662 5.662 0 1 0 0-11.324 5.662 5.662 0 0 0 0 11.324" fill="#000"/><path d="M97.217 95.27c4.238 0 7.674-3.423 7.674-7.647 0-4.223-3.436-7.647-7.674-7.647s-7.674 3.424-7.674 7.647 3.436 7.648 7.674 7.648" fill="#000"/><path d="M88.202 94.895a6.842 6.842 0 1 0 0-13.685 6.842 6.842 0 0 0 0 13.685" fill="#000"/><path d="M81.358 99.161c4.12 0 7.46-3.327 7.46-7.432s-3.34-7.433-7.46-7.433-7.46 3.328-7.46 7.433 3.34 7.432 7.46 7.432" fill="#000"/><path d="M71.482 102.73c2.8 0 5.07-2.258 5.07-5.044 0-2.787-2.27-5.045-5.07-5.045s-5.072 2.258-5.072 5.044c0 2.787 2.27 5.045 5.072 5.045" fill="#000"/><path d="M125.202 114.053c1.475.805 2.254.966 3.488 1.771 2.495 1.637 5.447 7.272 9.23 7.836.752 1.878-.778 2.415-1.153 3.595.617.886 2.2 5.206 3.488 7.809a2 2 0 0 1-.698 2.575 18 18 0 0 1-5.044 2.174s-7.728 16.475 4.025 22.405l-24.901-2.146 6.681-21.815c-.322-.054-4.535-.805-5.581-3.972-.376-1.153-.483-3.112.51-3.703.966-.59 2.924.135 4.481 2.147.134-.59.214-1.315.295-2.147.08-1.127.08-2.415-.349-2.978 9.284-4.481-1.342-12.316 5.528-13.551" fill="#fff"/><path d="M138.511 162.809h-.054l-24.901-2.147c-.188-.027-.349-.107-.429-.268a.58.58 0 0 1-.081-.51l6.494-21.198c-1.395-.349-4.454-1.422-5.367-4.24-.429-1.314-.59-3.568.778-4.4 1.127-.698 2.898-.134 4.401 1.341.027-.295.054-.59.081-.858.161-1.905-.135-2.442-.242-2.576s-.134-.322-.107-.483a.69.69 0 0 1 .322-.403c4.642-2.254 3.89-5.205 3.193-8.076-.403-1.557-.751-3.032-.027-4.159.456-.725 1.288-1.181 2.549-1.396a.6.6 0 0 1 .376.054c.617.349 1.1.563 1.583.778.617.268 1.207.537 1.932 1.02.966.644 1.985 1.798 3.059 3.059 1.771 2.039 3.756 4.347 5.93 4.695a.55.55 0 0 1 .456.376c.617 1.583-.081 2.469-.617 3.14a4.5 4.5 0 0 0-.43.644c.349.59.805 1.717 1.476 3.327.591 1.449 1.288 3.059 1.879 4.266.59 1.181.187 2.63-.913 3.327-1.449.94-3.112 1.664-4.937 2.174-.885 2.039-6.467 16.18 3.864 21.386a.61.61 0 0 1 .295.697c-.054.269-.295.43-.563.43m-24.123-3.247 21.708 1.878c-9.016-6.923-2.227-21.708-2.147-21.842a.64.64 0 0 1 .376-.322c1.824-.483 3.461-1.18 4.883-2.12a1.39 1.39 0 0 0 .483-1.797c-.617-1.261-1.315-2.898-1.905-4.347-.617-1.449-1.234-2.979-1.529-3.381a.63.63 0 0 1-.081-.537c.161-.51.456-.885.725-1.234.429-.564.724-.939.536-1.664-2.441-.563-4.481-2.925-6.279-5.017-1.019-1.181-1.958-2.281-2.817-2.845-.644-.429-1.181-.671-1.771-.939a22 22 0 0 1-1.476-.698c-.805.161-1.315.43-1.556.832-.456.698-.161 1.852.188 3.22.697 2.764 1.637 6.494-3.301 9.15.215.644.269 1.556.161 2.764-.053.724-.134 1.556-.295 2.227-.053.215-.241.403-.456.429a.56.56 0 0 1-.59-.214c-1.422-1.879-3.086-2.388-3.676-2.013-.591.376-.644 1.905-.269 3.032.939 2.845 4.938 3.542 5.099 3.569a.6.6 0 0 1 .402.268.6.6 0 0 1 .054.483z" fill="#000"/><path d="M126.195 140.162s3.757 1.449 7.996-.242z" fill="#fff"/><path d="M129.844 141.342c-2.227 0-3.757-.563-3.864-.617a.6.6 0 0 1-.349-.751.6.6 0 0 1 .751-.349c.027 0 3.596 1.315 7.567-.241a.625.625 0 0 1 .778.322.626.626 0 0 1-.322.778c-1.663.644-3.22.858-4.561.858" fill="#000"/><path d="M135.668 288.225a.54.54 0 0 1-.348-.107.6.6 0 0 1-.135-.832l7.326-10.036a.6.6 0 0 1 .832-.134.6.6 0 0 1 .134.832l-7.326 10.035a.65.65 0 0 1-.483.242" fill="#fff"/></svg>