<svg width="847" height="717" viewBox="0 0 847 717" fill="none" xmlns="http://www.w3.org/2000/svg"><path d="M427.082 677.519c150.661 0 272.796-122.065 272.796-272.64S577.743 132.238 427.082 132.238c-150.662 0-272.797 122.066-272.797 272.641s122.135 272.64 272.797 272.64" fill="#09B850" fill-opacity=".1"/><path d="M427.081 716.11c-3.427 0-7.082 0-10.509-.229-.686 0-1.143-.456-1.143-1.141s.457-1.142 1.143-1.142c3.427 0 6.854.228 10.509.228h3.199c.685 0 1.142.457 1.142 1.142s-.457 1.142-1.142 1.142zm16.907-.229c-.685 0-1.142-.456-1.142-1.141s.457-1.142 1.142-1.142c4.57-.229 9.139-.457 13.709-.914.685 0 1.142.457 1.142 1.142s-.457 1.142-1.142 1.142c-4.341.228-8.911.685-13.709.913q.343 0 0 0m-40.896-.456q-.344 0 0 0c-4.57-.229-9.368-.685-13.709-1.142-.685 0-1.142-.685-.914-1.37 0-.685.686-1.142 1.371-.914 4.57.457 9.139.914 13.709 1.142.685 0 1.142.685 1.142 1.142-.685.685-1.142 1.142-1.599 1.142m68.313-2.056c-.457 0-1.142-.456-1.142-.913 0-.685.457-1.142.914-1.37 4.569-.685 9.139-1.142 13.48-2.055.685 0 1.142.228 1.37.913 0 .685-.228 1.142-.914 1.37a141 141 0 0 1-13.708 2.055m-95.73-.913c-4.569-.685-9.139-1.37-13.708-2.283-.686-.229-.914-.685-.914-1.37.228-.685.685-.914 1.371-.914 4.341.914 8.91 1.599 13.479 2.284.686 0 1.143.685.914 1.37 0 .456-.457.913-1.142.913m122.69-3.653c-.457 0-.914-.457-1.142-.914-.229-.685.228-1.141.913-1.37 4.341-.913 8.911-2.055 13.252-2.968.685-.229 1.142.228 1.371.913.228.685-.229 1.142-.914 1.37-4.341 1.142-8.911 2.055-13.48 2.969q.342 0 0 0m-149.65-1.599h-.228c-4.341-1.142-8.911-2.055-13.252-3.425-.685-.228-.914-.685-.914-1.37.229-.685.686-.913 1.371-.913 4.341 1.141 8.911 2.283 13.252 3.425.685.228.914.685.914 1.37s-.457.913-1.143.913m176.381-5.023c-.457 0-.914-.229-1.142-.914-.229-.685.228-1.141.685-1.37l13.023-4.11c.686-.228 1.143.228 1.371.685.228.685-.228 1.142-.685 1.37l-13.023 4.11zm-202.655-2.055h-.457c-4.341-1.37-8.682-2.969-13.023-4.339-.685-.228-.914-.913-.685-1.37.228-.685.913-.913 1.37-.685 4.341 1.598 8.682 2.968 13.023 4.339.686.228.914.913.686 1.37 0 .228-.457.685-.914.685m228.473-6.622a1.26 1.26 0 0 1-1.143-.685q-.342-1.028.686-1.37c4.341-1.599 8.453-3.425 12.566-5.024.685-.228 1.142 0 1.599.685.228.685 0 1.142-.685 1.599-4.113 1.826-8.454 3.425-12.795 5.251 0-.456 0-.456-.228-.456m-254.291-2.74h-.457c-4.341-1.827-8.453-3.654-12.566-5.481-.685-.228-.913-.913-.456-1.598.228-.685.913-.913 1.599-.457 4.112 1.827 8.225 3.654 12.566 5.481.685.228.914.913.685 1.598-.685.228-.914.457-1.371.457m279.423-7.992a1.26 1.26 0 0 1-1.143-.685c-.228-.457 0-1.142.457-1.599 4.113-1.827 8.225-3.882 12.109-6.165.457-.228 1.143 0 1.6.457.228.456 0 1.141-.457 1.598l-12.338 6.165c.229 0 0 .229-.228.229m-304.555-3.425c-.228 0-.457-.001-.457-.229-4.112-2.055-8.225-4.338-12.109-6.393-.457-.229-.685-.914-.457-1.599.229-.457.914-.685 1.6-.457 3.884 2.284 7.996 4.339 12.109 6.394.457.228.685.913.457 1.598a1.26 1.26 0 0 1-1.143.686m328.773-9.363c-.457 0-.686-.228-.914-.456-.229-.457-.229-1.142.457-1.599 3.884-2.283 7.768-4.566 11.652-7.078.457-.229 1.142-.229 1.599.456.229.457.229 1.142-.457 1.599-3.884 2.512-7.768 4.795-11.652 7.078zm-352.762-3.881c-.229 0-.457 0-.686-.229-3.884-2.283-7.768-4.795-11.652-7.307-.457-.456-.685-1.141-.228-1.598s1.142-.685 1.599-.228c3.884 2.511 7.768 5.023 11.424 7.307.457.228.685 1.141.457 1.598 0 .228-.457.457-.914.457m375.837-10.732c-.457 0-.685-.229-.913-.457-.457-.457-.229-1.142.228-1.598 3.656-2.512 7.54-5.252 10.967-7.992.457-.457 1.142-.229 1.599.228s.229 1.142-.228 1.598c-3.656 2.74-7.312 5.48-11.196 7.992 0 0-.228.229-.457.229m-398.684-4.567c-.229 0-.457 0-.686-.229l-10.967-8.22c-.457-.457-.685-1.142-.228-1.598s1.142-.685 1.599-.229l10.967 8.221c.457.456.685 1.141.228 1.598-.228.457-.457.457-.913.457m420.618-11.874c-.229 0-.686-.228-.914-.457-.457-.456-.228-1.141.228-1.598 3.428-2.969 7.083-5.937 10.51-8.905a1.104 1.104 0 0 1 1.599 0 1.103 1.103 0 0 1 0 1.598c-3.427 2.968-6.854 5.937-10.509 8.905-.457.229-.686.457-.914.457m-442.095-5.024c-.228 0-.457 0-.685-.228-3.427-2.968-6.855-5.937-10.282-9.134a1.103 1.103 0 0 1 0-1.598 1.105 1.105 0 0 1 1.6 0c3.427 2.968 6.854 6.165 10.281 9.134.457.456.457 1.141.228 1.598-.457.228-.913.228-1.142.228m462.657-13.015c-.228 0-.685-.228-.913-.457a1.103 1.103 0 0 1 0-1.598c3.198-3.197 6.625-6.394 9.595-9.591a1.107 1.107 0 0 1 1.6 0 1.104 1.104 0 0 1 0 1.599c-3.199 3.197-6.398 6.622-9.825 9.59.229.229-.228.457-.457.457m-482.763-5.48c-.228 0-.685 0-.913-.229-3.199-3.196-6.398-6.622-9.596-9.818a1.104 1.104 0 0 1 0-1.599 1.106 1.106 0 0 1 1.599 0c3.199 3.425 6.169 6.622 9.596 9.819a1.103 1.103 0 0 1 0 1.598c-.229.229-.457.229-.686.229m501.955-14.386c-.228 0-.457 0-.685-.228a1.104 1.104 0 0 1 0-1.599l8.91-10.275c.457-.457 1.143-.457 1.599-.228.457.456.457 1.141.229 1.598-2.97 3.425-5.94 7.079-8.911 10.504-.685.228-.913.228-1.142.228m-520.689-5.708c-.229 0-.686-.229-.914-.457-2.97-3.425-5.94-7.079-8.682-10.504-.457-.457-.229-1.142.228-1.598s1.143-.229 1.6.228c2.741 3.654 5.711 7.079 8.682 10.504.457.457.457 1.142-.229 1.598-.228.229-.457.229-.685.229m538.053-15.299c-.228 0-.457 0-.685-.229-.457-.456-.686-1.141-.229-1.598 2.742-3.654 5.483-7.307 7.997-10.96.457-.457 1.142-.686 1.599-.229s.685 1.142.228 1.599c-2.513 3.653-5.254 7.535-8.225 11.188 0 0-.228.229-.685.229m-554.96-6.166c-.457 0-.686-.228-.914-.456-2.742-3.654-5.255-7.536-7.768-11.189-.457-.457-.229-1.142.228-1.598s1.143-.229 1.6.228c2.513 3.882 5.254 7.535 7.768 11.189.457.456.228 1.141-.229 1.598-.228.228-.457.228-.685.228m570.725-16.212c-.229 0-.457 0-.686-.228-.457-.229-.685-1.142-.228-1.599 2.513-3.881 4.798-7.763 7.082-11.645.229-.457.914-.685 1.6-.457.457.229.685.914.457 1.599-2.285 3.881-4.798 7.992-7.311 11.645-.229.457-.457.685-.914.685m-586.033-6.622c-.457 0-.685-.228-.914-.456-1.599-2.512-2.97-5.024-4.569-7.536-2.285-3.882-4.57-7.992-6.626-12.102-.228-.457 0-1.142.457-1.598.457-.229 1.142 0 1.599.456 2.056 4.111 4.341 7.992 6.626 11.874 1.371 2.512 2.97 5.024 4.341 7.536.228.456.228 1.141-.457 1.598 0 .228-.228.228-.457.228m599.969-17.125c-.228 0-.456 0-.456-.229-.457-.228-.686-.913-.457-1.598 2.056-4.11 4.341-8.221 6.168-12.102.229-.457.914-.685 1.6-.457.457.228.914.913.457 1.598l-6.169 12.331a1.75 1.75 0 0 1-1.143.457m-617.333-14.386c-.457 0-.914-.228-1.142-.685-2.056-4.11-3.884-8.22-5.712-12.559-.229-.685 0-1.142.685-1.598.686-.229 1.143 0 1.6.685 1.827 4.11 3.655 8.448 5.711 12.33.229.457 0 1.142-.456 1.599-.229 0-.457.228-.686.228m629.443-10.275h-.457c-.686-.229-.914-.914-.686-1.599a292 292 0 0 0 5.255-12.559c.229-.685.914-.913 1.371-.685.685.229.914.914.685 1.37-1.599 4.339-3.427 8.449-5.255 12.788 0 .456-.457.685-.913.685m-640.181-15.071c-.457 0-.914-.228-1.142-.685-1.6-4.339-3.2-8.677-4.57-13.015-.228-.686.229-1.142.686-1.371.685-.228 1.142.229 1.37.685 1.371 4.339 2.97 8.677 4.57 12.788q.343 1.027-.686 1.37c0 .228 0 .228-.228.228m650.233-10.504h-.457c-.685-.228-.913-.913-.685-1.37 1.599-4.338 2.97-8.677 4.341-13.015.228-.685.914-.914 1.371-.685.685.228.914.913.685 1.37-1.371 4.338-2.741 8.677-4.341 13.015 0 .457-.457.685-.914.685M95.339 468.358c-.457 0-.914-.228-1.142-.913-1.371-4.339-2.514-8.905-3.656-13.244-.228-.685.228-1.142.914-1.37.685-.228 1.142.228 1.37.913 1.143 4.339 2.285 8.906 3.656 13.244.229.685-.228 1.142-.685 1.37zm666.683-10.96h-.228c-.685-.228-.914-.685-.914-1.37 1.142-4.339 2.285-8.905 3.199-13.244.228-.685.685-.913 1.371-.913.685.228.913.685.913 1.37-.913 4.338-2.056 8.905-3.198 13.472 0 .457-.457.685-1.143.685M88.485 441.871c-.457 0-.914-.457-1.143-.914-.913-4.338-1.827-8.905-2.513-13.472 0-.685.229-1.142.914-1.37.686-.228 1.142.228 1.37.913.686 4.567 1.6 8.906 2.514 13.473.229.685-.228 1.141-.914 1.37zm679.478-11.189c-.914-.228-1.143-.685-1.143-1.37.686-4.567 1.6-8.905 2.057-13.472 0-.685.685-1.142 1.37-.914.686 0 1.143.685.914 1.37-.685 4.567-1.37 9.134-2.056 13.473-.228.685-.685.913-1.142.913M83.915 414.698c-.457 0-1.142-.457-1.142-.913a139 139 0 0 1-1.37-13.701c0-.685.456-1.142 1.141-1.142.686 0 1.143.457 1.143 1.142.457 4.567.914 9.134 1.37 13.472.23.457-.228 1.142-1.142 1.142q.344 0 0 0m687.703-11.189c-.685 0-1.142-.685-1.142-1.142.457-4.566.685-9.133 1.142-13.7 0-.685.686-1.142 1.143-1.142.685 0 1.142.685 1.142 1.142-.229 4.567-.685 9.134-1.142 13.7 0 .686-.457 1.142-1.143 1.142M81.631 387.525c-.686 0-1.143-.456-1.143-1.141-.228-4.567-.457-9.134-.457-13.701 0-.685.457-1.142 1.143-1.142s1.142.457 1.142 1.142c0 4.567.228 9.134.457 13.701 0 .456-.457 1.141-1.142 1.141m691.587-11.188c-.686 0-1.143-.457-1.143-1.142v-13.701c0-.685.457-1.141 1.143-1.141s1.142.456 1.142 1.141v13.701c0 .685-.685 1.142-1.142 1.142M81.402 360.124c-.685 0-1.142-.456-1.142-1.142l.685-13.7c0-.685.686-1.142 1.143-1.142.685 0 1.142.685 1.142 1.142l-.686 13.7c0 .686-.685 1.142-1.142 1.142m691.13-11.189c-.685 0-1.142-.456-1.142-1.141-.229-4.567-.686-9.134-1.143-13.701 0-.685.457-1.141.914-1.141.686 0 1.143.456 1.143.913.457 4.567.914 9.134 1.142 13.7.229.685-.228 1.37-.914 1.37M83.23 332.723c-.686 0-1.142-.685-1.142-1.37.457-4.567 1.142-9.134 1.827-13.7 0-.685.686-1.142 1.371-.914.686 0 1.142.685.914 1.37-.685 4.567-1.142 9.134-1.828 13.472 0 .685-.685 1.142-1.142 1.142m686.56-11.189c-.456 0-1.142-.456-1.142-.913-.685-4.567-1.371-8.905-2.285-13.472 0-.685.229-1.142.914-1.37.686 0 1.143.228 1.371.913.914 4.567 1.599 9.134 2.285 13.472 0 .685-.457 1.37-1.143 1.37M87.114 305.779c-.914-.229-1.142-.685-1.142-1.37.913-4.567 1.827-8.906 2.741-13.472.229-.685.686-.914 1.371-.914.685.229.914.685.914 1.37-.914 4.339-2.056 8.906-2.742 13.472 0 .457-.457.914-1.142.914m677.879-11.189c-.457 0-.914-.457-1.143-.913-.914-4.339-2.056-8.906-3.198-13.244-.229-.685.228-1.142.913-1.37.686-.229 1.143.228 1.371.913 1.143 4.339 2.285 8.905 3.199 13.244.228.685-.229 1.142-.914 1.37zm-671.71-15.527h-.229c-.685-.229-.914-.685-.914-1.37 1.143-4.339 2.513-8.906 3.884-13.244.229-.685.914-.913 1.371-.685.686.228.914.913.686 1.37-1.371 4.338-2.742 8.677-3.884 13.015.228.457-.229.914-.914.914m664.627-10.732c-.457 0-.914-.229-1.142-.914-1.371-4.338-2.742-8.677-4.341-13.015q-.343-1.028.685-1.37t1.371.685c1.599 4.338 2.97 8.677 4.341 13.015.228.685-.229 1.142-.686 1.37zm-656.174-15.528h-.457c-.685-.228-.914-.913-.685-1.37 1.599-4.338 3.198-8.677 5.026-12.787.229-.685.914-.913 1.6-.685.685.229.913.914.685 1.599-1.828 4.11-3.427 8.448-4.798 12.787-.457.228-.914.456-1.371.456M748.771 242.3c-.457 0-.914-.229-1.142-.685a293 293 0 0 0-5.255-12.559c-.229-.685 0-1.142.685-1.599.457-.228 1.143 0 1.599.685a293 293 0 0 1 5.255 12.559q.343 1.028-.685 1.37c-.229.229-.457.229-.457.229m-636.754-14.843h-.457c-.685-.228-.913-.913-.456-1.598 1.827-4.11 3.884-8.449 5.94-12.33.228-.457.914-.685 1.599-.457.457.228.686.913.457 1.598-2.056 4.11-4.112 8.221-5.94 12.331a1.75 1.75 0 0 1-1.143.456m625.559-10.047c-.457 0-.914-.228-.914-.685-2.056-4.11-4.113-8.22-6.169-12.102-.228-.456 0-1.141.457-1.598.457-.228 1.143 0 1.599.457 2.057 3.881 4.341 7.992 6.398 12.102.228.456 0 1.141-.457 1.598-.457.228-.686.228-.914.228m-613.221-14.385c-.229 0-.457 0-.457-.228-.457-.229-.685-.914-.457-1.599 2.285-3.882 4.57-7.992 6.854-11.874.229-.456 1.143-.685 1.6-.456.457.228.685 1.141.457 1.598-2.285 3.882-4.57 7.764-6.855 11.874-.228.457-.685.685-1.142.685m600.198-9.591c-.457 0-.686-.228-.914-.456-2.285-3.882-4.798-7.764-7.311-11.646-.457-.456-.229-1.141.228-1.598s1.143-.228 1.6.228c2.513 3.882 5.026 7.764 7.311 11.646.228.456.228 1.141-.457 1.598 0 .228-.229.228-.457.228M138.52 179.506c-.228 0-.457 0-.685-.229-.457-.456-.686-1.141-.229-1.598 2.514-3.882 5.255-7.535 7.768-11.417.457-.457 1.143-.685 1.6-.229s.685 1.142.228 1.599c-2.741 3.653-5.255 7.535-7.768 11.189 0 .456-.457.685-.914.685m570.954-8.906c-.457 0-.686-.228-.914-.456a171 171 0 0 0-8.225-10.961c-.457-.457-.229-1.142.228-1.598s1.143-.229 1.6.228l8.225 10.961c.457.456.228 1.141-.229 1.598-.228 0-.457.228-.685.228m-554.732-13.244c-.229 0-.457 0-.686-.228-.457-.457-.685-1.142-.228-1.598 2.742-3.654 5.712-7.079 8.682-10.732.457-.457 1.142-.457 1.599-.229.457.457.457 1.142.229 1.599-2.97 3.425-5.941 7.078-8.682 10.503-.229.457-.686.685-.914.685m538.053-8.448c-.228 0-.685-.229-.914-.457l-8.91-10.275a1.104 1.104 0 0 1 0-1.599 1.106 1.106 0 0 1 1.599 0c2.97 3.425 6.169 6.851 8.911 10.276.457.456.228 1.141-.229 1.598.229.228-.228.457-.457.457m-520.461-12.559c-.228 0-.457 0-.685-.228a1.104 1.104 0 0 1 0-1.599c3.198-3.425 6.397-6.622 9.596-9.818a1.104 1.104 0 0 1 1.599 0 1.103 1.103 0 0 1 0 1.598c-3.199 3.197-6.397 6.622-9.367 9.819-.457.228-.686.228-1.143.228m502.183-7.764c-.228 0-.685-.228-.914-.456-3.198-3.197-6.397-6.394-9.824-9.591a1.103 1.103 0 0 1 0-1.598 1.104 1.104 0 0 1 1.599 0c3.428 3.197 6.626 6.393 9.825 9.59a1.104 1.104 0 0 1 0 1.599c-.229.228-.457.456-.686.456M191.754 116.94c-.228 0-.685-.228-.913-.457a1.103 1.103 0 0 1 0-1.598c3.427-3.197 6.854-6.165 10.281-9.134.457-.457 1.142-.457 1.599.228.457.457.457 1.142-.228 1.599-3.427 2.968-6.855 5.937-10.282 9.134 0 .228-.228.228-.457.228m462.886-7.307c-.228 0-.457 0-.685-.228-3.427-2.969-6.854-5.937-10.51-8.677-.457-.457-.457-1.142-.228-1.599.457-.457 1.142-.457 1.599-.228 3.655 2.968 7.083 5.937 10.51 8.905a1.104 1.104 0 0 1 0 1.599c-.229.228-.457.228-.686.228M212.545 99.129c-.228 0-.685-.228-.913-.457-.457-.456-.229-1.141.228-1.598 3.656-2.74 7.311-5.708 10.967-8.22.457-.457 1.142-.228 1.599.228.457.457.229 1.142-.228 1.599l-10.967 8.22c-.229.228-.457.228-.686.228m420.619-6.622c-.229 0-.457 0-.686-.228-3.655-2.74-7.311-5.48-11.195-7.992-.457-.457-.685-1.142-.228-1.598s1.142-.685 1.599-.229c3.656 2.512 7.54 5.252 11.195 7.992.457.457.686 1.142.229 1.599-.229.228-.457.456-.914.456m-398.457-9.59c-.457 0-.685-.228-.914-.457-.457-.456-.228-1.141.229-1.598 3.884-2.512 7.768-5.024 11.652-7.307.457-.229 1.142-.229 1.599.457.229.456.229 1.141-.457 1.598-3.884 2.283-7.768 4.795-11.423 7.307zm375.838-5.937c-.229 0-.457 0-.685-.228-3.884-2.512-7.769-4.795-11.653-7.079-.457-.228-.685-.913-.456-1.598.228-.457.913-.685 1.599-.457 3.884 2.283 7.996 4.567 11.88 7.079.457.228.686 1.141.457 1.598-.457.685-.685.685-1.142.685m-352.533-8.22c-.457 0-.686-.229-.914-.685-.229-.457 0-1.142.457-1.599 3.884-2.283 7.996-4.338 12.109-6.393.457-.229 1.142 0 1.599.456.228.457 0 1.142-.457 1.599-4.112 2.055-7.997 4.338-12.109 6.393-.457.229-.457.229-.685.229m328.772-5.252c-.229 0-.457 0-.457-.229l-12.338-6.165c-.685-.228-.914-.913-.457-1.598.229-.457.914-.913 1.6-.457l12.337 6.165c.457.229.686.914.457 1.599-.457.456-.685.685-1.142.685M282.23 56.2c-.457 0-.914-.229-1.143-.685-.228-.685 0-1.142.457-1.599 4.113-1.826 8.454-3.653 12.566-5.48.686-.228 1.143 0 1.6.685.228.685 0 1.142-.686 1.599-4.112 1.826-8.453 3.653-12.566 5.48zm279.65-4.339h-.457c-4.112-1.826-8.453-3.425-12.794-5.023-.686-.228-.914-.913-.686-1.37.229-.685.914-.914 1.371-.685 4.341 1.598 8.682 3.425 12.795 5.023.685.229.914.914.685 1.599 0 0-.457.456-.914.456m-254.29-6.165c-.457 0-.914-.228-1.142-.685q-.343-1.028.685-1.37c4.341-1.598 8.682-3.197 13.023-4.567.686-.228 1.142.229 1.371.685.228.685-.229 1.142-.685 1.37-4.341 1.37-8.682 2.969-12.795 4.567zm228.701-3.653h-.457l-13.023-4.11c-.685-.229-.913-.914-.685-1.37q.343-1.029 1.371-.686l13.023 4.11c.685.229.914.914.685 1.37 0 .457-.457.686-.914.686m-202.655-4.567c-.457 0-.914-.228-1.142-.913-.229-.686.228-1.142.685-1.37 4.341-1.142 8.91-2.284 13.251-3.426.686-.228 1.143.229 1.371.914.229.685-.228 1.141-.914 1.37-4.341 1.141-8.91 2.283-13.251 3.425.229 0 .229-.228 0 0m176.153-2.969h-.229c-4.341-1.141-8.91-2.055-13.251-2.968-.686-.228-.914-.685-.914-1.37.228-.685.685-.914 1.371-.914 4.569.914 8.91 1.827 13.479 2.969.686.228.914.685.914 1.37-.228.685-.685.913-1.37.913m-149.422-3.425c-.457 0-.914-.456-1.142-.913-.229-.685.228-1.142.914-1.37 4.569-.913 8.91-1.599 13.48-2.284.685 0 1.142.229 1.371.914 0 .685-.229 1.142-.914 1.37-4.57.456-9.139 1.37-13.709 2.283m122.69-2.055c-4.569-.685-9.139-1.37-13.708-1.827-.686 0-1.143-.685-.914-1.37 0-.685.685-1.141 1.371-.913 4.569.457 9.139 1.142 13.708 1.827.686 0 1.143.685.914 1.37-.457.457-.914.913-1.371.913m-95.73-2.283c-.685 0-1.142-.457-1.142-.914 0-.685.457-1.141.914-1.37l13.708-1.37c.685 0 1.142.457 1.142 1.142s-.457 1.142-1.142 1.142c-4.113.456-8.682.913-13.48 1.37q.343 0 0 0m68.542-.914c-4.57-.456-9.139-.685-13.708-.913-.686 0-1.143-.457-1.143-1.142s.457-1.141 1.143-1.141c4.569.228 9.138.456 13.708.913.685 0 1.142.685 1.142 1.142-.228.685-.685 1.141-1.142 1.141m-41.125-.913c-.686 0-1.143-.457-1.143-1.142s.457-1.141 1.143-1.141c4.112-.229 8.453-.229 12.566-.229h1.142c.686 0 1.143.457 1.143 1.142s-.457 1.142-1.143 1.142h-1.142c-4.341 0-8.454 0-12.566.228" fill="#C9CFCC"/><path d="M237.453 129.956c35.835 0 64.886-29.034 64.886-64.849S273.288.257 237.453.257c-35.836 0-64.887 29.035-64.887 64.85s29.051 64.849 64.887 64.849" fill="#09B850"/><path d="M184.445 73.327c0 23.519 18.964 37.904 42.496 37.904h37.927l-9.596-8.905c8.682-6.622 14.165-16.44 14.165-29 0-23.519-18.963-37.904-42.496-37.904-23.532 0-42.496 14.614-42.496 37.905" fill="#fff"/><path d="M226.943 112.374c-25.589 0-43.638-15.984-43.638-39.046 0-23.063 17.821-39.047 43.638-39.047 25.589 0 43.638 15.984 43.638 39.047 0 11.645-4.798 22.149-13.48 29.228l8.682 7.992c.457.228.457.913.229 1.141-.229.457-.686.685-1.143.685zm0-75.81c-24.218 0-41.354 15.071-41.354 36.764 0 21.692 16.907 36.763 41.354 36.763h35.185l-7.54-6.85c-.228-.229-.457-.457-.457-.914 0-.228.229-.685.457-.913 8.911-6.622 13.709-16.67 13.709-28.086-.229-21.464-17.136-36.763-41.354-36.763" fill="#202124"/><path d="M287.259 49.35c0 18.723-15.308 30.369-34.043 30.369h-30.615l7.768-7.079c-6.854-5.252-11.424-13.244-11.424-23.29 0-18.725 15.308-30.37 34.043-30.37 18.963-.229 34.271 11.417 34.271 30.37" fill="#fff"/><path d="M253.218 80.862h-30.615c-.457 0-.914-.228-1.143-.685-.228-.456 0-.913.229-1.142l6.854-6.165c-6.854-5.708-10.738-13.929-10.738-23.519 0-18.724 14.393-31.511 35.184-31.511 20.792 0 35.185 13.015 35.185 31.511s-14.165 31.511-34.956 31.511m-27.645-2.283h27.645c19.42 0 32.9-12.102 32.9-29.228s-13.48-29.228-32.9-29.228-32.9 12.102-32.9 29.228c0 9.134 3.884 17.126 10.967 22.378.228.228.457.456.457.913 0 .228-.229.685-.457.913z" fill="#202124"/><path d="M251.846 62.138q-2.056 0-3.427-1.37l-10.51-10.504c-2.056-2.055-2.056-5.023 0-7.078s5.027-2.055 7.083 0l6.854 6.85 17.364-17.354c1.828-2.055 5.027-2.055 7.083 0s2.056 5.023 0 7.078l-20.791 20.78c-1.143.913-2.285 1.598-3.656 1.598" fill="#09B850"/><path d="M251.846 63.28c-1.599 0-3.198-.684-4.34-1.826l-10.51-10.504c-1.143-1.142-1.828-2.74-1.828-4.338 0-1.599.685-3.197 1.828-4.339 2.284-2.283 6.397-2.283 8.682 0l6.168 6.165 16.451-16.44c2.284-2.284 6.397-2.284 8.681 0 1.143 1.141 1.828 2.74 1.828 4.338 0 1.599-.685 3.197-1.828 4.339l-20.791 20.779c-1.142 1.142-2.741 1.827-4.341 1.827m-10.509-20.55c-.914 0-2.057.457-2.742 1.142a3.78 3.78 0 0 0-1.142 2.74c0 .913.457 2.055 1.142 2.74l10.51 10.504c1.371 1.37 3.884 1.37 5.483 0l20.791-20.78a3.78 3.78 0 0 0 1.143-2.74c0-.913-.457-2.055-1.143-2.74-1.371-1.37-3.884-1.37-5.483 0L252.532 50.95a1.104 1.104 0 0 1-1.599 0l-6.855-6.85q-1.028-1.37-2.741-1.37" fill="#202124"/><path d="M836.608 362.559c5.691-35.361-18.378-68.636-53.758-74.324-35.381-5.687-68.676 18.367-74.366 53.728-5.691 35.36 18.377 68.636 53.758 74.323 35.38 5.688 68.675-18.367 74.366-53.727" fill="#09B850"/><path d="M761.798 334.78c2.057.913 3.884 2.283 5.027 3.882 1.142 1.598 1.828 3.653 1.828 5.937 0 2.055-.457 3.882-1.6 5.708-1.142 1.599-2.284 3.197-3.884 4.567-1.599 1.37-3.655 2.969-6.397 4.795-1.599.914-2.742 1.827-3.656 2.512h16.222v9.134h-30.615v-2.512c0-1.827.457-3.653 1.371-5.024.913-1.598 2.056-2.968 3.884-4.566 1.827-1.599 4.112-3.654 7.311-6.166 2.513-2.055 4.341-3.653 5.483-4.566 1.142-1.142 1.599-2.056 1.599-3.197a3.78 3.78 0 0 0-1.142-2.74c-.685-.685-1.828-1.142-3.427-1.142s-2.97.457-3.884 1.37-1.371 2.055-1.371 3.653v1.142h-9.596v-1.142c0-3.881 1.371-6.85 4.113-9.133 2.741-2.284 6.625-3.425 11.88-3.425 2.285-.457 4.798 0 6.854.913M791.043 340.26c-1.37 2.741-3.198 5.481-5.254 8.221-2.057 2.74-3.884 5.023-5.712 6.85h10.738v-7.764q1.713-2.397 3.427-5.48a30.5 30.5 0 0 0 2.285-5.252h4.569v18.496h5.255v7.992h-5.255v7.535h-10.281v-7.535h-18.049v-7.992c1.827-2.74 3.884-6.165 5.711-10.047s3.428-7.992 4.57-11.874h10.51c-.229 1.827-1.143 4.11-2.514 6.85" fill="#fff"/><path d="M768.881 372.229h-30.616c-.685 0-1.142-.456-1.142-1.141v-2.512c0-2.055.457-4.11 1.371-5.709q1.371-2.397 4.112-4.795 2.742-2.397 7.54-6.165c2.513-2.055 4.341-3.654 5.255-4.567s1.142-1.598 1.142-2.283-.228-1.37-.914-2.055c-.457-.457-1.371-.914-2.741-.914s-2.285.457-2.971 1.142a3.78 3.78 0 0 0-1.142 2.74v1.142c0 .685-.457 1.141-1.142 1.141h-9.596c-.686 0-1.142-.456-1.142-.913v-1.37c0-4.11 1.599-7.535 4.569-10.047s7.083-3.653 12.566-3.653c2.97 0 5.712.456 7.997 1.37 2.284.913 4.112 2.511 5.483 4.338s2.056 4.11 2.056 6.394-.685 4.338-1.828 6.165a20.8 20.8 0 0 1-4.112 4.795c-1.6 1.37-3.884 2.969-6.626 4.795-.228.229-.457.229-.685.457h12.566c.685 0 1.142.457 1.142 1.142v9.133c0 .685-.457 1.37-1.142 1.37m-29.473-2.283h28.33v-6.85h-15.079c-.457 0-.914-.229-1.142-.685-.229-.457 0-.914.457-1.37.914-.685 2.284-1.599 3.884-2.512 2.741-1.827 4.798-3.425 6.397-4.567 1.371-1.142 2.742-2.512 3.656-4.11.913-1.599 1.37-3.197 1.37-5.024 0-2.055-.457-3.653-1.599-5.252s-2.513-2.74-4.341-3.425c-2.056-.913-4.341-1.37-7.083-1.37-4.797 0-8.682 1.142-10.966 3.197-2.513 2.055-3.656 4.795-3.656 8.22h7.311c0-1.826.686-3.196 1.828-4.338s2.742-1.827 4.57-1.827c1.827 0 3.198.457 4.341 1.37.913.914 1.599 2.284 1.599 3.654s-.686 2.74-1.828 3.881q-1.713 1.713-5.483 4.796c-3.199 2.511-5.712 4.567-7.311 6.165a19.7 19.7 0 0 0-3.656 4.11c-.685 1.37-1.142 2.74-1.142 4.567v1.37zM801.094 372.229h-10.281c-.686 0-1.143-.456-1.143-1.141v-6.394h-16.907c-.685 0-1.142-.457-1.142-1.142v-7.992c0-.228 0-.456.229-.685 1.827-2.74 3.884-6.165 5.711-10.047 1.828-3.881 3.427-7.763 4.57-11.645.228-.457.685-.913 1.142-.913h10.51c.228 0 .685.228.914.456.228.229.228.685.228.914-.228 2.055-1.142 4.338-2.741 7.307-1.6 2.74-3.199 5.708-5.255 8.448-1.371 1.827-2.742 3.654-3.884 5.024h6.854v-6.622c0-.229 0-.457.228-.685 1.143-1.599 2.285-3.425 3.199-5.48 1.142-2.056 1.828-3.654 2.056-5.024.229-.457.686-.913 1.143-.913h4.569c.686 0 1.142.456 1.142 1.141v17.354h4.113c.685 0 1.142.457 1.142 1.142v7.992c0 .685-.457 1.142-1.142 1.142h-4.113v6.393c0 .685-.685 1.37-1.142 1.37m-9.139-2.283h7.997v-6.394c0-.685.457-1.141 1.142-1.141h4.113v-5.709h-4.113c-.685 0-1.142-.457-1.142-1.142v-17.354h-2.742q-.685 2.055-2.056 4.796c-1.143 2.055-2.285 3.881-3.199 5.48v7.307c0 .685-.457 1.141-1.142 1.141h-10.738c-.457 0-.914-.228-1.143-.685-.228-.456 0-.913.229-1.141 1.599-1.827 3.655-4.11 5.483-6.622 2.056-2.74 3.656-5.48 5.255-8.22a30.5 30.5 0 0 0 2.285-5.252h-8.225c-1.143 3.653-2.514 7.535-4.341 11.188-1.828 3.882-3.656 7.307-5.712 10.047v6.394h16.907c.685 0 1.142.457 1.142 1.142z" fill="#202124"/><path d="M772.305 404.881c-27.645 0-50.035-22.378-50.035-50.007s22.39-50.007 50.035-50.007c1.599 0 2.97 1.37 2.97 2.969s-1.371 2.968-2.97 2.968c-24.447 0-44.095 19.866-44.095 44.07 0 24.433 19.877 44.07 44.095 44.07 24.447 0 44.095-19.866 44.095-44.07 0-1.598 1.371-2.968 2.97-2.968s2.971 1.37 2.971 2.968c0 27.629-22.391 50.007-50.036 50.007" fill="#202124"/><path d="M767.962 322.45q-1.028 0-2.056-.685c-1.142-1.142-1.371-2.968-.228-4.11l8.682-9.362-9.825-7.992a2.93 2.93 0 0 1-.457-4.11 2.94 2.94 0 0 1 4.113-.457l12.109 10.047c.685.457.914 1.37 1.142 2.055 0 .914-.228 1.599-.685 2.284l-10.738 11.645c-.457.229-1.371.685-2.057.685M632.253 129.956c35.836 0 64.887-29.034 64.887-64.849S668.089.257 632.253.257s-64.886 29.035-64.886 64.85 29.051 64.849 64.886 64.849" fill="#202124"/><path d="M626.771 23.548c-14.851-4.11-30.158 4.566-34.271 19.409-3.656 13.472 3.199 27.629 15.765 32.88l-8.682 31.055c-.457 2.055.685 4.111 2.741 4.796 2.057.456 4.113-.685 4.798-2.74l8.682-31.055c13.48 1.827 26.732-6.622 30.387-20.094 4.113-14.842-4.569-30.141-19.42-34.251m-12.109 43.841c-9.367-2.511-14.851-12.33-12.338-21.692s12.338-14.843 21.705-12.33c9.368 2.511 14.851 12.33 12.338 21.692s-12.338 14.842-21.705 12.33" fill="#fff"/><path d="M603.465 112.83c-.457 0-.914 0-1.371-.228-1.37-.457-2.284-1.142-2.97-2.284-.685-1.142-.914-2.512-.457-3.882l8.225-30.14c-12.566-5.938-19.191-20.323-15.536-34.024 4.341-15.299 20.334-24.432 35.642-20.322 15.308 4.338 24.446 20.322 20.105 35.621-3.655 13.472-16.906 22.378-30.843 21.008l-8.225 30.141c-.457 1.37-1.143 2.283-2.285 2.968-.685.914-1.371 1.142-2.285 1.142m15.993-89.282c-11.652 0-22.39 7.764-25.817 19.638-3.427 12.787 2.97 26.487 15.079 31.51.457.23.914.914.685 1.37l-8.453 31.055c-.228.685 0 1.37.229 2.055.456.685.913 1.142 1.599 1.37s1.371.001 2.056-.228c.685-.457 1.142-.913 1.371-1.598l8.682-31.055c.228-.457.685-.913 1.142-.913 13.023 1.827 25.818-6.622 29.245-19.41 3.884-14.156-4.341-28.999-18.507-32.88-2.513-.457-5.026-.914-7.311-.914m0 45.669c-1.599 0-3.427-.229-5.026-.686a19.37 19.37 0 0 1-11.424-8.905c-2.513-4.338-3.198-9.362-1.827-14.157a19.36 19.36 0 0 1 8.91-11.417c4.341-2.512 9.367-3.197 14.165-1.827a19.37 19.37 0 0 1 11.424 8.905c2.513 4.339 3.199 9.362 1.828 14.158-2.285 8.448-9.825 13.929-18.05 13.929m0-35.393c-2.741 0-5.711.685-8.225 2.055-3.884 2.283-6.625 5.708-7.768 10.047-1.142 4.338-.685 8.677 1.6 12.558 2.284 3.882 5.711 6.622 10.052 7.764 8.682 2.512 17.821-2.74 20.334-11.417 1.143-4.339.686-8.677-1.599-12.559s-5.712-6.622-10.053-7.763c-1.371-.457-2.97-.685-4.341-.685" fill="#202124"/><path d="M601.639 113.973c-3.427-.913-5.484-4.566-4.341-7.763l4.341-15.984c.914-3.425 4.569-5.48 7.768-4.339 3.427.914 5.483 4.567 4.341 7.764l-4.341 15.984c-.686 3.425-4.341 5.48-7.768 4.338M665.839 21.266c3.427 1.598 6.169 3.653 7.996 6.393s2.97 5.937 2.97 9.59c0 2.284-.456 4.34-1.599 6.166-.914 1.827-2.285 3.425-3.655 4.567-1.371 1.37-3.199 2.74-5.255 4.11-1.828 1.37-2.97 2.284-3.884 3.197-.914.685-1.143 1.598-1.143 2.512v1.826h-15.307V55.06c0-1.37.457-2.74 1.371-3.881.913-1.142 2.284-2.74 4.112-4.339 2.056-1.827 3.427-3.197 4.57-4.567 1.142-1.37 1.599-2.968 1.599-4.567 0-1.826-.457-3.196-1.599-4.338-1.143-1.142-2.514-1.827-4.342-1.827-3.884 0-5.94 2.512-5.94 7.536v2.511h-16.45c0-.456-.228-.913-.228-1.37v-2.055c0-3.882 1.142-7.078 3.198-10.047 2.057-2.74 5.027-5.023 8.682-6.622 3.656-1.598 7.997-2.283 12.566-2.283 5.027-.229 8.911.457 12.338 2.055m-20.791 60.51V65.108h17.821v16.668z" fill="#09B850"/><path d="M662.869 82.917h-17.821c-.686 0-1.143-.456-1.143-1.141v-16.67c0-.684.457-1.141 1.143-1.141h17.821c.685 0 1.142.457 1.142 1.142v16.669c0 .456-.457 1.141-1.142 1.141m-16.679-2.283h15.536V66.248H646.19zm15.308-19.866H646.19c-.685 0-1.142-.456-1.142-1.142V55.06c0-1.599.457-3.197 1.599-4.567a36.4 36.4 0 0 1 4.341-4.567c1.828-1.599 3.427-3.197 4.341-4.567a6.2 6.2 0 0 0 1.371-3.882c0-1.37-.457-2.74-1.371-3.653q-1.37-1.37-3.427-1.37c-2.285 0-4.798.685-4.798 6.393v2.284c0 .228 0 .685-.229.913-.228.228-.457.457-.914.457h-16.45c-.456 0-1.142-.457-1.142-.914 0-.456-.228-.913-.228-1.37v-2.055c0-4.11 1.142-7.535 3.427-10.732 2.284-2.968 5.255-5.252 9.139-7.078 3.884-1.599 8.225-2.512 13.023-2.512 4.569 0 8.91.685 12.566 2.283 3.655 1.599 6.625 3.882 8.453 6.85 2.056 2.969 2.97 6.394 2.97 10.276 0 2.512-.457 4.795-1.599 6.85-1.142 1.827-2.285 3.654-3.884 4.795-1.371 1.37-3.199 2.74-5.255 4.11-1.599 1.37-2.97 2.284-3.656 2.969-.685.457-.913 1.142-.913 1.598v1.827c.228.913-.229 1.37-.914 1.37m-14.166-2.283h13.023V57.8c0-1.142.457-2.284 1.6-3.197.913-.913 2.056-1.827 3.884-3.197 2.056-1.37 3.884-2.74 5.026-4.11a13.1 13.1 0 0 0 3.427-4.338c.914-1.599 1.371-3.654 1.371-5.71q0-5.137-2.742-8.904c-1.827-2.512-4.341-4.567-7.539-5.937q-4.798-2.055-11.652-2.055c-4.57 0-8.682.685-12.109 2.283-3.428 1.37-6.398 3.653-8.226 6.165-1.827 2.512-2.97 5.709-2.97 9.362v2.284h14.394v-1.37c0-7.079 3.884-8.677 7.083-8.677 2.056 0 3.884.685 5.255 2.283 1.371 1.37 1.827 3.197 1.827 5.252 0 1.827-.685 3.653-1.827 5.252-1.143 1.37-2.742 2.968-4.57 4.795-1.828 1.598-3.198 3.197-4.112 4.338-.686.914-1.143 2.056-1.143 3.197z" fill="#202124"/><path d="M221.6 622.474c5.386-35.407-18.967-68.474-54.394-73.857s-68.513 18.956-73.899 54.363 18.967 68.474 54.394 73.857 68.513-18.956 73.899-54.363" fill="#09B850"/><path d="M183.757 648.294c-16.679 9.134-26.275 14.842-26.275 14.842s-9.596-5.708-26.274-14.842-15.993-20.094-15.993-20.094v-54.117l42.267-11.645 42.268 11.645V628.2s.914 10.96-15.993 20.094" fill="#fff"/><path d="M157.484 664.277c-.229 0-.457 0-.686-.228 0 0-9.824-5.937-26.274-14.842-17.135-9.362-16.45-20.551-16.45-21.008v-53.888c0-.457.229-.914.914-1.142l42.267-11.646h.686l42.267 11.646c.457.228.914.685.914 1.142v54.117c0 .456.686 11.645-16.45 21.007-16.45 8.905-26.274 14.842-26.274 14.842-.457-.228-.686 0-.914 0m-40.897-89.281v53.203c0 .229-.457 10.276 15.308 18.953 14.165 7.763 23.533 13.244 25.817 14.614 2.285-1.37 11.424-6.851 25.818-14.614 15.764-8.677 15.307-18.724 15.307-18.953v-53.203l-41.125-11.417z" fill="#202124"/><path d="M193.354 628.201v.457c0 .913-.914 7.535-12.566 13.929-11.195 6.165-19.192 10.732-23.305 13.015-4.112-2.512-12.109-7.079-23.304-13.015-11.423-6.166-12.566-12.788-12.566-13.929v-49.779l35.87-10.047 35.871 10.047z" fill="#09B850"/><path d="M149.714 630.939c-2.056 0-3.884-.685-5.255-2.283l-15.536-15.528c-2.97-2.968-2.97-7.535 0-10.503s7.54-2.969 10.51 0l10.281 10.275 26.046-25.803c2.97-2.968 7.539-2.968 10.51 0s2.97 7.536 0 10.504l-31.073 31.055c-1.599 1.37-3.427 2.283-5.483 2.283" fill="#fff"/><path d="M149.714 632.08c-2.285 0-4.569-.914-6.169-2.512l-15.536-15.527c-1.599-1.599-2.513-3.882-2.513-6.166 0-2.283.914-4.567 2.513-6.165 1.6-1.598 3.884-2.512 6.169-2.512s4.341.914 6.169 2.512l9.596 9.59 25.132-25.117c3.198-3.197 8.91-3.197 12.109 0 1.599 1.598 2.513 3.882 2.513 6.165s-.914 4.567-2.513 6.165l-31.073 31.055c-1.827 1.598-4.112 2.512-6.397 2.512m-15.536-30.598c-1.599 0-3.199.685-4.569 1.826-1.143 1.142-1.828 2.741-1.828 4.567 0 1.599.685 3.197 1.828 4.567l15.536 15.527c2.284 2.284 6.625 2.284 8.91 0l31.072-31.054c1.143-1.142 1.828-2.74 1.828-4.567 0-1.598-.685-3.197-1.828-4.567-2.284-2.283-6.625-2.283-8.91 0l-25.589 26.031a1.104 1.104 0 0 1-1.599 0l-10.281-10.275c-1.371-1.37-2.971-2.055-4.57-2.055M786.131 623.098c5.691-35.36-18.377-68.636-53.758-74.324-35.38-5.687-68.675 18.367-74.366 53.728-5.691 35.36 18.378 68.636 53.758 74.323 35.381 5.688 68.676-18.367 74.366-53.727" fill="#202124"/><path d="m715.415 654.913-1.371 9.134c8.454 1.37 17.364.456 25.589-2.512l-3.198-8.677c5.483-1.827 10.281-4.795 14.622-8.677l6.169 6.85c6.397-5.937 11.424-13.244 14.165-21.464l-8.682-2.969c.686-2.283 1.371-4.795 1.828-7.307.457-3.196.685-6.393.457-9.59l9.139-.685c-.686-8.677-3.427-17.126-7.997-24.432l-7.768 5.023c-2.97-4.795-7.082-8.905-11.88-12.33l5.255-7.536c-7.083-5.023-15.537-7.992-24.219-8.905l-.914 9.134c-5.94-.685-11.652 0-16.906 1.598l-2.742-8.905c-8.454 2.511-15.993 7.078-21.934 13.243l6.626 6.622c-3.884 3.882-7.082 8.677-9.367 14.158l-8.454-3.426c-3.198 7.992-4.341 16.898-3.427 25.575l9.139-1.142c.686 5.709 2.513 11.189 5.255 15.984l-7.997 4.567c4.341 7.535 10.51 13.929 17.821 18.496l4.798-7.764a43.7 43.7 0 0 0 15.993 5.937m-19.42-46.354c2.285-14.385 15.765-24.204 30.159-21.92s24.218 15.755 21.933 30.141-15.765 24.204-30.159 21.921c-14.165-2.284-24.218-15.756-21.933-30.142" fill="#fff"/><path d="M723.382 645.486c18.274-.883 32.372-16.404 31.489-34.668s-16.414-32.354-34.688-31.471-32.373 16.404-31.49 34.668c.884 18.264 16.414 32.354 34.689 31.471" fill="#09B850"/><path d="M722.041 665.873c-2.742 0-5.483-.228-7.997-.685-.228 0-.685-.228-.685-.457-.229-.228-.229-.456-.229-.913l1.371-7.992c-5.026-.913-9.824-2.74-14.165-5.252l-4.341 6.85c-.228.229-.457.457-.685.457s-.686 0-.914-.228c-7.54-4.795-13.937-11.417-18.278-18.953-.229-.456-.229-1.141.457-1.598l7.082-4.11q-3.77-6.508-4.797-14.386l-7.997.914c-.228 0-.685 0-.914-.229-.228-.228-.457-.456-.457-.685-.914-9.133.229-18.039 3.427-26.031.229-.685.914-.913 1.371-.685l7.54 2.969c2.056-4.796 4.798-8.906 8.453-12.787l-5.712-5.709a1.103 1.103 0 0 1 0-1.598c6.398-6.394 14.166-11.189 22.391-13.473.685-.228 1.142.229 1.37.685l2.285 7.764q7.54-2.055 15.079-1.37l.914-7.992c0-.685.686-1.142 1.143-.913 8.91.913 17.364 4.11 24.675 9.133.457.457.685 1.142.228 1.599l-4.569 6.622c4.112 2.968 7.768 6.622 10.51 10.96l6.854-4.338c.457-.229 1.142-.229 1.599.228 4.798 7.307 7.54 15.756 8.225 24.889 0 .229 0 .685-.229.914-.228.228-.456.456-.685.456l-7.996.685c0 2.969 0 5.937-.457 8.677-.229 2.055-.914 4.11-1.371 6.394l7.539 2.512c.686.228.914.913.686 1.37-2.513 7.992-7.54 15.755-14.394 21.92-.228.229-.457.229-.914.229-.228 0-.685-.229-.685-.457l-5.484-5.937c-3.884 3.425-8.225 5.937-13.023 7.764l2.742 7.535v.914l-.685.685c-5.941 2.511-12.109 3.653-18.278 3.653m-6.626-2.74c7.768.913 15.536.228 22.847-2.283l-2.741-7.536q-.343-1.027.685-1.37c5.255-1.827 10.053-4.795 14.165-8.448a1.105 1.105 0 0 1 1.6 0l5.483 5.936c5.712-5.708 10.053-12.33 12.566-19.18l-7.54-2.512c-.685-.228-.913-.913-.685-1.37.914-2.512 1.371-4.795 1.828-7.079.457-2.968.685-6.165.457-9.362 0-.685.457-1.141 1.142-1.141l7.997-.686c-.686-7.763-3.199-15.298-7.083-21.692l-6.854 4.338c-.229.229-.457.229-.914.229-.228 0-.457-.228-.685-.457-2.971-4.795-6.855-8.677-11.424-11.874-.228-.228-.457-.456-.457-.685 0-.228 0-.685.229-.913l4.569-6.622a48.15 48.15 0 0 0-21.476-7.992l-.914 7.992c0 .685-.686 1.142-1.143.913-5.483-.685-10.966 0-16.45 1.599-.685.228-1.142-.228-1.371-.685l-2.284-7.764c-7.311 2.284-13.937 6.394-19.649 11.874l5.712 5.709c.228.228.228.456.228.913s-.228.685-.228.913c-3.884 3.882-6.854 8.449-9.139 13.701-.229.685-.914.913-1.599.685l-7.54-2.969c-2.742 6.851-3.656 14.843-2.97 22.835l7.996-.914c.686 0 1.143.457 1.371.914.686 5.708 2.513 10.96 5.255 15.755.229.229.229.685.229.914s-.229.456-.457.685l-7.083 4.11c3.884 6.393 9.367 12.102 15.993 16.44l4.341-6.85c.229-.457 1.142-.685 1.599-.457 4.798 2.969 10.053 4.796 15.537 5.709.685 0 1.142.685.913 1.37z" fill="#202124"/><path d="M744.888 613.811c1.371.685 2.742 1.371 3.656 2.512 2.285 2.284 3.656 5.48 3.427 8.677v3.425c0 .914-.914 1.37-1.599.914l-4.57-3.425c-.685-.457-1.371-.685-2.056-.914l-3.199-.685c-1.827-.456-3.884 0-5.254 1.37-1.371 1.37-2.057 3.425-1.371 5.252l.685 3.197c.229.685.457 1.37.914 2.055l3.427 4.567c.457.685 0 1.598-.914 1.598h-3.427c-3.199 0-6.397-1.141-8.682-3.425-1.142-1.142-1.828-2.283-2.513-3.653s-.914-2.969-.914-4.339l-.228-4.11c0-1.37-.686-2.74-1.6-3.882l-10.509-9.819q-1.371-.685-2.742-.685h-4.113c-1.599 0-2.97-.228-4.569-.913-1.371-.685-2.742-1.37-3.656-2.512-2.284-2.283-3.655-5.48-3.655-8.677v-3.425c0-.913.914-1.37 1.599-.913l4.798 3.425c.685.457 1.371.685 2.056.913l3.199.685c1.828.457 3.884-.228 5.255-1.598s1.828-3.425 1.371-5.48l-.914-3.197c-.229-.685-.457-1.37-.914-2.055l-3.427-4.567c-.457-.685 0-1.598.685-1.598h3.427c3.199-.229 6.397 1.141 8.911 3.425 1.142 1.141 2.056 2.283 2.513 3.653.685 1.37.914 2.969 1.142 4.339l.229 4.11c0 1.37.685 2.74 1.599 3.882l11.424 10.503c.457.229 1.142.229 1.827.457h4.113c1.599 0 2.97.457 4.569.913" fill="#fff"/><path d="M734.379 643.726c-3.428 0-6.855-1.37-9.368-3.882q-1.713-1.713-2.741-4.11c-.686-1.37-1.143-3.197-1.143-4.796l-.228-4.11c0-1.141-.457-2.283-1.371-2.968l-10.281-9.59c-.686-.457-1.371-.457-2.057-.457h-4.112c-1.6 0-3.427-.457-4.798-.914q-2.399-1.027-4.113-2.74c-2.513-2.511-4.112-5.936-3.884-9.59v-3.425c0-.913.457-1.599 1.143-1.827.685-.457 1.599-.228 2.284.228l4.798 3.426c.457.228.914.685 1.6.685l3.198.685c1.6.456 3.199 0 4.341-1.142s1.6-2.74 1.143-4.339l-.914-3.196c-.229-.457-.457-1.142-.686-1.599l-3.427-4.567c-.457-.685-.685-1.598-.228-2.283s1.142-1.142 1.828-1.37h3.427c3.655-.228 7.082 1.142 9.595 3.653q1.715 1.713 2.742 4.111c.686 1.37 1.143 3.196 1.143 4.795l.228 4.11c0 1.142.457 2.283 1.371 2.968l11.423 10.276c.457.228.686.228 1.143.228h4.112c1.6 0 3.427.457 4.798 1.142q2.4 1.027 4.113 2.74c2.513 2.512 3.884 5.937 3.884 9.59v3.425c0 .914-.457 1.599-1.143 1.827-.685.457-1.599.229-2.284-.228l-4.57-3.425c-.457-.229-.914-.685-1.599-.685l-3.199-.685c-1.599-.457-3.198 0-4.341 1.141-1.142 1.142-1.599 2.74-1.142 4.339l.685 3.197c.229.456.457 1.141.686 1.598l3.427 4.567c.457.685.685 1.598.228 2.283s-1.142 1.142-1.827 1.37h-3.427c-.229-.456-.229-.456-.457-.456m-41.811-47.039v3.425c0 2.969 1.142 5.937 3.199 7.992.914.914 2.056 1.827 3.427 2.284s2.741.913 4.112.913h4.113c1.142 0 2.285.457 3.198.913 0 0 .229 0 .229.229l10.51 9.819c1.142 1.141 2.056 2.74 2.056 4.566l.228 4.11c0 1.371.457 2.741.914 3.882.457 1.37 1.371 2.512 2.285 3.425 2.056 2.056 5.026 3.197 7.997 3.197h3.427l-3.656-4.567c-.457-.685-.914-1.598-1.142-2.283l-.686-3.197a6.15 6.15 0 0 1 1.828-6.393c1.599-1.599 4.113-2.284 6.397-1.827l3.199.685c.914.228 1.599.685 2.285 1.142l4.569 3.425v-3.425c0-2.969-1.142-5.937-3.199-7.992-.913-.914-2.056-1.827-3.427-2.284s-2.741-.913-4.112-.913h-4.113c-.685 0-1.599-.228-2.056-.457-.228 0-.228-.228-.457-.228l-11.423-10.504c-1.143-1.142-2.057-2.74-2.057-4.567l-.228-4.11c0-1.37-.457-2.74-.914-3.882s-1.371-2.283-2.285-3.425c-2.056-2.055-5.026-3.197-7.996-2.968h-3.427l3.655 4.567c.457.685.914 1.598 1.142 2.283l.914 2.968c.686 2.284 0 4.796-1.599 6.394s-4.112 2.512-6.397 1.827l-3.199-.685c-.914-.229-1.599-.685-2.285-1.142zM138.748 362.908c5.902-35.324-17.966-68.742-53.31-74.641s-68.783 17.956-74.685 53.28c-5.902 35.325 17.966 68.743 53.31 74.641 35.346 5.899 68.783-17.955 74.685-53.28" fill="#202124"/><path d="M69.524 390.723c-1.143.685-2.285 1.37-3.428 1.827s-2.513.456-3.884 0c-1.142-.457-2.284-1.37-2.513-2.74-.228-.685 0-1.371.229-1.827-1.143.456-2.514.685-3.884.456-1.371-.228-2.514-1.37-2.97-2.511 0-.229 0-.457-.23-.685h-.227a4.21 4.21 0 0 1-4.113-1.827c-.228-.457-.457-.913-.457-1.37-1.6.457-3.656-.228-4.57-1.598-1.142-1.371-1.142-3.426-.228-4.796l5.712 3.425 5.026 3.197 7.083 4.339 1.142.685z" fill="#fff"/><path d="M107.679 372.227c-1.371 3.425-3.884 4.11-3.884 4.11l-4.113.228v.228s0 2.284-.914 5.481-4.798 2.968-4.798 2.968l-1.142-.457s.228 1.599-.914 3.882-4.341 2.055-4.341 2.055l-4.341-1.826s-.457 3.196-2.056 4.795c-1.6 1.826-4.341.913-4.341.913l-7.083-3.653-7.082-3.654-1.143-.685-7.083-4.338-5.026-3.197-5.712-3.425-4.112-2.512v-33.338l7.768 2.283s19.648-8.22 21.933-8.448c2.285 0 16.907 1.826 16.907 1.826l3.427 3.197c-5.255-.456-11.423-.685-12.794-.456-2.742.228-16.45 7.992-16.45 7.992l-6.626 12.33s.685 3.882 6.169 1.598c5.483-2.283 8.453-7.078 8.453-7.078l9.368-2.512 22.162 15.299 8.453 1.827c-.685-.229.685 1.141-.685 4.567" fill="#fff"/><path d="M110.647 334.551v32.881l-2.741-.228-8.454-1.827-22.162-15.299-9.367 2.512s-2.97 4.795-8.454 7.078c-5.254 2.284-6.168-1.598-6.168-1.598l6.625-12.33s13.709-7.536 16.45-7.992c1.6-.229 7.54.228 12.795.456 4.57.229 8.453.685 8.453.685z" fill="#fff"/><path d="M96.484 377.478c-.229 0-.457 0-.686-.229l-13.708-8.448c-.457-.229-.685-1.142-.457-1.599.229-.456 1.142-.685 1.6-.456l13.48 8.22 7.082-.228s1.828-.457 2.97-3.197c.686-1.827.457-2.969.229-3.425l-7.997-1.827c-.228 0-.228 0-.457-.228L76.835 350.99l-8.453 2.283c-.914 1.142-3.884 5.024-8.682 7.079-2.285.913-4.113 1.142-5.484.228-1.599-.913-2.056-2.511-2.056-2.74 0-.228 0-.456.229-.685l6.625-12.33c0-.229.229-.457.457-.457 2.285-1.37 13.937-7.764 16.907-7.992 2.742-.228 19.192.914 21.477 1.142l12.566-4.339q1.028-.342 1.371.685t-.686 1.37l-13.023 4.796h-.457c-5.255-.457-18.963-1.37-21.248-1.142-1.828.228-10.51 4.795-15.764 7.535l-6.17 11.646c.23.228.458.685.915.913.685.457 2.056.228 3.655-.457 5.027-2.055 7.768-6.622 7.997-6.622.228-.228.457-.456.685-.456l9.368-2.512c.228 0 .685 0 .914.228l21.933 15.071 8.225 1.827c.228 0 .457.228.685.228.229.228 1.828 2.055.229 5.937s-4.57 4.567-4.798 4.795z" fill="#202124"/><path d="M94.2 386.154h-.686l-13.022-5.937c-.686-.228-.914-.913-.457-1.598.228-.685.913-.914 1.599-.457l12.794 5.937c.686 0 2.97-.228 3.428-2.284.913-2.968.913-5.251.913-5.251 0-.685.457-1.142 1.143-1.142s1.142.457 1.142 1.142c0 0 0 2.511-1.142 5.936-1.143 2.969-4.113 3.654-5.712 3.654" fill="#202124"/><path d="M87.344 391.405h-.457l-16.221-6.393c-.686-.229-.914-.914-.686-1.37.229-.685.914-.914 1.371-.685l15.993 6.393c.457 0 2.513-.228 3.199-1.37.914-1.826.914-3.197.914-3.197 0-.685.457-1.141.914-1.141.685 0 1.142.456 1.37.913 0 .228.229 2.055-1.142 4.567-1.142 2.283-4.341 2.283-5.255 2.283" fill="#202124"/><path d="M77.979 395.747c-.914 0-1.6-.228-1.6-.228h-.228l-14.394-7.307-23.304-14.157c-.457-.229-.686-1.142-.457-1.599.228-.456 1.142-.685 1.6-.456l23.303 14.157 14.166 7.079c.457 0 2.056.456 2.97-.685 1.37-1.599 1.828-4.339 1.828-4.339.228-.685.685-1.142 1.37-.913.686 0 1.143.685.914 1.37 0 .228-.685 3.425-2.284 5.48-1.371 1.37-2.742 1.598-3.884 1.598M46.904 342.998h-.228l-7.768-2.284c-.686-.228-.914-.913-.686-1.37.229-.685.914-.913 1.371-.685l7.54 2.055c4.112-1.598 19.648-8.22 21.933-8.448 2.285-.229 15.765 1.598 17.136 1.827.228 0 .457.228.685.228l3.427 3.197a1.103 1.103 0 0 1 0 1.598 1.104 1.104 0 0 1-1.6 0l-3.198-2.968c-4.34-.457-14.622-1.827-16.45-1.599-1.37 0-12.109 4.339-21.476 8.449zM110.648 368.801l-2.97-.229c-.686 0-1.143-.685-1.143-1.141 0-.685.686-1.142 1.143-1.142l2.741.228c.686 0 1.143.685 1.143 1.142.228.685-.457 1.142-.914 1.142" fill="#202124"/><path d="M63.813 394.145c-.686 0-1.371 0-2.056-.456-1.6-.685-2.97-2.055-3.2-3.654-.456-1.826.458-3.882 2.286-4.567.685-.228 1.142 0 1.599.685.228.685 0 1.142-.685 1.599-.686.228-1.143 1.142-.914 2.055a2.48 2.48 0 0 0 1.827 1.827c.914.228 2.057.228 3.199 0 1.142-.457 2.285-1.142 3.199-1.599.457-.456 1.142-.228 1.599.229.457.456.228 1.141-.229 1.598-1.142.685-2.284 1.37-3.655 1.827-1.142.228-2.056.456-2.97.456" fill="#202124"/><path d="M57.186 389.809c-.457 0-.914 0-1.6-.229-1.828-.456-3.198-1.826-3.884-3.425-.685-1.826 0-3.882 1.6-5.023.456-.457 1.142-.229 1.599.228s.228 1.142-.229 1.598c-.685.457-.914 1.371-.685 2.284s1.142 1.598 2.056 1.827 2.056 0 3.199-.457c.685-.228 1.142 0 1.6.457.227.685 0 1.141-.458 1.598-1.142.913-2.285 1.142-3.199 1.142" fill="#202124"/><path d="M51.702 386.614c-1.828 0-3.427-.914-4.341-2.512-.914-1.827-.686-4.339.685-5.709a1.106 1.106 0 0 1 1.6 0 1.104 1.104 0 0 1 0 1.599c-.686.685-.914 2.055-.457 2.968.457.914 1.827 1.599 2.741 1.37.686-.228 1.143.229 1.371.914.229.685-.228 1.141-.914 1.37z" fill="#202124"/><path d="M46.677 383.416c-1.6 0-3.427-.685-4.341-2.055-1.37-1.826-1.37-4.338-.228-6.165.457-.457 1.142-.685 1.599-.228.457.456.685 1.141.228 1.598-.685.913-.685 2.512 0 3.425.686.914 2.285 1.37 3.427 1.142.686-.228 1.143.228 1.371.685.229.685-.228 1.142-.685 1.37-.229 0-.686.228-1.371.228" fill="#202124"/><path d="M39.137 335.235v42.7l-20.563-3.881v-42.472zM131.211 328.156v42.472l-20.563 3.882v-42.7z" fill="#09B850"/><mask id="a" style="mask-type:luminance" maskUnits="userSpaceOnUse" x="110" y="59" width="590" height="619"><path d="M699.88 404.878c0 150.478-122.005 272.641-272.797 272.641-103.498 0-193.516-57.771-239.668-142.486h-76.767V59.625h500.584v144.084c54.605 49.778 88.648 121.478 88.648 201.169" fill="#fff"/></mask><g mask="url(#a)"><path d="M501.795 160.552c-1.827-.914-3.884-1.599-5.94-1.599 0 0-4.112-.913-8.91.685 0-51.605-35.87-68.274-58.261-73.754-.228 0-.457 0-.457-.229-1.371-.228-2.513-.685-3.655-.913-7.768-1.599-13.252-1.599-13.252-1.599.686-.228 1.143-.456 1.828-.684 2.97-1.142 5.94-2.056 8.911-2.284 3.655-.457 7.311-.228 10.738.457 1.142.228 2.056.456 3.198.685 60.089 16.897 65.344 70.101 65.8 79.235" fill="#fff"/><path d="M495.853 219.008s-4.113.913-8.91-.685q-3.085-1.028-6.169-3.426c-4.57-4.11-8.454-11.645-8.454-25.574 0-5.708.686-10.504 1.828-14.157 1.142-4.339 2.97-7.307 4.798-9.59 2.285-2.741 5.255-4.339 7.768-5.252 4.798-1.599 8.911-.685 8.911-.685-10.51 0-18.735 13.472-18.735 29.913.228 15.983 8.682 29.456 18.963 29.456" fill="#fff"/><path d="M514.817 189.095c0 5.708-1.142 11.188-2.741 15.755-1.6 4.339-4.113 7.992-6.855 10.504-.914.913-2.056 1.598-3.198 2.283-1.828.914-3.884 1.599-5.941 1.599-10.509 0-18.734-13.472-18.734-29.913s8.453-29.913 18.734-29.913c2.057 0 4.113.457 5.941 1.599 7.311 3.425 12.794 14.613 12.794 28.086" fill="#09B850"/><path d="M486.943 159.866c-2.513.913-5.255 2.511-7.768 5.252-2.97-10.504-10.738-18.724-19.192-25.575-8.453-6.85-17.82-12.787-25.36-21.007-6.626-7.307-11.881-16.669-11.424-26.488-42.953 8.449-50.949 37.905-51.863 42.7.228-1.142.457-2.283.685-3.653-8.91-15.756-6.168-39.732 9.139-42.244 15.308-2.511 30.159-5.48 30.159-5.48s5.255 0 13.251 1.599c1.371.228 2.742.684 4.341.913 22.162 5.708 58.032 22.377 58.032 73.983" fill="#202124"/><path d="M511.846 204.85c1.828-4.567 2.742-10.047 2.742-15.756 0-13.244-5.483-24.661-13.023-28.543-.457-9.133-5.483-62.337-65.8-79.006-.914-.228-2.056-.457-3.199-.685-3.655-.685-7.311-.913-10.738-.457v-.228s39.754-23.976 74.939 9.59c3.656 3.654 7.311 7.764 10.967 12.788 36.784 50.692 5.483 100.242 4.112 102.297" fill="#202124"/><path d="m491.514 296.186-.914 67.59c-7.997 12.787-27.645 36.535-63.973 32.424-23.532-2.74-37.241-11.873-45.237-21.007 4.341-42.7 7.996-75.81 7.996-75.81 1.6-3.197 2.742-6.622 3.656-10.047.228-.456.228-1.141.457-1.598 60.545-.914 74.025-45.669 74.025-45.669-20.106 17.126-45.694 23.976-62.373 22.15-2.513-.229-5.255-1.142-7.768-2.512-20.106-10.276-38.155-48.637-31.986-74.668 6.625-27.858 1.371-24.433 5.94-51.834 0 0 0-.228.229-.685.913-4.795 8.681-34.251 51.863-42.7-.229 9.819 4.798 19.181 11.423 26.488 7.312 7.992 16.679 13.929 25.361 21.007 8.453 6.851 16.221 15.071 19.192 25.575q-3.085 3.425-4.798 9.59c-1.143 3.654-1.828 8.449-1.828 14.157 0 14.158 3.884 21.693 8.453 25.575q3.085 2.74 6.169 3.425c-.914 1.598-1.828 3.197-2.97 4.795 0 0-.685 8.449-.685 19.866 0 11.874.685 27.401 3.655 40.188.914 5.48 2.513 9.819 4.113 13.7" fill="#fff"/><path d="M501.795 217.41s-12.794 11.417-18.049 25.574c0-11.417.686-19.865.686-19.865.913-1.599 2.056-3.197 2.97-4.795 4.798 1.598 8.91.685 8.91.685 1.599 0 3.656-.685 5.483-1.599M467.525 242.07s-13.48 44.755-74.025 45.669c3.656-13.244 4.113-26.031 4.113-26.031 2.513 1.37 5.026 2.055 7.768 2.511 16.221 2.056 42.039-4.795 62.144-22.149" fill="#202124"/><path d="M393.042 289.336c-.914 3.425-2.285 6.85-3.656 10.047 0 0-3.655 33.11-7.996 75.81-6.169 60.967-13.709 141.343-14.394 173.083-.914 53.889-19.877 194.319-19.877 194.319h-67.857s30.844-188.61 34.271-202.311c3.427-13.472-29.016-49.779-25.817-82.888-23.076 9.818-70.598 29.228-98.243 36.535-37.698 9.818-63.973-1.827-66.029-25.803s55.976-183.131 55.976-183.131q2.399-.685 5.483-.685c15.308.229 36.327 13.473 45.466 19.41 2.742 1.826 4.341 3.196 4.341 3.196l-19.42 71.928s46.837-46.353 65.115-64.392 76.767-16.213 76.767-16.213c17.135-7.307 29.473-8.677 35.87-8.905M720.67 514.711c-17.363 31.511-74.025 120.336-74.025 120.336s-4.798-.685-11.423-3.653c-9.825-4.339-23.761-13.929-33.357-34.48-1.371-2.74-2.514-5.48-3.656-8.677l40.211-100.471-60.773-21.464-28.56 120.337c-2.97.913-5.94 2.055-8.91 3.196-10.053 3.882-20.334 7.764-30.387 11.874-2.97 1.142-6.397 2.969-6.626 6.165 0 2.969 3.199 5.024 5.941 5.481s5.712.228 8.453.913c-5.026 2.055-10.053 4.11-15.307 6.165-1.371.685-3.199 1.37-3.428 2.969-.228 1.37.914 2.74 2.057 3.653 3.655 2.74 8.225 3.654 12.794 3.425 4.57-.228 8.911-1.598 13.252-2.74 7.996-2.283 15.993-4.567 23.989-7.079a2782 2782 0 0 0-35.413 20.095c-1.828 1.141-3.884 2.283-5.026 3.881-1.371 1.827-1.6 4.339-.229 5.937 1.142 1.599 3.199 1.827 5.027 2.055 5.711.685 11.88.229 17.363-1.37v.229c-3.198 2.055-6.625 4.11-9.824 6.165-2.056 1.37-4.569 3.197-4.112 5.708.228 1.599 1.599 2.741 3.198 3.197 1.6.457 3.199.229 4.798 0 12.566-1.598 24.904-5.023 36.556-10.047 7.082 14.842 30.615 66.219 32.443 86.085H484.43l5.712-379.048.913-67.589c-1.827-3.653-3.198-8.22-4.341-12.787.914.457 30.844 14.842 36.785 23.291 0 0 36.327-4.567 75.167 30.826S714.73 453.743 722.727 462.192c8.682 8.449 15.536 21.008-2.057 52.519" fill="#09B850"/><path d="m490.598 363.777-5.712 379.048H347.117s18.963-140.43 19.877-194.319c.457-31.739 8.225-112.116 14.394-173.083 7.997 8.905 21.933 18.267 45.238 21.007 36.098 3.882 55.976-19.865 63.972-32.653" fill="#202124"/><path d="M262.583 232.022c1.599 2.055 2.285 4.795 1.828 7.307a7.1 7.1 0 0 1-2.056 4.11c.228 7.992-.457 15.984-3.884 22.834-3.199 6.394-8.911 11.417-13.709 16.669q-8.568 9.59-14.394 21.236c-9.138-6.165-30.158-19.409-45.466-19.409.914-13.472 1.828-26.945 2.514-40.188.456-6.622.913-13.701 3.655-19.638 2.513-5.48 7.083-10.275 13.023-11.417a14.9 14.9 0 0 1 6.397-8.905c1.828-1.142 4.113-1.827 6.398-2.055 1.827-3.654 5.026-6.394 8.681-7.536-1.37-15.984-2.056-32.196-2.513-48.408 0-2.284 0-4.795 1.371-6.394 2.056-2.283 5.94-2.055 8.682-.456 5.712 3.653 7.083 11.188 7.997 18.039 2.056 15.984 4.341 31.967 6.397 47.951 1.371-3.196 3.655-5.708 6.626-7.535 1.142-.685 2.741-1.37 4.112-.685 1.599.685 2.056 2.512 2.285 4.11.914 5.48.914 10.961.228 16.441 1.143 1.142 2.285 2.512 3.199 4.11 1.142 2.055 1.599 4.795.685 7.079-.228.685-.914 1.826-2.056 2.74M635.225 631.164c-7.768 9.591-18.278 16.669-29.93 20.551-11.196 3.654-23.076 4.11-34.5 1.599-2.284 1.141-4.569 2.283-7.082 3.425-11.653 5.252-23.99 8.677-36.556 10.047-1.599.228-3.199.457-4.798 0s-2.97-1.599-3.199-3.197c-.457-2.512 2.057-4.338 4.113-5.708 3.199-2.056 6.626-4.111 9.824-6.166v-.228c-5.712 1.598-11.652 1.827-17.364 1.37-1.827-.228-3.884-.685-5.026-2.055-1.371-1.598-.914-4.339.228-5.937 1.371-1.827 3.199-2.968 5.027-3.882a2794 2794 0 0 0 35.413-20.094c-7.996 2.284-15.993 4.567-23.99 7.079-4.341 1.141-8.682 2.511-13.251 2.74-4.569.228-9.139-.685-12.794-3.425-1.143-.914-2.285-2.284-2.057-3.654.229-1.598 1.828-2.283 3.427-2.968 5.027-2.055 10.053-4.11 15.308-6.165-2.742-.914-5.712-.457-8.453-.914-2.971-.457-6.169-2.512-5.941-5.48 0-3.197 3.656-5.024 6.626-6.165 10.053-3.882 20.334-7.764 30.387-11.874 2.97-1.142 5.94-2.283 8.91-3.197 4.341-1.37 8.682-2.055 13.023-1.827 7.768.457 14.851 4.339 22.162 7.536 5.712 2.511 11.652 4.795 17.821 4.567 8.91 20.094 22.847 29.684 32.672 34.022" fill="#fff"/><path d="M584.275 209.873c-1.828 12.787-8.454 24.66-18.507 32.881-11.423 9.133-27.645 12.787-41.353 7.535-13.48-5.48-22.848-20.779-19.649-34.708 2.742-2.512 5.255-6.165 6.854-10.504 1.371-2.055 32.672-51.605-3.884-102.297-3.655-5.023-7.311-9.134-10.966-12.787 7.082-3.654 15.536-4.339 23.075-1.827 8.911 2.969 16.222 10.504 18.735 19.409 2.513 8.449 1.142 17.583 3.656 25.803 2.284 8.22 8.225 15.299 14.393 21.236s13.023 11.645 18.05 18.724c7.996 10.275 11.423 23.747 9.596 36.535" fill="#202124"/><path d="M501.795 161.694c-.228 0-.457 0-.457-.228-1.827-.913-3.427-1.37-5.255-1.37h-.228s-3.884-.685-8.454.685c-.456.228-.685 0-1.142-.228-.228-.229-.457-.457-.457-.914 0-51.148-35.87-67.36-57.346-72.613h-.457c-1.371-.456-2.742-.685-3.884-.913-7.54-1.598-13.023-1.598-13.023-1.598-.457 0-.914-.457-1.143-.914 0-.456.229-1.141.686-1.37.685-.228 1.142-.685 1.827-.913 2.971-1.142 5.941-2.055 9.368-2.284 3.655-.456 7.311-.228 11.195.457.914.228 2.056.457 3.199.685 60.545 16.67 66.028 69.416 66.485 79.92 0 .457-.228.685-.457.913 0 .685-.228.685-.457.685m-5.712-3.653c1.6 0 2.971.228 4.57.913-1.142-13.472-8.682-60.51-64.658-76.038-1.142-.228-2.056-.456-2.97-.685-3.656-.685-7.083-.913-10.51-.456-2.056.228-4.112.685-5.94 1.141 2.285.229 5.026.685 8.453 1.37 1.143.229 2.514.457 3.656.914l.457.228c21.933 5.252 58.489 21.921 59.174 73.298 3.656-1.37 7.083-.913 7.768-.685" fill="#202124"/><path d="M493.111 220.378c-1.599 0-3.884-.228-6.397-.913s-4.57-2.055-6.626-3.882c-5.712-5.252-8.682-14.157-8.682-26.488 0-5.48.686-10.503 1.828-14.614 1.142-4.11 2.97-7.535 5.026-10.047 2.285-2.511 5.027-4.566 8.225-5.48 5.027-1.827 9.368-.913 9.596-.913.686.228.914.685.914 1.142 0 .685-.457.913-1.142.913-9.824 0-17.593 13.015-17.593 28.771s7.997 28.771 17.593 28.771c.685 0 1.142.457 1.142.914 0 .685-.228 1.141-.914 1.141 0 .457-1.142.685-2.97.685m-5.712-59.369c-2.97.914-5.483 2.74-7.311 5.024-2.056 2.283-3.655 5.48-4.569 9.362-1.143 3.882-1.6 8.449-1.6 13.929 0 11.873 2.742 20.094 7.997 24.889 1.599 1.598 3.656 2.512 5.712 3.197-6.854-5.024-11.424-15.756-11.424-28.086-.228-12.787 4.341-23.52 11.195-28.315" fill="#202124"/><path d="M495.854 220.148c-10.967 0-19.877-13.929-19.877-31.054 0-17.126 8.91-31.055 19.877-31.055 2.284 0 4.341.457 6.397 1.598 8.225 4.111 13.48 15.984 13.48 29.457 0 5.708-.914 11.417-2.97 16.212-1.828 4.567-4.341 8.22-7.311 10.96-1.143.914-2.285 1.827-3.428 2.284-1.827.913-3.884 1.598-6.168 1.598m0-59.826c-9.825 0-17.593 13.016-17.593 28.772s7.997 28.771 17.593 28.771c1.828 0 3.655-.457 5.255-1.37.913-.457 2.056-1.142 2.97-2.055 2.741-2.284 5.026-5.937 6.625-10.048 1.828-4.566 2.742-10.047 2.742-15.298 0-12.559-5.026-23.52-12.337-27.401a10.6 10.6 0 0 0-5.255-1.371" fill="#202124"/><path d="M434.852 397.8c-2.741 0-5.483-.229-8.453-.457-19.877-2.283-35.413-9.362-45.923-21.236-.229-.228-.229-.456-.229-.913 4.341-42.243 7.997-75.353 7.997-75.81v-.456c1.371-2.969 2.513-6.394 3.656-10.047.228-.457.228-1.142.457-1.599.228-.456.685-.913 1.142-.913 48.208-.685 66.257-29.913 71.283-40.645-20.334 15.756-44.78 21.236-59.631 19.409-2.742-.228-5.483-1.142-8.225-2.512-19.649-10.047-39.069-48.637-32.672-76.038 3.656-15.07 3.656-21.007 3.656-27.629 0-5.48.228-11.645 2.285-24.204l.228-.685c1.142-5.709 9.596-35.165 52.777-43.385.229 0 .686 0 .914.228.229.228.457.457.457.913-.228 11.418 6.854 21.008 11.195 25.803 5.027 5.48 11.196 10.047 16.907 14.386 2.742 2.055 5.484 4.11 8.225 6.393 10.739 8.906 16.907 17.126 19.421 26.26 0 .456 0 .685-.229 1.141-2.056 2.284-3.656 5.48-4.569 9.134-1.143 3.882-1.6 8.449-1.6 13.929 0 11.874 2.742 20.094 7.997 24.889 1.599 1.598 3.655 2.512 5.712 3.197.228 0 .685.457.685.685.229.228 0 .685 0 .913a34 34 0 0 1-2.742 4.567c0 1.37-.685 9.362-.685 19.638 0 10.96.685 26.716 3.656 39.959 1.142 4.796 2.513 9.134 4.112 12.559v.457l-.914 67.589c0 .228 0 .457-.228.685-7.997 13.244-25.589 33.795-56.662 33.795m-52.32-22.834c10.281 11.188 25.132 18.039 44.324 20.094 34.728 3.882 54.148-18.039 62.601-31.74l.914-67.132c-1.599-3.654-2.97-7.992-4.112-12.788-3.199-13.472-3.656-29.456-3.884-40.416 0-10.504.457-18.496.685-19.866 0-.228 0-.457.229-.685.914-1.37 1.599-2.512 2.284-3.653-1.827-.685-3.655-1.827-5.254-3.197-5.712-5.252-8.682-14.157-8.682-26.488 0-5.48.685-10.504 1.827-14.614q1.714-5.822 4.798-9.59c-2.513-8.449-8.453-16.212-18.506-24.433-2.742-2.055-5.483-4.338-8.225-6.393-5.94-4.567-12.109-9.134-17.135-14.614-4.341-4.795-11.653-14.157-11.881-25.803-40.668 8.449-48.436 35.85-49.579 41.33v.685c-2.056 12.331-2.056 18.267-2.056 23.748 0 6.85-.228 12.787-3.655 28.086-6.169 26.487 12.566 63.707 31.529 73.298 2.513 1.37 5.026 2.055 7.311 2.283 15.308 1.827 40.897-4.339 61.459-21.693.457-.228.914-.456 1.371 0 .457.229.685.914.457 1.371s-14.165 45.211-74.254 46.353c0 .228-.228.685-.228.913-1.143 3.654-2.285 7.079-3.656 10.047-1.142 2.512-4.569 34.48-8.682 74.897" fill="#202124"/><path d="M393.498 288.88c-.457 0-.686-.228-.914-.457-.229-.228-.229-.685-.229-.913 3.428-13.016 3.884-25.574 3.884-25.803 0-.456.229-.685.457-.913.229-.229.686-.229 1.143 0 2.513 1.37 5.026 2.055 7.311 2.283 15.308 1.827 40.897-4.338 61.459-21.692.457-.229.914-.457 1.371 0 .457.228.685.913.457 1.37 0 .228-14.165 45.212-74.939 46.125m5.026-25.346c-.228 3.653-1.142 13.244-3.655 23.063 47.065-1.142 64.886-29.913 69.912-40.645-20.334 15.755-44.78 21.235-59.631 19.409-2.285-.229-4.57-.914-6.626-1.827M347.119 741.226c-.685 0-1.142-.685-1.142-1.371.228-1.37 18.963-138.375 19.877-191.579.457-31.511 7.996-111.659 14.393-173.311 0-.457.457-.914.686-.914.457-.228.914 0 1.142.229q15.423 17.125 44.552 20.551c34.957 4.11 54.377-18.268 62.83-31.968.229-.457.686-.685 1.371-.457.457.228.914.685.914 1.142l-5.483 372.426c0 .685-.457 1.141-1.143 1.141s-1.142-.456-1.142-1.141l5.483-368.544c-9.595 14.157-29.244 33.566-62.83 29.684-18.734-2.055-33.814-8.677-44.323-19.409-6.169 61.196-13.48 139.517-14.166 170.571-.913 53.433-19.648 190.438-19.877 191.808 0 .685-.685 1.142-1.142 1.142M230.142 305.322c-.229 0-.457 0-.457-.228-.457-.229-.686-.914-.457-1.599 3.884-7.763 8.91-15.07 14.622-21.464 1.142-1.141 2.285-2.512 3.427-3.653 3.656-3.882 7.768-7.992 10.053-12.787 3.655-7.079 3.884-15.299 3.884-22.378 0-.228 0-.457.228-.685.914-1.142 1.6-2.283 1.828-3.653.457-2.284-.228-4.567-1.599-6.394-.229-.228-.229-.457-.229-.913 0-.229.229-.685.457-.685.914-.685 1.6-1.599 1.828-2.512.686-1.827.229-4.11-.685-6.165-.686-1.37-1.6-2.512-2.97-3.882-.229-.229-.457-.685-.229-.914.686-5.251.457-10.732-.228-15.984-.229-1.37-.686-2.968-1.6-3.425s-2.284.229-3.198.685c-2.742 1.599-4.798 4.111-6.169 7.079-.228.457-.685.685-1.142.685s-.914-.457-.914-.913l-6.398-47.952c-.913-6.622-2.284-13.701-7.539-17.126-2.285-1.37-5.483-1.827-7.311.228-1.143 1.371-1.143 3.426-1.143 5.709.457 16.212 1.143 32.425 2.514 48.18 0 .457-.229.914-.686 1.142-3.655 1.37-6.397 3.882-7.996 7.079-.229.456-.457.685-.914.685-2.057.228-4.113.913-5.941 1.826-2.97 1.827-5.026 4.795-5.94 8.221 0 .456-.457.685-.914.913-5.026 1.142-9.596 5.252-12.109 10.96-2.741 6.166-3.198 13.016-3.655 19.409L186.046 285c0 .685-.685 1.141-1.142 1.141-.685 0-1.142-.685-1.142-1.141l2.513-40.189c.457-6.393.914-13.7 3.884-20.094 2.742-5.937 7.768-10.503 13.023-11.873 1.142-3.654 3.427-6.851 6.626-8.906 1.827-1.141 4.112-2.055 6.397-2.283 1.828-3.197 4.798-5.937 8.225-7.307-1.142-15.527-2.056-31.511-2.513-47.495 0-2.512 0-5.252 1.827-7.307 2.514-2.969 7.083-2.512 10.282-.457 6.168 3.882 7.539 11.646 8.453 18.724l5.941 44.527c1.37-2.055 3.198-3.654 5.254-5.024 2.057-1.141 3.884-1.598 5.255-.913 2.056.913 2.513 3.197 2.97 5.023.914 5.481.914 10.733.457 16.213a15.5 15.5 0 0 1 2.97 4.11c1.371 2.512 1.6 5.48.914 7.764-.457 1.141-.914 2.283-1.827 2.968 1.37 2.283 1.827 4.795 1.37 7.307-.228 1.598-.913 2.968-2.056 4.338 0 7.307-.457 15.528-4.112 23.063-2.742 5.024-6.626 9.362-10.51 13.472-1.142 1.142-2.285 2.284-3.427 3.654a82.8 82.8 0 0 0-14.165 21.007c-.457-.228-.914 0-1.371 0M524.643 668.155c-.914 0-1.6 0-2.513-.228-2.057-.685-3.656-2.284-4.113-4.111-.457-3.196 2.285-5.48 4.57-6.85l5.026-3.197c-4.113.685-8.225.685-12.338.229-2.056-.229-4.341-.685-5.711-2.512-1.828-2.283-1.143-5.48.228-7.307 1.371-2.055 3.427-3.197 5.483-4.338l26.732-15.071-14.394 4.338c-4.57 1.371-8.91 2.512-13.48 2.741-3.655.228-9.139-.229-13.48-3.654-1.828-1.37-2.742-3.197-2.513-4.795.457-2.283 2.97-3.425 4.112-3.882l11.424-4.567h-.685c-1.143 0-2.514-.228-3.656-.456-3.427-.685-7.083-3.197-7.083-6.622 0-3.882 4.113-5.937 7.312-7.307l30.386-11.874a102 102 0 0 1 8.911-3.197c5.026-1.598 9.367-2.055 13.48-1.827 6.854.457 13.251 3.426 19.42 6.166.914.456 2.056.913 2.97 1.37 5.027 2.283 10.967 4.567 16.907 4.567h.457c.685 0 1.142.456 1.142 1.141s-.457 1.142-1.142 1.142c-6.397 0-12.794-2.283-18.278-4.795-1.142-.457-2.056-.914-3.198-1.37-5.941-2.74-12.109-5.48-18.507-5.937-3.884-.229-7.768.456-12.566 1.827-2.97.913-5.94 2.055-8.682 3.196l-30.387 11.874c-3.884 1.599-5.711 3.197-5.711 5.024 0 2.283 2.513 3.881 5.026 4.338 1.142.229 2.285.228 3.427.228 1.828 0 3.427.229 5.255.686.457.228.685.456.914 1.141 0 .457-.229.914-.685 1.142l-15.308 6.165c-1.143.457-2.513 1.142-2.742 2.055-.228 1.142 1.143 2.284 1.599 2.512 3.884 2.968 8.682 3.425 12.11 3.197 4.34-.229 8.681-1.599 12.794-2.74l24.218-7.079c.457-.228 1.142.228 1.371.685.228.457 0 1.142-.457 1.37l-35.413 20.094c-1.828 1.142-3.656 2.055-4.798 3.654-.914 1.37-1.371 3.425-.457 4.567.914 1.141 2.742 1.598 4.341 1.598q8.567 1.027 17.135-1.37c.457-.228.914 0 1.143.457.228.228.228.685.228.913s-.228.685-.457.913l-9.824 6.166c-2.742 1.598-3.884 3.196-3.656 4.566.229 1.142 1.371 2.056 2.513 2.284 1.371.457 2.742.228 4.341 0 12.566-1.599 24.675-4.795 36.328-10.047 2.284-1.142 4.569-2.284 7.082-3.425.229-.229.457-.229.914 0 11.195 2.511 23.076 2.055 34.043-1.599 11.423-3.653 21.705-10.96 29.473-20.094.457-.456 1.142-.457 1.599-.228.457.457.457 1.142.228 1.598-7.768 9.591-18.734 16.898-30.386 20.779-11.196 3.654-23.305 4.339-34.728 1.599-2.285 1.141-4.341 2.283-6.855 3.197-11.652 5.251-24.218 8.677-36.784 10.275-1.827.685-2.741.685-3.655.685" fill="#202124"/><path d="M234.484 308.519c-.229 0-.457 0-.686-.229-34.956-24.661-54.376-21.92-54.376-21.92-.686 0-1.143-.229-1.371-.914 0-.685.228-1.142.914-1.37.914-.228 20.105-2.968 56.204 22.149.457.457.685 1.142.228 1.599 0 .456-.457.685-.913.685M646.647 635.959h-.229c-35.87-10.276-48.893-47.039-49.121-47.496q-.343-1.027.685-1.37 1.028-.342 1.371.685c.228.457 12.794 36.079 47.522 45.897.686.229.914.914.686 1.37 0 .685-.457.914-.914.914M550.918 238.644c-3.198 0-6.169-.456-9.139-1.37-.685-.228-.914-.913-.685-1.37.228-.685.914-.913 1.371-.685 17.821 5.252 39.068-6.85 45.237-25.574 5.712-17.354-.457-38.818-15.307-52.519-2.285-2.055-4.798-4.11-7.312-6.165-6.168-5.023-12.794-10.047-16.221-17.354-2.285-5.252-2.97-10.96-3.427-16.441-.457-4.566-.914-9.362-2.285-13.472-2.97-8.905-10.967-16.212-20.106-18.267-9.138-2.284-19.42.685-26.274 7.078a1.104 1.104 0 0 1-1.599 0 1.103 1.103 0 0 1 0-1.598c7.311-7.078 18.506-10.047 28.33-7.763 9.825 2.283 18.507 10.046 21.705 19.865 1.6 4.567 2.057 9.362 2.514 14.157.456 5.709 1.142 10.961 3.198 15.756 3.199 6.85 9.139 11.646 15.536 16.669l7.54 6.165c15.765 14.386 22.162 36.535 15.993 55.031-5.712 16.212-22.619 27.857-39.069 27.857M287.717 458.765h-.229c-.685-.229-.914-.685-.914-1.37 0-.457 10.281-39.275 23.304-67.818.229-.685.914-.913 1.6-.457.685.229.914.914.457 1.599-13.023 28.314-23.076 66.904-23.076 67.361-.229.228-.685.685-1.142.685M196.783 444.61c-.229 0-.457 0-.686-.228-.457-.457-.457-1.142-.228-1.598 0-.229 10.053-12.559 12.337-28.772 2.285-16.669 12.566-59.369 12.566-59.825.229-.685.686-.914 1.371-.914.686.229.914.685.914 1.37 0 .457-10.281 43.157-12.566 59.826-2.513 16.897-12.337 29.456-12.794 29.913-.229 0-.686.228-.914.228M213.232 444.153c-.685 0-1.142-.685-1.142-1.37.914-7.307.914-14.613.228-21.692 0-.685.457-1.142.914-1.142.686 0 1.143.457 1.143 1.142.685 7.307.685 14.842-.229 22.377.229.229-.228.685-.914.685M286.574 452.145c-.685 0-1.142-.456-1.142-1.141-.457-15.071-.457-30.37.228-45.44 0-.685.686-1.142 1.143-1.142.685 0 1.142.457 1.142 1.142-.685 15.07-.685 30.369-.229 45.211 0 .914-.456 1.37-1.142 1.37M357.629 606.962c-.457 0-1.143-.457-1.143-.913-9.824-80.605-30.844-153.903-31.072-154.816-.229-.457 0-.914.457-1.37l23.761-15.756-23.99-36.991c-.228-.229-.228-.457-.228-.685 2.97-39.503 31.072-92.25 31.301-92.936.228-.456.913-.685 1.599-.456.457.228.685.913.457 1.598-.229.457-27.874 52.519-31.072 91.565l24.446 37.677c.229.457.229 1.142-.228 1.598l-23.99 15.984c2.285 8.22 21.705 78.093 31.072 154.359-.228.457-.685 1.142-1.37 1.142M491.513 597.827c-.685 0-1.142-.685-1.142-1.37 4.798-34.708 38.612-139.745 41.582-148.879l-22.162-26.031c-.228-.228-.228-.456-.228-.913 0-.228.228-.685.457-.685l31.301-23.976c.913-21.007-18.05-82.431-18.278-83.116-.229-.685.228-1.142.685-1.37.686-.229 1.142.228 1.371.685.685 2.511 19.649 63.479 18.278 84.486 0 .228-.229.685-.457.913l-30.616 23.52 21.705 25.574c.229.228.229.685.229 1.142-.457 1.141-36.784 113.029-41.582 149.107 0 .457-.457.913-1.143.913M639.108 487.079c-.228 0-.685-.228-.914-.456a1.104 1.104 0 0 1 0-1.599c7.768-7.535 16.222-14.385 25.132-20.779.457-.457 1.143-.228 1.6.228.457.457.228 1.142-.229 1.599-8.682 6.165-17.135 13.015-24.903 20.551-.229.456-.457.456-.686.456M640.021 480.686h-.457c-.685-.229-.914-.914-.685-1.599 2.741-6.165 5.94-12.102 9.367-17.81.457-.457 1.142-.685 1.599-.457s.686 1.142.457 1.598c-3.655 5.481-6.625 11.418-9.367 17.354 0 .685-.457.914-.914.914M575.137 464.247c-.457 0-.914-.229-.914-.685l-19.649-40.417c-.228-.457 0-1.142.457-1.598.457-.229 1.142 0 1.599.456l19.649 40.417c.228.457 0 1.142-.457 1.598-.228 0-.457.229-.685.229M652.816 618.604c-.228 0-.685 0-.914-.228-17.135-17.126-31.301-36.763-41.582-58.684-.228-.457 0-1.142.457-1.599.457-.228 1.142.001 1.599.457 10.282 21.693 24.218 41.102 41.125 57.999a1.103 1.103 0 0 1 0 1.598c-.228.457-.457.457-.685.457M228.77 321.076h-.457c-18.506-6.85-37.698-11.188-57.346-13.015-.686 0-1.143-.685-1.143-1.142 0-.685.686-1.142 1.143-1.142 19.877 1.827 39.297 6.394 57.803 13.244.686.229.914.914.686 1.37.228.457-.229.685-.686.685M260.756 219.463c-.229 0-.686-.228-.914-.457-5.027-5.023-10.282-10.503-15.993-14.842-6.398-4.795-13.023-7.992-19.192-9.134-.685-.228-1.142-.685-.914-1.37s.685-1.141 1.371-.913c6.626 1.142 13.48 4.338 20.105 9.59 5.941 4.567 11.196 9.819 16.222 15.071a1.103 1.103 0 0 1 0 1.598c-.228.229-.457.457-.685.457M262.583 233.394c-.229 0-.457 0-.686-.228l-19.191-16.441c-4.113-3.425-8.225-6.85-12.795-9.59-5.026-2.969-10.281-4.339-14.851-3.882-.685 0-1.142-.457-1.142-1.142s.457-1.141 1.142-1.141c5.027-.229 10.51 1.141 15.993 4.338 4.798 2.74 9.139 6.394 13.252 9.819l19.192 16.441c.456.456.457 1.141.228 1.598-.457 0-.914.228-1.142.228M203.41 253.716c-.457 0-.914-.228-.914-.685-.229-.456 0-1.141.457-1.598a23.22 23.22 0 0 0 10.967-10.961l.685-.685h.914c5.255 2.741 10.967 5.481 16.678 7.307 6.398 2.055 12.338 2.284 17.593 1.142 1.371-.228 3.198-.913 3.427-2.283.457-1.142-.686-2.74-2.97-4.567l-27.189-20.323c-2.741-2.055-5.483-4.11-8.682-5.48-3.427-1.37-6.854-1.827-9.595-.913-.686.228-1.143-.229-1.371-.685-.229-.685.228-1.142.685-1.37 3.199-1.142 7.311-.685 11.195.913 3.427 1.37 6.398 3.654 9.139 5.709l27.189 20.322c1.142.913 4.797 3.654 3.655 6.85-.457 1.827-2.285 3.197-5.255 3.882-5.712 1.37-11.88.913-18.735-1.142-5.711-1.826-10.966-4.338-15.993-6.85-2.513 4.795-6.625 8.677-11.423 10.961 0 .456-.229.456-.457.456" fill="#202124"/><path d="M255.043 244.581h-.686c-.685 0-1.142-.457-1.142-1.142s.457-1.142 1.142-1.142c2.742 0 5.484-.456 8.225-1.598.686-.228 1.143 0 1.6.685.228.685 0 1.142-.686 1.598-2.513 1.142-5.483 1.599-8.453 1.599M238.136 265.816c-.686 0-1.143-.456-1.143-1.141.229-5.024-1.142-10.276-3.427-14.843-.228-.456 0-1.141.457-1.598.457-.228 1.142 0 1.599.457 2.514 4.795 3.884 10.275 3.656 15.755 0 .685-.457 1.37-1.142 1.37M532.64 653.085c-.457 0-.686-.229-.914-.457-.457-.457-.229-1.142.228-1.598 9.824-6.622 20.563-11.874 31.986-15.071.686-.228 1.143.228 1.371.685.229.685-.228 1.142-.685 1.37-11.195 3.197-21.705 8.221-31.301 14.842-.229.229-.457.229-.685.229M551.375 622.032c-.457 0-.686-.228-.914-.685-.229-.456-.229-1.141.457-1.598a55 55 0 0 1 7.539-3.425q1.029-.342 1.371.685t-.685 1.37c-2.513.913-4.798 2.055-7.083 3.197-.228.456-.457.456-.685.456M517.33 615.408a1.26 1.26 0 0 1-1.143-.685c-.228-.685 0-1.142.686-1.599l37.698-15.984c.685-.228 1.142 0 1.599.685.228.685 0 1.142-.685 1.599l-37.698 15.984zM430.738 171.968c0 5.023 2.97 8.905 6.854 8.905 3.656 0 6.855-4.11 6.855-8.905 0-5.024-2.971-8.906-6.855-8.906-3.655 0-6.854 4.111-6.854 8.906M374.078 171.968c0 5.023 2.97 8.905 6.854 8.905 3.656 0 6.854-4.11 6.854-8.905 0-5.024-2.97-8.906-6.854-8.906s-6.854 4.111-6.854 8.906M449.016 161.466c-.229 0-.457 0-.685-.228-4.798-3.653-11.196-5.708-17.364-5.708-.686 0-1.143-.457-1.143-1.142s.457-1.142 1.143-1.142c6.854-.228 13.479 2.055 18.734 6.165.457.457.686 1.142.229 1.599-.229.228-.686.456-.914.456M369.052 160.094c-.229 0-.457 0-.686-.229a1.103 1.103 0 0 1 0-1.598c4.57-4.795 11.652-7.535 18.278-6.85.685 0 1.142.685.914 1.141 0 .685-.686 1.142-1.143.914-5.94-.685-12.337 1.826-16.45 6.165-.228.457-.456.457-.913.457M407.208 217.182c-6.626-1.142-12.566-5.024-16.222-10.504-1.599-2.512-2.284-4.567-1.828-6.622.457-2.055 2.057-3.653 3.428-4.795l.228-.228c7.997-7.764 12.566-19.181 11.881-30.598 0-.685.457-1.142 1.142-1.142s1.142.457 1.142 1.142c.686 11.873-4.112 23.976-12.566 32.196l-.228.228c-1.142 1.142-2.513 2.284-2.742 3.654q-.342 2.055 1.371 4.795c3.199 4.795 8.682 8.449 14.394 9.59.685 0 1.142.685.914 1.37 0 .457-.457.914-.914.914" fill="#202124"/><path d="M441.707 197.998c0 7.307 5.94 13.244 13.251 13.244 7.312 0 13.252-5.937 13.252-13.244s-5.94-13.244-13.252-13.244c-7.311 0-13.251 5.937-13.251 13.244" fill="#09B850" fill-opacity=".2"/><path d="M415.433 241.155c-2.742 0-5.027-.685-7.083-1.827-2.513-1.37-4.112-3.882-4.341-6.394-.228-2.74 1.142-5.937 3.427-7.992s5.027-2.968 7.54-3.882l2.741-.913c.457-.228 1.143-.685 1.6-.913l.685-.457c2.056-1.37 4.341-2.968 7.083-2.968 3.655 0 7.311 3.425 7.768 7.535.457 3.425-.685 7.078-3.427 10.275-3.884 4.567-9.596 7.536-15.765 7.536zm2.97-18.724-2.742.913c-2.284.685-4.798 1.827-6.625 3.425-1.828 1.598-2.971 3.882-2.742 5.937.228 1.827 1.371 3.653 3.198 4.795 1.6.913 3.885 1.37 6.169 1.37 5.255 0 10.51-2.512 13.937-6.622 2.285-2.74 3.427-5.937 2.97-8.448-.457-2.741-2.741-5.481-5.712-5.481-2.056 0-3.884 1.37-5.711 2.512l-.686.457c-.685.456-1.142.685-1.828 1.142 0-.229 0-.229-.228 0M449.476 230.653c-1.37 0-2.741 0-4.112-.228-.685 0-1.142-.685-.914-1.142 0-.685.685-1.142 1.142-.913 12.795 1.37 26.046-4.11 34.271-13.929.457-.457 1.143-.457 1.6-.229.457.457.457 1.142.228 1.599-7.996 9.362-19.877 14.842-32.215 14.842" fill="#202124"/><path d="M453.358 226.999c0 1.826-.685 3.653-2.056 4.795-1.142 1.142-2.97 2.055-4.798 2.055h-13.251c-3.656 0-6.855-2.968-6.855-6.85 0-1.827.686-3.654 2.057-4.795 1.142-1.142 2.97-2.056 4.798-2.056h13.251c3.884.229 6.854 3.197 6.854 6.851" fill="#09B850"/></g></svg>