<svg width="202" height="51" viewBox="0 0 202 51" fill="none" xmlns="http://www.w3.org/2000/svg"><path d="M52.6 17.4h20.2v3.8h-8v21.2h-4.4V21.2h-7.9zm19.3 6.9h3.7v3.5h.1c.1-.5.4-1 .7-1.4.3-.5.7-.9 1.2-1.3s1-.7 1.6-.9 1.2-.4 1.8-.4h1c.2 0 .4.1.5.1v3.8c-.3-.1-.6-.1-.9-.1s-.6-.1-.9-.1c-.7 0-1.3.1-1.9.4s-1.1.7-1.6 1.2c-.4.5-.8 1.2-1.1 1.9s-.4 1.7-.4 2.7v8.6h-4zm29 18.1H97v-2.5h-.1c-.5.9-1.2 1.6-2.2 2.2s-2 .8-3 .8c-2.4 0-4.1-.6-5.2-1.8s-1.6-3-1.6-5.3V24.3h4v11.1c0 1.6.3 2.7.9 3.4s1.5 1 2.6 1c.8 0 1.5-.1 2.1-.4s1-.6 1.4-1 .6-1 .8-1.6.2-1.3.2-2V24.3h4zm6.8-5.8c.1 1.2.6 2 1.3 2.5.8.5 1.7.7 2.8.7.4 0 .8 0 1.3-.1s.9-.2 1.3-.3c.4-.2.8-.4 1-.7.3-.3.4-.7.4-1.2s-.2-.9-.6-1.3c-.4-.3-.8-.6-1.3-.8s-1.2-.4-1.9-.5-1.4-.3-2.1-.5-1.5-.4-2.2-.6-1.3-.5-1.9-1c-.5-.4-1-.9-1.3-1.5s-.5-1.4-.5-2.3c0-1 .2-1.8.7-2.5s1.1-1.2 1.8-1.6 1.6-.7 2.5-.9 1.8-.2 2.6-.2q1.35 0 2.7.3c.8.2 1.6.5 2.3 1 .7.4 1.3 1 1.7 1.7.5.7.7 1.6.9 2.6H115c-.2-1-.6-1.6-1.3-1.9s-1.5-.5-2.4-.5c-.3 0-.6 0-1 .1s-.7.1-1.1.3q-.45.15-.9.6c-.3.3-.4.6-.4 1 0 .5.2.9.5 1.2s.8.5 1.3.8c.5.2 1.2.4 1.9.5s1.4.3 2.2.5 1.4.4 2.1.6 1.3.5 1.9 1c.5.4 1 .9 1.3 1.5s.5 1.4.5 2.2c0 1.1-.2 2-.7 2.7s-1.1 1.4-1.9 1.8c-.8.5-1.7.8-2.6 1-1 .2-1.9.3-2.8.3-1.1 0-2.2-.1-3.2-.4s-1.8-.7-2.5-1.2-1.3-1.2-1.7-2-.6-1.7-.7-2.8zm13.1-12.3h3v-5.5h4v5.4h3.6v3h-3.6v9.7c0 .4 0 .8.1 1.1 0 .3.1.6.2.8s.3.4.6.5.6.2 1.1.2h.8c.2 0 .6-.1.8-.1v3.1c-.4.1-.9.1-1.3.1-.4.1-.8.1-1.3.1-1.1 0-1.9-.1-2.5-.3q-.9-.3-1.5-.9c-.4-.4-.6-.9-.7-1.4-.1-.6-.2-1.3-.2-2V27.3h-3zm13.5 0h3.8v2.5h.1c.6-1.1 1.3-1.8 2.3-2.3s2.1-.7 3.3-.7c1.4 0 2.7.2 3.7.8 1.1.5 1.9 1.2 2.6 2.1s1.2 1.9 1.6 3.1c.3 1.2.5 2.4.5 3.7 0 1.2-.2 2.4-.5 3.5s-.8 2.2-1.4 3-1.4 1.6-2.4 2.1-2.1.8-3.5.8c-.6 0-1.2-.1-1.7-.2-.6-.1-1.1-.3-1.7-.5q-.75-.3-1.5-.9c-.5-.4-.8-.8-1.1-1.3h-.1v9h-4zm13.9 9.1q0-1.2-.3-2.4c-.2-.8-.5-1.4-1-2s-1-1.1-1.6-1.4c-.6-.4-1.4-.5-2.2-.5-1.7 0-2.9.6-3.8 1.7-.8 1.2-1.3 2.7-1.3 4.7 0 .9.1 1.8.3 2.5.2.8.5 1.4 1 2 .4.6 1 1 1.6 1.3s1.3.5 2.2.5 1.7-.2 2.3-.6 1.1-.9 1.6-1.4c.4-.6.7-1.3.9-2 .2-.9.3-1.6.3-2.4m7.1-16h4v3.8h-4zm0 6.9h4v18.1h-4zm7.5-6.9h4v25h-4zM179 42.9c-1.4 0-2.7-.2-3.9-.7-1.1-.5-2.1-1.1-2.9-2-.8-.8-1.4-1.9-1.8-3-.4-1.2-.6-2.5-.6-3.8 0-1.4.2-2.6.6-3.8q.6-1.8 1.8-3c.8-.8 1.7-1.5 2.9-2 1.1-.5 2.4-.7 3.9-.7s2.7.2 3.9.7c1.1.5 2.1 1.1 2.9 2 .8.8 1.4 1.9 1.8 3 .4 1.2.6 2.4.6 3.8s-.2 2.7-.6 3.8-1 2.2-1.8 3-1.7 1.5-2.9 2c-1.1.4-2.4.7-3.9.7m0-3.2c.9 0 1.7-.2 2.3-.6.7-.4 1.2-.9 1.6-1.5s.7-1.3.9-2c.2-.8.3-1.5.3-2.3s-.1-1.5-.3-2.3-.5-1.4-.9-2-1-1.1-1.6-1.4c-.7-.4-1.4-.6-2.3-.6s-1.7.2-2.3.6c-.7.4-1.2.9-1.6 1.4-.4.6-.7 1.3-.9 2-.2.8-.3 1.5-.3 2.3s.1 1.6.3 2.3.5 1.4.9 2 1 1.1 1.6 1.5c.7.5 1.5.6 2.3.6m10.4-15.4h3v-5.5h4v5.4h3.6v3h-3.6v9.7c0 .4 0 .8.1 1.1 0 .3.1.6.2.8s.3.4.6.5.6.2 1.1.2h.8c.3 0 .6-.1.8-.1v3.1c-.4.1-.9.1-1.3.1-.4.1-.8.1-1.3.1-1.1 0-1.9-.1-2.5-.3q-.9-.3-1.5-.9c-.4-.4-.6-.9-.7-1.4-.1-.6-.2-1.3-.2-2V27.3h-3v-3z" fill="#fff"/><path d="M47.9 17.4H29.6L24 0l-5.7 17.4H0l14.8 10.8-5.7 17.3 14.8-10.8 14.8 10.8-5.6-17.4z" fill="#00B67A"/><path d="m34.4 32.1-1.3-3.9-9.1 6.6z" fill="#005128"/></svg>