<svg version="1.1" id="Layer_1" xmlns="http://www.w3.org/2000/svg" x="0" y="0" width="200" height="37.5" viewBox="0 0 200 37.5" xml:space="preserve"><style>.st0{fill:#00b67a}.st1{fill:#fff}</style><path class="st0" d="M0 0h37.5v37.5H0zm40.6 0h37.5v37.5H40.6zm40.7 0h37.5v37.5H81.3zm40.6 0h37.5v37.5h-37.5zm40.6 0H200v37.5h-37.5z"/><path class="st1" d="m18.8 25.3 5.7-1.4 2.4 7.3zm13.1-9.5h-10l-3.1-9.5-3.1 9.5h-10l8.1 5.9-3.1 9.5 8.1-5.9 5-3.6zm27.5 9.5 5.7-1.4 2.4 7.3zm13.1-9.5h-10l-3.1-9.5-3.1 9.5h-10l8.1 5.9-3.1 9.5 8.1-5.9 5-3.6zm27.5 9.5 5.7-1.4 2.4 7.3zm13.1-9.5h-10L100 6.3l-3.1 9.5h-10l8.1 5.9-3.1 9.5 8.1-5.9 5-3.6zm27.5 9.5 5.7-1.4 2.4 7.3zm13.2-9.5h-10l-3.1-9.5-3.1 9.5h-10l8.1 5.9-3.1 9.5 8.1-5.9 5-3.6zm27.5 9.5 5.7-1.4 2.4 7.3zm13.1-9.5h-10l-3.1-9.5-3.1 9.5h-10l8.1 5.9-3.1 9.5 8.1-5.9 5-3.6z"/></svg>