<svg version="1.1" id="Layer_1" xmlns="http://www.w3.org/2000/svg" x="0" y="0" width="378" height="110" viewBox="0 0 378 110" xml:space="preserve"><style>.st0{fill:#fff}</style><path class="st0" d="M66.5 27c0-9.9 8.1-18 18-18s18 8.1 18 18-8.1 18-18 18-18-8.1-18-18"/><path class="st0" d="M85.6 53v13c0 5.7 0 9.8-.3 13-.3 3.1-.8 5-1.5 6.5-1.5 2.9-3.9 5.3-6.8 6.8-1.5.8-3.4 1.3-6.5 1.5-3.2.3-7.2.3-13 .3h-12c-5.7 0-9.8 0-13-.3-3.1-.3-5-.8-6.5-1.5-2.9-1.5-5.3-3.9-6.8-6.8-.8-1.5-1.3-3.4-1.5-6.5-.3-3.2-.3-7.2-.3-13V54c0-5.7 0-9.8.3-13 .3-3.1.8-5 1.5-6.5 1.5-2.9 3.9-5.3 6.8-6.8 1.5-.8 3.4-1.3 6.5-1.5 3.2-.3 7.2-.3 13-.3h13c.1-2.8.7-5.5 1.6-8H45.4c-5.5 0-9.9 0-13.5.3s-6.7.9-9.5 2.4c-4.4 2.3-7.9 5.8-10.2 10.2-1.5 2.8-2.1 5.9-2.4 9.5-.3 3.5-.3 7.9-.3 13.5v12.3c0 5.5 0 9.9.3 13.5s.9 6.7 2.4 9.5c2.3 4.4 5.8 7.9 10.2 10.2 2.8 1.5 5.9 2.1 9.5 2.4 3.5.3 7.9.3 13.5.3h12.3c5.5 0 9.9 0 13.5-.3s6.7-.9 9.5-2.4c4.4-2.3 7.9-5.8 10.2-10.2 1.5-2.8 2.1-5.9 2.4-9.5.3-3.5.3-7.9.3-13.5V51.4c-2.5.9-5.2 1.5-8 1.6M154 52.3q0 3.75-1.8 6.9c-1.1 2.1-3 3.9-5.5 5.2s-5.6 2-9.3 2h-7.7V84h-9.2V38.1h16.9c3.6 0 6.6.6 9.1 1.8s4.4 2.9 5.6 5.1c1.2 2.1 1.9 4.6 1.9 7.3m-17 6.6c2.5 0 4.4-.6 5.7-1.7 1.2-1.2 1.8-2.8 1.8-4.9 0-4.5-2.5-6.7-7.5-6.7h-7.3V59zM167.1 53.2c1.2-1.9 2.7-3.4 4.6-4.5s4.1-1.6 6.6-1.6v9.7h-2.4c-2.9 0-5.1.7-6.6 2-1.4 1.4-2.2 3.7-2.2 7.1V84h-9.2V47.6h9.2zM198 84.6c-3.5 0-6.7-.8-9.5-2.3q-4.2-2.4-6.6-6.6c-1.6-2.9-2.4-6.1-2.4-9.9s.8-7 2.4-9.9c1.7-2.9 3.9-5 6.8-6.6s6-2.4 9.5-2.4 6.7.8 9.5 2.4c2.8 1.5 5.1 3.7 6.7 6.6 1.7 2.9 2.5 6.1 2.5 9.9s-.9 7-2.6 9.9-3.9 5.1-6.8 6.6c-2.7 1.5-5.9 2.3-9.5 2.3m0-8c1.7 0 3.2-.4 4.7-1.2s2.7-2.1 3.6-3.7 1.3-3.6 1.3-5.9c0-3.5-.9-6.1-2.8-8-1.8-1.9-4-2.8-6.6-2.8s-4.8.9-6.6 2.8c-1.8 1.8-2.6 4.5-2.6 8s.9 6.1 2.6 8c1.6 1.8 3.8 2.8 6.4 2.8M218.8 65.6c0-3.7.7-7 2.2-9.8 1.5-2.9 3.5-5 6.1-6.6 2.5-1.5 5.4-2.3 8.5-2.3 2.4 0 4.6.5 6.8 1.6 2.1 1 3.9 2.4 5.1 4.1V35.3h9.3V84h-9.3v-5.4c-1.1 1.8-2.7 3.2-4.8 4.3s-4.5 1.6-7.2 1.6q-4.65 0-8.4-2.4c-3.75-2.4-4.6-3.8-6.1-6.6s-2.2-6.1-2.2-9.9m28.7.2c0-2.2-.4-4.1-1.3-5.7s-2.1-2.9-3.6-3.7c-1.5-.9-3.1-1.3-4.8-1.3s-3.3.4-4.7 1.2-2.6 2.1-3.6 3.7c-.9 1.6-1.3 3.5-1.3 5.7s.4 4.1 1.3 5.8c.9 1.6 2.1 2.9 3.6 3.7 1.5.9 3.1 1.3 4.7 1.3 1.7 0 3.3-.4 4.8-1.3s2.7-2.1 3.6-3.7c.8-1.6 1.3-3.5 1.3-5.7M297.5 47.6V84h-9.3v-4.6c-1.2 1.6-2.7 2.8-4.7 3.8-1.9.9-3.9 1.3-6.2 1.3-2.9 0-5.4-.6-7.6-1.8s-3.9-3-5.2-5.3q-1.8-3.6-1.8-8.4V47.6h9.2v20.1c0 2.9.7 5.1 2.2 6.7 1.4 1.5 3.4 2.3 5.9 2.3s4.5-.8 6-2.3c1.4-1.6 2.2-3.8 2.2-6.7V47.6zM301.6 65.8c0-3.8.8-7.1 2.3-9.9 1.5-2.9 3.7-5 6.4-6.6q4.05-2.4 9.3-2.4c4.5 0 8.2 1.1 11.2 3.4 3 2.2 5 5.4 6 9.5h-9.9c-.5-1.6-1.4-2.8-2.7-3.7-1.2-.9-2.8-1.4-4.6-1.4-2.6 0-4.7 1-6.3 2.9-1.5 1.9-2.3 4.6-2.3 8.1s.8 6.2 2.3 8.1 3.6 2.8 6.3 2.8c3.7 0 6.2-1.7 7.3-5h9.9c-1 3.9-3 7.1-6 9.4s-6.7 3.5-11.2 3.5c-3.5 0-6.6-.8-9.3-2.3-2.7-1.6-4.8-3.8-6.4-6.6-1.5-2.7-2.3-6.1-2.3-9.8M351.6 55.1v17.6q0 1.8.9 2.7c.6.5 1.6.8 3 .8h4.3V84H354c-7.8 0-11.6-3.8-11.6-11.3V55.1H338v-7.6h4.3v-9h9.3v9h8.2v7.6zM367.9 84.5c-1.7 0-3-.5-4.1-1.5-1.1-1.1-1.6-2.3-1.6-3.9 0-1.5.5-2.8 1.6-3.8 1.1-1.1 2.5-1.6 4.1-1.6s3 .5 4 1.6c1.1 1 1.6 2.3 1.6 3.8s-.5 2.8-1.6 3.9c-1.1 1-2.4 1.5-4 1.5"/></svg>