<svg version="1.1" id="Layer_1" xmlns="http://www.w3.org/2000/svg" x="0" y="0" width="414" height="102" viewBox="0 0 414 102" xml:space="preserve"><style>.st0,.st1{fill:#fff}.st1{fill-rule:evenodd;clip-rule:evenodd}</style><path class="st0" d="M125.5 30c3.7 0 6.9.6 9.7 1.9 2.8 1.2 4.9 3 6.4 5.3s2.2 5 2.2 8.1-.7 5.8-2.2 8.1-3.6 4-6.4 5.3c-2.7 1.2-5.9 1.8-9.7 1.8H117V72h-9.7V30zm-.5 22.5c2.9 0 5.1-.6 6.7-1.9 1.5-1.3 2.3-3.1 2.3-5.4 0-2.4-.8-4.2-2.3-5.4-1.5-1.3-3.7-1.9-6.7-1.9h-8v14.6zM156 44c1.1-1.6 2.6-2.7 4.5-3.5s4.1-1.2 6.6-1.2v8.6c-1-.1-1.7-.1-2.1-.1-2.7 0-4.8.8-6.3 2.3s-2.3 3.7-2.3 6.7V72H147V39.7h8.9V44zM184.7 72.5c-3.4 0-6.5-.7-9.2-2.1s-4.8-3.4-6.3-5.9-2.3-5.4-2.3-8.6.8-6.1 2.3-8.6 3.6-4.5 6.3-5.9 5.8-2.2 9.2-2.2 6.4.7 9.1 2.2c2.7 1.4 4.8 3.4 6.3 5.9s2.3 5.4 2.3 8.6-.8 6.1-2.3 8.6-3.6 4.5-6.3 5.9-5.7 2.1-9.1 2.1m0-7.7c2.4 0 4.4-.8 5.9-2.4 1.6-1.6 2.3-3.8 2.3-6.5s-.8-4.9-2.3-6.5-3.5-2.5-5.9-2.5-4.4.8-5.9 2.5c-1.6 1.6-2.3 3.8-2.3 6.5s.8 4.9 2.3 6.5 3.5 2.4 5.9 2.4M244.8 30v42h-8l-20.9-25.5V72h-9.6V30h8l20.9 25.5V30zM264.1 39.2c5 0 8.8 1.2 11.5 3.6s4 5.9 4 10.7V72h-8.8v-4c-1.8 3-5 4.5-9.8 4.5-2.5 0-4.6-.4-6.5-1.3-1.8-.8-3.2-2-4.1-3.5-1-1.5-1.4-3.2-1.4-5 0-3 1.1-5.4 3.4-7.1s5.8-2.6 10.5-2.6h7.4c0-2-.6-3.6-1.9-4.7-1.2-1.1-3.1-1.7-5.6-1.7-1.7 0-3.4.3-5.1.8-1.6.5-3 1.2-4.2 2.2l-3.4-6.5c1.8-1.2 3.9-2.2 6.3-2.9 2.5-.6 5.1-1 7.7-1m-.7 27c1.6 0 3-.4 4.3-1.1 1.2-.8 2.1-1.9 2.6-3.3v-3.3h-6.4c-3.8 0-5.8 1.3-5.8 3.8 0 1.2.5 2.2 1.4 2.9.9.6 2.2 1 3.9 1M305.9 70.4c-.9.7-2.1 1.2-3.4 1.6-1.3.3-2.7.5-4.2.5-3.8 0-6.8-1-8.9-2.9-2.1-2-3.1-4.8-3.1-8.6V47.6h-5v-7.2h5v-7.9h9.4v7.9h8v7.2h-8v13.1c0 1.4.3 2.4 1 3.2.7.7 1.7 1.1 3 1.1 1.5 0 2.7-.4 3.8-1.2zM340.7 39.7V72h-8.9v-3.8c-1.2 1.4-2.7 2.5-4.4 3.2s-3.6 1.1-5.6 1.1c-4.2 0-7.6-1.2-10.1-3.7-2.5-2.4-3.7-6.1-3.7-10.9V39.7h9.4v16.9c0 5.2 2.2 7.8 6.5 7.8 2.2 0 4-.7 5.4-2.2s2-3.7 2-6.5v-16zM355.3 44c1.1-1.6 2.6-2.7 4.5-3.5s4.1-1.2 6.6-1.2v8.6c-1-.1-1.7-.1-2.1-.1-2.7 0-4.8.8-6.3 2.3s-2.3 3.7-2.3 6.7V72h-9.4V39.7h8.9zM400.2 56c0 .1-.1 1-.2 2.5h-24.4c.4 2 1.5 3.6 3.1 4.7 1.6 1.2 3.7 1.7 6.1 1.7 1.7 0 3.2-.2 4.4-.7 1.3-.5 2.5-1.3 3.7-2.4l5 5.4c-3 3.5-7.5 5.2-13.3 5.2-3.6 0-6.9-.7-9.7-2.1s-5-3.4-6.5-5.9-2.3-5.4-2.3-8.6.7-6 2.2-8.5c1.5-2.6 3.6-4.5 6.2-5.9s5.6-2.2 8.8-2.2 6 .7 8.6 2c2.6 1.4 4.6 3.3 6 5.9 1.6 2.6 2.3 5.5 2.3 8.9m-16.7-9.7c-2.1 0-3.9.6-5.3 1.8s-2.3 2.8-2.6 4.9h15.9c-.3-2-1.2-3.7-2.6-4.9-1.6-1.2-3.3-1.8-5.4-1.8"/><path class="st1" d="M54 6.6c-1.4-.8-3.2-.8-4.6 0-10.1 5.9-17 16.8-17 29.4 0 1.8.1 3.5.4 5.3-7-2.4-14.5-1.5-20.7 2-1.4.8-2.3 2.3-2.3 4 0 8.7 4.5 17.2 12.6 21.8 4 2.3 8.3 3.4 12.6 3.4-.6 1.8-1 3.8-1 5.9 0 9.8 7.9 17.7 17.7 17.7s17.7-7.9 17.7-17.7c0-2.1-.4-4.1-1-5.9 4-.1 8.1-1.2 11.8-3.4 8.1-4.7 12.6-13.1 12.6-21.8 0-1.6-.9-3.2-2.3-4-5.9-3.4-13.1-4.3-19.9-2.3.2-1.6.4-3.3.4-5 0-12.6-6.8-23.5-17-29.4M41.7 36c0-8.2 3.9-15.4 10.1-19.9 6.1 4.5 10.1 11.7 10.1 19.9S58 51.4 51.8 55.9C45.6 51.4 41.7 44.2 41.7 36m28.2 15.3c4.3-2.5 9.2-2.7 13.5-1.2-.8 4.5-3.5 8.6-7.8 11.1s-9.2 2.7-13.5 1.2c.8-4.6 3.5-8.7 7.8-11.1m-50.5-1.2c4.3-1.6 9.2-1.3 13.5 1.2s7 6.6 7.8 11.1c-4.3 1.6-9.2 1.3-13.5-1.2s-7-6.6-7.8-11.1m23.9 28.3c0-4.7 3.8-8.5 8.5-8.5s8.5 3.8 8.5 8.5-3.8 8.5-8.5 8.5-8.5-3.8-8.5-8.5"/></svg>