<svg version="1.1" id="Layer_1" xmlns="http://www.w3.org/2000/svg" x="0" y="0" width="441.8" height="99.6" viewBox="0 0 441.8 99.6" xml:space="preserve"><style>.st0,.st1,.st2{fill:#fff;stroke:#fff}.st0{stroke-width:.6743}.st1,.st2{stroke-miterlimit:10}.st2{fill-rule:evenodd;clip-rule:evenodd}</style><path class="st0" d="M178 79.2c-1.2-1-1.9-2.1-1.9-3.2zm0 0c1.3 1.1 3.1 1.6 5.4 1.6h5.3v-1.3H186l-.9-.2c-.5 0-1.1-.4-1.7-1.2-.5-.8-.8-2-.8-3.5V48.7c0-2.8-.7-5-2.1-6.8-.9-1.1-2.4-1.9-4.4-2.5q-2.85-.9-7.5-.9c-4.65 0-6 1.1-8.6 3.2-2.1 1.7-3.6 3.5-4.7 5.4v-8.200000000000001h-6.3999999999999995v41.89999999999999h6.3999999999999995V51.1c0-2.1 1.3-4.5 4.1-7.2 2.8-2.8 5.8-4.1 9.3-4.1 1.7 0 3 .3 4.1.8 2.1 1.1 3.2 3.7 3.2 8v26l.1 1.4zm-34.4-52.8.3.1.1-.3.3-.8.1-.3-.3-.1c-5.7-1.9-11.2-2.8-16.7-2.8-5.4 0-9.6 1.3-12.4 3.9s-4.2 5.9-4.2 10c0 5.2 2.1 9.2 6.4 12 1.9 1.3 4 2.4 6.2 3.5 2.3 1 4.5 2 6.7 2.9s4.3 1.9 6.2 3c4.1 2.4 6.1 5.8 6.1 10 0 3.9-1.5 6.9-4.6 8.9s-6.8 3-11.2 3c-3 0-5.9-.4-8.8-1.3-2.8-.9-5.1-2.1-6.9-3.5l-.3-.2-.2.3-.4.7-.2.3.3.2c4.9 3.4 10.7 5.1 17.6 5.1 3.7 0 6.9-.4 9.6-1.3q4.2-1.35 7.2-5.1c3-3.75 3-5.5 3-9s-.6-6.4-1.8-8.7-2.7-4.1-4.7-5.4c-1.9-1.3-4-2.4-6.3-3.4s-4.5-1.9-6.8-2.7c-2.2-.8-4.2-1.7-6.1-2.6-4.1-2.2-6.1-5.2-6.1-9q0-4.8 3.6-7.5c3.6-2.7 5.8-2.7 10.1-2.7 4.5-.1 9.2.8 14.2 2.8zm47 17.8c-3.8 3.9-5.7 9.3-5.7 16.3 0 6.9 1.8 12.1 5.6 15.5 3.7 3.4 8.5 5 14.4 5s10.8-1.9 14.6-5.8c3.9-3.9 5.8-9.3 5.8-16.3 0-6.9-1.8-12.1-5.6-15.5-3.7-3.4-8.5-5-14.4-5s-10.8 2-14.7 5.8zm4.6 1.1c2.7-3.7 6.1-5.5 10.1-5.5 4.1 0 7.4 1.6 9.8 4.7 2.5 3.1 3.7 8 3.7 14.6s-1.4 11.7-4.1 15.3-6.1 5.4-10.1 5.4c-4.1 0-7.4-1.6-9.8-4.7-2.5-3.1-3.7-7.9-3.7-14.5.1-6.6 1.5-11.7 4.1-15.3zm86.4-5.9-.2.2.3.2c.8.7 1.2 1.9 1.2 3.4 0 1.6-.3 2.9-.9 4l-11.6 25.2L257.8 39l-.1-.2h-6.5l.2.5 3 8.2-11.5 25L230.5 39l-.1-.2h-6.5l.2.5 15.4 41.3.1.2h1.2l.1-.2 14.2-31.2 11.6 31.2.1.2h1.2l.1-.2 15-33.1c.7-1.6 1-3.1 1-4.7 0-.4-.1-.8-.2-1.3s-.3-1-.7-1.6c-.2-.3-.3-.5-.5-.7-.1-.2-.3-.3-.5-.4l-.2-.1-.2.2zM297.1 23.2c1.6-2.4 4.1-4.2 7.6-4.4l-.7 56.4c0 .5.2 1.1.4 1.6 1.4 2.7 4.6 4 9.5 4h2.9v-1.3H314l-.9-.2c-.5 0-1.1-.4-1.7-1.2-.5-.8-.8-2-.8-3.5V18.3h-.3l-5.1-.1h-.3c-5.7.1-9.8 1.4-12.5 4.1-2.7 2.6-4 7-4 13.1v3.5h-1.7v1.9000000000000001h1.7v40h6.3999999999999995v-40h6.5v-1.9000000000000001h-6.5v-3.5c-.1-5.8.7-9.8 2.3-12.2zm44 37c-1.1-.1-2.4-.1-3.7-.1-1.5 0-3.1.1-4.9.2-3.6.2-6.5.6-8.8 1.3-2.3.6-4.1 1.4-5.2 2.5-1.1 1-1.8 2-2 2.9s-.3 1.7-.3 2.4.1 1.4.2 2c.5 3.2 1.7 5.6 3.8 7.3 2 1.6 4.9 2.4 8.4 2.4 3 0 5.7-.6 7.9-1.9 1.9-1.1 3.5-2.6 4.8-4.6v.5c0 1 .7 2.2 2 3.4 1.5 1.5 4.2 2.2 7.9 2.2h2.9v-1.3h-2.8l-.9-.2c-.5 0-1.1-.4-1.7-1.2-.5-.8-.8-2-.8-3.5V46.9c0-1.9-.8-3.6-2.2-5.3-1-1.1-2.4-1.9-4.3-2.4s-4.3-.8-7.2-.8c-5.1 0-10.2 1.1-15.1 3.4l-.3.2.2.3.3.6.2.3.3-.2c1.2-.7 3.2-1.4 5.9-2.1 2.7-.8 5.1-1.1 7.1-1.1s3.6.3 4.8.8 2 1.1 2.5 1.7c.5.7.9 1.4 1.1 2.2.3.7.4 1.2.3 1.6-.1.2-.1.4-.1.6v13.5zm-18.3 11.1c-.1-.5-.1-1-.1-1.5 0-2.4.6-4.2 1.8-5.5.6-.6 1.5-1.2 2.9-1.6 1.3-.5 3-.8 5.1-1.1 1.5-.2 3-.2 4.4-.2s2.8 0 4.2.1v9.7c-.2 1.7-1.3 3.6-3.7 5.6-2.3 1.9-4.8 2.9-7.6 2.9-2.1 0-3.7-.7-4.9-2.1q-1.8-1.95-2.1-6.3zM361 18.4v-.3h-6.3999999999999995v62.599999999999994h6.3999999999999995V60.6l1.9-2.1 15 22.1.1.1h6.6l-.4-.5-17.6-25.9 13.3-15 .5-.6h-1.7l-.1.1L361 58.7zm55.4 59.1-.1-.3-.3.1c-4.3 1.6-9.1 2.5-14.6 2.5-3.8 0-6.9-1.5-9.2-4.7-2.3-3.1-3.5-8-3.5-14.8 0-1.5.1-2.9.2-4.3h29.400000000000002v-.3c0-5.4-1.6-9.5-4.7-12.2-3.2-2.8-7-4.1-11.6-4.1-5.7 0-10.4 1.9-14.1 5.8s-5.6 9.3-5.6 16.3c0 6.9 1.7 12.1 5.3 15.5 3.5 3.4 8.1 5.1 13.7 5.1s10.6-.9 15.1-2.6l.3-.1-.1-.3zm-7.3-34c1.9 2.4 2.9 6.1 3 11.2H389q1.05-6.9 4.5-10.8c2.4-2.7 5.2-4 8.2-4 3-.1 5.5 1.1 7.4 3.6z"/><path class="st1" d="M425.7 17.6v2.2h-2.5v6.6h-2.4v-6.6h-2.5v-2.2zM435.3 17.4v9H433V22l-1.7 2.1h-.7l-1.7-2.1v4.4h-2.4v-9h.8l3.6 3.8 3.6-3.8z"/><path class="st2" d="M45.8 66.1v28.4h6V66l10.9 26.3 5.5-2.3-10.8-26.2 20 20 4.2-4.2-20-20.1 26.3 10.9 2.3-5.5-26.3-11h28.4v-6H64l26.2-10.8-2.3-5.5-26.1 10.8 20.1-19.9-4.2-4.3-20.4 20.1 11-26.4-5.5-2.3-10.9 26.2V7.4h-6v28.5l-11-26.3-5.5 2.3L40.3 38l-20-20-4.3 4.3 20.1 20.1L9.8 31.5 7.5 37l26.3 10.9H5.3v6h28.4L7.5 64.8l2.3 5.5 26.1-10.8-20.1 19.9 4.2 4.3 20.3-20.1L29.4 90l5.5 2.3z"/></svg>