<svg version="1.1" id="Layer_1" xmlns="http://www.w3.org/2000/svg" x="0" y="0" width="520" height="107" viewBox="0 0 520 107" xml:space="preserve"><style>.st0,.st1{fill:#fff}.st1{fill-opacity:.8}</style><path class="st0" d="M92 71.7c18.8-10.6 42.7-4 53.5 14.7l-16.3 9.4C110.3 106.7 86.1 100 75.4 81z"/><path class="st1" d="M85.1 64.3c10.8-18.6 34.6-25 53.2-14.3l-9.7 16.9c-10.8 18.6-34.6 25-53.2 14.3z"/><path class="st1" d="M74.6 62.5c0-22.6 18.3-40.9 40.9-40.9v19.1c0 22.6-18.3 40.9-40.9 40.9z"/><path class="st1" d="M64.9 63.2C54.1 44.6 60.5 20.8 79.2 10l9.7 16.9c10.8 18.6 4.4 42.5-14.3 53.2z"/><path class="st1" d="M74.6 59.7c0-21.1-17.1-38.2-38.2-38.2v21.8c0 21.1 17.1 38.2 38.2 38.2z"/><path class="st1" d="M66.3 64.3C55.6 45.6 31.7 39.2 13.1 50l9.7 16.9c10.8 18.6 34.6 25 53.2 14.3z"/><path class="st0" d="M59.4 71.7C40.6 61.1 16.8 67.6 6 86.3l16.3 9.4c18.8 11 43 4.3 53.8-14.7zM214.9 36.2v42.3h-8.5V51l-11.3 27.5h-6.4L177.3 51v27.5h-8.5V36.2h9.6l13.5 31.5 13.5-31.5zM225.2 40.9c-1.5 0-2.7-.5-3.8-1.4q-1.5-1.5-1.5-3.6c0-2.1.5-2.6 1.5-3.5 1-1 2.3-1.5 3.8-1.5s2.7.5 3.7 1.5c1 .9 1.5 2.1 1.5 3.5s-.5 2.6-1.5 3.6-2.2 1.4-3.7 1.4m4.2 4v33.6h-8.5V44.9zM254 44.5c4 0 7.2 1.3 9.7 3.8s3.7 6 3.7 10.5v19.7h-8.5V60c0-2.7-.7-4.7-2-6.1-1.3-1.5-3.2-2.2-5.5-2.2s-4.2.7-5.6 2.2c-1.3 1.4-2 3.5-2 6.1v18.5h-8.5V44.9h8.5v4.2c1.1-1.5 2.6-2.6 4.3-3.4 1.8-.8 3.8-1.2 5.9-1.2M270.8 61.6c0-3.4.7-6.4 2-9 1.4-2.6 3.2-4.6 5.6-6.1 2.3-1.4 5-2.1 7.8-2.1 2.2 0 4.3.5 6.2 1.5 2 .9 3.6 2.2 4.7 3.8v-16h8.6v44.8h-8.6v-5c-1.1 1.7-2.5 3-4.4 4s-4.1 1.5-6.6 1.5c-2.8 0-5.4-.7-7.8-2.2-2.3-1.5-4.2-3.5-5.6-6.1-1.2-2.6-1.9-5.7-1.9-9.1m26.4.1c0-2.1-.4-3.8-1.2-5.3s-1.9-2.6-3.3-3.4-2.8-1.2-4.4-1.2-3 .4-4.4 1.2c-1.3.8-2.4 1.9-3.3 3.4-.8 1.5-1.2 3.2-1.2 5.2s.4 3.8 1.2 5.3 1.9 2.6 3.3 3.5c1.4.8 2.8 1.2 4.4 1.2s3-.4 4.4-1.2 2.5-1.9 3.3-3.4c.8-1.4 1.2-3.2 1.2-5.3M327 51.9h-5.9v26.6h-8.6V51.9h-3.8v-7h3.8v-1.7c0-4.1 1.2-7.2 3.5-9.1s5.9-2.8 10.6-2.7v7.2c-2.1 0-3.5.3-4.3 1s-1.2 2-1.2 3.9v1.4h5.9zM361.8 44.9v33.6h-8.5v-4.2c-1.1 1.5-2.5 2.6-4.3 3.5q-2.55 1.2-5.7 1.2c-2.6 0-4.9-.5-7-1.6-2-1.1-3.6-2.8-4.8-4.9-1.1-2.2-1.7-4.8-1.7-7.8V44.9h8.5v18.5c0 2.7.7 4.7 2 6.2 1.3 1.4 3.2 2.1 5.5 2.1s4.2-.7 5.5-2.1c1.3-1.5 2-3.5 2-6.2V44.9zM376.2 33.7v44.8h-8.5V33.7zM400.8 44.5c4 0 7.2 1.3 9.7 3.8s3.7 6 3.7 10.5v19.7h-8.5V60c0-2.7-.7-4.7-2-6.1-1.3-1.5-3.2-2.2-5.5-2.2s-4.2.7-5.6 2.2c-1.3 1.4-2 3.5-2 6.1v18.5h-8.5V44.9h8.5v4.2c1.1-1.5 2.6-2.6 4.3-3.4 1.9-.8 3.8-1.2 5.9-1.2M451 61c0 1.2-.1 2.3-.2 3.3h-24.5c.2 2.4 1.1 4.3 2.5 5.7 1.5 1.4 3.3 2.1 5.5 2.1 3.2 0 5.4-1.4 6.7-4.1h9.2c-1 3.2-2.8 5.9-5.6 8-2.7 2.1-6.1 3.1-10.1 3.1q-4.8 0-8.7-2.1c-2.5-1.5-4.5-3.5-6-6.1-1.4-2.6-2.1-5.7-2.1-9.1 0-3.5.7-6.5 2.1-9.2 1.4-2.6 3.4-4.6 5.9-6.1 2.5-1.4 5.5-2.1 8.8-2.1 3.2 0 6 .7 8.5 2.1s4.5 3.3 5.9 5.9c1.4 2.4 2.1 5.3 2.1 8.6m-8.7-2.4c0-2.2-.8-3.9-2.4-5.2-1.5-1.3-3.4-2-5.6-2-2.1 0-3.9.6-5.3 1.9s-2.3 3-2.6 5.3zM467.7 79.1c-2.7 0-5.2-.5-7.4-1.5s-3.9-2.4-5.2-4.1-1.9-3.6-2.1-5.6h8.5c.2 1.3.8 2.4 1.9 3.2s2.5 1.3 4.2 1.3c1.6 0 2.9-.3 3.8-1 .9-.6 1.4-1.5 1.4-2.5 0-1.1-.6-1.9-1.7-2.4-1.1-.6-2.8-1.2-5.3-1.8s-4.6-1.2-6.2-1.9c-1.6-.6-3-1.6-4.1-3-1.1-1.3-1.7-3.1-1.7-5.4 0-1.9.5-3.6 1.6-5.1s2.6-2.7 4.6-3.6 4.4-1.3 7.1-1.3q6 0 9.6 3c3.6 3 3.7 4.7 3.9 8.1h-8.1c-.1-1.3-.7-2.4-1.7-3.2s-2.3-1.2-3.9-1.2c-1.5 0-2.7.3-3.6.8q-1.2.9-1.2 2.4c0 1.1.6 2 1.7 2.6s2.9 1.2 5.3 1.8 4.4 1.2 6 1.9c1.6.6 2.9 1.7 4.1 3s1.8 3.1 1.8 5.3c0 1.9-.5 3.7-1.6 5.2s-2.6 2.7-4.6 3.6c-2.2.9-4.5 1.4-7.1 1.4M498.3 79.1c-2.7 0-5.2-.5-7.4-1.5s-3.9-2.4-5.2-4.1-1.9-3.6-2.1-5.6h8.5c.2 1.3.8 2.4 1.9 3.2s2.5 1.3 4.2 1.3c1.6 0 2.9-.3 3.8-1 .9-.6 1.4-1.5 1.4-2.5 0-1.1-.6-1.9-1.7-2.4-1.1-.6-2.8-1.2-5.3-1.8s-4.6-1.2-6.2-1.9c-1.6-.6-3-1.6-4.1-3-1.1-1.3-1.7-3.1-1.7-5.4 0-1.9.5-3.6 1.6-5.1s2.6-2.7 4.6-3.6 4.4-1.3 7.1-1.3q6 0 9.6 3c3.6 3 3.7 4.7 3.9 8.1H503c-.1-1.3-.7-2.4-1.7-3.2s-2.3-1.2-3.9-1.2c-1.5 0-2.7.3-3.6.8q-1.2.9-1.2 2.4c0 1.1.6 2 1.7 2.6s2.9 1.2 5.3 1.8 4.4 1.2 6 1.9c1.6.6 2.9 1.7 4.1 3s1.8 3.1 1.8 5.3c0 1.9-.5 3.7-1.6 5.2s-2.6 2.7-4.6 3.6c-2.1.9-4.4 1.4-7 1.4"/></svg>