<svg viewBox="0 0 96 96" xmlns="http://www.w3.org/2000/svg"><g data-name="Logo Design"><g fill="#ff2c63"><path d="M1 86.95h7.83v7.83H1zM1 .78h7.83v7.83H1z"/><circle cx="48" cy="90.86" r="3.92"/><circle cx="48" cy="4.7" r="3.92"/><circle cx="4.92" cy="47.78" r="3.92"/><circle cx="91.08" cy="47.78" r="3.92"/><path d="M87.17 86.95H95v7.83h-7.83zM87.17.78H95v7.83h-7.83z"/></g><path d="M59 16.75h-8.14l28.19 62.06h8.16zM45.47 33.58 34.81 57.07H43l6.58-14.51zM30 67.6l-5.07 11.21h8.17l5.08-11.21z" fill="#ff7342"/><path d="M50.85 16.74H40.09L11.9 78.82h13L30 67.6h30.9L66 78.82h13zm-16 40.33 10.66-23.5 10.67 23.5z" fill="#ffb942"/><path d="m14.71 72.61-2.81 6.21h13.03l2.81-6.21zM63.2 72.61l2.82 6.21h13.03l-2.82-6.21z" fill="#ff7342"/><path d="M40.09 16.74 11.9 78.82h7.5l28.19-62.08zM34.92 56.95h21.15v5.42H34.92z" fill="#ffe15b"/><path d="M95 9.83a1 1 0 0 0 1-1V1a1 1 0 0 0-1-1h-7.83a1 1 0 0 0-1 1v2.92H52.82a4.92 4.92 0 0 0-9.64 0H9.83V1a1 1 0 0 0-1-1H1a1 1 0 0 0-1 1v7.83a1 1 0 0 0 1 1h2.92v33.35a4.92 4.92 0 0 0 0 9.64v33.35H1a1 1 0 0 0-1 1V95a1 1 0 0 0 1 1h7.83a1 1 0 0 0 1-1v-2.92h33.35a4.92 4.92 0 0 0 9.64 0h33.35V95a1 1 0 0 0 1 1H95a1 1 0 0 0 1-1v-7.83a1 1 0 0 0-1-1h-2.92V52.82a4.92 4.92 0 0 0 0-9.64V9.83zM88.17 2H94v5.83h-5.83zM48 2a2.92 2.92 0 1 1-2.92 2.92A2.92 2.92 0 0 1 48 2M2 7.83V2h5.83v5.83zM2 48a2.92 2.92 0 1 1 2.92 2.92A2.92 2.92 0 0 1 2 48m5.83 46H2v-5.83h5.83zM48 94a2.92 2.92 0 1 1 2.92-2.92A2.92 2.92 0 0 1 48 94m46-5.83V94h-5.83v-5.83zM94 48a2.92 2.92 0 1 1-2.92-2.92A2.92 2.92 0 0 1 94 48m-3.92-4.82a4.93 4.93 0 0 0 0 9.64v33.35h-2.91a1 1 0 0 0-1 1v2.91H52.82a4.93 4.93 0 0 0-9.64 0H9.83v-2.91a1 1 0 0 0-1-1H5.92V52.82a4.93 4.93 0 0 0 0-9.64V9.83h2.91a1 1 0 0 0 1-1V5.92h33.35a4.93 4.93 0 0 0 9.64 0h33.35v2.91a1 1 0 0 0 1 1h2.91z" fill="#302d3d"/><path d="M60.57 18h3.2a1 1 0 0 0 0-2h-4.11l-.95-2.09a1 1 0 0 0-1.82.83l.58 1.26H41.64l.73-1.61a1 1 0 1 0-1.82-.83L39.44 16h-4.72a1 1 0 0 0 0 2h3.81l-17.4 38.29h-3.42a1 1 0 0 0 0 2h2.51c0 .1.64-1.42-9 19.75H8.83a1 1 0 1 0 0 2h1.51L9.48 82a1 1 0 1 0 1.82.82L12.54 80h24.57a1 1 0 0 0 0-2h-2.47l4.18-9.22h21.46l4.83 10.63A1 1 0 0 0 66 80h20.56l.51 1.13a1 1 0 1 0 1.82-.83zM32.46 78h-6l4.18-9.21h6zm34.21 0c-5.74-12.62-3.77-8.28-4.19-9.22h2a1 1 0 1 0 0-2H26a1 1 0 1 0 0 2h2.48c-.42.94 1.54-3.39-4.18 9.22H13.45c12.28-27 8.08-17.75 9-19.75h33.1L56.77 61a1 1 0 1 0 1.82-.82l-.84-1.86h2.14a1 1 0 0 0 0-2h-3l-12.12-26.6a1 1 0 0 0-1.32-.5 1 1 0 0 0-.5 1.32l1.45 3.19-10.24 22.56H23.33L40.73 18h9.48l27.28 60zM54.59 56.29H44.52l5-11.09zm-6.14-13.51-6.12 13.51h-6l9.11-20.07zM79.69 78 52.41 18h6l27.24 60z" fill="#302d3d"/><path d="M55.85 78h-13a1 1 0 0 0 0 2h13a1 1 0 1 0 0-2" fill="#302d3d"/></g></svg>