<svg viewBox="0 0 512 512" xmlns="http://www.w3.org/2000/svg"><path d="M76.952 239.426h-30c0-50.083 17.986-98.531 50.646-136.419 32.312-37.485 76.89-62.363 125.521-70.049l4.684 29.632c-41.628 6.58-79.8 27.89-107.482 60.004-27.967 32.444-43.369 73.936-43.369 116.832M465.033 239.426h-30c0-42.667-15.256-83.989-42.958-116.355C364.667 91.049 326.81 69.644 285.479 62.8l4.901-29.597c48.284 7.996 92.494 32.983 124.486 70.36 32.351 37.797 50.167 86.047 50.167 135.863" fill="#cee9f8"/><path d="M107.337 312.554H16.566v-90.771h90.771z" fill="#00ddc0"/><path d="M404.663 221.784h90.771v90.771h-90.771z" fill="#00ccb1"/><path d="M255.847 0h-45.386v90.771h45.386l15-45.386z" fill="#00ddc0"/><path d="M301.232 0h-45.385v90.771h45.385z" fill="#00ccb1"/><path d="m141.363 285.357 30.428 164.945h84.202l10.001-151.096-10.001-177.861z" fill="#72bbff"/><path d="M370.328 285.368 256 121.334l-.007.011v328.957h83.909z" fill="#3ba9ff"/><path d="M168.667 433.875V512h87.179l10.001-39.062-10.001-39.063z" fill="#e2e2eb"/><path d="M255.846 433.875h87.179V512h-87.179z" fill="#cfcfde"/><path d="M240.847 210.362v87.874c-14.417 5.911-24.575 20.078-24.575 36.624 0 21.856 17.718 39.574 39.574 39.574l7.249-85.467-7.249-78.605z" fill="#e2e2eb"/><path d="M270.847 298.236v-87.874h-15v164.072c21.856 0 39.575-17.718 39.575-39.574-.001-16.546-10.159-30.713-24.575-36.624" fill="#cfcfde"/></svg>