<svg height="512" viewBox="0 0 510.024 510.024" width="512" xmlns="http://www.w3.org/2000/svg"><path d="m415.155 222.575-63.936 63.936 32.445 86.647 63.935-63.936zM362.752 36.53l10.273 42.366 45.048 12.952 44.952-27.952 46.78-63.78C452.727 3.131 403.992 16.958 362.752 36.53" fill="#7f94fd"/><path d="m418.073 91.848 22.952 39.048 32.14 16.039c19.658-41.233 33.629-89.906 36.86-146.832l-.22.013z" fill="#6665ff"/><path d="m200.313 61.936-63.935 63.935 86.646 32.445 63.936-63.935z" fill="#98ccfe"/><path d="M362.752 36.53c-140.345 66.607-193.875 199.755-193.875 199.755l52.379 52.379 105.768-71.768 91.048-125.048z" fill="#e6f8fc"/><path d="m221.256 288.665 52.586 52.586s132.513-54.181 199.322-194.315l-55.091-55.088z" fill="#d0e8ff"/><path d="m84.796 488.667 57.974-57.974 21.21 21.21-57.974 57.974z" fill="#fcbe00"/><path d="m-.039 403.816 57.975-57.975 21.21 21.21-57.975 57.975z" fill="#ffdf40"/><path d="M154.615 288.758c-22.838 22.838-29.151 91.663-29.535 96.084l62.945-41.945 33.24-54.24c-18.443-18.33-48.251-18.299-66.65.101" fill="#ff8756"/><path d="M125.06 385.068s72.711-5.955 96.31-29.555c18.434-18.434 18.434-48.322 0-66.756-.035-.035-.071-.066-.106-.101l-96.185 96.185z" fill="#ff641a"/><path d="m19.799 468.909 10.607 10.606 32.618-22.619 21.122-31.121-10.607-10.606z" fill="#ffdf40"/><path d="m30.357 479.468 53.732-53.732 10.605 10.605-53.732 53.732z" fill="#fcbe00"/><path d="m341.812 146.896-21.213 21.213 10.606 10.607 11.819-3.82 9.394-17.393z" fill="#ffdf40"/><path d="m331.15 178.73 21.21-21.21 10.606 10.604-21.21 21.21z" fill="#fcbe00"/><path d="m256.418 204.719 24.392 24.392 15.214-3.215 5.999-17.998-24.392-24.392z" fill="#3869ad"/><path d="m280.756 229.12 21.21-21.21 24.595 24.595-21.21 21.21z" fill="#00447f"/></svg>