<svg xmlns="http://www.w3.org/2000/svg" viewBox="0 0 512 512" xml:space="preserve"><path d="M299.493 502h-90v-86h90zm-60-20h30v-36h-30z" fill="#8b8992"/><path fill="#57555c" d="M255.993 446h13.5v36h-13.5v20h43.5v-86h-43.5z"/><path d="M480.493 376h-449V136h449z" fill="#9bc9ff"/><path fill="#009ae5" d="M255.99 136h224.5v240h-224.5z"/><path fill="#005ece" d="M179.49 482h150v30h-150z"/><path d="M239.493 376h-90V171h90z" fill="#b87fd9"/><path d="M239.493 376h-45V171h45z" fill="#8034ad"/><path d="M289.686 131H98.301L59.39 0h57.243c20.439 0 44.228 7.314 62.86 20.502V0h149.103z" fill="#8b8992"/><path fill="#57555c" d="M328.596 0H193.993v131h95.693z"/><path d="M248.493 201h-108c-24.813 0-45-20.187-45-45v-55h198v55c0 24.813-20.187 45-45 45" fill="#e3cef0"/><path d="M194.493 101v100h54c24.813 0 45-20.187 45-45v-55z" fill="#d5b4e8"/><path d="M427.705 118.346c-9.131 0-18.141-2.394-26.261-7.082-12.189-7.038-20.909-18.401-24.551-31.997-3.643-13.595-1.774-27.795 5.264-39.984s18.401-20.908 31.997-24.551l50.898-13.638 13.637 50.898c3.643 13.595 1.774 27.795-5.264 39.984s-18.4 20.909-31.996 24.551a53 53 0 0 1-13.724 1.819" fill="#e0e0e2"/><path d="M478.688 51.992 465.051 1.094h-.001l-63.606 110.169c8.12 4.688 17.13 7.083 26.261 7.082 4.577 0 9.185-.602 13.724-1.818 13.595-3.643 24.958-12.362 31.996-24.551 7.037-12.189 8.906-26.389 5.263-39.984" fill="#acabb1"/><path d="m280.915 410.025-77.942-45 125-216.506 77.942 45z" fill="#ffe477"/><path fill="#ffa733" d="m280.912 410.022-38.97-22.5L366.94 171.027l38.97 22.499z"/><path d="m402.462 226.167-101.036-58.333 87.069-98.688 55.898 32.273z" fill="#ff9a00"/><path fill="#e67500" d="m444.393 101.419-27.949-16.136L351.944 197l50.518 29.167z"/><path d="M480.493 446h-449V346h449z" fill="#005ece"/><g fill="#003f8a"><path d="M255.99 346h224.5v100h-224.5zM254.49 482h75v30h-75z"/></g></svg>